<?xml version="1.0" encoding="utf-8" standalone="no"?>
<!DOCTYPE svg PUBLIC "-//W3C//DTD SVG 1.1//EN"
  "http://www.w3.org/Graphics/SVG/1.1/DTD/svg11.dtd">
<!-- Created with matplotlib (https://matplotlib.org/) -->
<svg height="360pt" version="1.1" viewBox="0 0 432 360" width="432pt" xmlns="http://www.w3.org/2000/svg" xmlns:xlink="http://www.w3.org/1999/xlink">
 <metadata>
  <rdf:RDF xmlns:cc="http://creativecommons.org/ns#" xmlns:dc="http://purl.org/dc/elements/1.1/" xmlns:rdf="http://www.w3.org/1999/02/22-rdf-syntax-ns#">
   <cc:Work>
    <dc:type rdf:resource="http://purl.org/dc/dcmitype/StillImage"/>
    <dc:date>2020-11-21T23:38:49.990148</dc:date>
    <dc:format>image/svg+xml</dc:format>
    <dc:creator>
     <cc:Agent>
      <dc:title>Matplotlib v3.3.2, https://matplotlib.org/</dc:title>
     </cc:Agent>
    </dc:creator>
   </cc:Work>
  </rdf:RDF>
 </metadata>
 <defs>
  <style type="text/css">*{stroke-linecap:butt;stroke-linejoin:round;}</style>
 </defs>
 <g id="figure_1">
  <g id="patch_1">
   <path d="M 0 360 
L 432 360 
L 432 0 
L 0 0 
z
" style="fill:#ffffff;"/>
  </g>
  <g id="axes_1">
   <g id="patch_2">
    <path d="M 50.06 314.44 
L 405.675 314.44 
L 405.675 12.96 
L 50.06 12.96 
z
" style="fill:#ffffff;"/>
   </g>
   <g id="matplotlib.axis_1">
    <g id="xtick_1">
     <g id="line2d_1">
      <defs>
       <path d="M 0 0 
L 0 3.5 
" id="m94b84c4324" style="stroke:#000000;stroke-width:0.8;"/>
      </defs>
      <g>
       <use style="stroke:#000000;stroke-width:0.8;" x="50.06" xlink:href="#m94b84c4324" y="314.44"/>
      </g>
     </g>
     <g id="text_1">
      <!-- 0.00 -->
      <g transform="translate(36.700625 330.558125)scale(0.12 -0.12)">
       <defs>
        <path d="M 31.78125 66.40625 
Q 24.171875 66.40625 20.328125 58.90625 
Q 16.5 51.421875 16.5 36.375 
Q 16.5 21.390625 20.328125 13.890625 
Q 24.171875 6.390625 31.78125 6.390625 
Q 39.453125 6.390625 43.28125 13.890625 
Q 47.125 21.390625 47.125 36.375 
Q 47.125 51.421875 43.28125 58.90625 
Q 39.453125 66.40625 31.78125 66.40625 
z
M 31.78125 74.21875 
Q 44.046875 74.21875 50.515625 64.515625 
Q 56.984375 54.828125 56.984375 36.375 
Q 56.984375 17.96875 50.515625 8.265625 
Q 44.046875 -1.421875 31.78125 -1.421875 
Q 19.53125 -1.421875 13.0625 8.265625 
Q 6.59375 17.96875 6.59375 36.375 
Q 6.59375 54.828125 13.0625 64.515625 
Q 19.53125 74.21875 31.78125 74.21875 
z
" id="DejaVuSans-48"/>
        <path d="M 10.6875 12.40625 
L 21 12.40625 
L 21 0 
L 10.6875 0 
z
" id="DejaVuSans-46"/>
       </defs>
       <use xlink:href="#DejaVuSans-48"/>
       <use x="63.623047" xlink:href="#DejaVuSans-46"/>
       <use x="95.410156" xlink:href="#DejaVuSans-48"/>
       <use x="159.033203" xlink:href="#DejaVuSans-48"/>
      </g>
     </g>
    </g>
    <g id="xtick_2">
     <g id="line2d_2">
      <g>
       <use style="stroke:#000000;stroke-width:0.8;" x="94.511875" xlink:href="#m94b84c4324" y="314.44"/>
      </g>
     </g>
     <g id="text_2">
      <!-- 0.02 -->
      <g transform="translate(81.1525 330.558125)scale(0.12 -0.12)">
       <defs>
        <path d="M 19.1875 8.296875 
L 53.609375 8.296875 
L 53.609375 0 
L 7.328125 0 
L 7.328125 8.296875 
Q 12.9375 14.109375 22.625 23.890625 
Q 32.328125 33.6875 34.8125 36.53125 
Q 39.546875 41.84375 41.421875 45.53125 
Q 43.3125 49.21875 43.3125 52.78125 
Q 43.3125 58.59375 39.234375 62.25 
Q 35.15625 65.921875 28.609375 65.921875 
Q 23.96875 65.921875 18.8125 64.3125 
Q 13.671875 62.703125 7.8125 59.421875 
L 7.8125 69.390625 
Q 13.765625 71.78125 18.9375 73 
Q 24.125 74.21875 28.421875 74.21875 
Q 39.75 74.21875 46.484375 68.546875 
Q 53.21875 62.890625 53.21875 53.421875 
Q 53.21875 48.921875 51.53125 44.890625 
Q 49.859375 40.875 45.40625 35.40625 
Q 44.1875 33.984375 37.640625 27.21875 
Q 31.109375 20.453125 19.1875 8.296875 
z
" id="DejaVuSans-50"/>
       </defs>
       <use xlink:href="#DejaVuSans-48"/>
       <use x="63.623047" xlink:href="#DejaVuSans-46"/>
       <use x="95.410156" xlink:href="#DejaVuSans-48"/>
       <use x="159.033203" xlink:href="#DejaVuSans-50"/>
      </g>
     </g>
    </g>
    <g id="xtick_3">
     <g id="line2d_3">
      <g>
       <use style="stroke:#000000;stroke-width:0.8;" x="138.96375" xlink:href="#m94b84c4324" y="314.44"/>
      </g>
     </g>
     <g id="text_3">
      <!-- 0.04 -->
      <g transform="translate(125.604375 330.558125)scale(0.12 -0.12)">
       <defs>
        <path d="M 37.796875 64.3125 
L 12.890625 25.390625 
L 37.796875 25.390625 
z
M 35.203125 72.90625 
L 47.609375 72.90625 
L 47.609375 25.390625 
L 58.015625 25.390625 
L 58.015625 17.1875 
L 47.609375 17.1875 
L 47.609375 0 
L 37.796875 0 
L 37.796875 17.1875 
L 4.890625 17.1875 
L 4.890625 26.703125 
z
" id="DejaVuSans-52"/>
       </defs>
       <use xlink:href="#DejaVuSans-48"/>
       <use x="63.623047" xlink:href="#DejaVuSans-46"/>
       <use x="95.410156" xlink:href="#DejaVuSans-48"/>
       <use x="159.033203" xlink:href="#DejaVuSans-52"/>
      </g>
     </g>
    </g>
    <g id="xtick_4">
     <g id="line2d_4">
      <g>
       <use style="stroke:#000000;stroke-width:0.8;" x="183.415625" xlink:href="#m94b84c4324" y="314.44"/>
      </g>
     </g>
     <g id="text_4">
      <!-- 0.06 -->
      <g transform="translate(170.05625 330.558125)scale(0.12 -0.12)">
       <defs>
        <path d="M 33.015625 40.375 
Q 26.375 40.375 22.484375 35.828125 
Q 18.609375 31.296875 18.609375 23.390625 
Q 18.609375 15.53125 22.484375 10.953125 
Q 26.375 6.390625 33.015625 6.390625 
Q 39.65625 6.390625 43.53125 10.953125 
Q 47.40625 15.53125 47.40625 23.390625 
Q 47.40625 31.296875 43.53125 35.828125 
Q 39.65625 40.375 33.015625 40.375 
z
M 52.59375 71.296875 
L 52.59375 62.3125 
Q 48.875 64.0625 45.09375 64.984375 
Q 41.3125 65.921875 37.59375 65.921875 
Q 27.828125 65.921875 22.671875 59.328125 
Q 17.53125 52.734375 16.796875 39.40625 
Q 19.671875 43.65625 24.015625 45.921875 
Q 28.375 48.1875 33.59375 48.1875 
Q 44.578125 48.1875 50.953125 41.515625 
Q 57.328125 34.859375 57.328125 23.390625 
Q 57.328125 12.15625 50.6875 5.359375 
Q 44.046875 -1.421875 33.015625 -1.421875 
Q 20.359375 -1.421875 13.671875 8.265625 
Q 6.984375 17.96875 6.984375 36.375 
Q 6.984375 53.65625 15.1875 63.9375 
Q 23.390625 74.21875 37.203125 74.21875 
Q 40.921875 74.21875 44.703125 73.484375 
Q 48.484375 72.75 52.59375 71.296875 
z
" id="DejaVuSans-54"/>
       </defs>
       <use xlink:href="#DejaVuSans-48"/>
       <use x="63.623047" xlink:href="#DejaVuSans-46"/>
       <use x="95.410156" xlink:href="#DejaVuSans-48"/>
       <use x="159.033203" xlink:href="#DejaVuSans-54"/>
      </g>
     </g>
    </g>
    <g id="xtick_5">
     <g id="line2d_5">
      <g>
       <use style="stroke:#000000;stroke-width:0.8;" x="227.8675" xlink:href="#m94b84c4324" y="314.44"/>
      </g>
     </g>
     <g id="text_5">
      <!-- 0.08 -->
      <g transform="translate(214.508125 330.558125)scale(0.12 -0.12)">
       <defs>
        <path d="M 31.78125 34.625 
Q 24.75 34.625 20.71875 30.859375 
Q 16.703125 27.09375 16.703125 20.515625 
Q 16.703125 13.921875 20.71875 10.15625 
Q 24.75 6.390625 31.78125 6.390625 
Q 38.8125 6.390625 42.859375 10.171875 
Q 46.921875 13.96875 46.921875 20.515625 
Q 46.921875 27.09375 42.890625 30.859375 
Q 38.875 34.625 31.78125 34.625 
z
M 21.921875 38.8125 
Q 15.578125 40.375 12.03125 44.71875 
Q 8.5 49.078125 8.5 55.328125 
Q 8.5 64.0625 14.71875 69.140625 
Q 20.953125 74.21875 31.78125 74.21875 
Q 42.671875 74.21875 48.875 69.140625 
Q 55.078125 64.0625 55.078125 55.328125 
Q 55.078125 49.078125 51.53125 44.71875 
Q 48 40.375 41.703125 38.8125 
Q 48.828125 37.15625 52.796875 32.3125 
Q 56.78125 27.484375 56.78125 20.515625 
Q 56.78125 9.90625 50.3125 4.234375 
Q 43.84375 -1.421875 31.78125 -1.421875 
Q 19.734375 -1.421875 13.25 4.234375 
Q 6.78125 9.90625 6.78125 20.515625 
Q 6.78125 27.484375 10.78125 32.3125 
Q 14.796875 37.15625 21.921875 38.8125 
z
M 18.3125 54.390625 
Q 18.3125 48.734375 21.84375 45.5625 
Q 25.390625 42.390625 31.78125 42.390625 
Q 38.140625 42.390625 41.71875 45.5625 
Q 45.3125 48.734375 45.3125 54.390625 
Q 45.3125 60.0625 41.71875 63.234375 
Q 38.140625 66.40625 31.78125 66.40625 
Q 25.390625 66.40625 21.84375 63.234375 
Q 18.3125 60.0625 18.3125 54.390625 
z
" id="DejaVuSans-56"/>
       </defs>
       <use xlink:href="#DejaVuSans-48"/>
       <use x="63.623047" xlink:href="#DejaVuSans-46"/>
       <use x="95.410156" xlink:href="#DejaVuSans-48"/>
       <use x="159.033203" xlink:href="#DejaVuSans-56"/>
      </g>
     </g>
    </g>
    <g id="xtick_6">
     <g id="line2d_6">
      <g>
       <use style="stroke:#000000;stroke-width:0.8;" x="272.319375" xlink:href="#m94b84c4324" y="314.44"/>
      </g>
     </g>
     <g id="text_6">
      <!-- 0.10 -->
      <g transform="translate(258.96 330.558125)scale(0.12 -0.12)">
       <defs>
        <path d="M 12.40625 8.296875 
L 28.515625 8.296875 
L 28.515625 63.921875 
L 10.984375 60.40625 
L 10.984375 69.390625 
L 28.421875 72.90625 
L 38.28125 72.90625 
L 38.28125 8.296875 
L 54.390625 8.296875 
L 54.390625 0 
L 12.40625 0 
z
" id="DejaVuSans-49"/>
       </defs>
       <use xlink:href="#DejaVuSans-48"/>
       <use x="63.623047" xlink:href="#DejaVuSans-46"/>
       <use x="95.410156" xlink:href="#DejaVuSans-49"/>
       <use x="159.033203" xlink:href="#DejaVuSans-48"/>
      </g>
     </g>
    </g>
    <g id="xtick_7">
     <g id="line2d_7">
      <g>
       <use style="stroke:#000000;stroke-width:0.8;" x="316.77125" xlink:href="#m94b84c4324" y="314.44"/>
      </g>
     </g>
     <g id="text_7">
      <!-- 0.12 -->
      <g transform="translate(303.411875 330.558125)scale(0.12 -0.12)">
       <use xlink:href="#DejaVuSans-48"/>
       <use x="63.623047" xlink:href="#DejaVuSans-46"/>
       <use x="95.410156" xlink:href="#DejaVuSans-49"/>
       <use x="159.033203" xlink:href="#DejaVuSans-50"/>
      </g>
     </g>
    </g>
    <g id="xtick_8">
     <g id="line2d_8">
      <g>
       <use style="stroke:#000000;stroke-width:0.8;" x="361.223125" xlink:href="#m94b84c4324" y="314.44"/>
      </g>
     </g>
     <g id="text_8">
      <!-- 0.14 -->
      <g transform="translate(347.86375 330.558125)scale(0.12 -0.12)">
       <use xlink:href="#DejaVuSans-48"/>
       <use x="63.623047" xlink:href="#DejaVuSans-46"/>
       <use x="95.410156" xlink:href="#DejaVuSans-49"/>
       <use x="159.033203" xlink:href="#DejaVuSans-52"/>
      </g>
     </g>
    </g>
    <g id="xtick_9">
     <g id="line2d_9">
      <g>
       <use style="stroke:#000000;stroke-width:0.8;" x="405.675" xlink:href="#m94b84c4324" y="314.44"/>
      </g>
     </g>
     <g id="text_9">
      <!-- 0.16 -->
      <g transform="translate(392.315625 330.558125)scale(0.12 -0.12)">
       <use xlink:href="#DejaVuSans-48"/>
       <use x="63.623047" xlink:href="#DejaVuSans-46"/>
       <use x="95.410156" xlink:href="#DejaVuSans-49"/>
       <use x="159.033203" xlink:href="#DejaVuSans-54"/>
      </g>
     </g>
    </g>
    <g id="text_10">
     <!-- CAGR -->
     <g transform="translate(210.755312 346.171875)scale(0.12 -0.12)">
      <defs>
       <path d="M 64.40625 67.28125 
L 64.40625 56.890625 
Q 59.421875 61.53125 53.78125 63.8125 
Q 48.140625 66.109375 41.796875 66.109375 
Q 29.296875 66.109375 22.65625 58.46875 
Q 16.015625 50.828125 16.015625 36.375 
Q 16.015625 21.96875 22.65625 14.328125 
Q 29.296875 6.6875 41.796875 6.6875 
Q 48.140625 6.6875 53.78125 8.984375 
Q 59.421875 11.28125 64.40625 15.921875 
L 64.40625 5.609375 
Q 59.234375 2.09375 53.4375 0.328125 
Q 47.65625 -1.421875 41.21875 -1.421875 
Q 24.65625 -1.421875 15.125 8.703125 
Q 5.609375 18.84375 5.609375 36.375 
Q 5.609375 53.953125 15.125 64.078125 
Q 24.65625 74.21875 41.21875 74.21875 
Q 47.75 74.21875 53.53125 72.484375 
Q 59.328125 70.75 64.40625 67.28125 
z
" id="DejaVuSans-67"/>
       <path d="M 34.1875 63.1875 
L 20.796875 26.90625 
L 47.609375 26.90625 
z
M 28.609375 72.90625 
L 39.796875 72.90625 
L 67.578125 0 
L 57.328125 0 
L 50.6875 18.703125 
L 17.828125 18.703125 
L 11.1875 0 
L 0.78125 0 
z
" id="DejaVuSans-65"/>
       <path d="M 44.390625 34.1875 
Q 47.5625 33.109375 50.5625 29.59375 
Q 53.5625 26.078125 56.59375 19.921875 
L 66.609375 0 
L 56 0 
L 46.6875 18.703125 
Q 43.0625 26.03125 39.671875 28.421875 
Q 36.28125 30.8125 30.421875 30.8125 
L 19.671875 30.8125 
L 19.671875 0 
L 9.8125 0 
L 9.8125 72.90625 
L 32.078125 72.90625 
Q 44.578125 72.90625 50.734375 67.671875 
Q 56.890625 62.453125 56.890625 51.90625 
Q 56.890625 45.015625 53.6875 40.46875 
Q 50.484375 35.9375 44.390625 34.1875 
z
M 19.671875 64.796875 
L 19.671875 38.921875 
L 32.078125 38.921875 
Q 39.203125 38.921875 42.84375 42.21875 
Q 46.484375 45.515625 46.484375 51.90625 
Q 46.484375 58.296875 42.84375 61.546875 
Q 39.203125 64.796875 32.078125 64.796875 
z
" id="DejaVuSans-82"/>
       <path d="M 59.515625 10.40625 
L 59.515625 29.984375 
L 43.40625 29.984375 
L 43.40625 38.09375 
L 69.28125 38.09375 
L 69.28125 6.78125 
Q 63.578125 2.734375 56.6875 0.65625 
Q 49.8125 -1.421875 42 -1.421875 
Q 24.90625 -1.421875 15.25 8.5625 
Q 5.609375 18.5625 5.609375 36.375 
Q 5.609375 54.25 15.25 64.234375 
Q 24.90625 74.21875 42 74.21875 
Q 49.125 74.21875 55.546875 72.453125 
Q 61.96875 70.703125 67.390625 67.28125 
L 67.390625 56.78125 
Q 61.921875 61.421875 55.765625 63.765625 
Q 49.609375 66.109375 42.828125 66.109375 
Q 29.4375 66.109375 22.71875 58.640625 
Q 16.015625 51.171875 16.015625 36.375 
Q 16.015625 21.625 22.71875 14.15625 
Q 29.4375 6.6875 42.828125 6.6875 
Q 48.046875 6.6875 52.140625 7.59375 
Q 56.25 8.5 59.515625 10.40625 
z
" id="DejaVuSans-71"/>
      </defs>
      <use xlink:href="#DejaVuSans-67"/>
      <use x="69.824219" xlink:href="#DejaVuSans-65"/>
      <use x="138.232422" xlink:href="#DejaVuSans-82"/>
      <use x="207.714844" xlink:href="#DejaVuSans-71"/>
     </g>
    </g>
   </g>
   <g id="matplotlib.axis_2">
    <g id="ytick_1">
     <g id="line2d_10">
      <defs>
       <path d="M 0 0 
L -3.5 0 
" id="m5b1e0b4bd7" style="stroke:#000000;stroke-width:0.8;"/>
      </defs>
      <g>
       <use style="stroke:#000000;stroke-width:0.8;" x="50.06" xlink:href="#m5b1e0b4bd7" y="314.44"/>
      </g>
     </g>
     <g id="text_11">
      <!-- 0 -->
      <g transform="translate(35.425 318.999063)scale(0.12 -0.12)">
       <use xlink:href="#DejaVuSans-48"/>
      </g>
     </g>
    </g>
    <g id="ytick_2">
     <g id="line2d_11">
      <g>
       <use style="stroke:#000000;stroke-width:0.8;" x="50.06" xlink:href="#m5b1e0b4bd7" y="256.463077"/>
      </g>
     </g>
     <g id="text_12">
      <!-- 5 -->
      <g transform="translate(35.425 261.022139)scale(0.12 -0.12)">
       <defs>
        <path d="M 10.796875 72.90625 
L 49.515625 72.90625 
L 49.515625 64.59375 
L 19.828125 64.59375 
L 19.828125 46.734375 
Q 21.96875 47.46875 24.109375 47.828125 
Q 26.265625 48.1875 28.421875 48.1875 
Q 40.625 48.1875 47.75 41.5 
Q 54.890625 34.8125 54.890625 23.390625 
Q 54.890625 11.625 47.5625 5.09375 
Q 40.234375 -1.421875 26.90625 -1.421875 
Q 22.3125 -1.421875 17.546875 -0.640625 
Q 12.796875 0.140625 7.71875 1.703125 
L 7.71875 11.625 
Q 12.109375 9.234375 16.796875 8.0625 
Q 21.484375 6.890625 26.703125 6.890625 
Q 35.15625 6.890625 40.078125 11.328125 
Q 45.015625 15.765625 45.015625 23.390625 
Q 45.015625 31 40.078125 35.4375 
Q 35.15625 39.890625 26.703125 39.890625 
Q 22.75 39.890625 18.8125 39.015625 
Q 14.890625 38.140625 10.796875 36.28125 
z
" id="DejaVuSans-53"/>
       </defs>
       <use xlink:href="#DejaVuSans-53"/>
      </g>
     </g>
    </g>
    <g id="ytick_3">
     <g id="line2d_12">
      <g>
       <use style="stroke:#000000;stroke-width:0.8;" x="50.06" xlink:href="#m5b1e0b4bd7" y="198.486154"/>
      </g>
     </g>
     <g id="text_13">
      <!-- 10 -->
      <g transform="translate(27.79 203.045216)scale(0.12 -0.12)">
       <use xlink:href="#DejaVuSans-49"/>
       <use x="63.623047" xlink:href="#DejaVuSans-48"/>
      </g>
     </g>
    </g>
    <g id="ytick_4">
     <g id="line2d_13">
      <g>
       <use style="stroke:#000000;stroke-width:0.8;" x="50.06" xlink:href="#m5b1e0b4bd7" y="140.509231"/>
      </g>
     </g>
     <g id="text_14">
      <!-- 15 -->
      <g transform="translate(27.79 145.068293)scale(0.12 -0.12)">
       <use xlink:href="#DejaVuSans-49"/>
       <use x="63.623047" xlink:href="#DejaVuSans-53"/>
      </g>
     </g>
    </g>
    <g id="ytick_5">
     <g id="line2d_14">
      <g>
       <use style="stroke:#000000;stroke-width:0.8;" x="50.06" xlink:href="#m5b1e0b4bd7" y="82.532308"/>
      </g>
     </g>
     <g id="text_15">
      <!-- 20 -->
      <g transform="translate(27.79 87.09137)scale(0.12 -0.12)">
       <use xlink:href="#DejaVuSans-50"/>
       <use x="63.623047" xlink:href="#DejaVuSans-48"/>
      </g>
     </g>
    </g>
    <g id="ytick_6">
     <g id="line2d_15">
      <g>
       <use style="stroke:#000000;stroke-width:0.8;" x="50.06" xlink:href="#m5b1e0b4bd7" y="24.555385"/>
      </g>
     </g>
     <g id="text_16">
      <!-- 25 -->
      <g transform="translate(27.79 29.114447)scale(0.12 -0.12)">
       <use xlink:href="#DejaVuSans-50"/>
       <use x="63.623047" xlink:href="#DejaVuSans-53"/>
      </g>
     </g>
    </g>
    <g id="text_17">
     <!-- Arbitrær værdi -->
     <g transform="translate(21.294375 208.110313)rotate(-90)scale(0.12 -0.12)">
      <defs>
       <path d="M 41.109375 46.296875 
Q 39.59375 47.171875 37.8125 47.578125 
Q 36.03125 48 33.890625 48 
Q 26.265625 48 22.1875 43.046875 
Q 18.109375 38.09375 18.109375 28.8125 
L 18.109375 0 
L 9.078125 0 
L 9.078125 54.6875 
L 18.109375 54.6875 
L 18.109375 46.1875 
Q 20.953125 51.171875 25.484375 53.578125 
Q 30.03125 56 36.53125 56 
Q 37.453125 56 38.578125 55.875 
Q 39.703125 55.765625 41.0625 55.515625 
z
" id="DejaVuSans-114"/>
       <path d="M 48.6875 27.296875 
Q 48.6875 37.203125 44.609375 42.84375 
Q 40.53125 48.484375 33.40625 48.484375 
Q 26.265625 48.484375 22.1875 42.84375 
Q 18.109375 37.203125 18.109375 27.296875 
Q 18.109375 17.390625 22.1875 11.75 
Q 26.265625 6.109375 33.40625 6.109375 
Q 40.53125 6.109375 44.609375 11.75 
Q 48.6875 17.390625 48.6875 27.296875 
z
M 18.109375 46.390625 
Q 20.953125 51.265625 25.265625 53.625 
Q 29.59375 56 35.59375 56 
Q 45.5625 56 51.78125 48.09375 
Q 58.015625 40.1875 58.015625 27.296875 
Q 58.015625 14.40625 51.78125 6.484375 
Q 45.5625 -1.421875 35.59375 -1.421875 
Q 29.59375 -1.421875 25.265625 0.953125 
Q 20.953125 3.328125 18.109375 8.203125 
L 18.109375 0 
L 9.078125 0 
L 9.078125 75.984375 
L 18.109375 75.984375 
z
" id="DejaVuSans-98"/>
       <path d="M 9.421875 54.6875 
L 18.40625 54.6875 
L 18.40625 0 
L 9.421875 0 
z
M 9.421875 75.984375 
L 18.40625 75.984375 
L 18.40625 64.59375 
L 9.421875 64.59375 
z
" id="DejaVuSans-105"/>
       <path d="M 18.3125 70.21875 
L 18.3125 54.6875 
L 36.8125 54.6875 
L 36.8125 47.703125 
L 18.3125 47.703125 
L 18.3125 18.015625 
Q 18.3125 11.328125 20.140625 9.421875 
Q 21.96875 7.515625 27.59375 7.515625 
L 36.8125 7.515625 
L 36.8125 0 
L 27.59375 0 
Q 17.1875 0 13.234375 3.875 
Q 9.28125 7.765625 9.28125 18.015625 
L 9.28125 47.703125 
L 2.6875 47.703125 
L 2.6875 54.6875 
L 9.28125 54.6875 
L 9.28125 70.21875 
z
" id="DejaVuSans-116"/>
       <path d="M 83.890625 32.234375 
Q 83.84375 39.59375 79.8125 43.984375 
Q 75.78125 48.390625 69.09375 48.390625 
Q 61.625 48.390625 57.109375 44.140625 
Q 52.59375 39.890625 51.90625 32.171875 
z
M 48.578125 47.015625 
Q 52.203125 51.421875 57.375 53.703125 
Q 62.546875 56 69 56 
Q 80.03125 56 86.46875 48.890625 
Q 92.921875 41.796875 92.921875 29.59375 
L 92.921875 25.203125 
L 51.609375 25.203125 
Q 52.203125 15.875 57.171875 10.984375 
Q 62.15625 6.109375 71.09375 6.109375 
Q 76.171875 6.109375 81.046875 7.390625 
Q 85.9375 8.6875 90.828125 11.28125 
L 90.828125 2.78125 
Q 85.9375 0.734375 80.859375 -0.34375 
Q 75.78125 -1.421875 70.609375 -1.421875 
Q 62.453125 -1.421875 56.390625 1.53125 
Q 50.34375 4.5 46.578125 10.296875 
Q 43.015625 4.4375 37.734375 1.5 
Q 32.46875 -1.421875 25.484375 -1.421875 
Q 16.265625 -1.421875 11.125 3.140625 
Q 6 7.71875 6 15.921875 
Q 6 25.140625 12.171875 29.828125 
Q 18.359375 34.515625 30.609375 34.515625 
L 43.21875 34.515625 
L 43.21875 35.40625 
Q 43.21875 41.609375 39.140625 45 
Q 35.0625 48.390625 27.6875 48.390625 
Q 23 48.390625 18.546875 47.265625 
Q 14.109375 46.140625 10.015625 43.890625 
L 10.015625 52.203125 
Q 14.9375 54.109375 19.578125 55.046875 
Q 24.21875 56 28.609375 56 
Q 35.546875 56 40.75 53.65625 
Q 45.953125 51.3125 48.578125 47.015625 
z
M 34.28125 27.484375 
Q 23.390625 27.484375 19.1875 25 
Q 14.984375 22.515625 14.984375 16.5 
Q 14.984375 11.71875 18.140625 8.90625 
Q 21.296875 6.109375 26.703125 6.109375 
Q 34.1875 6.109375 38.703125 11.40625 
Q 43.21875 16.703125 43.21875 25.484375 
L 43.21875 27.484375 
z
" id="DejaVuSans-230"/>
       <path id="DejaVuSans-32"/>
       <path d="M 2.984375 54.6875 
L 12.5 54.6875 
L 29.59375 8.796875 
L 46.6875 54.6875 
L 56.203125 54.6875 
L 35.6875 0 
L 23.484375 0 
z
" id="DejaVuSans-118"/>
       <path d="M 45.40625 46.390625 
L 45.40625 75.984375 
L 54.390625 75.984375 
L 54.390625 0 
L 45.40625 0 
L 45.40625 8.203125 
Q 42.578125 3.328125 38.25 0.953125 
Q 33.9375 -1.421875 27.875 -1.421875 
Q 17.96875 -1.421875 11.734375 6.484375 
Q 5.515625 14.40625 5.515625 27.296875 
Q 5.515625 40.1875 11.734375 48.09375 
Q 17.96875 56 27.875 56 
Q 33.9375 56 38.25 53.625 
Q 42.578125 51.265625 45.40625 46.390625 
z
M 14.796875 27.296875 
Q 14.796875 17.390625 18.875 11.75 
Q 22.953125 6.109375 30.078125 6.109375 
Q 37.203125 6.109375 41.296875 11.75 
Q 45.40625 17.390625 45.40625 27.296875 
Q 45.40625 37.203125 41.296875 42.84375 
Q 37.203125 48.484375 30.078125 48.484375 
Q 22.953125 48.484375 18.875 42.84375 
Q 14.796875 37.203125 14.796875 27.296875 
z
" id="DejaVuSans-100"/>
      </defs>
      <use xlink:href="#DejaVuSans-65"/>
      <use x="68.408203" xlink:href="#DejaVuSans-114"/>
      <use x="109.521484" xlink:href="#DejaVuSans-98"/>
      <use x="172.998047" xlink:href="#DejaVuSans-105"/>
      <use x="200.78125" xlink:href="#DejaVuSans-116"/>
      <use x="239.990234" xlink:href="#DejaVuSans-114"/>
      <use x="281.103516" xlink:href="#DejaVuSans-230"/>
      <use x="379.296875" xlink:href="#DejaVuSans-114"/>
      <use x="420.410156" xlink:href="#DejaVuSans-32"/>
      <use x="452.197266" xlink:href="#DejaVuSans-118"/>
      <use x="511.376953" xlink:href="#DejaVuSans-230"/>
      <use x="609.570312" xlink:href="#DejaVuSans-114"/>
      <use x="648.933594" xlink:href="#DejaVuSans-100"/>
      <use x="712.410156" xlink:href="#DejaVuSans-105"/>
     </g>
    </g>
   </g>
   <g id="line2d_16">
    <path clip-path="url(#p968f554dd0)" d="M 50.06 314.44 
L 105.457312 314.348193 
L 109.031332 314.085525 
L 110.818342 313.788342 
L 112.605352 313.293658 
L 114.392362 312.509754 
L 116.179372 311.32754 
L 117.966382 309.631215 
L 119.753392 307.315806 
L 121.540402 304.309242 
L 123.327412 300.5936 
L 125.114422 296.217999 
L 126.901432 291.295708 
L 130.475452 280.430732 
L 134.049472 268.960874 
L 135.836482 262.964051 
L 137.623492 256.562487 
L 139.410503 249.49182 
L 141.197513 241.476932 
L 142.984523 232.285718 
L 144.771533 221.763712 
L 146.558543 209.840474 
L 148.345553 196.511877 
L 150.132563 181.814256 
L 151.919573 165.810872 
L 155.493593 130.385302 
L 160.854623 73.826045 
L 162.641633 56.651724 
L 164.428643 41.793891 
L 166.215653 30.134313 
L 168.002663 22.387255 
L 169.789673 19.000723 
L 171.576683 20.096489 
L 173.363693 25.456467 
L 175.150704 34.554205 
L 176.937714 46.624173 
L 178.724724 60.757682 
L 184.085754 106.547088 
L 185.872764 120.609113 
L 187.659774 133.421836 
L 189.446784 144.914599 
L 191.233794 155.176597 
L 193.020804 164.39699 
L 194.807814 172.804497 
L 198.381834 187.98824 
L 201.955854 201.613323 
L 203.742864 207.677582 
L 205.529874 212.923449 
L 207.316884 216.989888 
L 209.103894 219.467548 
L 210.890905 219.962375 
L 212.677915 218.170461 
L 214.464925 213.950658 
L 216.251935 207.378731 
L 218.038945 198.768292 
L 219.825955 188.649867 
L 225.186985 156.328745 
L 226.973995 147.202911 
L 228.761005 139.746731 
L 230.548015 134.206048 
L 232.335025 130.668154 
L 234.122035 129.10402 
L 235.909045 129.411249 
L 237.696055 131.444156 
L 239.483065 135.026916 
L 241.270075 139.955244 
L 243.057085 145.996867 
L 244.844095 152.899481 
L 248.418116 168.289915 
L 255.566156 200.252647 
L 259.140176 214.911154 
L 260.927186 221.490475 
L 262.714196 227.382843 
L 264.501206 232.475073 
L 266.288216 236.709725 
L 268.075226 240.104075 
L 269.862236 242.752604 
L 271.649246 244.811699 
L 273.436256 246.471017 
L 280.584296 252.319987 
L 287.732337 258.830825 
L 289.519347 260.125688 
L 291.306357 261.128921 
L 293.093367 261.812096 
L 294.880377 262.198904 
L 298.454397 262.44958 
L 300.241407 262.59262 
L 302.028417 262.944562 
L 303.815427 263.614226 
L 305.602437 264.649982 
L 307.389447 266.032549 
L 309.176457 267.684941 
L 314.537487 273.122839 
L 316.324497 274.755384 
L 318.111508 276.187141 
L 319.898518 277.380416 
L 321.685528 278.299018 
L 323.472538 278.896196 
L 325.259548 279.110157 
L 327.046558 278.870172 
L 328.833568 278.113189 
L 330.620578 276.807665 
L 332.407588 274.978761 
L 334.194598 272.727808 
L 337.768618 267.772913 
L 339.555628 265.635398 
L 341.342638 264.143856 
L 343.129648 263.57937 
L 344.916658 264.1443 
L 346.703668 265.930001 
L 348.490678 268.901427 
L 350.277688 272.90149 
L 352.064698 277.674116 
L 357.425729 293.400862 
L 359.212739 298.11027 
L 360.999749 302.203781 
L 362.786759 305.595716 
L 364.573769 308.2787 
L 366.360779 310.306279 
L 368.147789 311.770971 
L 369.934799 312.782654 
L 371.721809 313.450886 
L 373.508819 313.87298 
L 377.082839 314.275204 
L 382.443869 314.421136 
L 403.88799 314.44 
L 405.675 314.44 
L 405.675 314.44 
" style="fill:none;stroke:#1f77b4;stroke-linecap:square;stroke-width:4;"/>
   </g>
   <g id="line2d_17">
    <path clip-path="url(#p968f554dd0)" d="M 50.06 314.44 
L 105.457312 314.367152 
L 109.031332 314.143669 
L 110.818342 313.881967 
L 112.605352 313.435924 
L 114.392362 312.713395 
L 116.179372 311.601627 
L 117.966382 309.977514 
L 119.753392 307.726205 
L 121.540402 304.766238 
L 123.327412 301.075583 
L 125.114422 296.709803 
L 126.901432 291.802695 
L 132.262462 275.701268 
L 135.836482 264.82667 
L 137.623492 259.039882 
L 139.410503 252.617216 
L 141.197513 245.218625 
L 142.984523 236.563463 
L 144.771533 226.483152 
L 146.558543 214.934794 
L 148.345553 201.975879 
L 150.132563 187.717495 
L 151.919573 172.283059 
L 155.493593 138.410985 
L 162.641633 66.916107 
L 164.428643 51.671246 
L 166.215653 39.068461 
L 168.002663 29.830659 
L 169.789673 24.479396 
L 171.576683 23.262813 
L 173.363693 26.118884 
L 175.150704 32.678794 
L 176.937714 42.312124 
L 178.724724 54.210437 
L 182.298744 81.347214 
L 185.872764 108.222506 
L 187.659774 120.519828 
L 189.446784 131.902643 
L 191.233794 142.434527 
L 194.807814 161.525536 
L 198.381834 178.988364 
L 201.955854 195.285032 
L 203.742864 202.674047 
L 205.529874 209.101401 
L 207.316884 214.073043 
L 209.103894 217.048892 
L 210.890905 217.542785 
L 212.677915 215.232352 
L 214.464925 210.051933 
L 216.251935 202.242736 
L 218.038945 192.343462 
L 225.186985 148.053835 
L 226.973995 139.56901 
L 228.761005 133.034526 
L 230.548015 128.573247 
L 232.335025 126.187128 
L 234.122035 125.810978 
L 235.909045 127.341401 
L 237.696055 130.637466 
L 239.483065 135.505388 
L 241.270075 141.686931 
L 243.057085 148.867305 
L 246.631106 164.882012 
L 251.992136 189.184334 
L 255.566156 204.049841 
L 257.353166 210.84729 
L 259.140176 217.080589 
L 260.927186 222.632416 
L 262.714196 227.412647 
L 264.501206 231.391678 
L 266.288216 234.62036 
L 268.075226 237.228552 
L 269.862236 239.402497 
L 275.223266 245.252893 
L 278.797286 249.734132 
L 282.371307 254.536029 
L 284.158317 256.77305 
L 285.945327 258.720591 
L 287.732337 260.265304 
L 289.519347 261.338181 
L 291.306357 261.933428 
L 293.093367 262.118984 
L 298.454397 261.81791 
L 300.241407 262.069885 
L 302.028417 262.735129 
L 303.815427 263.843972 
L 305.602437 265.343814 
L 309.176457 269.029015 
L 312.750477 272.703409 
L 314.537487 274.266795 
L 316.324497 275.558067 
L 318.111508 276.525442 
L 319.898518 277.112045 
L 321.685528 277.249692 
L 323.472538 276.865523 
L 325.259548 275.90169 
L 327.046558 274.343657 
L 328.833568 272.249076 
L 334.194598 264.700408 
L 335.981608 262.794722 
L 337.768618 261.77202 
L 339.555628 261.907322 
L 341.342638 263.359449 
L 343.129648 266.14297 
L 344.916658 270.124433 
L 346.703668 275.043303 
L 353.851709 296.952133 
L 355.638719 301.405349 
L 357.425729 305.089966 
L 359.212739 307.991224 
L 360.999749 310.167215 
L 362.786759 311.722583 
L 364.573769 312.782399 
L 366.360779 313.470887 
L 368.147789 313.897302 
L 371.721809 314.290789 
L 377.082839 314.424628 
L 402.10098 314.44 
L 405.675 314.44 
L 405.675 314.44 
" style="fill:none;stroke:#ff7f0e;stroke-linecap:square;stroke-opacity:0.925;stroke-width:4;"/>
   </g>
   <g id="line2d_18">
    <path clip-path="url(#p968f554dd0)" d="M 50.06 314.44 
L 105.457312 314.38471 
L 109.031332 314.1956 
L 110.818342 313.962773 
L 112.605352 313.552744 
L 114.392362 312.868991 
L 116.179372 311.789947 
L 117.966382 310.179431 
L 119.753392 307.907524 
L 121.540402 304.880316 
L 123.327412 301.072169 
L 125.114422 296.549649 
L 128.688442 286.078227 
L 132.262462 275.23503 
L 137.623492 259.441892 
L 139.410503 253.398558 
L 141.197513 246.314186 
L 142.984523 237.852766 
L 144.771533 227.816972 
L 146.558543 216.164864 
L 148.345553 202.977973 
L 150.132563 188.402206 
L 151.919573 172.595664 
L 155.493593 137.946296 
L 160.854623 83.118621 
L 162.641633 66.498964 
L 164.428643 52.10563 
L 166.215653 40.735146 
L 168.002663 32.970772 
L 169.789673 29.092675 
L 171.576683 29.048912 
L 173.363693 32.485768 
L 175.150704 38.822463 
L 176.937714 47.35071 
L 178.724724 57.340695 
L 191.233794 132.40353 
L 196.594824 162.361279 
L 200.168844 181.4821 
L 201.955854 190.409386 
L 203.742864 198.45983 
L 205.529874 205.098589 
L 207.316884 209.693839 
L 209.103894 211.629543 
L 210.890905 210.448332 
L 212.677915 205.984821 
L 214.464925 198.447834 
L 216.251935 188.422651 
L 219.825955 164.566963 
L 221.612965 152.760037 
L 223.399975 142.198643 
L 225.186985 133.466763 
L 226.973995 126.896329 
L 228.761005 122.621053 
L 230.548015 120.65115 
L 232.335025 120.930232 
L 234.122035 123.352595 
L 235.909045 127.745083 
L 237.696055 133.838705 
L 239.483065 141.260429 
L 243.057085 158.290458 
L 246.631106 175.56725 
L 250.205126 191.399422 
L 253.779146 205.458403 
L 255.566156 211.719433 
L 257.353166 217.33217 
L 259.140176 222.185747 
L 260.927186 226.221655 
L 262.714196 229.473191 
L 264.501206 232.076216 
L 266.288216 234.247245 
L 269.862236 238.278577 
L 271.649246 240.536782 
L 273.436256 243.085636 
L 277.010276 248.876116 
L 280.584296 254.620388 
L 282.371307 257.016202 
L 284.158317 258.886249 
L 285.945327 260.146048 
L 287.732337 260.793482 
L 289.519347 260.917938 
L 291.306357 260.693584 
L 293.093367 260.353714 
L 294.880377 260.148348 
L 296.667387 260.294035 
L 298.454397 260.929452 
L 300.241407 262.090156 
L 302.028417 263.709895 
L 305.602437 267.722557 
L 307.389447 269.76448 
L 309.176457 271.63049 
L 310.963467 273.218206 
L 312.750477 274.455626 
L 314.537487 275.28317 
L 316.324497 275.637933 
L 318.111508 275.449788 
L 319.898518 274.654187 
L 321.685528 273.219937 
L 323.472538 271.183898 
L 325.259548 268.680577 
L 328.833568 263.346186 
L 330.620578 261.253255 
L 332.407588 260.069021 
L 334.194598 260.116073 
L 335.981608 261.587686 
L 337.768618 264.511496 
L 339.555628 268.743257 
L 341.342638 273.991296 
L 348.490678 297.152072 
L 350.277688 301.749038 
L 352.064698 305.497168 
L 353.851709 308.397433 
L 355.638719 310.528944 
L 357.425729 312.017404 
L 359.212739 313.005164 
L 360.999749 313.628084 
L 362.786759 314.001373 
L 366.360779 314.328878 
L 371.721809 314.430128 
L 405.675 314.44 
L 405.675 314.44 
" style="fill:none;stroke:#2ca02c;stroke-linecap:square;stroke-opacity:0.85;stroke-width:4;"/>
   </g>
   <g id="line2d_19">
    <path clip-path="url(#p968f554dd0)" d="M 50.06 314.44 
L 107.244322 314.340735 
L 110.818342 314.017614 
L 112.605352 313.633029 
L 114.392362 312.974525 
L 116.179372 311.909209 
L 117.966382 310.281478 
L 119.753392 307.93334 
L 121.540402 304.735757 
L 123.327412 300.624834 
L 125.114422 295.631247 
L 126.901432 289.888999 
L 130.475452 277.046759 
L 137.623492 250.030756 
L 139.410503 242.52046 
L 141.197513 234.17913 
L 142.984523 224.755933 
L 144.771533 214.074662 
L 146.558543 202.027764 
L 148.345553 188.553552 
L 150.132563 173.626777 
L 151.919573 157.286996 
L 155.493593 121.275349 
L 159.067613 84.736204 
L 160.854623 68.585151 
L 162.641633 55.212468 
L 164.428643 45.407648 
L 166.215653 39.582815 
L 168.002663 37.710075 
L 169.789673 39.359987 
L 171.576683 43.820994 
L 173.363693 50.25914 
L 175.150704 57.87467 
L 185.872764 107.1237 
L 189.446784 124.895347 
L 194.807814 153.530117 
L 198.381834 172.782096 
L 200.168844 181.980676 
L 201.955854 190.420141 
L 203.742864 197.520594 
L 205.529874 202.571772 
L 207.316884 204.860236 
L 209.103894 203.840095 
L 210.890905 199.295534 
L 212.677915 191.441225 
L 214.464925 180.924538 
L 219.825955 143.802607 
L 221.612965 133.105247 
L 223.399975 124.544415 
L 225.186985 118.510755 
L 226.973995 115.185864 
L 228.761005 114.604676 
L 230.548015 116.689022 
L 232.335025 121.241893 
L 234.122035 127.921785 
L 235.909045 136.232873 
L 243.057085 173.658948 
L 244.844095 181.790276 
L 246.631106 189.158556 
L 248.418116 195.879103 
L 250.205126 202.074182 
L 251.992136 207.798908 
L 253.779146 213.019305 
L 255.566156 217.644448 
L 257.353166 221.591016 
L 259.140176 224.847259 
L 260.927186 227.507784 
L 264.501206 231.873835 
L 266.288216 234.075778 
L 268.075226 236.557403 
L 269.862236 239.405012 
L 273.436256 246.000083 
L 277.010276 252.643524 
L 278.797286 255.422868 
L 280.584296 257.581406 
L 282.371307 259.012267 
L 284.158317 259.710247 
L 285.945327 259.782236 
L 287.732337 259.437438 
L 289.519347 258.954549 
L 291.306357 258.629407 
L 293.093367 258.714329 
L 294.880377 259.36558 
L 296.667387 260.614741 
L 298.454397 262.372378 
L 305.602437 270.626529 
L 307.389447 272.097708 
L 309.176457 273.105985 
L 310.963467 273.585503 
L 312.750477 273.474351 
L 314.537487 272.717588 
L 316.324497 271.289562 
L 318.111508 269.229328 
L 319.898518 266.675798 
L 323.472538 261.228692 
L 325.259548 259.135052 
L 327.046558 258.037042 
L 328.833568 258.285398 
L 330.620578 260.081397 
L 332.407588 263.435209 
L 334.194598 268.161551 
L 335.981608 273.912748 
L 341.342638 292.767706 
L 343.129648 298.207185 
L 344.916658 302.784254 
L 346.703668 306.426301 
L 348.490678 309.170336 
L 350.277688 311.129251 
L 352.064698 312.45468 
L 353.851709 313.304731 
L 355.638719 313.821456 
L 357.425729 314.119135 
L 360.999749 314.365671 
L 368.147789 314.43784 
L 405.675 314.44 
L 405.675 314.44 
" style="fill:none;stroke:#d62728;stroke-linecap:square;stroke-opacity:0.775;stroke-width:4;"/>
   </g>
   <g id="line2d_20">
    <path clip-path="url(#p968f554dd0)" d="M 50.06 314.44 
L 107.244322 314.332651 
L 109.031332 314.210493 
L 110.818342 313.97396 
L 112.605352 313.540805 
L 114.392362 312.790654 
L 116.179372 311.562056 
L 117.966382 309.658867 
L 119.753392 306.869515 
L 121.540402 302.999316 
L 123.327412 297.910563 
L 125.114422 291.559666 
L 126.901432 284.018052 
L 128.688442 275.46632 
L 132.262462 256.369845 
L 137.623492 225.908139 
L 141.197513 204.551124 
L 142.984523 192.977197 
L 144.771533 180.445342 
L 146.558543 166.753878 
L 148.345553 151.85012 
L 151.919573 119.337903 
L 155.493593 87.28253 
L 157.280603 73.587423 
L 159.067613 62.591908 
L 160.854623 54.889054 
L 162.641633 50.727039 
L 164.428643 49.979453 
L 166.215653 52.195545 
L 168.002663 56.712633 
L 169.789673 62.795217 
L 173.363693 77.071239 
L 176.937714 91.44309 
L 182.298744 111.538892 
L 185.872764 125.204095 
L 189.446784 140.173428 
L 193.020804 156.680119 
L 198.381834 182.816631 
L 200.168844 190.685893 
L 201.955854 197.132425 
L 203.742864 201.363908 
L 205.529874 202.629974 
L 207.316884 200.397121 
L 209.103894 194.504737 
L 210.890905 185.251836 
L 212.677915 173.383808 
L 218.038945 133.490719 
L 219.825955 122.639423 
L 221.612965 114.491683 
L 223.399975 109.531234 
L 225.186985 107.977761 
L 226.973995 109.808184 
L 228.761005 114.764885 
L 230.548015 122.358713 
L 232.335025 131.892433 
L 237.696055 163.791531 
L 239.483065 173.176017 
L 241.270075 181.359323 
L 243.057085 188.40758 
L 244.844095 194.554768 
L 246.631106 200.069485 
L 248.418116 205.142139 
L 250.205126 209.832531 
L 251.992136 214.089097 
L 253.779146 217.820034 
L 255.566156 220.977391 
L 257.353166 223.615342 
L 262.714196 230.390608 
L 264.501206 233.043693 
L 266.288216 236.123654 
L 269.862236 243.305383 
L 271.649246 247.020203 
L 273.436256 250.466003 
L 275.223266 253.38273 
L 277.010276 255.572424 
L 278.797286 256.939446 
L 280.584296 257.515337 
L 282.371307 257.461891 
L 285.945327 256.601635 
L 287.732337 256.442893 
L 289.519347 256.817179 
L 291.306357 257.843552 
L 293.093367 259.495605 
L 294.880377 261.619234 
L 298.454397 266.320378 
L 300.241407 268.413361 
L 302.028417 270.087237 
L 303.815427 271.229182 
L 305.602437 271.769216 
L 307.389447 271.661549 
L 309.176457 270.877693 
L 310.963467 269.419151 
L 312.750477 267.347011 
L 316.324497 262.094857 
L 318.111508 259.559538 
L 319.898518 257.650048 
L 321.685528 256.800115 
L 323.472538 257.354984 
L 325.259548 259.500038 
L 327.046558 263.219524 
L 328.833568 268.295961 
L 330.620578 274.349276 
L 335.981608 293.620834 
L 337.768618 299.030786 
L 339.555628 303.519747 
L 341.342638 307.039239 
L 343.129648 309.649373 
L 344.916658 311.481362 
L 346.703668 312.698506 
L 348.490678 313.463956 
L 350.277688 313.91957 
L 352.064698 314.176204 
L 355.638719 314.381924 
L 364.573769 314.439476 
L 405.675 314.44 
L 405.675 314.44 
" style="fill:none;stroke:#9467bd;stroke-linecap:square;stroke-opacity:0.7;stroke-width:4;"/>
   </g>
   <g id="line2d_21">
    <path clip-path="url(#p968f554dd0)" d="M 50.06 314.44 
L 103.670302 314.386357 
L 107.244322 314.194199 
L 109.031332 313.948851 
L 110.818342 313.501818 
L 112.605352 312.725793 
L 114.392362 311.442339 
L 116.179372 309.420323 
L 117.966382 306.386585 
L 119.753392 302.053208 
L 121.540402 296.161961 
L 123.327412 288.540108 
L 125.114422 279.154373 
L 126.901432 268.144662 
L 128.688442 255.819793 
L 132.262462 228.95629 
L 142.984523 146.302488 
L 148.345553 101.327325 
L 150.132563 87.649433 
L 151.919573 75.947027 
L 153.706583 66.902541 
L 155.493593 60.901805 
L 157.280603 57.957744 
L 159.067613 57.733884 
L 160.854623 59.660238 
L 162.641633 63.103948 
L 164.428643 67.538195 
L 166.215653 72.652948 
L 168.002663 78.372098 
L 169.789673 84.776964 
L 171.576683 91.972924 
L 173.363693 99.958297 
L 180.511734 134.302198 
L 182.298744 141.770858 
L 184.085754 148.512903 
L 187.659774 160.568467 
L 191.233794 172.376674 
L 196.594824 190.787942 
L 198.381834 196.041556 
L 200.168844 199.881088 
L 201.955854 201.564756 
L 203.742864 200.406341 
L 205.529874 195.931384 
L 207.316884 188.019648 
L 209.103894 176.991493 
L 210.890905 163.609095 
L 214.464925 134.445901 
L 216.251935 121.315396 
L 218.038945 110.782206 
L 219.825955 103.754223 
L 221.612965 100.781866 
L 223.399975 102.019965 
L 225.186985 107.224519 
L 226.973995 115.784308 
L 228.761005 126.794236 
L 234.122035 163.810571 
L 235.909045 174.452722 
L 237.696055 183.442111 
L 239.483065 190.795235 
L 241.270075 196.763637 
L 243.057085 201.698426 
L 244.844095 205.922667 
L 246.631106 209.652246 
L 248.418116 212.983266 
L 250.205126 215.936212 
L 251.992136 218.526149 
L 255.566156 222.971572 
L 257.353166 225.176744 
L 259.140176 227.645953 
L 260.927186 230.531807 
L 262.714196 233.884715 
L 266.288216 241.592655 
L 268.075226 245.501104 
L 269.862236 249.066034 
L 271.649246 252.019614 
L 273.436256 254.169929 
L 275.223266 255.441919 
L 277.010276 255.900172 
L 278.797286 255.746506 
L 282.371307 254.880125 
L 284.158317 254.849417 
L 285.945327 255.425296 
L 287.732337 256.690329 
L 289.519347 258.570046 
L 294.880377 265.580649 
L 296.667387 267.486663 
L 298.454397 268.836871 
L 300.241407 269.521959 
L 302.028417 269.483629 
L 303.815427 268.704863 
L 305.602437 267.215444 
L 307.389447 265.113563 
L 312.750477 257.607422 
L 314.537487 255.995188 
L 316.324497 255.547073 
L 318.111508 256.582325 
L 319.898518 259.244296 
L 321.685528 263.466135 
L 323.472538 268.97968 
L 327.046558 282.121613 
L 328.833568 288.759087 
L 330.620578 294.861295 
L 332.407588 300.138265 
L 334.194598 304.443169 
L 335.981608 307.761741 
L 337.768618 310.181311 
L 339.555628 311.850496 
L 341.342638 312.940181 
L 343.129648 313.613323 
L 344.916658 314.006746 
L 348.490678 314.337993 
L 353.851709 314.432141 
L 396.73995 314.44 
L 405.675 314.44 
L 405.675 314.44 
" style="fill:none;stroke:#8c564b;stroke-linecap:square;stroke-opacity:0.625;stroke-width:4;"/>
   </g>
   <g id="line2d_22">
    <path clip-path="url(#p968f554dd0)" d="M 50.06 314.44 
L 100.096281 314.347691 
L 103.670302 314.07366 
L 105.457312 313.753414 
L 107.244322 313.20157 
L 109.031332 312.286816 
L 110.818342 310.827179 
L 112.605352 308.58514 
L 114.392362 305.272111 
L 116.179372 300.567858 
L 117.966382 294.158587 
L 119.753392 285.792222 
L 121.540402 275.341309 
L 123.327412 262.855845 
L 125.114422 248.584769 
L 128.688442 216.472073 
L 134.049472 166.521291 
L 137.623492 134.879756 
L 141.197513 105.022403 
L 142.984523 91.29931 
L 144.771533 79.025611 
L 146.558543 68.807811 
L 148.345553 61.182027 
L 150.132563 56.464613 
L 151.919573 54.656002 
L 153.706583 55.436032 
L 155.493593 58.257563 
L 157.280603 62.50884 
L 159.067613 67.687927 
L 160.854623 73.526088 
L 162.641633 80.014856 
L 164.428643 87.327593 
L 166.215653 95.667083 
L 168.002663 105.099942 
L 171.576683 126.255839 
L 173.363693 136.918859 
L 175.150704 146.805214 
L 176.937714 155.44122 
L 178.724724 162.621049 
L 180.511734 168.431475 
L 182.298744 173.188951 
L 185.872764 181.2351 
L 189.446784 189.366193 
L 193.020804 197.558436 
L 194.807814 200.822513 
L 196.594824 202.75545 
L 198.381834 202.663218 
L 200.168844 199.87717 
L 201.955854 193.895145 
L 203.742864 184.538997 
L 205.529874 172.085267 
L 207.316884 157.31951 
L 210.890905 126.088918 
L 212.677915 112.708316 
L 214.464925 102.680106 
L 216.251935 96.916834 
L 218.038945 95.78683 
L 219.825955 99.10767 
L 221.612965 106.232207 
L 223.399975 116.194916 
L 226.973995 140.210035 
L 228.761005 152.25142 
L 230.548015 163.355933 
L 232.335025 173.187058 
L 234.122035 181.705306 
L 235.909045 189.090222 
L 237.696055 195.624548 
L 239.483065 201.574975 
L 241.270075 207.105545 
L 243.057085 212.247442 
L 244.844095 216.927067 
L 246.631106 221.032642 
L 248.418116 224.487741 
L 250.205126 227.302585 
L 251.992136 229.587759 
L 259.140176 237.445648 
L 260.927186 239.934601 
L 264.501206 245.697651 
L 266.288216 248.656771 
L 268.075226 251.355751 
L 269.862236 253.55259 
L 271.649246 255.071597 
L 273.436256 255.860273 
L 275.223266 256.020127 
L 278.797286 255.517549 
L 280.584296 255.518317 
L 282.371307 256.041567 
L 284.158317 257.180873 
L 285.945327 258.86377 
L 291.306357 264.804788 
L 293.093367 266.180221 
L 294.880377 266.913115 
L 296.667387 266.904706 
L 298.454397 266.126266 
L 300.241407 264.622239 
L 302.028417 262.523706 
L 305.602437 257.586215 
L 307.389447 255.513883 
L 309.176457 254.303834 
L 310.963467 254.365369 
L 312.750477 255.979462 
L 314.537487 259.236344 
L 316.324497 264.010476 
L 318.111508 269.98006 
L 323.472538 290.268211 
L 325.259548 296.267693 
L 327.046558 301.357064 
L 328.833568 305.431391 
L 330.620578 308.514067 
L 332.407588 310.720197 
L 334.194598 312.214141 
L 335.981608 313.171542 
L 337.768618 313.752173 
L 339.555628 314.085375 
L 343.129648 314.359194 
L 350.277688 314.437767 
L 405.675 314.44 
L 405.675 314.44 
" style="fill:none;stroke:#e377c2;stroke-linecap:square;stroke-opacity:0.55;stroke-width:4;"/>
   </g>
   <g id="line2d_23">
    <path clip-path="url(#p968f554dd0)" d="M 50.06 314.44 
L 94.735251 314.332589 
L 98.309271 314.040075 
L 100.096281 313.711789 
L 101.883291 313.16029 
L 103.670302 312.265009 
L 105.457312 310.858748 
L 107.244322 308.72054 
L 109.031332 305.574906 
L 110.818342 301.102715 
L 112.605352 294.968303 
L 114.392362 286.864126 
L 116.179372 276.568038 
L 117.966382 264.001005 
L 119.753392 249.268114 
L 121.540402 232.666698 
L 125.114422 195.778812 
L 130.475452 139.233306 
L 132.262462 121.75559 
L 134.049472 105.452127 
L 135.836482 90.599736 
L 137.623492 77.523181 
L 139.410503 66.590466 
L 141.197513 58.159882 
L 142.984523 52.494505 
L 144.771533 49.676984 
L 146.558543 49.561614 
L 148.345553 51.789132 
L 150.132563 55.866256 
L 151.919573 61.286358 
L 153.706583 67.650561 
L 155.493593 74.746912 
L 157.280603 82.559601 
L 159.067613 91.204747 
L 160.854623 100.815144 
L 162.641633 111.414517 
L 169.789673 157.220735 
L 171.576683 166.832082 
L 173.363693 174.847187 
L 175.150704 181.22692 
L 176.937714 186.175005 
L 178.724724 190.045921 
L 180.511734 193.221068 
L 182.298744 195.995358 
L 184.085754 198.505207 
L 185.872764 200.706485 
L 187.659774 202.389796 
L 189.446784 203.211665 
L 191.233794 202.727255 
L 193.020804 200.426856 
L 194.807814 195.792472 
L 196.594824 188.391598 
L 198.381834 178.009431 
L 200.168844 164.794781 
L 201.955854 149.371763 
L 205.529874 116.783684 
L 207.316884 102.815912 
L 209.103894 92.494604 
L 210.890905 86.901463 
L 212.677915 86.447654 
L 214.464925 90.813574 
L 216.251935 99.062042 
L 218.038945 109.88749 
L 223.399975 145.460207 
L 225.186985 155.934839 
L 228.761005 174.665243 
L 234.122035 202.186906 
L 237.696055 220.835113 
L 239.483065 229.268047 
L 241.270075 236.476413 
L 243.057085 242.08568 
L 244.844095 245.900033 
L 246.631106 247.944846 
L 248.418116 248.466015 
L 250.205126 247.886762 
L 253.779146 245.520524 
L 255.566156 244.690711 
L 257.353166 244.506978 
L 259.140176 245.039374 
L 260.927186 246.178562 
L 268.075226 252.117782 
L 269.862236 253.167484 
L 273.436256 255.026747 
L 275.223266 256.132273 
L 277.010276 257.487192 
L 278.797286 259.088496 
L 282.371307 262.605406 
L 284.158317 264.184291 
L 285.945327 265.406143 
L 287.732337 266.124964 
L 289.519347 266.237076 
L 291.306357 265.685491 
L 293.093367 264.465465 
L 294.880377 262.637577 
L 296.667387 260.347429 
L 300.241407 255.472568 
L 302.028417 253.660604 
L 303.815427 252.844741 
L 305.602437 253.399196 
L 307.389447 255.555895 
L 309.176457 259.348854 
L 310.963467 264.59805 
L 312.750477 270.937795 
L 318.111508 291.543027 
L 319.898518 297.423815 
L 321.685528 302.334437 
L 323.472538 306.205782 
L 325.259548 309.090906 
L 327.046558 311.124906 
L 328.833568 312.481874 
L 330.620578 313.338659 
L 332.407588 313.850637 
L 334.194598 314.140149 
L 337.768618 314.373468 
L 344.916658 314.438256 
L 405.675 314.44 
L 405.675 314.44 
" style="fill:none;stroke:#7f7f7f;stroke-linecap:square;stroke-opacity:0.475;stroke-width:4;"/>
   </g>
   <g id="line2d_24">
    <path clip-path="url(#p968f554dd0)" d="M 50.06 314.44 
L 87.587211 314.382797 
L 91.161231 314.211892 
L 92.948241 314.011614 
L 94.735251 313.665351 
L 96.522261 313.088039 
L 98.309271 312.157819 
L 100.096281 310.706987 
L 101.883291 308.51489 
L 103.670302 305.306255 
L 105.457312 300.759518 
L 107.244322 294.529505 
L 109.031332 286.28642 
L 110.818342 275.768201 
L 112.605352 262.837181 
L 114.392362 247.527039 
L 116.179372 230.06533 
L 119.753392 190.465653 
L 125.114422 128.323567 
L 126.901432 109.241549 
L 128.688442 91.823254 
L 130.475452 76.514999 
L 132.262462 63.727788 
L 134.049472 53.811224 
L 135.836482 47.001477 
L 137.623492 43.361217 
L 139.410503 42.738952 
L 141.197513 44.772366 
L 142.984523 48.945434 
L 144.771533 54.688505 
L 146.558543 61.49306 
L 148.345553 69.005749 
L 150.132563 77.072246 
L 151.919573 85.717753 
L 153.706583 95.071549 
L 155.493593 105.260577 
L 157.280603 116.306139 
L 164.428643 163.542824 
L 166.215653 173.800698 
L 168.002663 182.62504 
L 169.789673 189.88343 
L 171.576683 195.628608 
L 173.363693 200.04171 
L 175.150704 203.34548 
L 176.937714 205.714267 
L 178.724724 207.206065 
L 180.511734 207.732929 
L 182.298744 207.073558 
L 184.085754 204.920188 
L 185.872764 200.945019 
L 187.659774 194.870816 
L 189.446784 186.535221 
L 191.233794 175.945087 
L 193.020804 163.321241 
L 196.594824 134.107976 
L 198.381834 119.217387 
L 200.168844 105.591373 
L 201.955854 94.386296 
L 203.742864 86.603539 
L 205.529874 82.906246 
L 207.316884 83.48782 
L 209.103894 88.039604 
L 210.890905 95.836451 
L 212.677915 105.918985 
L 216.251935 129.248401 
L 228.761005 213.863913 
L 230.548015 225.986249 
L 232.335025 237.258129 
L 234.122035 247.101582 
L 235.909045 254.97589 
L 237.696055 260.476681 
L 239.483065 263.418006 
L 241.270075 263.878094 
L 243.057085 262.194957 
L 244.844095 258.91004 
L 246.631106 254.673389 
L 250.205126 245.858605 
L 251.992136 242.258029 
L 253.779146 239.598248 
L 255.566156 238.015256 
L 257.353166 237.555905 
L 259.140176 238.210009 
L 260.927186 239.923917 
L 262.714196 242.596268 
L 264.501206 246.066411 
L 266.288216 250.108851 
L 269.862236 258.758271 
L 271.649246 262.751705 
L 273.436256 266.162926 
L 275.223266 268.802974 
L 277.010276 270.567876 
L 278.797286 271.436295 
L 280.584296 271.453085 
L 282.371307 270.704169 
L 284.158317 269.291027 
L 285.945327 267.31432 
L 287.732337 264.874223 
L 291.306357 259.126113 
L 293.093367 256.228328 
L 294.880377 253.723244 
L 296.667387 251.998941 
L 298.454397 251.448057 
L 300.241407 252.391415 
L 302.028417 255.002853 
L 303.815427 259.258306 
L 305.602437 264.92543 
L 307.389447 271.597748 
L 310.963467 285.896577 
L 312.750477 292.53079 
L 314.537487 298.328217 
L 316.324497 303.102715 
L 318.111508 306.815495 
L 319.898518 309.544761 
L 321.685528 311.442548 
L 323.472538 312.691207 
L 325.259548 313.468687 
L 327.046558 313.926811 
L 328.833568 314.182255 
L 332.407588 314.384288 
L 341.342638 314.439519 
L 405.675 314.44 
L 405.675 314.44 
" style="fill:none;stroke:#bcbd22;stroke-linecap:square;stroke-opacity:0.4;stroke-width:4;"/>
   </g>
   <g id="line2d_25">
    <path clip-path="url(#p968f554dd0)" d="M 50.06 314.44 
L 82.226181 314.374431 
L 85.800201 314.180431 
L 87.587211 313.955055 
L 89.374221 313.568712 
L 91.161231 312.931173 
L 92.948241 311.916003 
L 94.735251 310.352964 
L 96.522261 308.022236 
L 98.309271 304.65298 
L 100.096281 299.929665 
L 101.883291 293.509794 
L 103.670302 285.055454 
L 105.457312 274.278001 
L 107.244322 260.99057 
L 109.031332 245.15846 
L 110.818342 226.935024 
L 112.605352 206.672592 
L 116.179372 162.301856 
L 119.753392 117.643605 
L 121.540402 97.140403 
L 123.327412 78.825433 
L 125.114422 63.323015 
L 126.901432 51.122291 
L 128.688442 42.525518 
L 130.475452 37.601222 
L 132.262462 36.161815 
L 134.049472 37.783308 
L 135.836482 41.872749 
L 137.623492 47.772016 
L 139.410503 54.872601 
L 142.984523 71.020671 
L 146.558543 88.906528 
L 148.345553 98.684337 
L 150.132563 109.165032 
L 153.706583 132.090607 
L 157.280603 155.964371 
L 159.067613 167.23502 
L 160.854623 177.482508 
L 162.641633 186.378083 
L 164.428643 193.736257 
L 166.215653 199.520512 
L 168.002663 203.807541 
L 169.789673 206.720361 
L 171.576683 208.351183 
L 173.363693 208.699463 
L 175.150704 207.646716 
L 176.937714 204.97804 
L 178.724724 200.444583 
L 180.511734 193.847388 
L 182.298744 185.117026 
L 184.085754 174.367548 
L 185.872764 161.915086 
L 193.020804 107.182291 
L 194.807814 96.100354 
L 196.594824 87.573149 
L 198.381834 82.142139 
L 200.168844 80.113176 
L 201.955854 81.526115 
L 203.742864 86.173161 
L 205.529874 93.663346 
L 207.316884 103.513188 
L 209.103894 115.234335 
L 210.890905 128.392632 
L 214.464925 157.633269 
L 221.612965 219.346238 
L 223.399975 233.361715 
L 225.186985 245.933467 
L 226.973995 256.606833 
L 228.761005 264.983197 
L 230.548015 270.772029 
L 232.335025 273.837629 
L 234.122035 274.228567 
L 235.909045 272.181369 
L 237.696055 268.097515 
L 239.483065 262.500962 
L 244.844095 242.689892 
L 246.631106 237.079277 
L 248.418116 232.837673 
L 250.205126 230.340468 
L 251.992136 229.81228 
L 253.779146 231.296899 
L 255.566156 234.646775 
L 257.353166 239.539638 
L 259.140176 245.521145 
L 264.501206 264.734219 
L 266.288216 269.967612 
L 268.075226 274.044675 
L 269.862236 276.805153 
L 271.649246 278.214348 
L 273.436256 278.347066 
L 275.223266 277.358952 
L 277.010276 275.450149 
L 278.797286 272.829939 
L 280.584296 269.692699 
L 284.158317 262.562698 
L 285.945327 258.938847 
L 287.732337 255.594337 
L 289.519347 252.84762 
L 291.306357 251.063164 
L 293.093367 250.599854 
L 294.880377 251.738926 
L 296.667387 254.61242 
L 298.454397 259.155231 
L 300.241407 265.097437 
L 303.815427 279.334214 
L 305.602437 286.557152 
L 307.389447 293.208423 
L 309.176457 298.961754 
L 310.963467 303.650221 
L 312.750477 307.256217 
L 314.537487 309.876687 
L 316.324497 311.677091 
L 318.111508 312.846983 
L 319.898518 313.566052 
L 321.685528 313.984132 
L 325.259548 314.333662 
L 330.620578 314.431911 
L 371.721809 314.44 
L 405.675 314.44 
L 405.675 314.44 
" style="fill:none;stroke:#17becf;stroke-linecap:square;stroke-opacity:0.325;stroke-width:4;"/>
   </g>
   <g id="line2d_26">
    <path clip-path="url(#p968f554dd0)" d="M 50.06 314.44 
L 76.865151 314.359853 
L 80.439171 314.122399 
L 82.226181 313.849045 
L 84.013191 313.386015 
L 85.800201 312.634034 
L 87.587211 311.459782 
L 89.374221 309.691415 
L 91.161231 307.115553 
L 92.948241 303.47669 
L 94.735251 298.480763 
L 96.522261 291.805634 
L 98.309271 283.121775 
L 100.096281 272.125483 
L 101.883291 258.584083 
L 103.670302 242.388128 
L 105.457312 223.601338 
L 107.244322 202.497119 
L 110.818342 155.534159 
L 114.392362 107.742119 
L 116.179372 86.000043 
L 117.966382 66.998329 
L 119.753392 51.540286 
L 121.540402 40.170109 
L 123.327412 33.097227 
L 125.114422 30.168254 
L 126.901432 30.903539 
L 128.688442 34.596984 
L 130.475452 40.45585 
L 132.262462 47.742828 
L 135.836482 64.513247 
L 139.410503 82.75285 
L 142.984523 102.580733 
L 146.558543 124.466101 
L 153.706583 170.407321 
L 155.493593 180.463513 
L 157.280603 189.177006 
L 159.067613 196.266331 
L 160.854623 201.570776 
L 162.641633 205.045162 
L 164.428643 206.722292 
L 166.215653 206.658748 
L 168.002663 204.887844 
L 169.789673 201.401047 
L 171.576683 196.166141 
L 173.363693 189.172883 
L 175.150704 180.484198 
L 176.937714 170.270189 
L 178.724724 158.813635 
L 185.872764 109.003937 
L 187.659774 98.084766 
L 189.446784 88.886143 
L 191.233794 81.952256 
L 193.020804 77.760113 
L 194.807814 76.673931 
L 196.594824 78.910263 
L 198.381834 84.519182 
L 200.168844 93.380082 
L 201.955854 105.208209 
L 203.742864 119.570288 
L 205.529874 135.910706 
L 209.103894 171.928982 
L 212.677915 207.959398 
L 214.464925 224.469558 
L 216.251935 239.307727 
L 218.038945 252.068108 
L 219.825955 262.428281 
L 221.612965 270.162195 
L 223.399975 275.156404 
L 225.186985 277.42261 
L 226.973995 277.101282 
L 228.761005 274.456126 
L 230.548015 269.863183 
L 232.335025 263.798157 
L 237.696055 242.643025 
L 239.483065 236.703989 
L 241.270075 232.262367 
L 243.057085 229.695062 
L 244.844095 229.194098 
L 246.631106 230.758388 
L 248.418116 234.211458 
L 250.205126 239.234655 
L 251.992136 245.404374 
L 257.353166 265.739027 
L 259.140176 271.447406 
L 260.927186 275.946842 
L 262.714196 279.021504 
L 264.501206 280.609436 
L 266.288216 280.7878 
L 268.075226 279.736286 
L 269.862236 277.691317 
L 271.649246 274.904605 
L 273.436256 271.615554 
L 278.797286 260.831089 
L 280.584296 257.607815 
L 282.371307 254.953962 
L 284.158317 253.140015 
L 285.945327 252.440923 
L 287.732337 253.09436 
L 289.519347 255.248819 
L 291.306357 258.916773 
L 293.093367 263.94902 
L 294.880377 270.040994 
L 300.241407 290.284225 
L 302.028417 296.245399 
L 303.815427 301.311889 
L 305.602437 305.379214 
L 307.389447 308.466311 
L 309.176457 310.682624 
L 310.963467 312.1879 
L 312.750477 313.155035 
L 314.537487 313.742764 
L 316.324497 314.080516 
L 319.898518 314.358261 
L 327.046558 314.437774 
L 405.675 314.44 
L 405.675 314.44 
" style="fill:none;stroke:#1f77b4;stroke-linecap:square;stroke-opacity:0.25;stroke-width:4;"/>
   </g>
   <g id="patch_3">
    <path d="M 50.06 314.44 
L 50.06 12.96 
" style="fill:none;stroke:#000000;stroke-linecap:square;stroke-linejoin:miter;stroke-width:0.8;"/>
   </g>
   <g id="patch_4">
    <path d="M 405.675 314.44 
L 405.675 12.96 
" style="fill:none;stroke:#000000;stroke-linecap:square;stroke-linejoin:miter;stroke-width:0.8;"/>
   </g>
   <g id="patch_5">
    <path d="M 50.06 314.44 
L 405.675 314.44 
" style="fill:none;stroke:#000000;stroke-linecap:square;stroke-linejoin:miter;stroke-width:0.8;"/>
   </g>
   <g id="patch_6">
    <path d="M 50.06 12.96 
L 405.675 12.96 
" style="fill:none;stroke:#000000;stroke-linecap:square;stroke-linejoin:miter;stroke-width:0.8;"/>
   </g>
   <g id="legend_1">
    <g id="patch_7">
     <path d="M 273.641625 195.976125 
L 398.115 195.976125 
Q 400.275 195.976125 400.275 193.816125 
L 400.275 20.52 
Q 400.275 18.36 398.115 18.36 
L 273.641625 18.36 
Q 271.481625 18.36 271.481625 20.52 
L 271.481625 193.816125 
Q 271.481625 195.976125 273.641625 195.976125 
z
" style="fill:#ffffff;opacity:0.8;stroke:#cccccc;stroke-linejoin:miter;"/>
    </g>
    <g id="line2d_27">
     <path d="M 275.801625 27.106313 
L 297.401625 27.106313 
" style="fill:none;stroke:#1f77b4;stroke-linecap:square;stroke-width:4;"/>
    </g>
    <g id="line2d_28"/>
    <g id="text_18">
     <!-- Udbytte = 0% -->
     <g transform="translate(306.041625 30.886313)scale(0.108 -0.108)">
      <defs>
       <path d="M 8.6875 72.90625 
L 18.609375 72.90625 
L 18.609375 28.609375 
Q 18.609375 16.890625 22.84375 11.734375 
Q 27.09375 6.59375 36.625 6.59375 
Q 46.09375 6.59375 50.34375 11.734375 
Q 54.59375 16.890625 54.59375 28.609375 
L 54.59375 72.90625 
L 64.5 72.90625 
L 64.5 27.390625 
Q 64.5 13.140625 57.4375 5.859375 
Q 50.390625 -1.421875 36.625 -1.421875 
Q 22.796875 -1.421875 15.734375 5.859375 
Q 8.6875 13.140625 8.6875 27.390625 
z
" id="DejaVuSans-85"/>
       <path d="M 32.171875 -5.078125 
Q 28.375 -14.84375 24.75 -17.8125 
Q 21.140625 -20.796875 15.09375 -20.796875 
L 7.90625 -20.796875 
L 7.90625 -13.28125 
L 13.1875 -13.28125 
Q 16.890625 -13.28125 18.9375 -11.515625 
Q 21 -9.765625 23.484375 -3.21875 
L 25.09375 0.875 
L 2.984375 54.6875 
L 12.5 54.6875 
L 29.59375 11.921875 
L 46.6875 54.6875 
L 56.203125 54.6875 
z
" id="DejaVuSans-121"/>
       <path d="M 56.203125 29.59375 
L 56.203125 25.203125 
L 14.890625 25.203125 
Q 15.484375 15.921875 20.484375 11.0625 
Q 25.484375 6.203125 34.421875 6.203125 
Q 39.59375 6.203125 44.453125 7.46875 
Q 49.3125 8.734375 54.109375 11.28125 
L 54.109375 2.78125 
Q 49.265625 0.734375 44.1875 -0.34375 
Q 39.109375 -1.421875 33.890625 -1.421875 
Q 20.796875 -1.421875 13.15625 6.1875 
Q 5.515625 13.8125 5.515625 26.8125 
Q 5.515625 40.234375 12.765625 48.109375 
Q 20.015625 56 32.328125 56 
Q 43.359375 56 49.78125 48.890625 
Q 56.203125 41.796875 56.203125 29.59375 
z
M 47.21875 32.234375 
Q 47.125 39.59375 43.09375 43.984375 
Q 39.0625 48.390625 32.421875 48.390625 
Q 24.90625 48.390625 20.390625 44.140625 
Q 15.875 39.890625 15.1875 32.171875 
z
" id="DejaVuSans-101"/>
       <path d="M 10.59375 45.40625 
L 73.1875 45.40625 
L 73.1875 37.203125 
L 10.59375 37.203125 
z
M 10.59375 25.484375 
L 73.1875 25.484375 
L 73.1875 17.1875 
L 10.59375 17.1875 
z
" id="DejaVuSans-61"/>
       <path d="M 72.703125 32.078125 
Q 68.453125 32.078125 66.03125 28.46875 
Q 63.625 24.859375 63.625 18.40625 
Q 63.625 12.0625 66.03125 8.421875 
Q 68.453125 4.78125 72.703125 4.78125 
Q 76.859375 4.78125 79.265625 8.421875 
Q 81.6875 12.0625 81.6875 18.40625 
Q 81.6875 24.8125 79.265625 28.4375 
Q 76.859375 32.078125 72.703125 32.078125 
z
M 72.703125 38.28125 
Q 80.421875 38.28125 84.953125 32.90625 
Q 89.5 27.546875 89.5 18.40625 
Q 89.5 9.28125 84.9375 3.921875 
Q 80.375 -1.421875 72.703125 -1.421875 
Q 64.890625 -1.421875 60.34375 3.921875 
Q 55.8125 9.28125 55.8125 18.40625 
Q 55.8125 27.59375 60.375 32.9375 
Q 64.9375 38.28125 72.703125 38.28125 
z
M 22.3125 68.015625 
Q 18.109375 68.015625 15.6875 64.375 
Q 13.28125 60.75 13.28125 54.390625 
Q 13.28125 47.953125 15.671875 44.328125 
Q 18.0625 40.71875 22.3125 40.71875 
Q 26.5625 40.71875 28.96875 44.328125 
Q 31.390625 47.953125 31.390625 54.390625 
Q 31.390625 60.6875 28.953125 64.34375 
Q 26.515625 68.015625 22.3125 68.015625 
z
M 66.40625 74.21875 
L 74.21875 74.21875 
L 28.609375 -1.421875 
L 20.796875 -1.421875 
z
M 22.3125 74.21875 
Q 30.03125 74.21875 34.609375 68.875 
Q 39.203125 63.53125 39.203125 54.390625 
Q 39.203125 45.171875 34.640625 39.84375 
Q 30.078125 34.515625 22.3125 34.515625 
Q 14.546875 34.515625 10.03125 39.859375 
Q 5.515625 45.21875 5.515625 54.390625 
Q 5.515625 63.484375 10.046875 68.84375 
Q 14.59375 74.21875 22.3125 74.21875 
z
" id="DejaVuSans-37"/>
      </defs>
      <use xlink:href="#DejaVuSans-85"/>
      <use x="73.193359" xlink:href="#DejaVuSans-100"/>
      <use x="136.669922" xlink:href="#DejaVuSans-98"/>
      <use x="200.146484" xlink:href="#DejaVuSans-121"/>
      <use x="259.326172" xlink:href="#DejaVuSans-116"/>
      <use x="298.535156" xlink:href="#DejaVuSans-116"/>
      <use x="337.744141" xlink:href="#DejaVuSans-101"/>
      <use x="399.267578" xlink:href="#DejaVuSans-32"/>
      <use x="431.054688" xlink:href="#DejaVuSans-61"/>
      <use x="514.84375" xlink:href="#DejaVuSans-32"/>
      <use x="546.630859" xlink:href="#DejaVuSans-48"/>
      <use x="610.253906" xlink:href="#DejaVuSans-37"/>
     </g>
    </g>
    <g id="line2d_29">
     <path d="M 275.801625 42.958688 
L 297.401625 42.958688 
" style="fill:none;stroke:#ff7f0e;stroke-linecap:square;stroke-opacity:0.925;stroke-width:4;"/>
    </g>
    <g id="line2d_30"/>
    <g id="text_19">
     <!-- Udbytte = 10% -->
     <g transform="translate(306.041625 46.738688)scale(0.108 -0.108)">
      <use xlink:href="#DejaVuSans-85"/>
      <use x="73.193359" xlink:href="#DejaVuSans-100"/>
      <use x="136.669922" xlink:href="#DejaVuSans-98"/>
      <use x="200.146484" xlink:href="#DejaVuSans-121"/>
      <use x="259.326172" xlink:href="#DejaVuSans-116"/>
      <use x="298.535156" xlink:href="#DejaVuSans-116"/>
      <use x="337.744141" xlink:href="#DejaVuSans-101"/>
      <use x="399.267578" xlink:href="#DejaVuSans-32"/>
      <use x="431.054688" xlink:href="#DejaVuSans-61"/>
      <use x="514.84375" xlink:href="#DejaVuSans-32"/>
      <use x="546.630859" xlink:href="#DejaVuSans-49"/>
      <use x="610.253906" xlink:href="#DejaVuSans-48"/>
      <use x="673.876953" xlink:href="#DejaVuSans-37"/>
     </g>
    </g>
    <g id="line2d_31">
     <path d="M 275.801625 58.811063 
L 297.401625 58.811063 
" style="fill:none;stroke:#2ca02c;stroke-linecap:square;stroke-opacity:0.85;stroke-width:4;"/>
    </g>
    <g id="line2d_32"/>
    <g id="text_20">
     <!-- Udbytte = 20% -->
     <g transform="translate(306.041625 62.591063)scale(0.108 -0.108)">
      <use xlink:href="#DejaVuSans-85"/>
      <use x="73.193359" xlink:href="#DejaVuSans-100"/>
      <use x="136.669922" xlink:href="#DejaVuSans-98"/>
      <use x="200.146484" xlink:href="#DejaVuSans-121"/>
      <use x="259.326172" xlink:href="#DejaVuSans-116"/>
      <use x="298.535156" xlink:href="#DejaVuSans-116"/>
      <use x="337.744141" xlink:href="#DejaVuSans-101"/>
      <use x="399.267578" xlink:href="#DejaVuSans-32"/>
      <use x="431.054688" xlink:href="#DejaVuSans-61"/>
      <use x="514.84375" xlink:href="#DejaVuSans-32"/>
      <use x="546.630859" xlink:href="#DejaVuSans-50"/>
      <use x="610.253906" xlink:href="#DejaVuSans-48"/>
      <use x="673.876953" xlink:href="#DejaVuSans-37"/>
     </g>
    </g>
    <g id="line2d_33">
     <path d="M 275.801625 74.663438 
L 297.401625 74.663438 
" style="fill:none;stroke:#d62728;stroke-linecap:square;stroke-opacity:0.775;stroke-width:4;"/>
    </g>
    <g id="line2d_34"/>
    <g id="text_21">
     <!-- Udbytte = 30% -->
     <g transform="translate(306.041625 78.443438)scale(0.108 -0.108)">
      <defs>
       <path d="M 40.578125 39.3125 
Q 47.65625 37.796875 51.625 33 
Q 55.609375 28.21875 55.609375 21.1875 
Q 55.609375 10.40625 48.1875 4.484375 
Q 40.765625 -1.421875 27.09375 -1.421875 
Q 22.515625 -1.421875 17.65625 -0.515625 
Q 12.796875 0.390625 7.625 2.203125 
L 7.625 11.71875 
Q 11.71875 9.328125 16.59375 8.109375 
Q 21.484375 6.890625 26.8125 6.890625 
Q 36.078125 6.890625 40.9375 10.546875 
Q 45.796875 14.203125 45.796875 21.1875 
Q 45.796875 27.640625 41.28125 31.265625 
Q 36.765625 34.90625 28.71875 34.90625 
L 20.21875 34.90625 
L 20.21875 43.015625 
L 29.109375 43.015625 
Q 36.375 43.015625 40.234375 45.921875 
Q 44.09375 48.828125 44.09375 54.296875 
Q 44.09375 59.90625 40.109375 62.90625 
Q 36.140625 65.921875 28.71875 65.921875 
Q 24.65625 65.921875 20.015625 65.03125 
Q 15.375 64.15625 9.8125 62.3125 
L 9.8125 71.09375 
Q 15.4375 72.65625 20.34375 73.4375 
Q 25.25 74.21875 29.59375 74.21875 
Q 40.828125 74.21875 47.359375 69.109375 
Q 53.90625 64.015625 53.90625 55.328125 
Q 53.90625 49.265625 50.4375 45.09375 
Q 46.96875 40.921875 40.578125 39.3125 
z
" id="DejaVuSans-51"/>
      </defs>
      <use xlink:href="#DejaVuSans-85"/>
      <use x="73.193359" xlink:href="#DejaVuSans-100"/>
      <use x="136.669922" xlink:href="#DejaVuSans-98"/>
      <use x="200.146484" xlink:href="#DejaVuSans-121"/>
      <use x="259.326172" xlink:href="#DejaVuSans-116"/>
      <use x="298.535156" xlink:href="#DejaVuSans-116"/>
      <use x="337.744141" xlink:href="#DejaVuSans-101"/>
      <use x="399.267578" xlink:href="#DejaVuSans-32"/>
      <use x="431.054688" xlink:href="#DejaVuSans-61"/>
      <use x="514.84375" xlink:href="#DejaVuSans-32"/>
      <use x="546.630859" xlink:href="#DejaVuSans-51"/>
      <use x="610.253906" xlink:href="#DejaVuSans-48"/>
      <use x="673.876953" xlink:href="#DejaVuSans-37"/>
     </g>
    </g>
    <g id="line2d_35">
     <path d="M 275.801625 90.515813 
L 297.401625 90.515813 
" style="fill:none;stroke:#9467bd;stroke-linecap:square;stroke-opacity:0.7;stroke-width:4;"/>
    </g>
    <g id="line2d_36"/>
    <g id="text_22">
     <!-- Udbytte = 40% -->
     <g transform="translate(306.041625 94.295813)scale(0.108 -0.108)">
      <use xlink:href="#DejaVuSans-85"/>
      <use x="73.193359" xlink:href="#DejaVuSans-100"/>
      <use x="136.669922" xlink:href="#DejaVuSans-98"/>
      <use x="200.146484" xlink:href="#DejaVuSans-121"/>
      <use x="259.326172" xlink:href="#DejaVuSans-116"/>
      <use x="298.535156" xlink:href="#DejaVuSans-116"/>
      <use x="337.744141" xlink:href="#DejaVuSans-101"/>
      <use x="399.267578" xlink:href="#DejaVuSans-32"/>
      <use x="431.054688" xlink:href="#DejaVuSans-61"/>
      <use x="514.84375" xlink:href="#DejaVuSans-32"/>
      <use x="546.630859" xlink:href="#DejaVuSans-52"/>
      <use x="610.253906" xlink:href="#DejaVuSans-48"/>
      <use x="673.876953" xlink:href="#DejaVuSans-37"/>
     </g>
    </g>
    <g id="line2d_37">
     <path d="M 275.801625 106.368188 
L 297.401625 106.368188 
" style="fill:none;stroke:#8c564b;stroke-linecap:square;stroke-opacity:0.625;stroke-width:4;"/>
    </g>
    <g id="line2d_38"/>
    <g id="text_23">
     <!-- Udbytte = 50% -->
     <g transform="translate(306.041625 110.148188)scale(0.108 -0.108)">
      <use xlink:href="#DejaVuSans-85"/>
      <use x="73.193359" xlink:href="#DejaVuSans-100"/>
      <use x="136.669922" xlink:href="#DejaVuSans-98"/>
      <use x="200.146484" xlink:href="#DejaVuSans-121"/>
      <use x="259.326172" xlink:href="#DejaVuSans-116"/>
      <use x="298.535156" xlink:href="#DejaVuSans-116"/>
      <use x="337.744141" xlink:href="#DejaVuSans-101"/>
      <use x="399.267578" xlink:href="#DejaVuSans-32"/>
      <use x="431.054688" xlink:href="#DejaVuSans-61"/>
      <use x="514.84375" xlink:href="#DejaVuSans-32"/>
      <use x="546.630859" xlink:href="#DejaVuSans-53"/>
      <use x="610.253906" xlink:href="#DejaVuSans-48"/>
      <use x="673.876953" xlink:href="#DejaVuSans-37"/>
     </g>
    </g>
    <g id="line2d_39">
     <path d="M 275.801625 122.220563 
L 297.401625 122.220563 
" style="fill:none;stroke:#e377c2;stroke-linecap:square;stroke-opacity:0.55;stroke-width:4;"/>
    </g>
    <g id="line2d_40"/>
    <g id="text_24">
     <!-- Udbytte = 60% -->
     <g transform="translate(306.041625 126.000563)scale(0.108 -0.108)">
      <use xlink:href="#DejaVuSans-85"/>
      <use x="73.193359" xlink:href="#DejaVuSans-100"/>
      <use x="136.669922" xlink:href="#DejaVuSans-98"/>
      <use x="200.146484" xlink:href="#DejaVuSans-121"/>
      <use x="259.326172" xlink:href="#DejaVuSans-116"/>
      <use x="298.535156" xlink:href="#DejaVuSans-116"/>
      <use x="337.744141" xlink:href="#DejaVuSans-101"/>
      <use x="399.267578" xlink:href="#DejaVuSans-32"/>
      <use x="431.054688" xlink:href="#DejaVuSans-61"/>
      <use x="514.84375" xlink:href="#DejaVuSans-32"/>
      <use x="546.630859" xlink:href="#DejaVuSans-54"/>
      <use x="610.253906" xlink:href="#DejaVuSans-48"/>
      <use x="673.876953" xlink:href="#DejaVuSans-37"/>
     </g>
    </g>
    <g id="line2d_41">
     <path d="M 275.801625 138.072938 
L 297.401625 138.072938 
" style="fill:none;stroke:#7f7f7f;stroke-linecap:square;stroke-opacity:0.475;stroke-width:4;"/>
    </g>
    <g id="line2d_42"/>
    <g id="text_25">
     <!-- Udbytte = 70% -->
     <g transform="translate(306.041625 141.852938)scale(0.108 -0.108)">
      <defs>
       <path d="M 8.203125 72.90625 
L 55.078125 72.90625 
L 55.078125 68.703125 
L 28.609375 0 
L 18.3125 0 
L 43.21875 64.59375 
L 8.203125 64.59375 
z
" id="DejaVuSans-55"/>
      </defs>
      <use xlink:href="#DejaVuSans-85"/>
      <use x="73.193359" xlink:href="#DejaVuSans-100"/>
      <use x="136.669922" xlink:href="#DejaVuSans-98"/>
      <use x="200.146484" xlink:href="#DejaVuSans-121"/>
      <use x="259.326172" xlink:href="#DejaVuSans-116"/>
      <use x="298.535156" xlink:href="#DejaVuSans-116"/>
      <use x="337.744141" xlink:href="#DejaVuSans-101"/>
      <use x="399.267578" xlink:href="#DejaVuSans-32"/>
      <use x="431.054688" xlink:href="#DejaVuSans-61"/>
      <use x="514.84375" xlink:href="#DejaVuSans-32"/>
      <use x="546.630859" xlink:href="#DejaVuSans-55"/>
      <use x="610.253906" xlink:href="#DejaVuSans-48"/>
      <use x="673.876953" xlink:href="#DejaVuSans-37"/>
     </g>
    </g>
    <g id="line2d_43">
     <path d="M 275.801625 153.925313 
L 297.401625 153.925313 
" style="fill:none;stroke:#bcbd22;stroke-linecap:square;stroke-opacity:0.4;stroke-width:4;"/>
    </g>
    <g id="line2d_44"/>
    <g id="text_26">
     <!-- Udbytte = 80% -->
     <g transform="translate(306.041625 157.705313)scale(0.108 -0.108)">
      <use xlink:href="#DejaVuSans-85"/>
      <use x="73.193359" xlink:href="#DejaVuSans-100"/>
      <use x="136.669922" xlink:href="#DejaVuSans-98"/>
      <use x="200.146484" xlink:href="#DejaVuSans-121"/>
      <use x="259.326172" xlink:href="#DejaVuSans-116"/>
      <use x="298.535156" xlink:href="#DejaVuSans-116"/>
      <use x="337.744141" xlink:href="#DejaVuSans-101"/>
      <use x="399.267578" xlink:href="#DejaVuSans-32"/>
      <use x="431.054688" xlink:href="#DejaVuSans-61"/>
      <use x="514.84375" xlink:href="#DejaVuSans-32"/>
      <use x="546.630859" xlink:href="#DejaVuSans-56"/>
      <use x="610.253906" xlink:href="#DejaVuSans-48"/>
      <use x="673.876953" xlink:href="#DejaVuSans-37"/>
     </g>
    </g>
    <g id="line2d_45">
     <path d="M 275.801625 169.777688 
L 297.401625 169.777688 
" style="fill:none;stroke:#17becf;stroke-linecap:square;stroke-opacity:0.325;stroke-width:4;"/>
    </g>
    <g id="line2d_46"/>
    <g id="text_27">
     <!-- Udbytte = 90% -->
     <g transform="translate(306.041625 173.557688)scale(0.108 -0.108)">
      <defs>
       <path d="M 10.984375 1.515625 
L 10.984375 10.5 
Q 14.703125 8.734375 18.5 7.8125 
Q 22.3125 6.890625 25.984375 6.890625 
Q 35.75 6.890625 40.890625 13.453125 
Q 46.046875 20.015625 46.78125 33.40625 
Q 43.953125 29.203125 39.59375 26.953125 
Q 35.25 24.703125 29.984375 24.703125 
Q 19.046875 24.703125 12.671875 31.3125 
Q 6.296875 37.9375 6.296875 49.421875 
Q 6.296875 60.640625 12.9375 67.421875 
Q 19.578125 74.21875 30.609375 74.21875 
Q 43.265625 74.21875 49.921875 64.515625 
Q 56.59375 54.828125 56.59375 36.375 
Q 56.59375 19.140625 48.40625 8.859375 
Q 40.234375 -1.421875 26.421875 -1.421875 
Q 22.703125 -1.421875 18.890625 -0.6875 
Q 15.09375 0.046875 10.984375 1.515625 
z
M 30.609375 32.421875 
Q 37.25 32.421875 41.125 36.953125 
Q 45.015625 41.5 45.015625 49.421875 
Q 45.015625 57.28125 41.125 61.84375 
Q 37.25 66.40625 30.609375 66.40625 
Q 23.96875 66.40625 20.09375 61.84375 
Q 16.21875 57.28125 16.21875 49.421875 
Q 16.21875 41.5 20.09375 36.953125 
Q 23.96875 32.421875 30.609375 32.421875 
z
" id="DejaVuSans-57"/>
      </defs>
      <use xlink:href="#DejaVuSans-85"/>
      <use x="73.193359" xlink:href="#DejaVuSans-100"/>
      <use x="136.669922" xlink:href="#DejaVuSans-98"/>
      <use x="200.146484" xlink:href="#DejaVuSans-121"/>
      <use x="259.326172" xlink:href="#DejaVuSans-116"/>
      <use x="298.535156" xlink:href="#DejaVuSans-116"/>
      <use x="337.744141" xlink:href="#DejaVuSans-101"/>
      <use x="399.267578" xlink:href="#DejaVuSans-32"/>
      <use x="431.054688" xlink:href="#DejaVuSans-61"/>
      <use x="514.84375" xlink:href="#DejaVuSans-32"/>
      <use x="546.630859" xlink:href="#DejaVuSans-57"/>
      <use x="610.253906" xlink:href="#DejaVuSans-48"/>
      <use x="673.876953" xlink:href="#DejaVuSans-37"/>
     </g>
    </g>
    <g id="line2d_47">
     <path d="M 275.801625 185.630063 
L 297.401625 185.630063 
" style="fill:none;stroke:#1f77b4;stroke-linecap:square;stroke-opacity:0.25;stroke-width:4;"/>
    </g>
    <g id="line2d_48"/>
    <g id="text_28">
     <!-- Udbytte = 100% -->
     <g transform="translate(306.041625 189.410063)scale(0.108 -0.108)">
      <use xlink:href="#DejaVuSans-85"/>
      <use x="73.193359" xlink:href="#DejaVuSans-100"/>
      <use x="136.669922" xlink:href="#DejaVuSans-98"/>
      <use x="200.146484" xlink:href="#DejaVuSans-121"/>
      <use x="259.326172" xlink:href="#DejaVuSans-116"/>
      <use x="298.535156" xlink:href="#DejaVuSans-116"/>
      <use x="337.744141" xlink:href="#DejaVuSans-101"/>
      <use x="399.267578" xlink:href="#DejaVuSans-32"/>
      <use x="431.054688" xlink:href="#DejaVuSans-61"/>
      <use x="514.84375" xlink:href="#DejaVuSans-32"/>
      <use x="546.630859" xlink:href="#DejaVuSans-49"/>
      <use x="610.253906" xlink:href="#DejaVuSans-48"/>
      <use x="673.876953" xlink:href="#DejaVuSans-48"/>
      <use x="737.5" xlink:href="#DejaVuSans-37"/>
     </g>
    </g>
   </g>
  </g>
 </g>
 <defs>
  <clipPath id="p968f554dd0">
   <rect height="301.48" width="355.615" x="50.06" y="12.96"/>
  </clipPath>
 </defs>
</svg>
