<?xml version="1.0" encoding="utf-8" standalone="no"?>
<!DOCTYPE svg PUBLIC "-//W3C//DTD SVG 1.1//EN"
  "http://www.w3.org/Graphics/SVG/1.1/DTD/svg11.dtd">
<!-- Created with matplotlib (https://matplotlib.org/) -->
<svg height="360pt" version="1.1" viewBox="0 0 432 360" width="432pt" xmlns="http://www.w3.org/2000/svg" xmlns:xlink="http://www.w3.org/1999/xlink">
 <metadata>
  <rdf:RDF xmlns:cc="http://creativecommons.org/ns#" xmlns:dc="http://purl.org/dc/elements/1.1/" xmlns:rdf="http://www.w3.org/1999/02/22-rdf-syntax-ns#">
   <cc:Work>
    <dc:type rdf:resource="http://purl.org/dc/dcmitype/StillImage"/>
    <dc:date>2020-11-16T18:58:32.738674</dc:date>
    <dc:format>image/svg+xml</dc:format>
    <dc:creator>
     <cc:Agent>
      <dc:title>Matplotlib v3.3.2, https://matplotlib.org/</dc:title>
     </cc:Agent>
    </dc:creator>
   </cc:Work>
  </rdf:RDF>
 </metadata>
 <defs>
  <style type="text/css">*{stroke-linecap:butt;stroke-linejoin:round;}</style>
 </defs>
 <g id="figure_1">
  <g id="patch_1">
   <path d="M 0 360 
L 432 360 
L 432 0 
L 0 0 
z
" style="fill:#ffffff;"/>
  </g>
  <g id="axes_1">
   <g id="patch_2">
    <path d="M 61.49 314.44 
L 416.024235 314.44 
L 416.024235 24.6 
L 61.49 24.6 
z
" style="fill:#ffffff;"/>
   </g>
   <g id="matplotlib.axis_1">
    <g id="xtick_1">
     <g id="line2d_1">
      <defs>
       <path d="M 0 0 
L 0 3.5 
" id="med587ab67a" style="stroke:#000000;stroke-width:0.8;"/>
      </defs>
      <g>
       <use style="stroke:#000000;stroke-width:0.8;" x="126.451137" xlink:href="#med587ab67a" y="314.44"/>
      </g>
     </g>
     <g id="text_1">
      <!-- 1 -->
      <g transform="translate(122.633637 330.558125)scale(0.12 -0.12)">
       <defs>
        <path d="M 12.40625 8.296875 
L 28.515625 8.296875 
L 28.515625 63.921875 
L 10.984375 60.40625 
L 10.984375 69.390625 
L 28.421875 72.90625 
L 38.28125 72.90625 
L 38.28125 8.296875 
L 54.390625 8.296875 
L 54.390625 0 
L 12.40625 0 
z
" id="DejaVuSans-49"/>
       </defs>
       <use xlink:href="#DejaVuSans-49"/>
      </g>
     </g>
    </g>
    <g id="xtick_2">
     <g id="line2d_2">
      <g>
       <use style="stroke:#000000;stroke-width:0.8;" x="198.630178" xlink:href="#med587ab67a" y="314.44"/>
      </g>
     </g>
     <g id="text_2">
      <!-- 2 -->
      <g transform="translate(194.812678 330.558125)scale(0.12 -0.12)">
       <defs>
        <path d="M 19.1875 8.296875 
L 53.609375 8.296875 
L 53.609375 0 
L 7.328125 0 
L 7.328125 8.296875 
Q 12.9375 14.109375 22.625 23.890625 
Q 32.328125 33.6875 34.8125 36.53125 
Q 39.546875 41.84375 41.421875 45.53125 
Q 43.3125 49.21875 43.3125 52.78125 
Q 43.3125 58.59375 39.234375 62.25 
Q 35.15625 65.921875 28.609375 65.921875 
Q 23.96875 65.921875 18.8125 64.3125 
Q 13.671875 62.703125 7.8125 59.421875 
L 7.8125 69.390625 
Q 13.765625 71.78125 18.9375 73 
Q 24.125 74.21875 28.421875 74.21875 
Q 39.75 74.21875 46.484375 68.546875 
Q 53.21875 62.890625 53.21875 53.421875 
Q 53.21875 48.921875 51.53125 44.890625 
Q 49.859375 40.875 45.40625 35.40625 
Q 44.1875 33.984375 37.640625 27.21875 
Q 31.109375 20.453125 19.1875 8.296875 
z
" id="DejaVuSans-50"/>
       </defs>
       <use xlink:href="#DejaVuSans-50"/>
      </g>
     </g>
    </g>
    <g id="xtick_3">
     <g id="line2d_3">
      <g>
       <use style="stroke:#000000;stroke-width:0.8;" x="270.809219" xlink:href="#med587ab67a" y="314.44"/>
      </g>
     </g>
     <g id="text_3">
      <!-- 3 -->
      <g transform="translate(266.991719 330.558125)scale(0.12 -0.12)">
       <defs>
        <path d="M 40.578125 39.3125 
Q 47.65625 37.796875 51.625 33 
Q 55.609375 28.21875 55.609375 21.1875 
Q 55.609375 10.40625 48.1875 4.484375 
Q 40.765625 -1.421875 27.09375 -1.421875 
Q 22.515625 -1.421875 17.65625 -0.515625 
Q 12.796875 0.390625 7.625 2.203125 
L 7.625 11.71875 
Q 11.71875 9.328125 16.59375 8.109375 
Q 21.484375 6.890625 26.8125 6.890625 
Q 36.078125 6.890625 40.9375 10.546875 
Q 45.796875 14.203125 45.796875 21.1875 
Q 45.796875 27.640625 41.28125 31.265625 
Q 36.765625 34.90625 28.71875 34.90625 
L 20.21875 34.90625 
L 20.21875 43.015625 
L 29.109375 43.015625 
Q 36.375 43.015625 40.234375 45.921875 
Q 44.09375 48.828125 44.09375 54.296875 
Q 44.09375 59.90625 40.109375 62.90625 
Q 36.140625 65.921875 28.71875 65.921875 
Q 24.65625 65.921875 20.015625 65.03125 
Q 15.375 64.15625 9.8125 62.3125 
L 9.8125 71.09375 
Q 15.4375 72.65625 20.34375 73.4375 
Q 25.25 74.21875 29.59375 74.21875 
Q 40.828125 74.21875 47.359375 69.109375 
Q 53.90625 64.015625 53.90625 55.328125 
Q 53.90625 49.265625 50.4375 45.09375 
Q 46.96875 40.921875 40.578125 39.3125 
z
" id="DejaVuSans-51"/>
       </defs>
       <use xlink:href="#DejaVuSans-51"/>
      </g>
     </g>
    </g>
    <g id="xtick_4">
     <g id="line2d_4">
      <g>
       <use style="stroke:#000000;stroke-width:0.8;" x="342.98826" xlink:href="#med587ab67a" y="314.44"/>
      </g>
     </g>
     <g id="text_4">
      <!-- 4 -->
      <g transform="translate(339.17076 330.558125)scale(0.12 -0.12)">
       <defs>
        <path d="M 37.796875 64.3125 
L 12.890625 25.390625 
L 37.796875 25.390625 
z
M 35.203125 72.90625 
L 47.609375 72.90625 
L 47.609375 25.390625 
L 58.015625 25.390625 
L 58.015625 17.1875 
L 47.609375 17.1875 
L 47.609375 0 
L 37.796875 0 
L 37.796875 17.1875 
L 4.890625 17.1875 
L 4.890625 26.703125 
z
" id="DejaVuSans-52"/>
       </defs>
       <use xlink:href="#DejaVuSans-52"/>
      </g>
     </g>
    </g>
    <g id="xtick_5">
     <g id="line2d_5">
      <g>
       <use style="stroke:#000000;stroke-width:0.8;" x="415.167301" xlink:href="#med587ab67a" y="314.44"/>
      </g>
     </g>
     <g id="text_5">
      <!-- 5 -->
      <g transform="translate(411.349801 330.558125)scale(0.12 -0.12)">
       <defs>
        <path d="M 10.796875 72.90625 
L 49.515625 72.90625 
L 49.515625 64.59375 
L 19.828125 64.59375 
L 19.828125 46.734375 
Q 21.96875 47.46875 24.109375 47.828125 
Q 26.265625 48.1875 28.421875 48.1875 
Q 40.625 48.1875 47.75 41.5 
Q 54.890625 34.8125 54.890625 23.390625 
Q 54.890625 11.625 47.5625 5.09375 
Q 40.234375 -1.421875 26.90625 -1.421875 
Q 22.3125 -1.421875 17.546875 -0.640625 
Q 12.796875 0.140625 7.71875 1.703125 
L 7.71875 11.625 
Q 12.109375 9.234375 16.796875 8.0625 
Q 21.484375 6.890625 26.703125 6.890625 
Q 35.15625 6.890625 40.078125 11.328125 
Q 45.015625 15.765625 45.015625 23.390625 
Q 45.015625 31 40.078125 35.4375 
Q 35.15625 39.890625 26.703125 39.890625 
Q 22.75 39.890625 18.8125 39.015625 
Q 14.890625 38.140625 10.796875 36.28125 
z
" id="DejaVuSans-53"/>
       </defs>
       <use xlink:href="#DejaVuSans-53"/>
      </g>
     </g>
    </g>
    <g id="text_6">
     <!-- Depot salgsværdi [DKK] -->
     <g transform="translate(166.94368 346.171875)scale(0.12 -0.12)">
      <defs>
       <path d="M 19.671875 64.796875 
L 19.671875 8.109375 
L 31.59375 8.109375 
Q 46.6875 8.109375 53.6875 14.9375 
Q 60.6875 21.78125 60.6875 36.53125 
Q 60.6875 51.171875 53.6875 57.984375 
Q 46.6875 64.796875 31.59375 64.796875 
z
M 9.8125 72.90625 
L 30.078125 72.90625 
Q 51.265625 72.90625 61.171875 64.09375 
Q 71.09375 55.28125 71.09375 36.53125 
Q 71.09375 17.671875 61.125 8.828125 
Q 51.171875 0 30.078125 0 
L 9.8125 0 
z
" id="DejaVuSans-68"/>
       <path d="M 56.203125 29.59375 
L 56.203125 25.203125 
L 14.890625 25.203125 
Q 15.484375 15.921875 20.484375 11.0625 
Q 25.484375 6.203125 34.421875 6.203125 
Q 39.59375 6.203125 44.453125 7.46875 
Q 49.3125 8.734375 54.109375 11.28125 
L 54.109375 2.78125 
Q 49.265625 0.734375 44.1875 -0.34375 
Q 39.109375 -1.421875 33.890625 -1.421875 
Q 20.796875 -1.421875 13.15625 6.1875 
Q 5.515625 13.8125 5.515625 26.8125 
Q 5.515625 40.234375 12.765625 48.109375 
Q 20.015625 56 32.328125 56 
Q 43.359375 56 49.78125 48.890625 
Q 56.203125 41.796875 56.203125 29.59375 
z
M 47.21875 32.234375 
Q 47.125 39.59375 43.09375 43.984375 
Q 39.0625 48.390625 32.421875 48.390625 
Q 24.90625 48.390625 20.390625 44.140625 
Q 15.875 39.890625 15.1875 32.171875 
z
" id="DejaVuSans-101"/>
       <path d="M 18.109375 8.203125 
L 18.109375 -20.796875 
L 9.078125 -20.796875 
L 9.078125 54.6875 
L 18.109375 54.6875 
L 18.109375 46.390625 
Q 20.953125 51.265625 25.265625 53.625 
Q 29.59375 56 35.59375 56 
Q 45.5625 56 51.78125 48.09375 
Q 58.015625 40.1875 58.015625 27.296875 
Q 58.015625 14.40625 51.78125 6.484375 
Q 45.5625 -1.421875 35.59375 -1.421875 
Q 29.59375 -1.421875 25.265625 0.953125 
Q 20.953125 3.328125 18.109375 8.203125 
z
M 48.6875 27.296875 
Q 48.6875 37.203125 44.609375 42.84375 
Q 40.53125 48.484375 33.40625 48.484375 
Q 26.265625 48.484375 22.1875 42.84375 
Q 18.109375 37.203125 18.109375 27.296875 
Q 18.109375 17.390625 22.1875 11.75 
Q 26.265625 6.109375 33.40625 6.109375 
Q 40.53125 6.109375 44.609375 11.75 
Q 48.6875 17.390625 48.6875 27.296875 
z
" id="DejaVuSans-112"/>
       <path d="M 30.609375 48.390625 
Q 23.390625 48.390625 19.1875 42.75 
Q 14.984375 37.109375 14.984375 27.296875 
Q 14.984375 17.484375 19.15625 11.84375 
Q 23.34375 6.203125 30.609375 6.203125 
Q 37.796875 6.203125 41.984375 11.859375 
Q 46.1875 17.53125 46.1875 27.296875 
Q 46.1875 37.015625 41.984375 42.703125 
Q 37.796875 48.390625 30.609375 48.390625 
z
M 30.609375 56 
Q 42.328125 56 49.015625 48.375 
Q 55.71875 40.765625 55.71875 27.296875 
Q 55.71875 13.875 49.015625 6.21875 
Q 42.328125 -1.421875 30.609375 -1.421875 
Q 18.84375 -1.421875 12.171875 6.21875 
Q 5.515625 13.875 5.515625 27.296875 
Q 5.515625 40.765625 12.171875 48.375 
Q 18.84375 56 30.609375 56 
z
" id="DejaVuSans-111"/>
       <path d="M 18.3125 70.21875 
L 18.3125 54.6875 
L 36.8125 54.6875 
L 36.8125 47.703125 
L 18.3125 47.703125 
L 18.3125 18.015625 
Q 18.3125 11.328125 20.140625 9.421875 
Q 21.96875 7.515625 27.59375 7.515625 
L 36.8125 7.515625 
L 36.8125 0 
L 27.59375 0 
Q 17.1875 0 13.234375 3.875 
Q 9.28125 7.765625 9.28125 18.015625 
L 9.28125 47.703125 
L 2.6875 47.703125 
L 2.6875 54.6875 
L 9.28125 54.6875 
L 9.28125 70.21875 
z
" id="DejaVuSans-116"/>
       <path id="DejaVuSans-32"/>
       <path d="M 44.28125 53.078125 
L 44.28125 44.578125 
Q 40.484375 46.53125 36.375 47.5 
Q 32.28125 48.484375 27.875 48.484375 
Q 21.1875 48.484375 17.84375 46.4375 
Q 14.5 44.390625 14.5 40.28125 
Q 14.5 37.15625 16.890625 35.375 
Q 19.28125 33.59375 26.515625 31.984375 
L 29.59375 31.296875 
Q 39.15625 29.25 43.1875 25.515625 
Q 47.21875 21.78125 47.21875 15.09375 
Q 47.21875 7.46875 41.1875 3.015625 
Q 35.15625 -1.421875 24.609375 -1.421875 
Q 20.21875 -1.421875 15.453125 -0.5625 
Q 10.6875 0.296875 5.421875 2 
L 5.421875 11.28125 
Q 10.40625 8.6875 15.234375 7.390625 
Q 20.0625 6.109375 24.8125 6.109375 
Q 31.15625 6.109375 34.5625 8.28125 
Q 37.984375 10.453125 37.984375 14.40625 
Q 37.984375 18.0625 35.515625 20.015625 
Q 33.0625 21.96875 24.703125 23.78125 
L 21.578125 24.515625 
Q 13.234375 26.265625 9.515625 29.90625 
Q 5.8125 33.546875 5.8125 39.890625 
Q 5.8125 47.609375 11.28125 51.796875 
Q 16.75 56 26.8125 56 
Q 31.78125 56 36.171875 55.265625 
Q 40.578125 54.546875 44.28125 53.078125 
z
" id="DejaVuSans-115"/>
       <path d="M 34.28125 27.484375 
Q 23.390625 27.484375 19.1875 25 
Q 14.984375 22.515625 14.984375 16.5 
Q 14.984375 11.71875 18.140625 8.90625 
Q 21.296875 6.109375 26.703125 6.109375 
Q 34.1875 6.109375 38.703125 11.40625 
Q 43.21875 16.703125 43.21875 25.484375 
L 43.21875 27.484375 
z
M 52.203125 31.203125 
L 52.203125 0 
L 43.21875 0 
L 43.21875 8.296875 
Q 40.140625 3.328125 35.546875 0.953125 
Q 30.953125 -1.421875 24.3125 -1.421875 
Q 15.921875 -1.421875 10.953125 3.296875 
Q 6 8.015625 6 15.921875 
Q 6 25.140625 12.171875 29.828125 
Q 18.359375 34.515625 30.609375 34.515625 
L 43.21875 34.515625 
L 43.21875 35.40625 
Q 43.21875 41.609375 39.140625 45 
Q 35.0625 48.390625 27.6875 48.390625 
Q 23 48.390625 18.546875 47.265625 
Q 14.109375 46.140625 10.015625 43.890625 
L 10.015625 52.203125 
Q 14.9375 54.109375 19.578125 55.046875 
Q 24.21875 56 28.609375 56 
Q 40.484375 56 46.34375 49.84375 
Q 52.203125 43.703125 52.203125 31.203125 
z
" id="DejaVuSans-97"/>
       <path d="M 9.421875 75.984375 
L 18.40625 75.984375 
L 18.40625 0 
L 9.421875 0 
z
" id="DejaVuSans-108"/>
       <path d="M 45.40625 27.984375 
Q 45.40625 37.75 41.375 43.109375 
Q 37.359375 48.484375 30.078125 48.484375 
Q 22.859375 48.484375 18.828125 43.109375 
Q 14.796875 37.75 14.796875 27.984375 
Q 14.796875 18.265625 18.828125 12.890625 
Q 22.859375 7.515625 30.078125 7.515625 
Q 37.359375 7.515625 41.375 12.890625 
Q 45.40625 18.265625 45.40625 27.984375 
z
M 54.390625 6.78125 
Q 54.390625 -7.171875 48.1875 -13.984375 
Q 42 -20.796875 29.203125 -20.796875 
Q 24.46875 -20.796875 20.265625 -20.09375 
Q 16.0625 -19.390625 12.109375 -17.921875 
L 12.109375 -9.1875 
Q 16.0625 -11.328125 19.921875 -12.34375 
Q 23.78125 -13.375 27.78125 -13.375 
Q 36.625 -13.375 41.015625 -8.765625 
Q 45.40625 -4.15625 45.40625 5.171875 
L 45.40625 9.625 
Q 42.625 4.78125 38.28125 2.390625 
Q 33.9375 0 27.875 0 
Q 17.828125 0 11.671875 7.65625 
Q 5.515625 15.328125 5.515625 27.984375 
Q 5.515625 40.671875 11.671875 48.328125 
Q 17.828125 56 27.875 56 
Q 33.9375 56 38.28125 53.609375 
Q 42.625 51.21875 45.40625 46.390625 
L 45.40625 54.6875 
L 54.390625 54.6875 
z
" id="DejaVuSans-103"/>
       <path d="M 2.984375 54.6875 
L 12.5 54.6875 
L 29.59375 8.796875 
L 46.6875 54.6875 
L 56.203125 54.6875 
L 35.6875 0 
L 23.484375 0 
z
" id="DejaVuSans-118"/>
       <path d="M 83.890625 32.234375 
Q 83.84375 39.59375 79.8125 43.984375 
Q 75.78125 48.390625 69.09375 48.390625 
Q 61.625 48.390625 57.109375 44.140625 
Q 52.59375 39.890625 51.90625 32.171875 
z
M 48.578125 47.015625 
Q 52.203125 51.421875 57.375 53.703125 
Q 62.546875 56 69 56 
Q 80.03125 56 86.46875 48.890625 
Q 92.921875 41.796875 92.921875 29.59375 
L 92.921875 25.203125 
L 51.609375 25.203125 
Q 52.203125 15.875 57.171875 10.984375 
Q 62.15625 6.109375 71.09375 6.109375 
Q 76.171875 6.109375 81.046875 7.390625 
Q 85.9375 8.6875 90.828125 11.28125 
L 90.828125 2.78125 
Q 85.9375 0.734375 80.859375 -0.34375 
Q 75.78125 -1.421875 70.609375 -1.421875 
Q 62.453125 -1.421875 56.390625 1.53125 
Q 50.34375 4.5 46.578125 10.296875 
Q 43.015625 4.4375 37.734375 1.5 
Q 32.46875 -1.421875 25.484375 -1.421875 
Q 16.265625 -1.421875 11.125 3.140625 
Q 6 7.71875 6 15.921875 
Q 6 25.140625 12.171875 29.828125 
Q 18.359375 34.515625 30.609375 34.515625 
L 43.21875 34.515625 
L 43.21875 35.40625 
Q 43.21875 41.609375 39.140625 45 
Q 35.0625 48.390625 27.6875 48.390625 
Q 23 48.390625 18.546875 47.265625 
Q 14.109375 46.140625 10.015625 43.890625 
L 10.015625 52.203125 
Q 14.9375 54.109375 19.578125 55.046875 
Q 24.21875 56 28.609375 56 
Q 35.546875 56 40.75 53.65625 
Q 45.953125 51.3125 48.578125 47.015625 
z
M 34.28125 27.484375 
Q 23.390625 27.484375 19.1875 25 
Q 14.984375 22.515625 14.984375 16.5 
Q 14.984375 11.71875 18.140625 8.90625 
Q 21.296875 6.109375 26.703125 6.109375 
Q 34.1875 6.109375 38.703125 11.40625 
Q 43.21875 16.703125 43.21875 25.484375 
L 43.21875 27.484375 
z
" id="DejaVuSans-230"/>
       <path d="M 41.109375 46.296875 
Q 39.59375 47.171875 37.8125 47.578125 
Q 36.03125 48 33.890625 48 
Q 26.265625 48 22.1875 43.046875 
Q 18.109375 38.09375 18.109375 28.8125 
L 18.109375 0 
L 9.078125 0 
L 9.078125 54.6875 
L 18.109375 54.6875 
L 18.109375 46.1875 
Q 20.953125 51.171875 25.484375 53.578125 
Q 30.03125 56 36.53125 56 
Q 37.453125 56 38.578125 55.875 
Q 39.703125 55.765625 41.0625 55.515625 
z
" id="DejaVuSans-114"/>
       <path d="M 45.40625 46.390625 
L 45.40625 75.984375 
L 54.390625 75.984375 
L 54.390625 0 
L 45.40625 0 
L 45.40625 8.203125 
Q 42.578125 3.328125 38.25 0.953125 
Q 33.9375 -1.421875 27.875 -1.421875 
Q 17.96875 -1.421875 11.734375 6.484375 
Q 5.515625 14.40625 5.515625 27.296875 
Q 5.515625 40.1875 11.734375 48.09375 
Q 17.96875 56 27.875 56 
Q 33.9375 56 38.25 53.625 
Q 42.578125 51.265625 45.40625 46.390625 
z
M 14.796875 27.296875 
Q 14.796875 17.390625 18.875 11.75 
Q 22.953125 6.109375 30.078125 6.109375 
Q 37.203125 6.109375 41.296875 11.75 
Q 45.40625 17.390625 45.40625 27.296875 
Q 45.40625 37.203125 41.296875 42.84375 
Q 37.203125 48.484375 30.078125 48.484375 
Q 22.953125 48.484375 18.875 42.84375 
Q 14.796875 37.203125 14.796875 27.296875 
z
" id="DejaVuSans-100"/>
       <path d="M 9.421875 54.6875 
L 18.40625 54.6875 
L 18.40625 0 
L 9.421875 0 
z
M 9.421875 75.984375 
L 18.40625 75.984375 
L 18.40625 64.59375 
L 9.421875 64.59375 
z
" id="DejaVuSans-105"/>
       <path d="M 8.59375 75.984375 
L 29.296875 75.984375 
L 29.296875 69 
L 17.578125 69 
L 17.578125 -6.203125 
L 29.296875 -6.203125 
L 29.296875 -13.1875 
L 8.59375 -13.1875 
z
" id="DejaVuSans-91"/>
       <path d="M 9.8125 72.90625 
L 19.671875 72.90625 
L 19.671875 42.09375 
L 52.390625 72.90625 
L 65.09375 72.90625 
L 28.90625 38.921875 
L 67.671875 0 
L 54.6875 0 
L 19.671875 35.109375 
L 19.671875 0 
L 9.8125 0 
z
" id="DejaVuSans-75"/>
       <path d="M 30.421875 75.984375 
L 30.421875 -13.1875 
L 9.71875 -13.1875 
L 9.71875 -6.203125 
L 21.390625 -6.203125 
L 21.390625 69 
L 9.71875 69 
L 9.71875 75.984375 
z
" id="DejaVuSans-93"/>
      </defs>
      <use xlink:href="#DejaVuSans-68"/>
      <use x="77.001953" xlink:href="#DejaVuSans-101"/>
      <use x="138.525391" xlink:href="#DejaVuSans-112"/>
      <use x="202.001953" xlink:href="#DejaVuSans-111"/>
      <use x="263.183594" xlink:href="#DejaVuSans-116"/>
      <use x="302.392578" xlink:href="#DejaVuSans-32"/>
      <use x="334.179688" xlink:href="#DejaVuSans-115"/>
      <use x="386.279297" xlink:href="#DejaVuSans-97"/>
      <use x="447.558594" xlink:href="#DejaVuSans-108"/>
      <use x="475.341797" xlink:href="#DejaVuSans-103"/>
      <use x="538.818359" xlink:href="#DejaVuSans-115"/>
      <use x="590.917969" xlink:href="#DejaVuSans-118"/>
      <use x="650.097656" xlink:href="#DejaVuSans-230"/>
      <use x="748.291016" xlink:href="#DejaVuSans-114"/>
      <use x="787.654297" xlink:href="#DejaVuSans-100"/>
      <use x="851.130859" xlink:href="#DejaVuSans-105"/>
      <use x="878.914062" xlink:href="#DejaVuSans-32"/>
      <use x="910.701172" xlink:href="#DejaVuSans-91"/>
      <use x="949.714844" xlink:href="#DejaVuSans-68"/>
      <use x="1026.716797" xlink:href="#DejaVuSans-75"/>
      <use x="1092.292969" xlink:href="#DejaVuSans-75"/>
      <use x="1157.869141" xlink:href="#DejaVuSans-93"/>
     </g>
    </g>
    <g id="text_7">
     <!-- 1e6 -->
     <g transform="translate(393.370485 345.171875)scale(0.12 -0.12)">
      <defs>
       <path d="M 33.015625 40.375 
Q 26.375 40.375 22.484375 35.828125 
Q 18.609375 31.296875 18.609375 23.390625 
Q 18.609375 15.53125 22.484375 10.953125 
Q 26.375 6.390625 33.015625 6.390625 
Q 39.65625 6.390625 43.53125 10.953125 
Q 47.40625 15.53125 47.40625 23.390625 
Q 47.40625 31.296875 43.53125 35.828125 
Q 39.65625 40.375 33.015625 40.375 
z
M 52.59375 71.296875 
L 52.59375 62.3125 
Q 48.875 64.0625 45.09375 64.984375 
Q 41.3125 65.921875 37.59375 65.921875 
Q 27.828125 65.921875 22.671875 59.328125 
Q 17.53125 52.734375 16.796875 39.40625 
Q 19.671875 43.65625 24.015625 45.921875 
Q 28.375 48.1875 33.59375 48.1875 
Q 44.578125 48.1875 50.953125 41.515625 
Q 57.328125 34.859375 57.328125 23.390625 
Q 57.328125 12.15625 50.6875 5.359375 
Q 44.046875 -1.421875 33.015625 -1.421875 
Q 20.359375 -1.421875 13.671875 8.265625 
Q 6.984375 17.96875 6.984375 36.375 
Q 6.984375 53.65625 15.1875 63.9375 
Q 23.390625 74.21875 37.203125 74.21875 
Q 40.921875 74.21875 44.703125 73.484375 
Q 48.484375 72.75 52.59375 71.296875 
z
" id="DejaVuSans-54"/>
      </defs>
      <use xlink:href="#DejaVuSans-49"/>
      <use x="63.623047" xlink:href="#DejaVuSans-101"/>
      <use x="125.146484" xlink:href="#DejaVuSans-54"/>
     </g>
    </g>
   </g>
   <g id="matplotlib.axis_2">
    <g id="ytick_1">
     <g id="line2d_6">
      <defs>
       <path d="M 0 0 
L -3.5 0 
" id="m73f87ff9a6" style="stroke:#000000;stroke-width:0.8;"/>
      </defs>
      <g>
       <use style="stroke:#000000;stroke-width:0.8;" x="61.49" xlink:href="#m73f87ff9a6" y="314.44"/>
      </g>
     </g>
     <g id="text_8">
      <!-- 0.00 -->
      <g transform="translate(27.77125 318.999063)scale(0.12 -0.12)">
       <defs>
        <path d="M 31.78125 66.40625 
Q 24.171875 66.40625 20.328125 58.90625 
Q 16.5 51.421875 16.5 36.375 
Q 16.5 21.390625 20.328125 13.890625 
Q 24.171875 6.390625 31.78125 6.390625 
Q 39.453125 6.390625 43.28125 13.890625 
Q 47.125 21.390625 47.125 36.375 
Q 47.125 51.421875 43.28125 58.90625 
Q 39.453125 66.40625 31.78125 66.40625 
z
M 31.78125 74.21875 
Q 44.046875 74.21875 50.515625 64.515625 
Q 56.984375 54.828125 56.984375 36.375 
Q 56.984375 17.96875 50.515625 8.265625 
Q 44.046875 -1.421875 31.78125 -1.421875 
Q 19.53125 -1.421875 13.0625 8.265625 
Q 6.59375 17.96875 6.59375 36.375 
Q 6.59375 54.828125 13.0625 64.515625 
Q 19.53125 74.21875 31.78125 74.21875 
z
" id="DejaVuSans-48"/>
        <path d="M 10.6875 12.40625 
L 21 12.40625 
L 21 0 
L 10.6875 0 
z
" id="DejaVuSans-46"/>
       </defs>
       <use xlink:href="#DejaVuSans-48"/>
       <use x="63.623047" xlink:href="#DejaVuSans-46"/>
       <use x="95.410156" xlink:href="#DejaVuSans-48"/>
       <use x="159.033203" xlink:href="#DejaVuSans-48"/>
      </g>
     </g>
    </g>
    <g id="ytick_2">
     <g id="line2d_7">
      <g>
       <use style="stroke:#000000;stroke-width:0.8;" x="61.49" xlink:href="#m73f87ff9a6" y="278.21"/>
      </g>
     </g>
     <g id="text_9">
      <!-- 0.25 -->
      <g transform="translate(27.77125 282.769063)scale(0.12 -0.12)">
       <use xlink:href="#DejaVuSans-48"/>
       <use x="63.623047" xlink:href="#DejaVuSans-46"/>
       <use x="95.410156" xlink:href="#DejaVuSans-50"/>
       <use x="159.033203" xlink:href="#DejaVuSans-53"/>
      </g>
     </g>
    </g>
    <g id="ytick_3">
     <g id="line2d_8">
      <g>
       <use style="stroke:#000000;stroke-width:0.8;" x="61.49" xlink:href="#m73f87ff9a6" y="241.98"/>
      </g>
     </g>
     <g id="text_10">
      <!-- 0.50 -->
      <g transform="translate(27.77125 246.539062)scale(0.12 -0.12)">
       <use xlink:href="#DejaVuSans-48"/>
       <use x="63.623047" xlink:href="#DejaVuSans-46"/>
       <use x="95.410156" xlink:href="#DejaVuSans-53"/>
       <use x="159.033203" xlink:href="#DejaVuSans-48"/>
      </g>
     </g>
    </g>
    <g id="ytick_4">
     <g id="line2d_9">
      <g>
       <use style="stroke:#000000;stroke-width:0.8;" x="61.49" xlink:href="#m73f87ff9a6" y="205.75"/>
      </g>
     </g>
     <g id="text_11">
      <!-- 0.75 -->
      <g transform="translate(27.77125 210.309063)scale(0.12 -0.12)">
       <defs>
        <path d="M 8.203125 72.90625 
L 55.078125 72.90625 
L 55.078125 68.703125 
L 28.609375 0 
L 18.3125 0 
L 43.21875 64.59375 
L 8.203125 64.59375 
z
" id="DejaVuSans-55"/>
       </defs>
       <use xlink:href="#DejaVuSans-48"/>
       <use x="63.623047" xlink:href="#DejaVuSans-46"/>
       <use x="95.410156" xlink:href="#DejaVuSans-55"/>
       <use x="159.033203" xlink:href="#DejaVuSans-53"/>
      </g>
     </g>
    </g>
    <g id="ytick_5">
     <g id="line2d_10">
      <g>
       <use style="stroke:#000000;stroke-width:0.8;" x="61.49" xlink:href="#m73f87ff9a6" y="169.52"/>
      </g>
     </g>
     <g id="text_12">
      <!-- 1.00 -->
      <g transform="translate(27.77125 174.079063)scale(0.12 -0.12)">
       <use xlink:href="#DejaVuSans-49"/>
       <use x="63.623047" xlink:href="#DejaVuSans-46"/>
       <use x="95.410156" xlink:href="#DejaVuSans-48"/>
       <use x="159.033203" xlink:href="#DejaVuSans-48"/>
      </g>
     </g>
    </g>
    <g id="ytick_6">
     <g id="line2d_11">
      <g>
       <use style="stroke:#000000;stroke-width:0.8;" x="61.49" xlink:href="#m73f87ff9a6" y="133.29"/>
      </g>
     </g>
     <g id="text_13">
      <!-- 1.25 -->
      <g transform="translate(27.77125 137.849063)scale(0.12 -0.12)">
       <use xlink:href="#DejaVuSans-49"/>
       <use x="63.623047" xlink:href="#DejaVuSans-46"/>
       <use x="95.410156" xlink:href="#DejaVuSans-50"/>
       <use x="159.033203" xlink:href="#DejaVuSans-53"/>
      </g>
     </g>
    </g>
    <g id="ytick_7">
     <g id="line2d_12">
      <g>
       <use style="stroke:#000000;stroke-width:0.8;" x="61.49" xlink:href="#m73f87ff9a6" y="97.06"/>
      </g>
     </g>
     <g id="text_14">
      <!-- 1.50 -->
      <g transform="translate(27.77125 101.619062)scale(0.12 -0.12)">
       <use xlink:href="#DejaVuSans-49"/>
       <use x="63.623047" xlink:href="#DejaVuSans-46"/>
       <use x="95.410156" xlink:href="#DejaVuSans-53"/>
       <use x="159.033203" xlink:href="#DejaVuSans-48"/>
      </g>
     </g>
    </g>
    <g id="ytick_8">
     <g id="line2d_13">
      <g>
       <use style="stroke:#000000;stroke-width:0.8;" x="61.49" xlink:href="#m73f87ff9a6" y="60.83"/>
      </g>
     </g>
     <g id="text_15">
      <!-- 1.75 -->
      <g transform="translate(27.77125 65.389063)scale(0.12 -0.12)">
       <use xlink:href="#DejaVuSans-49"/>
       <use x="63.623047" xlink:href="#DejaVuSans-46"/>
       <use x="95.410156" xlink:href="#DejaVuSans-55"/>
       <use x="159.033203" xlink:href="#DejaVuSans-53"/>
      </g>
     </g>
    </g>
    <g id="ytick_9">
     <g id="line2d_14">
      <g>
       <use style="stroke:#000000;stroke-width:0.8;" x="61.49" xlink:href="#m73f87ff9a6" y="24.6"/>
      </g>
     </g>
     <g id="text_16">
      <!-- 2.00 -->
      <g transform="translate(27.77125 29.159063)scale(0.12 -0.12)">
       <use xlink:href="#DejaVuSans-50"/>
       <use x="63.623047" xlink:href="#DejaVuSans-46"/>
       <use x="95.410156" xlink:href="#DejaVuSans-48"/>
       <use x="159.033203" xlink:href="#DejaVuSans-48"/>
      </g>
     </g>
    </g>
    <g id="text_17">
     <!-- Arbitrær værdi -->
     <g transform="translate(21.275625 213.930313)rotate(-90)scale(0.12 -0.12)">
      <defs>
       <path d="M 34.1875 63.1875 
L 20.796875 26.90625 
L 47.609375 26.90625 
z
M 28.609375 72.90625 
L 39.796875 72.90625 
L 67.578125 0 
L 57.328125 0 
L 50.6875 18.703125 
L 17.828125 18.703125 
L 11.1875 0 
L 0.78125 0 
z
" id="DejaVuSans-65"/>
       <path d="M 48.6875 27.296875 
Q 48.6875 37.203125 44.609375 42.84375 
Q 40.53125 48.484375 33.40625 48.484375 
Q 26.265625 48.484375 22.1875 42.84375 
Q 18.109375 37.203125 18.109375 27.296875 
Q 18.109375 17.390625 22.1875 11.75 
Q 26.265625 6.109375 33.40625 6.109375 
Q 40.53125 6.109375 44.609375 11.75 
Q 48.6875 17.390625 48.6875 27.296875 
z
M 18.109375 46.390625 
Q 20.953125 51.265625 25.265625 53.625 
Q 29.59375 56 35.59375 56 
Q 45.5625 56 51.78125 48.09375 
Q 58.015625 40.1875 58.015625 27.296875 
Q 58.015625 14.40625 51.78125 6.484375 
Q 45.5625 -1.421875 35.59375 -1.421875 
Q 29.59375 -1.421875 25.265625 0.953125 
Q 20.953125 3.328125 18.109375 8.203125 
L 18.109375 0 
L 9.078125 0 
L 9.078125 75.984375 
L 18.109375 75.984375 
z
" id="DejaVuSans-98"/>
      </defs>
      <use xlink:href="#DejaVuSans-65"/>
      <use x="68.408203" xlink:href="#DejaVuSans-114"/>
      <use x="109.521484" xlink:href="#DejaVuSans-98"/>
      <use x="172.998047" xlink:href="#DejaVuSans-105"/>
      <use x="200.78125" xlink:href="#DejaVuSans-116"/>
      <use x="239.990234" xlink:href="#DejaVuSans-114"/>
      <use x="281.103516" xlink:href="#DejaVuSans-230"/>
      <use x="379.296875" xlink:href="#DejaVuSans-114"/>
      <use x="420.410156" xlink:href="#DejaVuSans-32"/>
      <use x="452.197266" xlink:href="#DejaVuSans-118"/>
      <use x="511.376953" xlink:href="#DejaVuSans-230"/>
      <use x="609.570312" xlink:href="#DejaVuSans-114"/>
      <use x="648.933594" xlink:href="#DejaVuSans-100"/>
      <use x="712.410156" xlink:href="#DejaVuSans-105"/>
     </g>
    </g>
    <g id="text_18">
     <!-- 1e−6 -->
     <g transform="translate(61.49 21.6)scale(0.12 -0.12)">
      <defs>
       <path d="M 10.59375 35.5 
L 73.1875 35.5 
L 73.1875 27.203125 
L 10.59375 27.203125 
z
" id="DejaVuSans-8722"/>
      </defs>
      <use xlink:href="#DejaVuSans-49"/>
      <use x="63.623047" xlink:href="#DejaVuSans-101"/>
      <use x="125.146484" xlink:href="#DejaVuSans-8722"/>
      <use x="208.935547" xlink:href="#DejaVuSans-54"/>
     </g>
    </g>
   </g>
   <g id="line2d_15">
    <path clip-path="url(#pcccfc82fb7)" d="M 61.49 314.438136 
L 70.397895 314.356421 
L 73.961053 314.140505 
L 75.742633 313.901151 
L 77.524212 313.502158 
L 79.305791 312.860096 
L 81.08737 311.862234 
L 82.868949 310.363731 
L 84.650528 308.18823 
L 86.432107 305.133334 
L 88.213686 300.98211 
L 89.995265 295.52105 
L 91.776844 288.564032 
L 93.558423 279.980686 
L 95.340002 269.72655 
L 97.121581 257.871448 
L 98.90316 244.621847 
L 102.466319 215.504137 
L 106.029477 186.810077 
L 107.811056 174.385343 
L 109.592635 164.174058 
L 111.374214 156.744635 
L 113.155793 152.480558 
L 114.937372 151.534172 
L 116.718951 153.809056 
L 118.50053 158.975113 
L 120.282109 166.514233 
L 122.063688 175.788318 
L 125.626847 196.852106 
L 129.190005 217.427831 
L 130.971584 226.530244 
L 132.753163 234.558085 
L 134.534742 241.420353 
L 136.316321 247.085573 
L 138.0979 251.551722 
L 139.879479 254.824833 
L 141.661058 256.909374 
L 143.442637 257.81069 
L 145.224216 257.547503 
L 147.005795 256.170708 
L 148.787374 253.783511 
L 150.568953 250.55739 
L 152.350533 246.738622 
L 155.913691 238.626932 
L 157.69527 235.068219 
L 159.476849 232.309511 
L 161.258428 230.624269 
L 163.040007 230.18204 
L 164.821586 231.030145 
L 166.603165 233.093804 
L 168.384744 236.194246 
L 170.166323 240.080707 
L 173.729481 249.08482 
L 177.29264 258.107057 
L 179.074219 262.235106 
L 180.855798 266.036707 
L 182.637377 269.529886 
L 186.200535 275.81548 
L 189.763693 281.559757 
L 193.326851 286.947675 
L 195.10843 289.446979 
L 196.890009 291.74528 
L 198.671588 293.782683 
L 200.453167 295.506606 
L 202.234746 296.87974 
L 204.016326 297.884933 
L 205.797905 298.527064 
L 207.579484 298.832415 
L 209.361063 298.846262 
L 211.142642 298.629275 
L 214.7058 297.795131 
L 218.268958 296.937889 
L 220.050537 296.668897 
L 221.832116 296.56685 
L 223.613695 296.650409 
L 225.395274 296.914165 
L 228.958433 297.849311 
L 234.30317 299.426267 
L 236.084749 299.774346 
L 237.866328 299.981035 
L 241.429486 300.01141 
L 246.774223 299.798096 
L 248.555802 299.899397 
L 250.337381 300.162733 
L 252.11896 300.600689 
L 253.90054 301.199683 
L 257.463698 302.718749 
L 261.026856 304.295489 
L 264.590014 305.553186 
L 268.153172 306.364764 
L 271.71633 306.844414 
L 278.842646 307.461412 
L 284.187384 307.73823 
L 289.532121 307.763124 
L 294.876858 307.763197 
L 298.440016 307.919637 
L 303.784753 308.432499 
L 309.129491 308.923272 
L 312.692649 308.939204 
L 316.255807 308.566781 
L 319.818965 307.816988 
L 323.382123 306.802809 
L 332.290019 304.115729 
L 335.853177 303.332947 
L 339.416335 302.879546 
L 342.979493 302.826387 
L 346.542651 303.19806 
L 350.105809 303.972317 
L 353.668967 305.09373 
L 357.232126 306.483982 
L 369.703179 311.727877 
L 373.266337 312.788759 
L 376.829495 313.530757 
L 380.392653 313.990679 
L 383.955812 314.242176 
L 389.300549 314.394146 
L 403.553181 314.43979 
L 416.024235 314.44 
L 416.024235 314.44 
" style="fill:none;stroke:#1f77b4;stroke-linecap:square;stroke-width:4;"/>
   </g>
   <g id="line2d_16">
    <path clip-path="url(#pcccfc82fb7)" d="M 61.49 314.439057 
L 72.179474 314.333047 
L 75.742633 314.056746 
L 77.524212 313.752736 
L 79.305791 313.250201 
L 81.08737 312.449936 
L 82.868949 311.221403 
L 84.650528 309.401888 
L 86.432107 306.799982 
L 88.213686 303.204478 
L 89.995265 298.399189 
L 91.776844 292.183388 
L 93.558423 284.396747 
L 95.340002 274.946966 
L 97.121581 263.837697 
L 98.90316 251.193825 
L 102.466319 222.511771 
L 106.029477 192.74995 
L 107.811056 179.172883 
L 109.592635 167.459858 
L 111.374214 158.283805 
L 113.155793 152.164053 
L 114.937372 149.400064 
L 116.718951 150.031945 
L 118.50053 153.83694 
L 120.282109 160.363766 
L 122.063688 168.998281 
L 123.845267 179.047033 
L 129.190005 211.216502 
L 130.971584 220.98299 
L 132.753163 229.773011 
L 134.534742 237.446216 
L 136.316321 243.923902 
L 138.0979 249.158572 
L 139.879479 253.113994 
L 141.661058 255.758833 
L 143.442637 257.073402 
L 145.224216 257.066328 
L 147.005795 255.796178 
L 148.787374 253.392078 
L 150.568953 250.067232 
L 154.132112 241.919625 
L 155.913691 237.875353 
L 157.69527 234.394403 
L 159.476849 231.833963 
L 161.258428 230.457322 
L 163.040007 230.402568 
L 164.821586 231.670232 
L 166.603165 234.132114 
L 168.384744 237.558982 
L 170.166323 241.661101 
L 177.29264 259.294857 
L 179.074219 263.116897 
L 180.855798 266.600388 
L 184.418956 272.772052 
L 187.982114 278.348308 
L 191.545272 283.622502 
L 195.10843 288.424387 
L 196.890009 290.514745 
L 198.671588 292.326824 
L 200.453167 293.824476 
L 202.234746 294.991493 
L 204.016326 295.832327 
L 205.797905 296.370242 
L 207.579484 296.6442 
L 209.361063 296.705449 
L 212.924221 296.435667 
L 216.487379 296.08007 
L 218.268958 296.019473 
L 220.050537 296.094067 
L 221.832116 296.324142 
L 223.613695 296.708506 
L 227.176853 297.828669 
L 230.740012 299.06832 
L 232.521591 299.576583 
L 234.30317 299.93934 
L 236.084749 300.128059 
L 237.866328 300.143002 
L 241.429486 299.805303 
L 244.992644 299.450905 
L 246.774223 299.460742 
L 248.555802 299.666531 
L 250.337381 300.083064 
L 252.11896 300.690988 
L 255.682119 302.271297 
L 259.245277 303.891657 
L 262.808435 305.150285 
L 266.371593 305.963308 
L 269.934751 306.478067 
L 275.279488 307.000838 
L 280.624226 307.264283 
L 293.095279 307.532089 
L 303.784753 308.543657 
L 305.566333 308.530951 
L 307.347912 308.405609 
L 309.129491 308.160706 
L 312.692649 307.333986 
L 316.255807 306.170206 
L 323.382123 303.593661 
L 326.945281 302.576952 
L 328.72686 302.218704 
L 330.508439 301.985762 
L 332.290019 301.890483 
L 334.071598 301.93837 
L 335.853177 302.127894 
L 337.634756 302.45147 
L 341.197914 303.451249 
L 344.761072 304.825578 
L 348.32423 306.458366 
L 357.232126 310.744619 
L 360.795284 312.114337 
L 364.358442 313.122128 
L 367.9216 313.773456 
L 371.484758 314.141467 
L 376.829495 314.369875 
L 387.51897 314.438511 
L 416.024235 314.44 
L 416.024235 314.44 
" style="fill:none;stroke:#ff7f0e;stroke-linecap:square;stroke-opacity:0.925;stroke-width:4;"/>
   </g>
   <g id="line2d_17">
    <path clip-path="url(#pcccfc82fb7)" d="M 61.49 314.439684 
L 72.179474 314.382494 
L 75.742633 314.207632 
L 77.524212 314.000577 
L 79.305791 313.641381 
L 81.08737 313.043866 
L 82.868949 312.089981 
L 84.650528 310.627155 
L 86.432107 308.469844 
L 88.213686 305.406613 
L 89.995265 301.213338 
L 91.776844 295.672151 
L 93.558423 288.594853 
L 95.340002 279.849041 
L 97.121581 269.38505 
L 98.90316 257.261911 
L 100.68474 243.670152 
L 104.247898 213.588499 
L 107.811056 183.60143 
L 109.592635 170.511069 
L 111.374214 159.718466 
L 113.155793 151.867805 
L 114.937372 147.397248 
L 116.718951 146.476812 
L 118.50053 148.985213 
L 120.282109 154.532588 
L 122.063688 162.524766 
L 123.845267 172.254404 
L 130.971584 215.352889 
L 132.753163 224.825525 
L 134.534742 233.247601 
L 136.316321 240.484978 
L 138.0979 246.427461 
L 139.879479 250.974127 
L 141.661058 254.036062 
L 143.442637 255.553882 
L 145.224216 255.524034 
L 147.005795 254.026164 
L 148.787374 251.24358 
L 150.568953 247.469885 
L 155.913691 234.413075 
L 157.69527 231.025448 
L 159.476849 228.776674 
L 161.258428 227.889705 
L 163.040007 228.434295 
L 164.821586 230.329432 
L 166.603165 233.368487 
L 168.384744 237.261206 
L 171.947902 246.32825 
L 175.51106 255.347253 
L 177.29264 259.458578 
L 179.074219 263.261816 
L 182.637377 270.132396 
L 186.200535 276.430475 
L 189.763693 282.328814 
L 191.545272 285.042551 
L 193.326851 287.515068 
L 195.10843 289.684513 
L 196.890009 291.505346 
L 198.671588 292.955228 
L 200.453167 294.036433 
L 202.234746 294.7733 
L 204.016326 295.207866 
L 205.797905 295.395465 
L 209.361063 295.295658 
L 212.924221 295.042239 
L 214.7058 295.024919 
L 216.487379 295.144943 
L 218.268958 295.424645 
L 220.050537 295.861265 
L 223.613695 297.071079 
L 227.176853 298.324781 
L 228.958433 298.79338 
L 230.740012 299.083571 
L 232.521591 299.174717 
L 234.30317 299.083655 
L 239.647907 298.405566 
L 241.429486 298.358503 
L 243.211065 298.533405 
L 244.992644 298.958544 
L 246.774223 299.617307 
L 250.337381 301.389558 
L 253.90054 303.226908 
L 255.682119 304.007163 
L 257.463698 304.658489 
L 261.026856 305.606807 
L 264.590014 306.229636 
L 268.153172 306.650746 
L 271.71633 306.88002 
L 277.061067 306.892228 
L 282.405805 306.860465 
L 285.968963 307.050394 
L 294.876858 307.860931 
L 296.658437 307.83718 
L 298.440016 307.680407 
L 300.221595 307.379445 
L 302.003174 306.937055 
L 305.566333 305.699216 
L 314.474228 302.064641 
L 316.255807 301.547823 
L 318.037386 301.181604 
L 319.818965 300.986768 
L 321.600544 300.972403 
L 323.382123 301.135692 
L 325.163702 301.464076 
L 326.945281 301.939148 
L 330.508439 303.251197 
L 334.071598 304.936558 
L 339.416335 307.889024 
L 342.979493 309.865576 
L 346.542651 311.574868 
L 350.105809 312.851581 
L 353.668967 313.668448 
L 357.232126 314.114315 
L 360.795284 314.321359 
L 367.9216 314.430123 
L 408.897919 314.44 
L 416.024235 314.44 
L 416.024235 314.44 
" style="fill:none;stroke:#2ca02c;stroke-linecap:square;stroke-opacity:0.85;stroke-width:4;"/>
   </g>
   <g id="line2d_18">
    <path clip-path="url(#pcccfc82fb7)" d="M 61.49 314.439916 
L 73.961053 314.376968 
L 77.524212 314.169863 
L 79.305791 313.918256 
L 81.08737 313.476593 
L 82.868949 312.73722 
L 84.650528 311.555326 
L 86.432107 309.74863 
L 88.213686 307.102955 
L 89.995265 303.384292 
L 91.776844 298.35669 
L 93.558423 291.804256 
L 95.340002 283.555396 
L 97.121581 273.508166 
L 98.90316 261.65668 
L 100.68474 248.11864 
L 102.466319 233.162375 
L 107.811056 185.059268 
L 109.592635 170.483788 
L 111.374214 158.105115 
L 113.155793 148.721567 
L 114.937372 142.917079 
L 116.718951 140.970641 
L 118.50053 142.815125 
L 120.282109 148.057522 
L 122.063688 156.055596 
L 123.845267 166.030261 
L 127.408426 188.798708 
L 130.971584 211.218066 
L 132.753163 221.268323 
L 134.534742 230.203584 
L 136.316321 237.826047 
L 138.0979 243.951813 
L 139.879479 248.409569 
L 141.661058 251.062213 
L 143.442637 251.844023 
L 145.224216 250.80177 
L 147.005795 248.126786 
L 148.787374 244.166541 
L 154.132112 229.857697 
L 155.913691 226.235134 
L 157.69527 224.003022 
L 159.476849 223.416933 
L 161.258428 224.527033 
L 163.040007 227.186131 
L 164.821586 231.08909 
L 166.603165 235.835286 
L 171.947902 251.190517 
L 173.729481 255.784734 
L 175.51106 259.963728 
L 179.074219 267.352227 
L 182.637377 274.063854 
L 186.200535 280.312206 
L 187.982114 283.126941 
L 189.763693 285.628281 
L 191.545272 287.75657 
L 193.326851 289.485455 
L 195.10843 290.822396 
L 196.890009 291.801027 
L 198.671588 292.471058 
L 200.453167 292.890633 
L 202.234746 293.123054 
L 209.361063 293.57804 
L 211.142642 293.897475 
L 212.924221 294.374292 
L 216.487379 295.731416 
L 220.050537 297.258764 
L 221.832116 297.896026 
L 223.613695 298.350714 
L 225.395274 298.574337 
L 227.176853 298.554906 
L 228.958433 298.326179 
L 234.30317 297.335775 
L 236.084749 297.300558 
L 237.866328 297.560059 
L 239.647907 298.127436 
L 241.429486 298.958439 
L 248.555802 303.034582 
L 250.337381 303.834949 
L 252.11896 304.484378 
L 255.682119 305.395097 
L 259.245277 305.925465 
L 262.808435 306.167915 
L 268.153172 306.154611 
L 273.497909 306.176834 
L 277.061067 306.453106 
L 282.405805 307.008344 
L 284.187384 307.068515 
L 285.968963 306.992321 
L 287.750542 306.750853 
L 289.532121 306.333209 
L 291.3137 305.74747 
L 294.876858 304.184352 
L 300.221595 301.550898 
L 302.003174 300.816699 
L 303.784753 300.245773 
L 305.566333 299.880552 
L 307.347912 299.746801 
L 309.129491 299.850324 
L 310.91107 300.178058 
L 312.692649 300.703564 
L 314.474228 301.394947 
L 318.037386 303.16075 
L 321.600544 305.296249 
L 328.72686 309.895763 
L 332.290019 311.783197 
L 334.071598 312.517468 
L 335.853177 313.102082 
L 337.634756 313.545837 
L 341.197914 314.087912 
L 344.761072 314.323556 
L 351.887388 314.432633 
L 403.553181 314.44 
L 416.024235 314.44 
L 416.024235 314.44 
" style="fill:none;stroke:#d62728;stroke-linecap:square;stroke-opacity:0.775;stroke-width:4;"/>
   </g>
   <g id="line2d_19">
    <path clip-path="url(#pcccfc82fb7)" d="M 61.49 314.439983 
L 75.742633 314.369919 
L 79.305791 314.117002 
L 81.08737 313.799699 
L 82.868949 313.234298 
L 84.650528 312.279939 
L 86.432107 310.751175 
L 88.213686 308.421838 
L 89.995265 305.036704 
L 91.776844 300.329828 
L 93.558423 294.046747 
L 95.340002 285.967948 
L 97.121581 275.933253 
L 98.90316 263.869821 
L 100.68474 249.827577 
L 102.466319 234.02271 
L 106.029477 199.072364 
L 107.811056 181.491859 
L 109.592635 165.207841 
L 111.374214 151.335296 
L 113.155793 140.875079 
L 114.937372 134.548325 
L 116.718951 132.672242 
L 118.50053 135.113943 
L 120.282109 141.335861 
L 122.063688 150.517343 
L 123.845267 161.71417 
L 130.971584 210.509583 
L 132.753163 220.998951 
L 134.534742 230.115593 
L 136.316321 237.583381 
L 138.0979 243.133923 
L 139.879479 246.537217 
L 141.661058 247.658472 
L 143.442637 246.523192 
L 145.224216 243.368929 
L 147.005795 238.663963 
L 150.568953 227.420263 
L 152.350533 222.50642 
L 154.132112 219.059005 
L 155.913691 217.584454 
L 157.69527 218.300699 
L 159.476849 221.114761 
L 161.258428 225.657441 
L 163.040007 231.367924 
L 166.603165 243.799524 
L 168.384744 249.501226 
L 170.166323 254.49432 
L 171.947902 258.770341 
L 173.729481 262.480542 
L 177.29264 269.075102 
L 182.637377 278.524901 
L 184.418956 281.352385 
L 186.200535 283.817744 
L 187.982114 285.848442 
L 189.763693 287.432539 
L 191.545272 288.608773 
L 193.326851 289.445757 
L 195.10843 290.02295 
L 198.671588 290.718157 
L 202.234746 291.326942 
L 204.016326 291.777315 
L 205.797905 292.383925 
L 207.579484 293.149793 
L 214.7058 296.736044 
L 216.487379 297.351499 
L 218.268958 297.703837 
L 220.050537 297.7642 
L 221.832116 297.553145 
L 227.176853 296.287208 
L 228.958433 296.132338 
L 230.740012 296.311991 
L 232.521591 296.859243 
L 234.30317 297.732685 
L 237.866328 300.030124 
L 241.429486 302.259755 
L 243.211065 303.148834 
L 244.992644 303.857451 
L 246.774223 304.397396 
L 248.555802 304.790984 
L 252.11896 305.227249 
L 255.682119 305.324737 
L 262.808435 305.312967 
L 266.371593 305.590541 
L 271.71633 306.087815 
L 273.497909 306.060915 
L 275.279488 305.844939 
L 277.061067 305.409628 
L 278.842646 304.751956 
L 280.624226 303.896941 
L 284.187384 301.815297 
L 287.750542 299.770825 
L 289.532121 298.986466 
L 291.3137 298.464697 
L 293.095279 298.253137 
L 294.876858 298.365288 
L 296.658437 298.781379 
L 298.440016 299.457985 
L 300.221595 300.342772 
L 303.784753 302.557933 
L 307.347912 305.16699 
L 312.692649 309.249846 
L 314.474228 310.459949 
L 316.255807 311.512793 
L 318.037386 312.38069 
L 319.818965 313.057226 
L 321.600544 313.555345 
L 323.382123 313.901529 
L 326.945281 314.268983 
L 332.290019 314.419442 
L 351.887388 314.44 
L 416.024235 314.44 
L 416.024235 314.44 
" style="fill:none;stroke:#9467bd;stroke-linecap:square;stroke-opacity:0.7;stroke-width:4;"/>
   </g>
   <g id="line2d_20">
    <path clip-path="url(#pcccfc82fb7)" d="M 61.49 314.439997 
L 77.524212 314.351885 
L 79.305791 314.238443 
L 81.08737 314.006302 
L 82.868949 313.560871 
L 84.650528 312.758197 
L 86.432107 311.396991 
L 88.213686 309.21882 
L 89.995265 305.919028 
L 91.776844 301.16753 
L 93.558423 294.635502 
L 95.340002 286.023689 
L 97.121581 275.092121 
L 98.90316 261.697275 
L 100.68474 245.84581 
L 102.466319 227.768307 
L 109.592635 149.219695 
L 111.374214 134.586732 
L 113.155793 124.737042 
L 114.937372 120.447529 
L 116.718951 121.820725 
L 118.50053 128.278479 
L 120.282109 138.717158 
L 122.063688 151.769683 
L 127.408426 194.348611 
L 129.190005 207.006996 
L 130.971584 218.227551 
L 132.753163 227.79659 
L 134.534742 235.485185 
L 136.316321 241.019574 
L 138.0979 244.122007 
L 139.879479 244.605218 
L 141.661058 242.486809 
L 143.442637 238.082365 
L 145.224216 232.039884 
L 148.787374 218.932127 
L 150.568953 214.02241 
L 152.350533 211.4065 
L 154.132112 211.547962 
L 155.913691 214.452272 
L 157.69527 219.686598 
L 159.476849 226.49309 
L 163.040007 241.261903 
L 164.821586 247.754248 
L 166.603165 253.152859 
L 168.384744 257.498285 
L 170.166323 261.073749 
L 179.074219 276.947332 
L 180.855798 279.785004 
L 182.637377 282.163836 
L 184.418956 284.024361 
L 186.200535 285.400537 
L 187.982114 286.386189 
L 189.763693 287.095211 
L 193.326851 288.105701 
L 196.890009 289.174611 
L 198.671588 289.911948 
L 200.453167 290.826584 
L 204.016326 293.038321 
L 205.797905 294.159135 
L 207.579484 295.14088 
L 209.361063 295.879962 
L 211.142642 296.3015 
L 212.924221 296.375144 
L 214.7058 296.128958 
L 220.050537 294.680673 
L 221.832116 294.538053 
L 223.613695 294.803772 
L 225.395274 295.50887 
L 227.176853 296.591033 
L 234.30317 301.862573 
L 236.084749 302.825871 
L 237.866328 303.557648 
L 239.647907 304.072705 
L 241.429486 304.397985 
L 243.211065 304.564782 
L 246.774223 304.563309 
L 252.11896 304.352916 
L 255.682119 304.499915 
L 261.026856 304.905604 
L 262.808435 304.814991 
L 264.590014 304.484903 
L 266.371593 303.876946 
L 268.153172 302.996054 
L 271.71633 300.661601 
L 275.279488 298.320835 
L 277.061067 297.480789 
L 278.842646 297.00387 
L 280.624226 296.939157 
L 282.405805 297.279576 
L 284.187384 297.972694 
L 285.968963 298.944094 
L 287.750542 300.122579 
L 291.3137 302.908409 
L 300.221595 310.507462 
L 302.003174 311.659452 
L 303.784753 312.575061 
L 305.566333 313.256409 
L 307.347912 313.730604 
L 309.129491 314.039093 
L 312.692649 314.333183 
L 318.037386 314.430786 
L 355.450546 314.44 
L 416.024235 314.44 
L 416.024235 314.44 
" style="fill:none;stroke:#8c564b;stroke-linecap:square;stroke-opacity:0.625;stroke-width:4;"/>
   </g>
   <g id="line2d_21">
    <path clip-path="url(#pcccfc82fb7)" d="M 61.49 314.439999 
L 77.524212 314.374726 
L 79.305791 314.276965 
L 81.08737 314.059416 
L 82.868949 313.608551 
L 84.650528 312.737276 
L 86.432107 311.164872 
L 88.213686 308.509411 
L 89.995265 304.302486 
L 91.776844 298.031455 
L 93.558423 289.205964 
L 95.340002 277.437894 
L 97.121581 262.522616 
L 98.90316 244.515259 
L 100.68474 223.802151 
L 106.029477 155.36489 
L 107.811056 135.685096 
L 109.592635 120.633695 
L 111.374214 111.703807 
L 113.155793 109.68217 
L 114.937372 114.440508 
L 116.718951 124.946535 
L 118.50053 139.505497 
L 123.845267 188.982576 
L 125.626847 203.05787 
L 127.408426 215.063923 
L 129.190005 225.032332 
L 130.971584 233.047094 
L 132.753163 239.073983 
L 134.534742 242.909329 
L 136.316321 244.252466 
L 138.0979 242.866673 
L 139.879479 238.769127 
L 141.661058 232.380959 
L 145.224216 216.589759 
L 147.005795 209.806327 
L 148.787374 205.463573 
L 150.568953 204.379392 
L 152.350533 206.775443 
L 154.132112 212.253257 
L 155.913691 219.923229 
L 159.476849 237.286502 
L 161.258428 244.996684 
L 163.040007 251.320715 
L 164.821586 256.239002 
L 166.603165 260.064971 
L 170.166323 266.257396 
L 175.51106 275.31721 
L 177.29264 277.972836 
L 179.074219 280.171295 
L 180.855798 281.872827 
L 182.637377 283.139881 
L 184.418956 284.093796 
L 191.545272 287.228718 
L 193.326851 288.276948 
L 196.890009 290.827012 
L 200.453167 293.416803 
L 202.234746 294.415403 
L 204.016326 295.066659 
L 205.797905 295.310069 
L 207.579484 295.150868 
L 209.361063 294.673821 
L 212.924221 293.474569 
L 214.7058 293.193893 
L 216.487379 293.37005 
L 218.268958 294.069965 
L 220.050537 295.240763 
L 223.613695 298.342081 
L 225.395274 299.880957 
L 227.176853 301.204835 
L 228.958433 302.235816 
L 230.740012 302.955473 
L 232.521591 303.387861 
L 234.30317 303.582281 
L 237.866328 303.51531 
L 241.429486 303.307618 
L 244.992644 303.389112 
L 248.555802 303.694117 
L 250.337381 303.726976 
L 252.11896 303.528187 
L 253.90054 303.007561 
L 255.682119 302.129977 
L 257.463698 300.93322 
L 262.808435 296.81561 
L 264.590014 295.890608 
L 266.371593 295.446448 
L 268.153172 295.531381 
L 269.934751 296.110022 
L 271.71633 297.09011 
L 273.497909 298.364124 
L 275.279488 299.844592 
L 278.842646 303.223384 
L 284.187384 308.620005 
L 285.968963 310.190028 
L 287.750542 311.507511 
L 289.532121 312.535238 
L 291.3137 313.278706 
L 293.095279 313.7769 
L 294.876858 314.085994 
L 298.440016 314.35795 
L 305.566333 314.438116 
L 416.024235 314.44 
L 416.024235 314.44 
" style="fill:none;stroke:#e377c2;stroke-linecap:square;stroke-opacity:0.55;stroke-width:4;"/>
   </g>
   <g id="line2d_22">
    <path clip-path="url(#pcccfc82fb7)" d="M 61.49 314.439999 
L 77.524212 314.345568 
L 79.305791 314.195982 
L 81.08737 313.852555 
L 82.868949 313.121323 
L 84.650528 311.676769 
L 86.432107 309.027339 
L 88.213686 304.511736 
L 89.995265 297.351054 
L 91.776844 286.770641 
L 93.558423 272.181624 
L 95.340002 253.385119 
L 97.121581 230.746312 
L 102.466319 153.029414 
L 104.247898 130.708742 
L 106.029477 113.866575 
L 107.811056 104.082648 
L 109.592635 102.041588 
L 111.374214 107.403541 
L 113.155793 118.906865 
L 114.937372 134.670128 
L 120.282109 187.755112 
L 122.063688 202.668205 
L 123.845267 215.183122 
L 125.626847 225.326498 
L 127.408426 233.263162 
L 129.190005 239.104726 
L 130.971584 242.799433 
L 132.753163 244.125715 
L 134.534742 242.791808 
L 136.316321 238.625176 
L 138.0979 231.803121 
L 139.879479 223.035481 
L 141.661058 213.593961 
L 143.442637 205.122835 
L 145.224216 199.258982 
L 147.005795 197.188329 
L 148.787374 199.310959 
L 150.568953 205.149026 
L 152.350533 213.530888 
L 155.913691 232.126798 
L 157.69527 240.098906 
L 159.476849 246.607914 
L 161.258428 251.891516 
L 164.821586 260.839176 
L 170.166323 274.251628 
L 171.947902 278.21001 
L 173.729481 281.464201 
L 175.51106 283.881849 
L 177.29264 285.461421 
L 179.074219 286.301342 
L 180.855798 286.567424 
L 186.200535 286.237802 
L 187.982114 286.585669 
L 189.763693 287.451418 
L 191.545272 288.822862 
L 196.890009 293.830599 
L 198.671588 294.822362 
L 200.453167 295.147224 
L 202.234746 294.842251 
L 207.579484 292.720213 
L 209.361063 292.661073 
L 211.142642 293.236283 
L 212.924221 294.397625 
L 214.7058 295.961965 
L 218.268958 299.302212 
L 220.050537 300.650695 
L 221.832116 301.628099 
L 223.613695 302.222013 
L 225.395274 302.48277 
L 227.176853 302.498831 
L 234.30317 302.111625 
L 239.647907 302.295097 
L 241.429486 302.017479 
L 243.211065 301.354897 
L 244.992644 300.270978 
L 246.774223 298.840512 
L 250.337381 295.738231 
L 252.11896 294.575561 
L 253.90054 293.954467 
L 255.682119 293.964112 
L 257.463698 294.57931 
L 259.245277 295.694842 
L 261.026856 297.181017 
L 262.808435 298.929527 
L 266.371593 302.935582 
L 269.934751 307.148922 
L 271.71633 309.070122 
L 273.497909 310.717287 
L 275.279488 312.02272 
L 277.061067 312.975425 
L 278.842646 313.614414 
L 280.624226 314.007945 
L 284.187384 314.345897 
L 289.532121 314.434685 
L 346.542651 314.44 
L 416.024235 314.44 
L 416.024235 314.44 
" style="fill:none;stroke:#7f7f7f;stroke-linecap:square;stroke-opacity:0.475;stroke-width:4;"/>
   </g>
   <g id="line2d_23">
    <path clip-path="url(#pcccfc82fb7)" d="M 61.49 314.439999 
L 75.742633 314.37033 
L 77.524212 314.244264 
L 79.305791 313.930822 
L 81.08737 313.212782 
L 82.868949 311.697387 
L 84.650528 308.751054 
L 86.432107 303.473214 
L 88.213686 294.761061 
L 89.995265 281.50673 
L 91.776844 262.92374 
L 93.558423 238.931182 
L 95.340002 210.46517 
L 98.90316 149.208629 
L 100.68474 122.701749 
L 102.466319 103.075724 
L 104.247898 92.362713 
L 106.029477 91.172893 
L 107.811056 98.654664 
L 109.592635 112.843699 
L 111.374214 131.240064 
L 114.937372 171.230639 
L 116.718951 189.336674 
L 118.50053 204.817926 
L 120.282109 217.273406 
L 122.063688 226.667371 
L 123.845267 233.195657 
L 125.626847 237.12895 
L 127.408426 238.658031 
L 129.190005 237.802747 
L 130.971584 234.452736 
L 132.753163 228.562766 
L 134.534742 220.43791 
L 138.0979 201.5782 
L 139.879479 194.018271 
L 141.661058 189.754879 
L 143.442637 189.53558 
L 145.224216 193.175629 
L 147.005795 199.735749 
L 148.787374 207.971142 
L 154.132112 234.210815 
L 161.258428 267.99025 
L 163.040007 275.76254 
L 164.821586 282.554848 
L 166.603165 287.92755 
L 168.384744 291.550934 
L 170.166323 293.303952 
L 171.947902 293.333433 
L 173.729481 292.045564 
L 177.29264 287.894198 
L 179.074219 286.183523 
L 180.855798 285.207282 
L 182.637377 285.027323 
L 184.418956 285.486555 
L 191.545272 288.743901 
L 195.10843 290.200853 
L 196.890009 291.167124 
L 198.671588 292.334192 
L 204.016326 296.409673 
L 207.579484 299.035586 
L 209.361063 300.182975 
L 211.142642 301.117329 
L 212.924221 301.758583 
L 214.7058 302.066384 
L 216.487379 302.062814 
L 220.050537 301.487769 
L 223.613695 300.942291 
L 227.176853 300.871521 
L 228.958433 300.826074 
L 230.740012 300.543376 
L 232.521591 299.860007 
L 234.30317 298.708539 
L 236.084749 297.167304 
L 239.647907 293.896061 
L 241.429486 292.784972 
L 243.211065 292.340041 
L 244.992644 292.631534 
L 246.774223 293.595687 
L 248.555802 295.092729 
L 250.337381 296.975942 
L 252.11896 299.131419 
L 259.245277 308.51553 
L 261.026856 310.403801 
L 262.808435 311.882187 
L 264.590014 312.939064 
L 266.371593 313.627217 
L 268.153172 314.034856 
L 269.934751 314.254453 
L 273.497909 314.409976 
L 285.968963 314.439997 
L 416.024235 314.44 
L 416.024235 314.44 
" style="fill:none;stroke:#bcbd22;stroke-linecap:square;stroke-opacity:0.4;stroke-width:4;"/>
   </g>
   <g id="line2d_24">
    <path clip-path="url(#pcccfc82fb7)" d="M 61.49 314.439998 
L 73.961053 314.387724 
L 75.742633 314.279487 
L 77.524212 313.987565 
L 79.305791 313.268552 
L 81.08737 311.651831 
L 82.868949 308.33452 
L 84.650528 302.125855 
L 86.432107 291.532357 
L 88.213686 275.066728 
L 89.995265 251.782795 
L 91.776844 221.898206 
L 97.121581 118.30819 
L 98.90316 92.847313 
L 100.68474 78.044845 
L 102.466319 75.110549 
L 104.247898 83.12143 
L 106.029477 99.532172 
L 107.811056 121.064672 
L 111.374214 167.526149 
L 113.155793 188.194893 
L 114.937372 205.465566 
L 116.718951 218.727178 
L 118.50053 227.778148 
L 120.282109 232.759323 
L 122.063688 234.04402 
L 123.845267 232.098607 
L 125.626847 227.390344 
L 127.408426 220.398627 
L 129.190005 211.713276 
L 132.753163 192.79368 
L 134.534742 184.931124 
L 136.316321 179.818502 
L 138.0979 178.383645 
L 139.879479 180.973475 
L 141.661058 187.287993 
L 143.442637 196.53531 
L 145.224216 207.715994 
L 152.350533 256.203889 
L 154.132112 267.079502 
L 155.913691 276.899364 
L 157.69527 285.317161 
L 159.476849 291.934976 
L 161.258428 296.413268 
L 163.040007 298.609001 
L 164.821586 298.661807 
L 166.603165 296.975938 
L 168.384744 294.108823 
L 173.729481 283.617042 
L 175.51106 280.705091 
L 177.29264 278.501221 
L 179.074219 277.212685 
L 180.855798 277.008874 
L 182.637377 277.965288 
L 184.418956 280.011019 
L 186.200535 282.920389 
L 193.326851 296.611987 
L 195.10843 299.274456 
L 196.890009 301.394478 
L 198.671588 302.95312 
L 200.453167 303.956961 
L 202.234746 304.430503 
L 204.016326 304.419695 
L 205.797905 303.999547 
L 207.579484 303.276749 
L 212.924221 300.651325 
L 214.7058 300.042612 
L 216.487379 299.655597 
L 220.050537 299.105286 
L 221.832116 298.537264 
L 223.613695 297.534898 
L 225.395274 296.080361 
L 228.958433 292.635646 
L 230.740012 291.324431 
L 232.521591 290.699992 
L 234.30317 290.902181 
L 236.084749 291.908513 
L 237.866328 293.587897 
L 239.647907 295.776364 
L 241.429486 298.324507 
L 246.774223 306.646818 
L 248.555802 309.045713 
L 250.337381 310.982104 
L 252.11896 312.399814 
L 253.90054 313.337261 
L 255.682119 313.895859 
L 257.463698 314.195503 
L 261.026856 314.402993 
L 271.71633 314.439988 
L 416.024235 314.44 
L 416.024235 314.44 
" style="fill:none;stroke:#17becf;stroke-linecap:square;stroke-opacity:0.325;stroke-width:4;"/>
   </g>
   <g id="line2d_25">
    <path clip-path="url(#pcccfc82fb7)" d="M 61.49 314.439998 
L 72.179474 314.406201 
L 73.961053 314.323889 
L 75.742633 314.078201 
L 77.524212 313.416356 
L 79.305791 311.80757 
L 81.08737 308.280627 
L 82.868949 301.312422 
L 84.650528 288.919385 
L 86.432107 269.1104 
L 88.213686 240.724959 
L 89.995265 204.407902 
L 93.558423 122.376263 
L 95.340002 88.012301 
L 97.121581 65.359484 
L 98.90316 57.174886 
L 100.68474 63.104277 
L 102.466319 80.195304 
L 104.247898 104.182226 
L 107.811056 156.880786 
L 109.592635 180.064382 
L 111.374214 199.054648 
L 113.155793 213.114706 
L 114.937372 221.990578 
L 116.718951 225.86584 
L 118.50053 225.276301 
L 120.282109 220.974748 
L 122.063688 213.82054 
L 123.845267 204.73652 
L 127.408426 184.786093 
L 129.190005 176.085909 
L 130.971584 169.763657 
L 132.753163 166.937074 
L 134.534742 168.508064 
L 136.316321 174.909908 
L 138.0979 185.888754 
L 139.879479 200.466346 
L 145.224216 250.727289 
L 147.005795 265.335864 
L 148.787374 277.656295 
L 150.568953 287.418353 
L 152.350533 294.515422 
L 154.132112 298.977736 
L 155.913691 300.964459 
L 157.69527 300.729088 
L 159.476849 298.575594 
L 161.258428 294.852983 
L 163.040007 289.998368 
L 166.603165 279.31711 
L 168.384744 274.955307 
L 170.166323 272.165317 
L 171.947902 271.345378 
L 173.729481 272.4998 
L 175.51106 275.250289 
L 177.29264 279.009546 
L 184.418956 295.76334 
L 186.200535 299.330614 
L 187.982114 302.2097 
L 189.763693 304.205942 
L 191.545272 305.285506 
L 193.326851 305.581615 
L 195.10843 305.313493 
L 196.890009 304.686253 
L 198.671588 303.833786 
L 202.234746 301.68607 
L 205.797905 299.334495 
L 207.579484 298.344652 
L 209.361063 297.580194 
L 212.924221 296.306798 
L 214.7058 295.367963 
L 216.487379 294.061228 
L 220.050537 291.154172 
L 221.832116 290.335479 
L 223.613695 290.37464 
L 225.395274 291.335056 
L 227.176853 293.074826 
L 228.958433 295.364004 
L 232.521591 300.824517 
L 236.084749 306.496415 
L 237.866328 308.976311 
L 239.647907 310.985872 
L 241.429486 312.44938 
L 243.211065 313.400722 
L 244.992644 313.9507 
L 246.774223 314.232962 
L 250.337381 314.413343 
L 262.808435 314.439999 
L 416.024235 314.44 
L 416.024235 314.44 
" style="fill:none;stroke:#1f77b4;stroke-linecap:square;stroke-opacity:0.25;stroke-width:4;"/>
   </g>
   <g id="patch_3">
    <path d="M 61.49 314.44 
L 61.49 24.6 
" style="fill:none;stroke:#000000;stroke-linecap:square;stroke-linejoin:miter;stroke-width:0.8;"/>
   </g>
   <g id="patch_4">
    <path d="M 416.024235 314.44 
L 416.024235 24.6 
" style="fill:none;stroke:#000000;stroke-linecap:square;stroke-linejoin:miter;stroke-width:0.8;"/>
   </g>
   <g id="patch_5">
    <path d="M 61.49 314.44 
L 416.024235 314.44 
" style="fill:none;stroke:#000000;stroke-linecap:square;stroke-linejoin:miter;stroke-width:0.8;"/>
   </g>
   <g id="patch_6">
    <path d="M 61.49 24.6 
L 416.024235 24.6 
" style="fill:none;stroke:#000000;stroke-linecap:square;stroke-linejoin:miter;stroke-width:0.8;"/>
   </g>
   <g id="legend_1">
    <g id="patch_7">
     <path d="M 283.99086 207.616125 
L 408.464235 207.616125 
Q 410.624235 207.616125 410.624235 205.456125 
L 410.624235 32.16 
Q 410.624235 30 408.464235 30 
L 283.99086 30 
Q 281.83086 30 281.83086 32.16 
L 281.83086 205.456125 
Q 281.83086 207.616125 283.99086 207.616125 
z
" style="fill:#ffffff;opacity:0.8;stroke:#cccccc;stroke-linejoin:miter;"/>
    </g>
    <g id="line2d_26">
     <path d="M 286.15086 38.746313 
L 307.75086 38.746313 
" style="fill:none;stroke:#1f77b4;stroke-linecap:square;stroke-width:4;"/>
    </g>
    <g id="line2d_27"/>
    <g id="text_19">
     <!-- Udbytte = 0% -->
     <g transform="translate(316.39086 42.526313)scale(0.108 -0.108)">
      <defs>
       <path d="M 8.6875 72.90625 
L 18.609375 72.90625 
L 18.609375 28.609375 
Q 18.609375 16.890625 22.84375 11.734375 
Q 27.09375 6.59375 36.625 6.59375 
Q 46.09375 6.59375 50.34375 11.734375 
Q 54.59375 16.890625 54.59375 28.609375 
L 54.59375 72.90625 
L 64.5 72.90625 
L 64.5 27.390625 
Q 64.5 13.140625 57.4375 5.859375 
Q 50.390625 -1.421875 36.625 -1.421875 
Q 22.796875 -1.421875 15.734375 5.859375 
Q 8.6875 13.140625 8.6875 27.390625 
z
" id="DejaVuSans-85"/>
       <path d="M 32.171875 -5.078125 
Q 28.375 -14.84375 24.75 -17.8125 
Q 21.140625 -20.796875 15.09375 -20.796875 
L 7.90625 -20.796875 
L 7.90625 -13.28125 
L 13.1875 -13.28125 
Q 16.890625 -13.28125 18.9375 -11.515625 
Q 21 -9.765625 23.484375 -3.21875 
L 25.09375 0.875 
L 2.984375 54.6875 
L 12.5 54.6875 
L 29.59375 11.921875 
L 46.6875 54.6875 
L 56.203125 54.6875 
z
" id="DejaVuSans-121"/>
       <path d="M 10.59375 45.40625 
L 73.1875 45.40625 
L 73.1875 37.203125 
L 10.59375 37.203125 
z
M 10.59375 25.484375 
L 73.1875 25.484375 
L 73.1875 17.1875 
L 10.59375 17.1875 
z
" id="DejaVuSans-61"/>
       <path d="M 72.703125 32.078125 
Q 68.453125 32.078125 66.03125 28.46875 
Q 63.625 24.859375 63.625 18.40625 
Q 63.625 12.0625 66.03125 8.421875 
Q 68.453125 4.78125 72.703125 4.78125 
Q 76.859375 4.78125 79.265625 8.421875 
Q 81.6875 12.0625 81.6875 18.40625 
Q 81.6875 24.8125 79.265625 28.4375 
Q 76.859375 32.078125 72.703125 32.078125 
z
M 72.703125 38.28125 
Q 80.421875 38.28125 84.953125 32.90625 
Q 89.5 27.546875 89.5 18.40625 
Q 89.5 9.28125 84.9375 3.921875 
Q 80.375 -1.421875 72.703125 -1.421875 
Q 64.890625 -1.421875 60.34375 3.921875 
Q 55.8125 9.28125 55.8125 18.40625 
Q 55.8125 27.59375 60.375 32.9375 
Q 64.9375 38.28125 72.703125 38.28125 
z
M 22.3125 68.015625 
Q 18.109375 68.015625 15.6875 64.375 
Q 13.28125 60.75 13.28125 54.390625 
Q 13.28125 47.953125 15.671875 44.328125 
Q 18.0625 40.71875 22.3125 40.71875 
Q 26.5625 40.71875 28.96875 44.328125 
Q 31.390625 47.953125 31.390625 54.390625 
Q 31.390625 60.6875 28.953125 64.34375 
Q 26.515625 68.015625 22.3125 68.015625 
z
M 66.40625 74.21875 
L 74.21875 74.21875 
L 28.609375 -1.421875 
L 20.796875 -1.421875 
z
M 22.3125 74.21875 
Q 30.03125 74.21875 34.609375 68.875 
Q 39.203125 63.53125 39.203125 54.390625 
Q 39.203125 45.171875 34.640625 39.84375 
Q 30.078125 34.515625 22.3125 34.515625 
Q 14.546875 34.515625 10.03125 39.859375 
Q 5.515625 45.21875 5.515625 54.390625 
Q 5.515625 63.484375 10.046875 68.84375 
Q 14.59375 74.21875 22.3125 74.21875 
z
" id="DejaVuSans-37"/>
      </defs>
      <use xlink:href="#DejaVuSans-85"/>
      <use x="73.193359" xlink:href="#DejaVuSans-100"/>
      <use x="136.669922" xlink:href="#DejaVuSans-98"/>
      <use x="200.146484" xlink:href="#DejaVuSans-121"/>
      <use x="259.326172" xlink:href="#DejaVuSans-116"/>
      <use x="298.535156" xlink:href="#DejaVuSans-116"/>
      <use x="337.744141" xlink:href="#DejaVuSans-101"/>
      <use x="399.267578" xlink:href="#DejaVuSans-32"/>
      <use x="431.054688" xlink:href="#DejaVuSans-61"/>
      <use x="514.84375" xlink:href="#DejaVuSans-32"/>
      <use x="546.630859" xlink:href="#DejaVuSans-48"/>
      <use x="610.253906" xlink:href="#DejaVuSans-37"/>
     </g>
    </g>
    <g id="line2d_28">
     <path d="M 286.15086 54.598688 
L 307.75086 54.598688 
" style="fill:none;stroke:#ff7f0e;stroke-linecap:square;stroke-opacity:0.925;stroke-width:4;"/>
    </g>
    <g id="line2d_29"/>
    <g id="text_20">
     <!-- Udbytte = 10% -->
     <g transform="translate(316.39086 58.378688)scale(0.108 -0.108)">
      <use xlink:href="#DejaVuSans-85"/>
      <use x="73.193359" xlink:href="#DejaVuSans-100"/>
      <use x="136.669922" xlink:href="#DejaVuSans-98"/>
      <use x="200.146484" xlink:href="#DejaVuSans-121"/>
      <use x="259.326172" xlink:href="#DejaVuSans-116"/>
      <use x="298.535156" xlink:href="#DejaVuSans-116"/>
      <use x="337.744141" xlink:href="#DejaVuSans-101"/>
      <use x="399.267578" xlink:href="#DejaVuSans-32"/>
      <use x="431.054688" xlink:href="#DejaVuSans-61"/>
      <use x="514.84375" xlink:href="#DejaVuSans-32"/>
      <use x="546.630859" xlink:href="#DejaVuSans-49"/>
      <use x="610.253906" xlink:href="#DejaVuSans-48"/>
      <use x="673.876953" xlink:href="#DejaVuSans-37"/>
     </g>
    </g>
    <g id="line2d_30">
     <path d="M 286.15086 70.451063 
L 307.75086 70.451063 
" style="fill:none;stroke:#2ca02c;stroke-linecap:square;stroke-opacity:0.85;stroke-width:4;"/>
    </g>
    <g id="line2d_31"/>
    <g id="text_21">
     <!-- Udbytte = 20% -->
     <g transform="translate(316.39086 74.231063)scale(0.108 -0.108)">
      <use xlink:href="#DejaVuSans-85"/>
      <use x="73.193359" xlink:href="#DejaVuSans-100"/>
      <use x="136.669922" xlink:href="#DejaVuSans-98"/>
      <use x="200.146484" xlink:href="#DejaVuSans-121"/>
      <use x="259.326172" xlink:href="#DejaVuSans-116"/>
      <use x="298.535156" xlink:href="#DejaVuSans-116"/>
      <use x="337.744141" xlink:href="#DejaVuSans-101"/>
      <use x="399.267578" xlink:href="#DejaVuSans-32"/>
      <use x="431.054688" xlink:href="#DejaVuSans-61"/>
      <use x="514.84375" xlink:href="#DejaVuSans-32"/>
      <use x="546.630859" xlink:href="#DejaVuSans-50"/>
      <use x="610.253906" xlink:href="#DejaVuSans-48"/>
      <use x="673.876953" xlink:href="#DejaVuSans-37"/>
     </g>
    </g>
    <g id="line2d_32">
     <path d="M 286.15086 86.303438 
L 307.75086 86.303438 
" style="fill:none;stroke:#d62728;stroke-linecap:square;stroke-opacity:0.775;stroke-width:4;"/>
    </g>
    <g id="line2d_33"/>
    <g id="text_22">
     <!-- Udbytte = 30% -->
     <g transform="translate(316.39086 90.083438)scale(0.108 -0.108)">
      <use xlink:href="#DejaVuSans-85"/>
      <use x="73.193359" xlink:href="#DejaVuSans-100"/>
      <use x="136.669922" xlink:href="#DejaVuSans-98"/>
      <use x="200.146484" xlink:href="#DejaVuSans-121"/>
      <use x="259.326172" xlink:href="#DejaVuSans-116"/>
      <use x="298.535156" xlink:href="#DejaVuSans-116"/>
      <use x="337.744141" xlink:href="#DejaVuSans-101"/>
      <use x="399.267578" xlink:href="#DejaVuSans-32"/>
      <use x="431.054688" xlink:href="#DejaVuSans-61"/>
      <use x="514.84375" xlink:href="#DejaVuSans-32"/>
      <use x="546.630859" xlink:href="#DejaVuSans-51"/>
      <use x="610.253906" xlink:href="#DejaVuSans-48"/>
      <use x="673.876953" xlink:href="#DejaVuSans-37"/>
     </g>
    </g>
    <g id="line2d_34">
     <path d="M 286.15086 102.155813 
L 307.75086 102.155813 
" style="fill:none;stroke:#9467bd;stroke-linecap:square;stroke-opacity:0.7;stroke-width:4;"/>
    </g>
    <g id="line2d_35"/>
    <g id="text_23">
     <!-- Udbytte = 40% -->
     <g transform="translate(316.39086 105.935813)scale(0.108 -0.108)">
      <use xlink:href="#DejaVuSans-85"/>
      <use x="73.193359" xlink:href="#DejaVuSans-100"/>
      <use x="136.669922" xlink:href="#DejaVuSans-98"/>
      <use x="200.146484" xlink:href="#DejaVuSans-121"/>
      <use x="259.326172" xlink:href="#DejaVuSans-116"/>
      <use x="298.535156" xlink:href="#DejaVuSans-116"/>
      <use x="337.744141" xlink:href="#DejaVuSans-101"/>
      <use x="399.267578" xlink:href="#DejaVuSans-32"/>
      <use x="431.054688" xlink:href="#DejaVuSans-61"/>
      <use x="514.84375" xlink:href="#DejaVuSans-32"/>
      <use x="546.630859" xlink:href="#DejaVuSans-52"/>
      <use x="610.253906" xlink:href="#DejaVuSans-48"/>
      <use x="673.876953" xlink:href="#DejaVuSans-37"/>
     </g>
    </g>
    <g id="line2d_36">
     <path d="M 286.15086 118.008188 
L 307.75086 118.008188 
" style="fill:none;stroke:#8c564b;stroke-linecap:square;stroke-opacity:0.625;stroke-width:4;"/>
    </g>
    <g id="line2d_37"/>
    <g id="text_24">
     <!-- Udbytte = 50% -->
     <g transform="translate(316.39086 121.788188)scale(0.108 -0.108)">
      <use xlink:href="#DejaVuSans-85"/>
      <use x="73.193359" xlink:href="#DejaVuSans-100"/>
      <use x="136.669922" xlink:href="#DejaVuSans-98"/>
      <use x="200.146484" xlink:href="#DejaVuSans-121"/>
      <use x="259.326172" xlink:href="#DejaVuSans-116"/>
      <use x="298.535156" xlink:href="#DejaVuSans-116"/>
      <use x="337.744141" xlink:href="#DejaVuSans-101"/>
      <use x="399.267578" xlink:href="#DejaVuSans-32"/>
      <use x="431.054688" xlink:href="#DejaVuSans-61"/>
      <use x="514.84375" xlink:href="#DejaVuSans-32"/>
      <use x="546.630859" xlink:href="#DejaVuSans-53"/>
      <use x="610.253906" xlink:href="#DejaVuSans-48"/>
      <use x="673.876953" xlink:href="#DejaVuSans-37"/>
     </g>
    </g>
    <g id="line2d_38">
     <path d="M 286.15086 133.860563 
L 307.75086 133.860563 
" style="fill:none;stroke:#e377c2;stroke-linecap:square;stroke-opacity:0.55;stroke-width:4;"/>
    </g>
    <g id="line2d_39"/>
    <g id="text_25">
     <!-- Udbytte = 60% -->
     <g transform="translate(316.39086 137.640563)scale(0.108 -0.108)">
      <use xlink:href="#DejaVuSans-85"/>
      <use x="73.193359" xlink:href="#DejaVuSans-100"/>
      <use x="136.669922" xlink:href="#DejaVuSans-98"/>
      <use x="200.146484" xlink:href="#DejaVuSans-121"/>
      <use x="259.326172" xlink:href="#DejaVuSans-116"/>
      <use x="298.535156" xlink:href="#DejaVuSans-116"/>
      <use x="337.744141" xlink:href="#DejaVuSans-101"/>
      <use x="399.267578" xlink:href="#DejaVuSans-32"/>
      <use x="431.054688" xlink:href="#DejaVuSans-61"/>
      <use x="514.84375" xlink:href="#DejaVuSans-32"/>
      <use x="546.630859" xlink:href="#DejaVuSans-54"/>
      <use x="610.253906" xlink:href="#DejaVuSans-48"/>
      <use x="673.876953" xlink:href="#DejaVuSans-37"/>
     </g>
    </g>
    <g id="line2d_40">
     <path d="M 286.15086 149.712938 
L 307.75086 149.712938 
" style="fill:none;stroke:#7f7f7f;stroke-linecap:square;stroke-opacity:0.475;stroke-width:4;"/>
    </g>
    <g id="line2d_41"/>
    <g id="text_26">
     <!-- Udbytte = 70% -->
     <g transform="translate(316.39086 153.492938)scale(0.108 -0.108)">
      <use xlink:href="#DejaVuSans-85"/>
      <use x="73.193359" xlink:href="#DejaVuSans-100"/>
      <use x="136.669922" xlink:href="#DejaVuSans-98"/>
      <use x="200.146484" xlink:href="#DejaVuSans-121"/>
      <use x="259.326172" xlink:href="#DejaVuSans-116"/>
      <use x="298.535156" xlink:href="#DejaVuSans-116"/>
      <use x="337.744141" xlink:href="#DejaVuSans-101"/>
      <use x="399.267578" xlink:href="#DejaVuSans-32"/>
      <use x="431.054688" xlink:href="#DejaVuSans-61"/>
      <use x="514.84375" xlink:href="#DejaVuSans-32"/>
      <use x="546.630859" xlink:href="#DejaVuSans-55"/>
      <use x="610.253906" xlink:href="#DejaVuSans-48"/>
      <use x="673.876953" xlink:href="#DejaVuSans-37"/>
     </g>
    </g>
    <g id="line2d_42">
     <path d="M 286.15086 165.565313 
L 307.75086 165.565313 
" style="fill:none;stroke:#bcbd22;stroke-linecap:square;stroke-opacity:0.4;stroke-width:4;"/>
    </g>
    <g id="line2d_43"/>
    <g id="text_27">
     <!-- Udbytte = 80% -->
     <g transform="translate(316.39086 169.345313)scale(0.108 -0.108)">
      <defs>
       <path d="M 31.78125 34.625 
Q 24.75 34.625 20.71875 30.859375 
Q 16.703125 27.09375 16.703125 20.515625 
Q 16.703125 13.921875 20.71875 10.15625 
Q 24.75 6.390625 31.78125 6.390625 
Q 38.8125 6.390625 42.859375 10.171875 
Q 46.921875 13.96875 46.921875 20.515625 
Q 46.921875 27.09375 42.890625 30.859375 
Q 38.875 34.625 31.78125 34.625 
z
M 21.921875 38.8125 
Q 15.578125 40.375 12.03125 44.71875 
Q 8.5 49.078125 8.5 55.328125 
Q 8.5 64.0625 14.71875 69.140625 
Q 20.953125 74.21875 31.78125 74.21875 
Q 42.671875 74.21875 48.875 69.140625 
Q 55.078125 64.0625 55.078125 55.328125 
Q 55.078125 49.078125 51.53125 44.71875 
Q 48 40.375 41.703125 38.8125 
Q 48.828125 37.15625 52.796875 32.3125 
Q 56.78125 27.484375 56.78125 20.515625 
Q 56.78125 9.90625 50.3125 4.234375 
Q 43.84375 -1.421875 31.78125 -1.421875 
Q 19.734375 -1.421875 13.25 4.234375 
Q 6.78125 9.90625 6.78125 20.515625 
Q 6.78125 27.484375 10.78125 32.3125 
Q 14.796875 37.15625 21.921875 38.8125 
z
M 18.3125 54.390625 
Q 18.3125 48.734375 21.84375 45.5625 
Q 25.390625 42.390625 31.78125 42.390625 
Q 38.140625 42.390625 41.71875 45.5625 
Q 45.3125 48.734375 45.3125 54.390625 
Q 45.3125 60.0625 41.71875 63.234375 
Q 38.140625 66.40625 31.78125 66.40625 
Q 25.390625 66.40625 21.84375 63.234375 
Q 18.3125 60.0625 18.3125 54.390625 
z
" id="DejaVuSans-56"/>
      </defs>
      <use xlink:href="#DejaVuSans-85"/>
      <use x="73.193359" xlink:href="#DejaVuSans-100"/>
      <use x="136.669922" xlink:href="#DejaVuSans-98"/>
      <use x="200.146484" xlink:href="#DejaVuSans-121"/>
      <use x="259.326172" xlink:href="#DejaVuSans-116"/>
      <use x="298.535156" xlink:href="#DejaVuSans-116"/>
      <use x="337.744141" xlink:href="#DejaVuSans-101"/>
      <use x="399.267578" xlink:href="#DejaVuSans-32"/>
      <use x="431.054688" xlink:href="#DejaVuSans-61"/>
      <use x="514.84375" xlink:href="#DejaVuSans-32"/>
      <use x="546.630859" xlink:href="#DejaVuSans-56"/>
      <use x="610.253906" xlink:href="#DejaVuSans-48"/>
      <use x="673.876953" xlink:href="#DejaVuSans-37"/>
     </g>
    </g>
    <g id="line2d_44">
     <path d="M 286.15086 181.417687 
L 307.75086 181.417687 
" style="fill:none;stroke:#17becf;stroke-linecap:square;stroke-opacity:0.325;stroke-width:4;"/>
    </g>
    <g id="line2d_45"/>
    <g id="text_28">
     <!-- Udbytte = 90% -->
     <g transform="translate(316.39086 185.197688)scale(0.108 -0.108)">
      <defs>
       <path d="M 10.984375 1.515625 
L 10.984375 10.5 
Q 14.703125 8.734375 18.5 7.8125 
Q 22.3125 6.890625 25.984375 6.890625 
Q 35.75 6.890625 40.890625 13.453125 
Q 46.046875 20.015625 46.78125 33.40625 
Q 43.953125 29.203125 39.59375 26.953125 
Q 35.25 24.703125 29.984375 24.703125 
Q 19.046875 24.703125 12.671875 31.3125 
Q 6.296875 37.9375 6.296875 49.421875 
Q 6.296875 60.640625 12.9375 67.421875 
Q 19.578125 74.21875 30.609375 74.21875 
Q 43.265625 74.21875 49.921875 64.515625 
Q 56.59375 54.828125 56.59375 36.375 
Q 56.59375 19.140625 48.40625 8.859375 
Q 40.234375 -1.421875 26.421875 -1.421875 
Q 22.703125 -1.421875 18.890625 -0.6875 
Q 15.09375 0.046875 10.984375 1.515625 
z
M 30.609375 32.421875 
Q 37.25 32.421875 41.125 36.953125 
Q 45.015625 41.5 45.015625 49.421875 
Q 45.015625 57.28125 41.125 61.84375 
Q 37.25 66.40625 30.609375 66.40625 
Q 23.96875 66.40625 20.09375 61.84375 
Q 16.21875 57.28125 16.21875 49.421875 
Q 16.21875 41.5 20.09375 36.953125 
Q 23.96875 32.421875 30.609375 32.421875 
z
" id="DejaVuSans-57"/>
      </defs>
      <use xlink:href="#DejaVuSans-85"/>
      <use x="73.193359" xlink:href="#DejaVuSans-100"/>
      <use x="136.669922" xlink:href="#DejaVuSans-98"/>
      <use x="200.146484" xlink:href="#DejaVuSans-121"/>
      <use x="259.326172" xlink:href="#DejaVuSans-116"/>
      <use x="298.535156" xlink:href="#DejaVuSans-116"/>
      <use x="337.744141" xlink:href="#DejaVuSans-101"/>
      <use x="399.267578" xlink:href="#DejaVuSans-32"/>
      <use x="431.054688" xlink:href="#DejaVuSans-61"/>
      <use x="514.84375" xlink:href="#DejaVuSans-32"/>
      <use x="546.630859" xlink:href="#DejaVuSans-57"/>
      <use x="610.253906" xlink:href="#DejaVuSans-48"/>
      <use x="673.876953" xlink:href="#DejaVuSans-37"/>
     </g>
    </g>
    <g id="line2d_46">
     <path d="M 286.15086 197.270062 
L 307.75086 197.270062 
" style="fill:none;stroke:#1f77b4;stroke-linecap:square;stroke-opacity:0.25;stroke-width:4;"/>
    </g>
    <g id="line2d_47"/>
    <g id="text_29">
     <!-- Udbytte = 100% -->
     <g transform="translate(316.39086 201.050062)scale(0.108 -0.108)">
      <use xlink:href="#DejaVuSans-85"/>
      <use x="73.193359" xlink:href="#DejaVuSans-100"/>
      <use x="136.669922" xlink:href="#DejaVuSans-98"/>
      <use x="200.146484" xlink:href="#DejaVuSans-121"/>
      <use x="259.326172" xlink:href="#DejaVuSans-116"/>
      <use x="298.535156" xlink:href="#DejaVuSans-116"/>
      <use x="337.744141" xlink:href="#DejaVuSans-101"/>
      <use x="399.267578" xlink:href="#DejaVuSans-32"/>
      <use x="431.054688" xlink:href="#DejaVuSans-61"/>
      <use x="514.84375" xlink:href="#DejaVuSans-32"/>
      <use x="546.630859" xlink:href="#DejaVuSans-49"/>
      <use x="610.253906" xlink:href="#DejaVuSans-48"/>
      <use x="673.876953" xlink:href="#DejaVuSans-48"/>
      <use x="737.5" xlink:href="#DejaVuSans-37"/>
     </g>
    </g>
   </g>
  </g>
 </g>
 <defs>
  <clipPath id="pcccfc82fb7">
   <rect height="289.84" width="354.534235" x="61.49" y="24.6"/>
  </clipPath>
 </defs>
</svg>
