<?xml version="1.0" encoding="utf-8" standalone="no"?>
<!DOCTYPE svg PUBLIC "-//W3C//DTD SVG 1.1//EN"
  "http://www.w3.org/Graphics/SVG/1.1/DTD/svg11.dtd">
<!-- Created with matplotlib (https://matplotlib.org/) -->
<svg height="360pt" version="1.1" viewBox="0 0 432 360" width="432pt" xmlns="http://www.w3.org/2000/svg" xmlns:xlink="http://www.w3.org/1999/xlink">
 <metadata>
  <rdf:RDF xmlns:cc="http://creativecommons.org/ns#" xmlns:dc="http://purl.org/dc/elements/1.1/" xmlns:rdf="http://www.w3.org/1999/02/22-rdf-syntax-ns#">
   <cc:Work>
    <dc:type rdf:resource="http://purl.org/dc/dcmitype/StillImage"/>
    <dc:date>2020-11-16T18:58:33.032873</dc:date>
    <dc:format>image/svg+xml</dc:format>
    <dc:creator>
     <cc:Agent>
      <dc:title>Matplotlib v3.3.2, https://matplotlib.org/</dc:title>
     </cc:Agent>
    </dc:creator>
   </cc:Work>
  </rdf:RDF>
 </metadata>
 <defs>
  <style type="text/css">*{stroke-linecap:butt;stroke-linejoin:round;}</style>
 </defs>
 <g id="figure_1">
  <g id="patch_1">
   <path d="M 0 360 
L 432 360 
L 432 0 
L 0 0 
z
" style="fill:#ffffff;"/>
  </g>
  <g id="axes_1">
   <g id="patch_2">
    <path d="M 69.14 314.44 
L 419.04 314.44 
L 419.04 24.6 
L 69.14 24.6 
z
" style="fill:#ffffff;"/>
   </g>
   <g id="matplotlib.axis_1">
    <g id="xtick_1">
     <g id="line2d_1">
      <path clip-path="url(#pdb50b6d6b8)" d="M 85.044545 314.44 
L 85.044545 24.6 
" style="fill:none;stroke:#b0b0b0;stroke-linecap:square;stroke-width:0.8;"/>
     </g>
     <g id="line2d_2">
      <defs>
       <path d="M 0 0 
L 0 3.5 
" id="m1892b1f62a" style="stroke:#000000;stroke-width:0.8;"/>
      </defs>
      <g>
       <use style="stroke:#000000;stroke-width:0.8;" x="85.044545" xlink:href="#m1892b1f62a" y="314.44"/>
      </g>
     </g>
     <g id="text_1">
      <!-- 0.0 -->
      <g transform="translate(75.50267 330.558125)scale(0.12 -0.12)">
       <defs>
        <path d="M 31.78125 66.40625 
Q 24.171875 66.40625 20.328125 58.90625 
Q 16.5 51.421875 16.5 36.375 
Q 16.5 21.390625 20.328125 13.890625 
Q 24.171875 6.390625 31.78125 6.390625 
Q 39.453125 6.390625 43.28125 13.890625 
Q 47.125 21.390625 47.125 36.375 
Q 47.125 51.421875 43.28125 58.90625 
Q 39.453125 66.40625 31.78125 66.40625 
z
M 31.78125 74.21875 
Q 44.046875 74.21875 50.515625 64.515625 
Q 56.984375 54.828125 56.984375 36.375 
Q 56.984375 17.96875 50.515625 8.265625 
Q 44.046875 -1.421875 31.78125 -1.421875 
Q 19.53125 -1.421875 13.0625 8.265625 
Q 6.59375 17.96875 6.59375 36.375 
Q 6.59375 54.828125 13.0625 64.515625 
Q 19.53125 74.21875 31.78125 74.21875 
z
" id="DejaVuSans-48"/>
        <path d="M 10.6875 12.40625 
L 21 12.40625 
L 21 0 
L 10.6875 0 
z
" id="DejaVuSans-46"/>
       </defs>
       <use xlink:href="#DejaVuSans-48"/>
       <use x="63.623047" xlink:href="#DejaVuSans-46"/>
       <use x="95.410156" xlink:href="#DejaVuSans-48"/>
      </g>
     </g>
    </g>
    <g id="xtick_2">
     <g id="line2d_3">
      <path clip-path="url(#pdb50b6d6b8)" d="M 116.853636 314.44 
L 116.853636 24.6 
" style="fill:none;stroke:#b0b0b0;stroke-linecap:square;stroke-width:0.8;"/>
     </g>
     <g id="line2d_4">
      <g>
       <use style="stroke:#000000;stroke-width:0.8;" x="116.853636" xlink:href="#m1892b1f62a" y="314.44"/>
      </g>
     </g>
     <g id="text_2">
      <!-- 0.1 -->
      <g transform="translate(107.311761 330.558125)scale(0.12 -0.12)">
       <defs>
        <path d="M 12.40625 8.296875 
L 28.515625 8.296875 
L 28.515625 63.921875 
L 10.984375 60.40625 
L 10.984375 69.390625 
L 28.421875 72.90625 
L 38.28125 72.90625 
L 38.28125 8.296875 
L 54.390625 8.296875 
L 54.390625 0 
L 12.40625 0 
z
" id="DejaVuSans-49"/>
       </defs>
       <use xlink:href="#DejaVuSans-48"/>
       <use x="63.623047" xlink:href="#DejaVuSans-46"/>
       <use x="95.410156" xlink:href="#DejaVuSans-49"/>
      </g>
     </g>
    </g>
    <g id="xtick_3">
     <g id="line2d_5">
      <path clip-path="url(#pdb50b6d6b8)" d="M 148.662727 314.44 
L 148.662727 24.6 
" style="fill:none;stroke:#b0b0b0;stroke-linecap:square;stroke-width:0.8;"/>
     </g>
     <g id="line2d_6">
      <g>
       <use style="stroke:#000000;stroke-width:0.8;" x="148.662727" xlink:href="#m1892b1f62a" y="314.44"/>
      </g>
     </g>
     <g id="text_3">
      <!-- 0.2 -->
      <g transform="translate(139.120852 330.558125)scale(0.12 -0.12)">
       <defs>
        <path d="M 19.1875 8.296875 
L 53.609375 8.296875 
L 53.609375 0 
L 7.328125 0 
L 7.328125 8.296875 
Q 12.9375 14.109375 22.625 23.890625 
Q 32.328125 33.6875 34.8125 36.53125 
Q 39.546875 41.84375 41.421875 45.53125 
Q 43.3125 49.21875 43.3125 52.78125 
Q 43.3125 58.59375 39.234375 62.25 
Q 35.15625 65.921875 28.609375 65.921875 
Q 23.96875 65.921875 18.8125 64.3125 
Q 13.671875 62.703125 7.8125 59.421875 
L 7.8125 69.390625 
Q 13.765625 71.78125 18.9375 73 
Q 24.125 74.21875 28.421875 74.21875 
Q 39.75 74.21875 46.484375 68.546875 
Q 53.21875 62.890625 53.21875 53.421875 
Q 53.21875 48.921875 51.53125 44.890625 
Q 49.859375 40.875 45.40625 35.40625 
Q 44.1875 33.984375 37.640625 27.21875 
Q 31.109375 20.453125 19.1875 8.296875 
z
" id="DejaVuSans-50"/>
       </defs>
       <use xlink:href="#DejaVuSans-48"/>
       <use x="63.623047" xlink:href="#DejaVuSans-46"/>
       <use x="95.410156" xlink:href="#DejaVuSans-50"/>
      </g>
     </g>
    </g>
    <g id="xtick_4">
     <g id="line2d_7">
      <path clip-path="url(#pdb50b6d6b8)" d="M 180.471818 314.44 
L 180.471818 24.6 
" style="fill:none;stroke:#b0b0b0;stroke-linecap:square;stroke-width:0.8;"/>
     </g>
     <g id="line2d_8">
      <g>
       <use style="stroke:#000000;stroke-width:0.8;" x="180.471818" xlink:href="#m1892b1f62a" y="314.44"/>
      </g>
     </g>
     <g id="text_4">
      <!-- 0.3 -->
      <g transform="translate(170.929943 330.558125)scale(0.12 -0.12)">
       <defs>
        <path d="M 40.578125 39.3125 
Q 47.65625 37.796875 51.625 33 
Q 55.609375 28.21875 55.609375 21.1875 
Q 55.609375 10.40625 48.1875 4.484375 
Q 40.765625 -1.421875 27.09375 -1.421875 
Q 22.515625 -1.421875 17.65625 -0.515625 
Q 12.796875 0.390625 7.625 2.203125 
L 7.625 11.71875 
Q 11.71875 9.328125 16.59375 8.109375 
Q 21.484375 6.890625 26.8125 6.890625 
Q 36.078125 6.890625 40.9375 10.546875 
Q 45.796875 14.203125 45.796875 21.1875 
Q 45.796875 27.640625 41.28125 31.265625 
Q 36.765625 34.90625 28.71875 34.90625 
L 20.21875 34.90625 
L 20.21875 43.015625 
L 29.109375 43.015625 
Q 36.375 43.015625 40.234375 45.921875 
Q 44.09375 48.828125 44.09375 54.296875 
Q 44.09375 59.90625 40.109375 62.90625 
Q 36.140625 65.921875 28.71875 65.921875 
Q 24.65625 65.921875 20.015625 65.03125 
Q 15.375 64.15625 9.8125 62.3125 
L 9.8125 71.09375 
Q 15.4375 72.65625 20.34375 73.4375 
Q 25.25 74.21875 29.59375 74.21875 
Q 40.828125 74.21875 47.359375 69.109375 
Q 53.90625 64.015625 53.90625 55.328125 
Q 53.90625 49.265625 50.4375 45.09375 
Q 46.96875 40.921875 40.578125 39.3125 
z
" id="DejaVuSans-51"/>
       </defs>
       <use xlink:href="#DejaVuSans-48"/>
       <use x="63.623047" xlink:href="#DejaVuSans-46"/>
       <use x="95.410156" xlink:href="#DejaVuSans-51"/>
      </g>
     </g>
    </g>
    <g id="xtick_5">
     <g id="line2d_9">
      <path clip-path="url(#pdb50b6d6b8)" d="M 212.280909 314.44 
L 212.280909 24.6 
" style="fill:none;stroke:#b0b0b0;stroke-linecap:square;stroke-width:0.8;"/>
     </g>
     <g id="line2d_10">
      <g>
       <use style="stroke:#000000;stroke-width:0.8;" x="212.280909" xlink:href="#m1892b1f62a" y="314.44"/>
      </g>
     </g>
     <g id="text_5">
      <!-- 0.4 -->
      <g transform="translate(202.739034 330.558125)scale(0.12 -0.12)">
       <defs>
        <path d="M 37.796875 64.3125 
L 12.890625 25.390625 
L 37.796875 25.390625 
z
M 35.203125 72.90625 
L 47.609375 72.90625 
L 47.609375 25.390625 
L 58.015625 25.390625 
L 58.015625 17.1875 
L 47.609375 17.1875 
L 47.609375 0 
L 37.796875 0 
L 37.796875 17.1875 
L 4.890625 17.1875 
L 4.890625 26.703125 
z
" id="DejaVuSans-52"/>
       </defs>
       <use xlink:href="#DejaVuSans-48"/>
       <use x="63.623047" xlink:href="#DejaVuSans-46"/>
       <use x="95.410156" xlink:href="#DejaVuSans-52"/>
      </g>
     </g>
    </g>
    <g id="xtick_6">
     <g id="line2d_11">
      <path clip-path="url(#pdb50b6d6b8)" d="M 244.09 314.44 
L 244.09 24.6 
" style="fill:none;stroke:#b0b0b0;stroke-linecap:square;stroke-width:0.8;"/>
     </g>
     <g id="line2d_12">
      <g>
       <use style="stroke:#000000;stroke-width:0.8;" x="244.09" xlink:href="#m1892b1f62a" y="314.44"/>
      </g>
     </g>
     <g id="text_6">
      <!-- 0.5 -->
      <g transform="translate(234.548125 330.558125)scale(0.12 -0.12)">
       <defs>
        <path d="M 10.796875 72.90625 
L 49.515625 72.90625 
L 49.515625 64.59375 
L 19.828125 64.59375 
L 19.828125 46.734375 
Q 21.96875 47.46875 24.109375 47.828125 
Q 26.265625 48.1875 28.421875 48.1875 
Q 40.625 48.1875 47.75 41.5 
Q 54.890625 34.8125 54.890625 23.390625 
Q 54.890625 11.625 47.5625 5.09375 
Q 40.234375 -1.421875 26.90625 -1.421875 
Q 22.3125 -1.421875 17.546875 -0.640625 
Q 12.796875 0.140625 7.71875 1.703125 
L 7.71875 11.625 
Q 12.109375 9.234375 16.796875 8.0625 
Q 21.484375 6.890625 26.703125 6.890625 
Q 35.15625 6.890625 40.078125 11.328125 
Q 45.015625 15.765625 45.015625 23.390625 
Q 45.015625 31 40.078125 35.4375 
Q 35.15625 39.890625 26.703125 39.890625 
Q 22.75 39.890625 18.8125 39.015625 
Q 14.890625 38.140625 10.796875 36.28125 
z
" id="DejaVuSans-53"/>
       </defs>
       <use xlink:href="#DejaVuSans-48"/>
       <use x="63.623047" xlink:href="#DejaVuSans-46"/>
       <use x="95.410156" xlink:href="#DejaVuSans-53"/>
      </g>
     </g>
    </g>
    <g id="xtick_7">
     <g id="line2d_13">
      <path clip-path="url(#pdb50b6d6b8)" d="M 275.899091 314.44 
L 275.899091 24.6 
" style="fill:none;stroke:#b0b0b0;stroke-linecap:square;stroke-width:0.8;"/>
     </g>
     <g id="line2d_14">
      <g>
       <use style="stroke:#000000;stroke-width:0.8;" x="275.899091" xlink:href="#m1892b1f62a" y="314.44"/>
      </g>
     </g>
     <g id="text_7">
      <!-- 0.6 -->
      <g transform="translate(266.357216 330.558125)scale(0.12 -0.12)">
       <defs>
        <path d="M 33.015625 40.375 
Q 26.375 40.375 22.484375 35.828125 
Q 18.609375 31.296875 18.609375 23.390625 
Q 18.609375 15.53125 22.484375 10.953125 
Q 26.375 6.390625 33.015625 6.390625 
Q 39.65625 6.390625 43.53125 10.953125 
Q 47.40625 15.53125 47.40625 23.390625 
Q 47.40625 31.296875 43.53125 35.828125 
Q 39.65625 40.375 33.015625 40.375 
z
M 52.59375 71.296875 
L 52.59375 62.3125 
Q 48.875 64.0625 45.09375 64.984375 
Q 41.3125 65.921875 37.59375 65.921875 
Q 27.828125 65.921875 22.671875 59.328125 
Q 17.53125 52.734375 16.796875 39.40625 
Q 19.671875 43.65625 24.015625 45.921875 
Q 28.375 48.1875 33.59375 48.1875 
Q 44.578125 48.1875 50.953125 41.515625 
Q 57.328125 34.859375 57.328125 23.390625 
Q 57.328125 12.15625 50.6875 5.359375 
Q 44.046875 -1.421875 33.015625 -1.421875 
Q 20.359375 -1.421875 13.671875 8.265625 
Q 6.984375 17.96875 6.984375 36.375 
Q 6.984375 53.65625 15.1875 63.9375 
Q 23.390625 74.21875 37.203125 74.21875 
Q 40.921875 74.21875 44.703125 73.484375 
Q 48.484375 72.75 52.59375 71.296875 
z
" id="DejaVuSans-54"/>
       </defs>
       <use xlink:href="#DejaVuSans-48"/>
       <use x="63.623047" xlink:href="#DejaVuSans-46"/>
       <use x="95.410156" xlink:href="#DejaVuSans-54"/>
      </g>
     </g>
    </g>
    <g id="xtick_8">
     <g id="line2d_15">
      <path clip-path="url(#pdb50b6d6b8)" d="M 307.708182 314.44 
L 307.708182 24.6 
" style="fill:none;stroke:#b0b0b0;stroke-linecap:square;stroke-width:0.8;"/>
     </g>
     <g id="line2d_16">
      <g>
       <use style="stroke:#000000;stroke-width:0.8;" x="307.708182" xlink:href="#m1892b1f62a" y="314.44"/>
      </g>
     </g>
     <g id="text_8">
      <!-- 0.7 -->
      <g transform="translate(298.166307 330.558125)scale(0.12 -0.12)">
       <defs>
        <path d="M 8.203125 72.90625 
L 55.078125 72.90625 
L 55.078125 68.703125 
L 28.609375 0 
L 18.3125 0 
L 43.21875 64.59375 
L 8.203125 64.59375 
z
" id="DejaVuSans-55"/>
       </defs>
       <use xlink:href="#DejaVuSans-48"/>
       <use x="63.623047" xlink:href="#DejaVuSans-46"/>
       <use x="95.410156" xlink:href="#DejaVuSans-55"/>
      </g>
     </g>
    </g>
    <g id="xtick_9">
     <g id="line2d_17">
      <path clip-path="url(#pdb50b6d6b8)" d="M 339.517273 314.44 
L 339.517273 24.6 
" style="fill:none;stroke:#b0b0b0;stroke-linecap:square;stroke-width:0.8;"/>
     </g>
     <g id="line2d_18">
      <g>
       <use style="stroke:#000000;stroke-width:0.8;" x="339.517273" xlink:href="#m1892b1f62a" y="314.44"/>
      </g>
     </g>
     <g id="text_9">
      <!-- 0.8 -->
      <g transform="translate(329.975398 330.558125)scale(0.12 -0.12)">
       <defs>
        <path d="M 31.78125 34.625 
Q 24.75 34.625 20.71875 30.859375 
Q 16.703125 27.09375 16.703125 20.515625 
Q 16.703125 13.921875 20.71875 10.15625 
Q 24.75 6.390625 31.78125 6.390625 
Q 38.8125 6.390625 42.859375 10.171875 
Q 46.921875 13.96875 46.921875 20.515625 
Q 46.921875 27.09375 42.890625 30.859375 
Q 38.875 34.625 31.78125 34.625 
z
M 21.921875 38.8125 
Q 15.578125 40.375 12.03125 44.71875 
Q 8.5 49.078125 8.5 55.328125 
Q 8.5 64.0625 14.71875 69.140625 
Q 20.953125 74.21875 31.78125 74.21875 
Q 42.671875 74.21875 48.875 69.140625 
Q 55.078125 64.0625 55.078125 55.328125 
Q 55.078125 49.078125 51.53125 44.71875 
Q 48 40.375 41.703125 38.8125 
Q 48.828125 37.15625 52.796875 32.3125 
Q 56.78125 27.484375 56.78125 20.515625 
Q 56.78125 9.90625 50.3125 4.234375 
Q 43.84375 -1.421875 31.78125 -1.421875 
Q 19.734375 -1.421875 13.25 4.234375 
Q 6.78125 9.90625 6.78125 20.515625 
Q 6.78125 27.484375 10.78125 32.3125 
Q 14.796875 37.15625 21.921875 38.8125 
z
M 18.3125 54.390625 
Q 18.3125 48.734375 21.84375 45.5625 
Q 25.390625 42.390625 31.78125 42.390625 
Q 38.140625 42.390625 41.71875 45.5625 
Q 45.3125 48.734375 45.3125 54.390625 
Q 45.3125 60.0625 41.71875 63.234375 
Q 38.140625 66.40625 31.78125 66.40625 
Q 25.390625 66.40625 21.84375 63.234375 
Q 18.3125 60.0625 18.3125 54.390625 
z
" id="DejaVuSans-56"/>
       </defs>
       <use xlink:href="#DejaVuSans-48"/>
       <use x="63.623047" xlink:href="#DejaVuSans-46"/>
       <use x="95.410156" xlink:href="#DejaVuSans-56"/>
      </g>
     </g>
    </g>
    <g id="xtick_10">
     <g id="line2d_19">
      <path clip-path="url(#pdb50b6d6b8)" d="M 371.326364 314.44 
L 371.326364 24.6 
" style="fill:none;stroke:#b0b0b0;stroke-linecap:square;stroke-width:0.8;"/>
     </g>
     <g id="line2d_20">
      <g>
       <use style="stroke:#000000;stroke-width:0.8;" x="371.326364" xlink:href="#m1892b1f62a" y="314.44"/>
      </g>
     </g>
     <g id="text_10">
      <!-- 0.9 -->
      <g transform="translate(361.784489 330.558125)scale(0.12 -0.12)">
       <defs>
        <path d="M 10.984375 1.515625 
L 10.984375 10.5 
Q 14.703125 8.734375 18.5 7.8125 
Q 22.3125 6.890625 25.984375 6.890625 
Q 35.75 6.890625 40.890625 13.453125 
Q 46.046875 20.015625 46.78125 33.40625 
Q 43.953125 29.203125 39.59375 26.953125 
Q 35.25 24.703125 29.984375 24.703125 
Q 19.046875 24.703125 12.671875 31.3125 
Q 6.296875 37.9375 6.296875 49.421875 
Q 6.296875 60.640625 12.9375 67.421875 
Q 19.578125 74.21875 30.609375 74.21875 
Q 43.265625 74.21875 49.921875 64.515625 
Q 56.59375 54.828125 56.59375 36.375 
Q 56.59375 19.140625 48.40625 8.859375 
Q 40.234375 -1.421875 26.421875 -1.421875 
Q 22.703125 -1.421875 18.890625 -0.6875 
Q 15.09375 0.046875 10.984375 1.515625 
z
M 30.609375 32.421875 
Q 37.25 32.421875 41.125 36.953125 
Q 45.015625 41.5 45.015625 49.421875 
Q 45.015625 57.28125 41.125 61.84375 
Q 37.25 66.40625 30.609375 66.40625 
Q 23.96875 66.40625 20.09375 61.84375 
Q 16.21875 57.28125 16.21875 49.421875 
Q 16.21875 41.5 20.09375 36.953125 
Q 23.96875 32.421875 30.609375 32.421875 
z
" id="DejaVuSans-57"/>
       </defs>
       <use xlink:href="#DejaVuSans-48"/>
       <use x="63.623047" xlink:href="#DejaVuSans-46"/>
       <use x="95.410156" xlink:href="#DejaVuSans-57"/>
      </g>
     </g>
    </g>
    <g id="xtick_11">
     <g id="line2d_21">
      <path clip-path="url(#pdb50b6d6b8)" d="M 403.135455 314.44 
L 403.135455 24.6 
" style="fill:none;stroke:#b0b0b0;stroke-linecap:square;stroke-width:0.8;"/>
     </g>
     <g id="line2d_22">
      <g>
       <use style="stroke:#000000;stroke-width:0.8;" x="403.135455" xlink:href="#m1892b1f62a" y="314.44"/>
      </g>
     </g>
     <g id="text_11">
      <!-- 1.0 -->
      <g transform="translate(393.59358 330.558125)scale(0.12 -0.12)">
       <use xlink:href="#DejaVuSans-49"/>
       <use x="63.623047" xlink:href="#DejaVuSans-46"/>
       <use x="95.410156" xlink:href="#DejaVuSans-48"/>
      </g>
     </g>
    </g>
    <g id="text_12">
     <!-- Fraktil -->
     <g transform="translate(225.770312 346.171875)scale(0.12 -0.12)">
      <defs>
       <path d="M 9.8125 72.90625 
L 51.703125 72.90625 
L 51.703125 64.59375 
L 19.671875 64.59375 
L 19.671875 43.109375 
L 48.578125 43.109375 
L 48.578125 34.8125 
L 19.671875 34.8125 
L 19.671875 0 
L 9.8125 0 
z
" id="DejaVuSans-70"/>
       <path d="M 41.109375 46.296875 
Q 39.59375 47.171875 37.8125 47.578125 
Q 36.03125 48 33.890625 48 
Q 26.265625 48 22.1875 43.046875 
Q 18.109375 38.09375 18.109375 28.8125 
L 18.109375 0 
L 9.078125 0 
L 9.078125 54.6875 
L 18.109375 54.6875 
L 18.109375 46.1875 
Q 20.953125 51.171875 25.484375 53.578125 
Q 30.03125 56 36.53125 56 
Q 37.453125 56 38.578125 55.875 
Q 39.703125 55.765625 41.0625 55.515625 
z
" id="DejaVuSans-114"/>
       <path d="M 34.28125 27.484375 
Q 23.390625 27.484375 19.1875 25 
Q 14.984375 22.515625 14.984375 16.5 
Q 14.984375 11.71875 18.140625 8.90625 
Q 21.296875 6.109375 26.703125 6.109375 
Q 34.1875 6.109375 38.703125 11.40625 
Q 43.21875 16.703125 43.21875 25.484375 
L 43.21875 27.484375 
z
M 52.203125 31.203125 
L 52.203125 0 
L 43.21875 0 
L 43.21875 8.296875 
Q 40.140625 3.328125 35.546875 0.953125 
Q 30.953125 -1.421875 24.3125 -1.421875 
Q 15.921875 -1.421875 10.953125 3.296875 
Q 6 8.015625 6 15.921875 
Q 6 25.140625 12.171875 29.828125 
Q 18.359375 34.515625 30.609375 34.515625 
L 43.21875 34.515625 
L 43.21875 35.40625 
Q 43.21875 41.609375 39.140625 45 
Q 35.0625 48.390625 27.6875 48.390625 
Q 23 48.390625 18.546875 47.265625 
Q 14.109375 46.140625 10.015625 43.890625 
L 10.015625 52.203125 
Q 14.9375 54.109375 19.578125 55.046875 
Q 24.21875 56 28.609375 56 
Q 40.484375 56 46.34375 49.84375 
Q 52.203125 43.703125 52.203125 31.203125 
z
" id="DejaVuSans-97"/>
       <path d="M 9.078125 75.984375 
L 18.109375 75.984375 
L 18.109375 31.109375 
L 44.921875 54.6875 
L 56.390625 54.6875 
L 27.390625 29.109375 
L 57.625 0 
L 45.90625 0 
L 18.109375 26.703125 
L 18.109375 0 
L 9.078125 0 
z
" id="DejaVuSans-107"/>
       <path d="M 18.3125 70.21875 
L 18.3125 54.6875 
L 36.8125 54.6875 
L 36.8125 47.703125 
L 18.3125 47.703125 
L 18.3125 18.015625 
Q 18.3125 11.328125 20.140625 9.421875 
Q 21.96875 7.515625 27.59375 7.515625 
L 36.8125 7.515625 
L 36.8125 0 
L 27.59375 0 
Q 17.1875 0 13.234375 3.875 
Q 9.28125 7.765625 9.28125 18.015625 
L 9.28125 47.703125 
L 2.6875 47.703125 
L 2.6875 54.6875 
L 9.28125 54.6875 
L 9.28125 70.21875 
z
" id="DejaVuSans-116"/>
       <path d="M 9.421875 54.6875 
L 18.40625 54.6875 
L 18.40625 0 
L 9.421875 0 
z
M 9.421875 75.984375 
L 18.40625 75.984375 
L 18.40625 64.59375 
L 9.421875 64.59375 
z
" id="DejaVuSans-105"/>
       <path d="M 9.421875 75.984375 
L 18.40625 75.984375 
L 18.40625 0 
L 9.421875 0 
z
" id="DejaVuSans-108"/>
      </defs>
      <use xlink:href="#DejaVuSans-70"/>
      <use x="50.269531" xlink:href="#DejaVuSans-114"/>
      <use x="91.382812" xlink:href="#DejaVuSans-97"/>
      <use x="152.662109" xlink:href="#DejaVuSans-107"/>
      <use x="210.572266" xlink:href="#DejaVuSans-116"/>
      <use x="249.78125" xlink:href="#DejaVuSans-105"/>
      <use x="277.564453" xlink:href="#DejaVuSans-108"/>
     </g>
    </g>
   </g>
   <g id="matplotlib.axis_2">
    <g id="ytick_1">
     <g id="line2d_23">
      <path clip-path="url(#pdb50b6d6b8)" d="M 69.14 300.638095 
L 419.04 300.638095 
" style="fill:none;stroke:#b0b0b0;stroke-linecap:square;stroke-width:0.8;"/>
     </g>
     <g id="line2d_24">
      <defs>
       <path d="M 0 0 
L -3.5 0 
" id="mad3a27ca95" style="stroke:#000000;stroke-width:0.8;"/>
      </defs>
      <g>
       <use style="stroke:#000000;stroke-width:0.8;" x="69.14" xlink:href="#mad3a27ca95" y="300.638095"/>
      </g>
     </g>
     <g id="text_13">
      <!-- 0.501 -->
      <g transform="translate(27.78625 305.197158)scale(0.12 -0.12)">
       <use xlink:href="#DejaVuSans-48"/>
       <use x="63.623047" xlink:href="#DejaVuSans-46"/>
       <use x="95.410156" xlink:href="#DejaVuSans-53"/>
       <use x="159.033203" xlink:href="#DejaVuSans-48"/>
       <use x="222.65625" xlink:href="#DejaVuSans-49"/>
      </g>
     </g>
    </g>
    <g id="ytick_2">
     <g id="line2d_25">
      <path clip-path="url(#pdb50b6d6b8)" d="M 69.14 257.26068 
L 419.04 257.26068 
" style="fill:none;stroke:#b0b0b0;stroke-linecap:square;stroke-width:0.8;"/>
     </g>
     <g id="line2d_26">
      <g>
       <use style="stroke:#000000;stroke-width:0.8;" x="69.14" xlink:href="#mad3a27ca95" y="257.26068"/>
      </g>
     </g>
     <g id="text_14">
      <!-- 0.720 -->
      <g transform="translate(27.78625 261.819743)scale(0.12 -0.12)">
       <use xlink:href="#DejaVuSans-48"/>
       <use x="63.623047" xlink:href="#DejaVuSans-46"/>
       <use x="95.410156" xlink:href="#DejaVuSans-55"/>
       <use x="159.033203" xlink:href="#DejaVuSans-50"/>
       <use x="222.65625" xlink:href="#DejaVuSans-48"/>
      </g>
     </g>
    </g>
    <g id="ytick_3">
     <g id="line2d_27">
      <path clip-path="url(#pdb50b6d6b8)" d="M 69.14 213.883265 
L 419.04 213.883265 
" style="fill:none;stroke:#b0b0b0;stroke-linecap:square;stroke-width:0.8;"/>
     </g>
     <g id="line2d_28">
      <g>
       <use style="stroke:#000000;stroke-width:0.8;" x="69.14" xlink:href="#mad3a27ca95" y="213.883265"/>
      </g>
     </g>
     <g id="text_15">
      <!-- 1.033 -->
      <g transform="translate(27.78625 218.442328)scale(0.12 -0.12)">
       <use xlink:href="#DejaVuSans-49"/>
       <use x="63.623047" xlink:href="#DejaVuSans-46"/>
       <use x="95.410156" xlink:href="#DejaVuSans-48"/>
       <use x="159.033203" xlink:href="#DejaVuSans-51"/>
       <use x="222.65625" xlink:href="#DejaVuSans-51"/>
      </g>
     </g>
    </g>
    <g id="ytick_4">
     <g id="line2d_29">
      <path clip-path="url(#pdb50b6d6b8)" d="M 69.14 170.50585 
L 419.04 170.50585 
" style="fill:none;stroke:#b0b0b0;stroke-linecap:square;stroke-width:0.8;"/>
     </g>
     <g id="line2d_30">
      <g>
       <use style="stroke:#000000;stroke-width:0.8;" x="69.14" xlink:href="#mad3a27ca95" y="170.50585"/>
      </g>
     </g>
     <g id="text_16">
      <!-- 1.484 -->
      <g transform="translate(27.78625 175.064913)scale(0.12 -0.12)">
       <use xlink:href="#DejaVuSans-49"/>
       <use x="63.623047" xlink:href="#DejaVuSans-46"/>
       <use x="95.410156" xlink:href="#DejaVuSans-52"/>
       <use x="159.033203" xlink:href="#DejaVuSans-56"/>
       <use x="222.65625" xlink:href="#DejaVuSans-52"/>
      </g>
     </g>
    </g>
    <g id="ytick_5">
     <g id="line2d_31">
      <path clip-path="url(#pdb50b6d6b8)" d="M 69.14 127.128435 
L 419.04 127.128435 
" style="fill:none;stroke:#b0b0b0;stroke-linecap:square;stroke-width:0.8;"/>
     </g>
     <g id="line2d_32">
      <g>
       <use style="stroke:#000000;stroke-width:0.8;" x="69.14" xlink:href="#mad3a27ca95" y="127.128435"/>
      </g>
     </g>
     <g id="text_17">
      <!-- 2.131 -->
      <g transform="translate(27.78625 131.687498)scale(0.12 -0.12)">
       <use xlink:href="#DejaVuSans-50"/>
       <use x="63.623047" xlink:href="#DejaVuSans-46"/>
       <use x="95.410156" xlink:href="#DejaVuSans-49"/>
       <use x="159.033203" xlink:href="#DejaVuSans-51"/>
       <use x="222.65625" xlink:href="#DejaVuSans-49"/>
      </g>
     </g>
    </g>
    <g id="ytick_6">
     <g id="line2d_33">
      <path clip-path="url(#pdb50b6d6b8)" d="M 69.14 83.75102 
L 419.04 83.75102 
" style="fill:none;stroke:#b0b0b0;stroke-linecap:square;stroke-width:0.8;"/>
     </g>
     <g id="line2d_34">
      <g>
       <use style="stroke:#000000;stroke-width:0.8;" x="69.14" xlink:href="#mad3a27ca95" y="83.75102"/>
      </g>
     </g>
     <g id="text_18">
      <!-- 3.060 -->
      <g transform="translate(27.78625 88.310083)scale(0.12 -0.12)">
       <use xlink:href="#DejaVuSans-51"/>
       <use x="63.623047" xlink:href="#DejaVuSans-46"/>
       <use x="95.410156" xlink:href="#DejaVuSans-48"/>
       <use x="159.033203" xlink:href="#DejaVuSans-54"/>
       <use x="222.65625" xlink:href="#DejaVuSans-48"/>
      </g>
     </g>
    </g>
    <g id="ytick_7">
     <g id="line2d_35">
      <path clip-path="url(#pdb50b6d6b8)" d="M 69.14 40.373605 
L 419.04 40.373605 
" style="fill:none;stroke:#b0b0b0;stroke-linecap:square;stroke-width:0.8;"/>
     </g>
     <g id="line2d_36">
      <g>
       <use style="stroke:#000000;stroke-width:0.8;" x="69.14" xlink:href="#mad3a27ca95" y="40.373605"/>
      </g>
     </g>
     <g id="text_19">
      <!-- 4.394 -->
      <g transform="translate(27.78625 44.932668)scale(0.12 -0.12)">
       <use xlink:href="#DejaVuSans-52"/>
       <use x="63.623047" xlink:href="#DejaVuSans-46"/>
       <use x="95.410156" xlink:href="#DejaVuSans-51"/>
       <use x="159.033203" xlink:href="#DejaVuSans-57"/>
       <use x="222.65625" xlink:href="#DejaVuSans-52"/>
      </g>
     </g>
    </g>
    <g id="text_20">
     <!-- Depot salgsværdi [DKK] -->
     <g transform="translate(21.290625 241.333438)rotate(-90)scale(0.12 -0.12)">
      <defs>
       <path d="M 19.671875 64.796875 
L 19.671875 8.109375 
L 31.59375 8.109375 
Q 46.6875 8.109375 53.6875 14.9375 
Q 60.6875 21.78125 60.6875 36.53125 
Q 60.6875 51.171875 53.6875 57.984375 
Q 46.6875 64.796875 31.59375 64.796875 
z
M 9.8125 72.90625 
L 30.078125 72.90625 
Q 51.265625 72.90625 61.171875 64.09375 
Q 71.09375 55.28125 71.09375 36.53125 
Q 71.09375 17.671875 61.125 8.828125 
Q 51.171875 0 30.078125 0 
L 9.8125 0 
z
" id="DejaVuSans-68"/>
       <path d="M 56.203125 29.59375 
L 56.203125 25.203125 
L 14.890625 25.203125 
Q 15.484375 15.921875 20.484375 11.0625 
Q 25.484375 6.203125 34.421875 6.203125 
Q 39.59375 6.203125 44.453125 7.46875 
Q 49.3125 8.734375 54.109375 11.28125 
L 54.109375 2.78125 
Q 49.265625 0.734375 44.1875 -0.34375 
Q 39.109375 -1.421875 33.890625 -1.421875 
Q 20.796875 -1.421875 13.15625 6.1875 
Q 5.515625 13.8125 5.515625 26.8125 
Q 5.515625 40.234375 12.765625 48.109375 
Q 20.015625 56 32.328125 56 
Q 43.359375 56 49.78125 48.890625 
Q 56.203125 41.796875 56.203125 29.59375 
z
M 47.21875 32.234375 
Q 47.125 39.59375 43.09375 43.984375 
Q 39.0625 48.390625 32.421875 48.390625 
Q 24.90625 48.390625 20.390625 44.140625 
Q 15.875 39.890625 15.1875 32.171875 
z
" id="DejaVuSans-101"/>
       <path d="M 18.109375 8.203125 
L 18.109375 -20.796875 
L 9.078125 -20.796875 
L 9.078125 54.6875 
L 18.109375 54.6875 
L 18.109375 46.390625 
Q 20.953125 51.265625 25.265625 53.625 
Q 29.59375 56 35.59375 56 
Q 45.5625 56 51.78125 48.09375 
Q 58.015625 40.1875 58.015625 27.296875 
Q 58.015625 14.40625 51.78125 6.484375 
Q 45.5625 -1.421875 35.59375 -1.421875 
Q 29.59375 -1.421875 25.265625 0.953125 
Q 20.953125 3.328125 18.109375 8.203125 
z
M 48.6875 27.296875 
Q 48.6875 37.203125 44.609375 42.84375 
Q 40.53125 48.484375 33.40625 48.484375 
Q 26.265625 48.484375 22.1875 42.84375 
Q 18.109375 37.203125 18.109375 27.296875 
Q 18.109375 17.390625 22.1875 11.75 
Q 26.265625 6.109375 33.40625 6.109375 
Q 40.53125 6.109375 44.609375 11.75 
Q 48.6875 17.390625 48.6875 27.296875 
z
" id="DejaVuSans-112"/>
       <path d="M 30.609375 48.390625 
Q 23.390625 48.390625 19.1875 42.75 
Q 14.984375 37.109375 14.984375 27.296875 
Q 14.984375 17.484375 19.15625 11.84375 
Q 23.34375 6.203125 30.609375 6.203125 
Q 37.796875 6.203125 41.984375 11.859375 
Q 46.1875 17.53125 46.1875 27.296875 
Q 46.1875 37.015625 41.984375 42.703125 
Q 37.796875 48.390625 30.609375 48.390625 
z
M 30.609375 56 
Q 42.328125 56 49.015625 48.375 
Q 55.71875 40.765625 55.71875 27.296875 
Q 55.71875 13.875 49.015625 6.21875 
Q 42.328125 -1.421875 30.609375 -1.421875 
Q 18.84375 -1.421875 12.171875 6.21875 
Q 5.515625 13.875 5.515625 27.296875 
Q 5.515625 40.765625 12.171875 48.375 
Q 18.84375 56 30.609375 56 
z
" id="DejaVuSans-111"/>
       <path id="DejaVuSans-32"/>
       <path d="M 44.28125 53.078125 
L 44.28125 44.578125 
Q 40.484375 46.53125 36.375 47.5 
Q 32.28125 48.484375 27.875 48.484375 
Q 21.1875 48.484375 17.84375 46.4375 
Q 14.5 44.390625 14.5 40.28125 
Q 14.5 37.15625 16.890625 35.375 
Q 19.28125 33.59375 26.515625 31.984375 
L 29.59375 31.296875 
Q 39.15625 29.25 43.1875 25.515625 
Q 47.21875 21.78125 47.21875 15.09375 
Q 47.21875 7.46875 41.1875 3.015625 
Q 35.15625 -1.421875 24.609375 -1.421875 
Q 20.21875 -1.421875 15.453125 -0.5625 
Q 10.6875 0.296875 5.421875 2 
L 5.421875 11.28125 
Q 10.40625 8.6875 15.234375 7.390625 
Q 20.0625 6.109375 24.8125 6.109375 
Q 31.15625 6.109375 34.5625 8.28125 
Q 37.984375 10.453125 37.984375 14.40625 
Q 37.984375 18.0625 35.515625 20.015625 
Q 33.0625 21.96875 24.703125 23.78125 
L 21.578125 24.515625 
Q 13.234375 26.265625 9.515625 29.90625 
Q 5.8125 33.546875 5.8125 39.890625 
Q 5.8125 47.609375 11.28125 51.796875 
Q 16.75 56 26.8125 56 
Q 31.78125 56 36.171875 55.265625 
Q 40.578125 54.546875 44.28125 53.078125 
z
" id="DejaVuSans-115"/>
       <path d="M 45.40625 27.984375 
Q 45.40625 37.75 41.375 43.109375 
Q 37.359375 48.484375 30.078125 48.484375 
Q 22.859375 48.484375 18.828125 43.109375 
Q 14.796875 37.75 14.796875 27.984375 
Q 14.796875 18.265625 18.828125 12.890625 
Q 22.859375 7.515625 30.078125 7.515625 
Q 37.359375 7.515625 41.375 12.890625 
Q 45.40625 18.265625 45.40625 27.984375 
z
M 54.390625 6.78125 
Q 54.390625 -7.171875 48.1875 -13.984375 
Q 42 -20.796875 29.203125 -20.796875 
Q 24.46875 -20.796875 20.265625 -20.09375 
Q 16.0625 -19.390625 12.109375 -17.921875 
L 12.109375 -9.1875 
Q 16.0625 -11.328125 19.921875 -12.34375 
Q 23.78125 -13.375 27.78125 -13.375 
Q 36.625 -13.375 41.015625 -8.765625 
Q 45.40625 -4.15625 45.40625 5.171875 
L 45.40625 9.625 
Q 42.625 4.78125 38.28125 2.390625 
Q 33.9375 0 27.875 0 
Q 17.828125 0 11.671875 7.65625 
Q 5.515625 15.328125 5.515625 27.984375 
Q 5.515625 40.671875 11.671875 48.328125 
Q 17.828125 56 27.875 56 
Q 33.9375 56 38.28125 53.609375 
Q 42.625 51.21875 45.40625 46.390625 
L 45.40625 54.6875 
L 54.390625 54.6875 
z
" id="DejaVuSans-103"/>
       <path d="M 2.984375 54.6875 
L 12.5 54.6875 
L 29.59375 8.796875 
L 46.6875 54.6875 
L 56.203125 54.6875 
L 35.6875 0 
L 23.484375 0 
z
" id="DejaVuSans-118"/>
       <path d="M 83.890625 32.234375 
Q 83.84375 39.59375 79.8125 43.984375 
Q 75.78125 48.390625 69.09375 48.390625 
Q 61.625 48.390625 57.109375 44.140625 
Q 52.59375 39.890625 51.90625 32.171875 
z
M 48.578125 47.015625 
Q 52.203125 51.421875 57.375 53.703125 
Q 62.546875 56 69 56 
Q 80.03125 56 86.46875 48.890625 
Q 92.921875 41.796875 92.921875 29.59375 
L 92.921875 25.203125 
L 51.609375 25.203125 
Q 52.203125 15.875 57.171875 10.984375 
Q 62.15625 6.109375 71.09375 6.109375 
Q 76.171875 6.109375 81.046875 7.390625 
Q 85.9375 8.6875 90.828125 11.28125 
L 90.828125 2.78125 
Q 85.9375 0.734375 80.859375 -0.34375 
Q 75.78125 -1.421875 70.609375 -1.421875 
Q 62.453125 -1.421875 56.390625 1.53125 
Q 50.34375 4.5 46.578125 10.296875 
Q 43.015625 4.4375 37.734375 1.5 
Q 32.46875 -1.421875 25.484375 -1.421875 
Q 16.265625 -1.421875 11.125 3.140625 
Q 6 7.71875 6 15.921875 
Q 6 25.140625 12.171875 29.828125 
Q 18.359375 34.515625 30.609375 34.515625 
L 43.21875 34.515625 
L 43.21875 35.40625 
Q 43.21875 41.609375 39.140625 45 
Q 35.0625 48.390625 27.6875 48.390625 
Q 23 48.390625 18.546875 47.265625 
Q 14.109375 46.140625 10.015625 43.890625 
L 10.015625 52.203125 
Q 14.9375 54.109375 19.578125 55.046875 
Q 24.21875 56 28.609375 56 
Q 35.546875 56 40.75 53.65625 
Q 45.953125 51.3125 48.578125 47.015625 
z
M 34.28125 27.484375 
Q 23.390625 27.484375 19.1875 25 
Q 14.984375 22.515625 14.984375 16.5 
Q 14.984375 11.71875 18.140625 8.90625 
Q 21.296875 6.109375 26.703125 6.109375 
Q 34.1875 6.109375 38.703125 11.40625 
Q 43.21875 16.703125 43.21875 25.484375 
L 43.21875 27.484375 
z
" id="DejaVuSans-230"/>
       <path d="M 45.40625 46.390625 
L 45.40625 75.984375 
L 54.390625 75.984375 
L 54.390625 0 
L 45.40625 0 
L 45.40625 8.203125 
Q 42.578125 3.328125 38.25 0.953125 
Q 33.9375 -1.421875 27.875 -1.421875 
Q 17.96875 -1.421875 11.734375 6.484375 
Q 5.515625 14.40625 5.515625 27.296875 
Q 5.515625 40.1875 11.734375 48.09375 
Q 17.96875 56 27.875 56 
Q 33.9375 56 38.25 53.625 
Q 42.578125 51.265625 45.40625 46.390625 
z
M 14.796875 27.296875 
Q 14.796875 17.390625 18.875 11.75 
Q 22.953125 6.109375 30.078125 6.109375 
Q 37.203125 6.109375 41.296875 11.75 
Q 45.40625 17.390625 45.40625 27.296875 
Q 45.40625 37.203125 41.296875 42.84375 
Q 37.203125 48.484375 30.078125 48.484375 
Q 22.953125 48.484375 18.875 42.84375 
Q 14.796875 37.203125 14.796875 27.296875 
z
" id="DejaVuSans-100"/>
       <path d="M 8.59375 75.984375 
L 29.296875 75.984375 
L 29.296875 69 
L 17.578125 69 
L 17.578125 -6.203125 
L 29.296875 -6.203125 
L 29.296875 -13.1875 
L 8.59375 -13.1875 
z
" id="DejaVuSans-91"/>
       <path d="M 9.8125 72.90625 
L 19.671875 72.90625 
L 19.671875 42.09375 
L 52.390625 72.90625 
L 65.09375 72.90625 
L 28.90625 38.921875 
L 67.671875 0 
L 54.6875 0 
L 19.671875 35.109375 
L 19.671875 0 
L 9.8125 0 
z
" id="DejaVuSans-75"/>
       <path d="M 30.421875 75.984375 
L 30.421875 -13.1875 
L 9.71875 -13.1875 
L 9.71875 -6.203125 
L 21.390625 -6.203125 
L 21.390625 69 
L 9.71875 69 
L 9.71875 75.984375 
z
" id="DejaVuSans-93"/>
      </defs>
      <use xlink:href="#DejaVuSans-68"/>
      <use x="77.001953" xlink:href="#DejaVuSans-101"/>
      <use x="138.525391" xlink:href="#DejaVuSans-112"/>
      <use x="202.001953" xlink:href="#DejaVuSans-111"/>
      <use x="263.183594" xlink:href="#DejaVuSans-116"/>
      <use x="302.392578" xlink:href="#DejaVuSans-32"/>
      <use x="334.179688" xlink:href="#DejaVuSans-115"/>
      <use x="386.279297" xlink:href="#DejaVuSans-97"/>
      <use x="447.558594" xlink:href="#DejaVuSans-108"/>
      <use x="475.341797" xlink:href="#DejaVuSans-103"/>
      <use x="538.818359" xlink:href="#DejaVuSans-115"/>
      <use x="590.917969" xlink:href="#DejaVuSans-118"/>
      <use x="650.097656" xlink:href="#DejaVuSans-230"/>
      <use x="748.291016" xlink:href="#DejaVuSans-114"/>
      <use x="787.654297" xlink:href="#DejaVuSans-100"/>
      <use x="851.130859" xlink:href="#DejaVuSans-105"/>
      <use x="878.914062" xlink:href="#DejaVuSans-32"/>
      <use x="910.701172" xlink:href="#DejaVuSans-91"/>
      <use x="949.714844" xlink:href="#DejaVuSans-68"/>
      <use x="1026.716797" xlink:href="#DejaVuSans-75"/>
      <use x="1092.292969" xlink:href="#DejaVuSans-75"/>
      <use x="1157.869141" xlink:href="#DejaVuSans-93"/>
     </g>
    </g>
    <g id="text_21">
     <!-- 1e6 -->
     <g transform="translate(69.14 21.6)scale(0.12 -0.12)">
      <use xlink:href="#DejaVuSans-49"/>
      <use x="63.623047" xlink:href="#DejaVuSans-101"/>
      <use x="125.146484" xlink:href="#DejaVuSans-54"/>
     </g>
    </g>
   </g>
   <g id="line2d_37">
    <path clip-path="url(#pdb50b6d6b8)" d="M 85.044545 278.193179 
L 100.949091 261.532683 
L 116.853636 251.873912 
L 132.758182 246.118128 
L 148.662727 243.373801 
L 164.567273 239.390161 
L 180.471818 233.567742 
L 196.376364 228.819198 
L 212.280909 223.318884 
L 228.185455 211.102952 
L 244.09 199.555732 
L 259.994545 184.535732 
L 275.899091 173.722743 
L 291.803636 169.131849 
L 307.708182 164.206622 
L 323.612727 156.879769 
L 339.517273 144.086026 
L 355.421818 122.6237 
L 371.326364 100.18314 
L 387.230909 69.159892 
L 403.135455 42.157177 
" style="fill:none;stroke:#1f77b4;stroke-linecap:square;stroke-width:3;"/>
   </g>
   <g id="line2d_38">
    <path clip-path="url(#pdb50b6d6b8)" d="M 85.044545 277.914525 
L 100.949091 259.692829 
L 116.853636 250.890877 
L 132.758182 244.548664 
L 148.662727 241.368249 
L 164.567273 237.364529 
L 180.471818 232.160327 
L 196.376364 227.972463 
L 212.280909 221.583751 
L 228.185455 211.352683 
L 244.09 199.558749 
L 259.994545 183.326263 
L 275.899091 174.197515 
L 291.803636 169.765126 
L 307.708182 163.86082 
L 323.612727 156.487309 
L 339.517273 144.03215 
L 355.421818 123.916182 
L 371.326364 101.373794 
L 387.230909 72.221878 
L 403.135455 46.263246 
" style="fill:none;stroke:#ff7f0e;stroke-linecap:square;stroke-width:3;"/>
   </g>
   <g id="line2d_39">
    <path clip-path="url(#pdb50b6d6b8)" d="M 85.044545 277.542897 
L 100.949091 257.760829 
L 116.853636 249.411766 
L 132.758182 243.442344 
L 148.662727 239.732071 
L 164.567273 235.753591 
L 180.471818 230.727841 
L 196.376364 226.721988 
L 212.280909 219.21434 
L 228.185455 210.518661 
L 244.09 200.155363 
L 259.994545 183.71608 
L 275.899091 175.204953 
L 291.803636 170.330082 
L 307.708182 164.765366 
L 323.612727 157.146005 
L 339.517273 145.254214 
L 355.421818 126.018779 
L 371.326364 104.536428 
L 387.230909 76.374256 
L 403.135455 51.891383 
" style="fill:none;stroke:#2ca02c;stroke-linecap:square;stroke-width:3;"/>
   </g>
   <g id="line2d_40">
    <path clip-path="url(#pdb50b6d6b8)" d="M 85.044545 277.310075 
L 100.949091 256.681914 
L 116.853636 248.754784 
L 132.758182 242.733807 
L 148.662727 238.667212 
L 164.567273 235.053009 
L 180.471818 230.179386 
L 196.376364 226.382749 
L 212.280909 218.54293 
L 228.185455 211.656894 
L 244.09 201.474518 
L 259.994545 185.185086 
L 275.899091 177.603963 
L 291.803636 172.516119 
L 307.708182 167.441206 
L 323.612727 159.253707 
L 339.517273 148.925671 
L 355.421818 129.501014 
L 371.326364 108.295958 
L 387.230909 81.553068 
L 403.135455 58.627822 
" style="fill:none;stroke:#d62728;stroke-linecap:square;stroke-width:3;"/>
   </g>
   <g id="line2d_41">
    <path clip-path="url(#pdb50b6d6b8)" d="M 85.044545 277.252124 
L 100.949091 256.21773 
L 116.853636 248.64002 
L 132.758182 242.575164 
L 148.662727 239.310332 
L 164.567273 235.872103 
L 180.471818 230.692904 
L 196.376364 226.368734 
L 212.280909 219.255513 
L 228.185455 213.065481 
L 244.09 203.244963 
L 259.994545 187.541463 
L 275.899091 180.445913 
L 291.803636 175.669439 
L 307.708182 170.774848 
L 323.612727 162.038 
L 339.517273 152.546594 
L 355.421818 133.714841 
L 371.326364 112.997788 
L 387.230909 87.328631 
L 403.135455 66.032158 
" style="fill:none;stroke:#9467bd;stroke-linecap:square;stroke-width:3;"/>
   </g>
   <g id="line2d_42">
    <path clip-path="url(#pdb50b6d6b8)" d="M 85.044545 277.179014 
L 100.949091 256.604888 
L 116.853636 249.641701 
L 132.758182 244.132947 
L 148.662727 240.761965 
L 164.567273 237.569145 
L 180.471818 233.241305 
L 196.376364 229.038591 
L 212.280909 221.551363 
L 228.185455 215.088862 
L 244.09 205.676645 
L 259.994545 190.554677 
L 275.899091 183.548853 
L 291.803636 179.438486 
L 307.708182 174.131087 
L 323.612727 164.992649 
L 339.517273 156.396508 
L 355.421818 138.067553 
L 371.326364 118.36708 
L 387.230909 93.300757 
L 403.135455 73.368907 
" style="fill:none;stroke:#8c564b;stroke-linecap:square;stroke-width:3;"/>
   </g>
   <g id="line2d_43">
    <path clip-path="url(#pdb50b6d6b8)" d="M 85.044545 280.112751 
L 100.949091 262.828272 
L 116.853636 254.367222 
L 132.758182 248.665778 
L 148.662727 245.438415 
L 164.567273 241.925809 
L 180.471818 238.001732 
L 196.376364 233.533716 
L 212.280909 228.868897 
L 228.185455 218.310894 
L 244.09 208.393055 
L 259.994545 193.571657 
L 275.899091 186.887706 
L 291.803636 182.848797 
L 307.708182 178.341042 
L 323.612727 170.508898 
L 339.517273 160.266586 
L 355.421818 142.857378 
L 371.326364 124.116342 
L 387.230909 99.692886 
L 403.135455 80.511738 
" style="fill:none;stroke:#e377c2;stroke-linecap:square;stroke-width:3;"/>
   </g>
   <g id="line2d_44">
    <path clip-path="url(#pdb50b6d6b8)" d="M 85.044545 286.978338 
L 100.949091 268.921644 
L 116.853636 261.076644 
L 132.758182 256.347893 
L 148.662727 253.318514 
L 164.567273 248.903137 
L 180.471818 243.893965 
L 196.376364 239.370229 
L 212.280909 233.713118 
L 228.185455 223.523651 
L 244.09 212.064331 
L 259.994545 199.351581 
L 275.899091 191.311717 
L 291.803636 187.869544 
L 307.708182 183.116474 
L 323.612727 174.827793 
L 339.517273 166.099455 
L 355.421818 147.954522 
L 371.326364 129.64637 
L 387.230909 106.715084 
L 403.135455 87.615626 
" style="fill:none;stroke:#7f7f7f;stroke-linecap:square;stroke-width:3;"/>
   </g>
   <g id="line2d_45">
    <path clip-path="url(#pdb50b6d6b8)" d="M 85.044545 293.886518 
L 100.949091 275.945125 
L 116.853636 268.721748 
L 132.758182 264.264251 
L 148.662727 261.313302 
L 164.567273 257.200279 
L 180.471818 252.491675 
L 196.376364 246.881337 
L 212.280909 239.632413 
L 228.185455 230.943138 
L 244.09 217.989301 
L 259.994545 205.579711 
L 275.899091 197.527526 
L 291.803636 193.931963 
L 307.708182 189.71009 
L 323.612727 182.170005 
L 339.517273 175.150067 
L 355.421818 153.187278 
L 371.326364 137.189291 
L 387.230909 113.348805 
L 403.135455 94.545524 
" style="fill:none;stroke:#bcbd22;stroke-linecap:square;stroke-width:3;"/>
   </g>
   <g id="line2d_46">
    <path clip-path="url(#pdb50b6d6b8)" d="M 85.044545 300.839505 
L 100.949091 282.339712 
L 116.853636 277.129216 
L 132.758182 272.349719 
L 148.662727 268.933455 
L 164.567273 265.032712 
L 180.471818 260.44708 
L 196.376364 254.769468 
L 212.280909 247.276348 
L 228.185455 239.773727 
L 244.09 225.523472 
L 259.994545 213.302365 
L 275.899091 205.805383 
L 291.803636 200.860554 
L 307.708182 197.137237 
L 323.612727 191.393591 
L 339.517273 184.388217 
L 355.421818 160.174138 
L 371.326364 147.475843 
L 387.230909 119.213232 
L 403.135455 101.412302 
" style="fill:none;stroke:#17becf;stroke-linecap:square;stroke-width:3;"/>
   </g>
   <g id="line2d_47">
    <path clip-path="url(#pdb50b6d6b8)" d="M 85.044545 307.828012 
L 100.949091 290.023873 
L 116.853636 285.056015 
L 132.758182 280.251975 
L 148.662727 276.581496 
L 164.567273 272.354157 
L 180.471818 268.031834 
L 196.376364 262.546881 
L 212.280909 255.049444 
L 228.185455 247.261797 
L 244.09 233.585096 
L 259.994545 222.144849 
L 275.899091 214.877858 
L 291.803636 209.477929 
L 307.708182 205.041954 
L 323.612727 200.084526 
L 339.517273 194.500771 
L 355.421818 166.808222 
L 371.326364 155.61548 
L 387.230909 125.644193 
L 403.135455 108.026091 
" style="fill:none;stroke:#1f77b4;stroke-linecap:square;stroke-width:3;"/>
   </g>
   <g id="patch_3">
    <path d="M 69.14 314.44 
L 69.14 24.6 
" style="fill:none;stroke:#000000;stroke-linecap:square;stroke-linejoin:miter;stroke-width:0.8;"/>
   </g>
   <g id="patch_4">
    <path d="M 419.04 314.44 
L 419.04 24.6 
" style="fill:none;stroke:#000000;stroke-linecap:square;stroke-linejoin:miter;stroke-width:0.8;"/>
   </g>
   <g id="patch_5">
    <path d="M 69.14 314.44 
L 419.04 314.44 
" style="fill:none;stroke:#000000;stroke-linecap:square;stroke-linejoin:miter;stroke-width:0.8;"/>
   </g>
   <g id="patch_6">
    <path d="M 69.14 24.6 
L 419.04 24.6 
" style="fill:none;stroke:#000000;stroke-linecap:square;stroke-linejoin:miter;stroke-width:0.8;"/>
   </g>
   <g id="legend_1">
    <g id="patch_7">
     <path d="M 76.7 207.616125 
L 201.173375 207.616125 
Q 203.333375 207.616125 203.333375 205.456125 
L 203.333375 32.16 
Q 203.333375 30 201.173375 30 
L 76.7 30 
Q 74.54 30 74.54 32.16 
L 74.54 205.456125 
Q 74.54 207.616125 76.7 207.616125 
z
" style="fill:#ffffff;opacity:0.8;stroke:#cccccc;stroke-linejoin:miter;"/>
    </g>
    <g id="line2d_48">
     <path d="M 78.86 38.746313 
L 100.46 38.746313 
" style="fill:none;stroke:#1f77b4;stroke-linecap:square;stroke-width:3;"/>
    </g>
    <g id="line2d_49"/>
    <g id="text_22">
     <!-- Udbytte = 0% -->
     <g transform="translate(109.1 42.526313)scale(0.108 -0.108)">
      <defs>
       <path d="M 8.6875 72.90625 
L 18.609375 72.90625 
L 18.609375 28.609375 
Q 18.609375 16.890625 22.84375 11.734375 
Q 27.09375 6.59375 36.625 6.59375 
Q 46.09375 6.59375 50.34375 11.734375 
Q 54.59375 16.890625 54.59375 28.609375 
L 54.59375 72.90625 
L 64.5 72.90625 
L 64.5 27.390625 
Q 64.5 13.140625 57.4375 5.859375 
Q 50.390625 -1.421875 36.625 -1.421875 
Q 22.796875 -1.421875 15.734375 5.859375 
Q 8.6875 13.140625 8.6875 27.390625 
z
" id="DejaVuSans-85"/>
       <path d="M 48.6875 27.296875 
Q 48.6875 37.203125 44.609375 42.84375 
Q 40.53125 48.484375 33.40625 48.484375 
Q 26.265625 48.484375 22.1875 42.84375 
Q 18.109375 37.203125 18.109375 27.296875 
Q 18.109375 17.390625 22.1875 11.75 
Q 26.265625 6.109375 33.40625 6.109375 
Q 40.53125 6.109375 44.609375 11.75 
Q 48.6875 17.390625 48.6875 27.296875 
z
M 18.109375 46.390625 
Q 20.953125 51.265625 25.265625 53.625 
Q 29.59375 56 35.59375 56 
Q 45.5625 56 51.78125 48.09375 
Q 58.015625 40.1875 58.015625 27.296875 
Q 58.015625 14.40625 51.78125 6.484375 
Q 45.5625 -1.421875 35.59375 -1.421875 
Q 29.59375 -1.421875 25.265625 0.953125 
Q 20.953125 3.328125 18.109375 8.203125 
L 18.109375 0 
L 9.078125 0 
L 9.078125 75.984375 
L 18.109375 75.984375 
z
" id="DejaVuSans-98"/>
       <path d="M 32.171875 -5.078125 
Q 28.375 -14.84375 24.75 -17.8125 
Q 21.140625 -20.796875 15.09375 -20.796875 
L 7.90625 -20.796875 
L 7.90625 -13.28125 
L 13.1875 -13.28125 
Q 16.890625 -13.28125 18.9375 -11.515625 
Q 21 -9.765625 23.484375 -3.21875 
L 25.09375 0.875 
L 2.984375 54.6875 
L 12.5 54.6875 
L 29.59375 11.921875 
L 46.6875 54.6875 
L 56.203125 54.6875 
z
" id="DejaVuSans-121"/>
       <path d="M 10.59375 45.40625 
L 73.1875 45.40625 
L 73.1875 37.203125 
L 10.59375 37.203125 
z
M 10.59375 25.484375 
L 73.1875 25.484375 
L 73.1875 17.1875 
L 10.59375 17.1875 
z
" id="DejaVuSans-61"/>
       <path d="M 72.703125 32.078125 
Q 68.453125 32.078125 66.03125 28.46875 
Q 63.625 24.859375 63.625 18.40625 
Q 63.625 12.0625 66.03125 8.421875 
Q 68.453125 4.78125 72.703125 4.78125 
Q 76.859375 4.78125 79.265625 8.421875 
Q 81.6875 12.0625 81.6875 18.40625 
Q 81.6875 24.8125 79.265625 28.4375 
Q 76.859375 32.078125 72.703125 32.078125 
z
M 72.703125 38.28125 
Q 80.421875 38.28125 84.953125 32.90625 
Q 89.5 27.546875 89.5 18.40625 
Q 89.5 9.28125 84.9375 3.921875 
Q 80.375 -1.421875 72.703125 -1.421875 
Q 64.890625 -1.421875 60.34375 3.921875 
Q 55.8125 9.28125 55.8125 18.40625 
Q 55.8125 27.59375 60.375 32.9375 
Q 64.9375 38.28125 72.703125 38.28125 
z
M 22.3125 68.015625 
Q 18.109375 68.015625 15.6875 64.375 
Q 13.28125 60.75 13.28125 54.390625 
Q 13.28125 47.953125 15.671875 44.328125 
Q 18.0625 40.71875 22.3125 40.71875 
Q 26.5625 40.71875 28.96875 44.328125 
Q 31.390625 47.953125 31.390625 54.390625 
Q 31.390625 60.6875 28.953125 64.34375 
Q 26.515625 68.015625 22.3125 68.015625 
z
M 66.40625 74.21875 
L 74.21875 74.21875 
L 28.609375 -1.421875 
L 20.796875 -1.421875 
z
M 22.3125 74.21875 
Q 30.03125 74.21875 34.609375 68.875 
Q 39.203125 63.53125 39.203125 54.390625 
Q 39.203125 45.171875 34.640625 39.84375 
Q 30.078125 34.515625 22.3125 34.515625 
Q 14.546875 34.515625 10.03125 39.859375 
Q 5.515625 45.21875 5.515625 54.390625 
Q 5.515625 63.484375 10.046875 68.84375 
Q 14.59375 74.21875 22.3125 74.21875 
z
" id="DejaVuSans-37"/>
      </defs>
      <use xlink:href="#DejaVuSans-85"/>
      <use x="73.193359" xlink:href="#DejaVuSans-100"/>
      <use x="136.669922" xlink:href="#DejaVuSans-98"/>
      <use x="200.146484" xlink:href="#DejaVuSans-121"/>
      <use x="259.326172" xlink:href="#DejaVuSans-116"/>
      <use x="298.535156" xlink:href="#DejaVuSans-116"/>
      <use x="337.744141" xlink:href="#DejaVuSans-101"/>
      <use x="399.267578" xlink:href="#DejaVuSans-32"/>
      <use x="431.054688" xlink:href="#DejaVuSans-61"/>
      <use x="514.84375" xlink:href="#DejaVuSans-32"/>
      <use x="546.630859" xlink:href="#DejaVuSans-48"/>
      <use x="610.253906" xlink:href="#DejaVuSans-37"/>
     </g>
    </g>
    <g id="line2d_50">
     <path d="M 78.86 54.598688 
L 100.46 54.598688 
" style="fill:none;stroke:#ff7f0e;stroke-linecap:square;stroke-width:3;"/>
    </g>
    <g id="line2d_51"/>
    <g id="text_23">
     <!-- Udbytte = 10% -->
     <g transform="translate(109.1 58.378688)scale(0.108 -0.108)">
      <use xlink:href="#DejaVuSans-85"/>
      <use x="73.193359" xlink:href="#DejaVuSans-100"/>
      <use x="136.669922" xlink:href="#DejaVuSans-98"/>
      <use x="200.146484" xlink:href="#DejaVuSans-121"/>
      <use x="259.326172" xlink:href="#DejaVuSans-116"/>
      <use x="298.535156" xlink:href="#DejaVuSans-116"/>
      <use x="337.744141" xlink:href="#DejaVuSans-101"/>
      <use x="399.267578" xlink:href="#DejaVuSans-32"/>
      <use x="431.054688" xlink:href="#DejaVuSans-61"/>
      <use x="514.84375" xlink:href="#DejaVuSans-32"/>
      <use x="546.630859" xlink:href="#DejaVuSans-49"/>
      <use x="610.253906" xlink:href="#DejaVuSans-48"/>
      <use x="673.876953" xlink:href="#DejaVuSans-37"/>
     </g>
    </g>
    <g id="line2d_52">
     <path d="M 78.86 70.451063 
L 100.46 70.451063 
" style="fill:none;stroke:#2ca02c;stroke-linecap:square;stroke-width:3;"/>
    </g>
    <g id="line2d_53"/>
    <g id="text_24">
     <!-- Udbytte = 20% -->
     <g transform="translate(109.1 74.231063)scale(0.108 -0.108)">
      <use xlink:href="#DejaVuSans-85"/>
      <use x="73.193359" xlink:href="#DejaVuSans-100"/>
      <use x="136.669922" xlink:href="#DejaVuSans-98"/>
      <use x="200.146484" xlink:href="#DejaVuSans-121"/>
      <use x="259.326172" xlink:href="#DejaVuSans-116"/>
      <use x="298.535156" xlink:href="#DejaVuSans-116"/>
      <use x="337.744141" xlink:href="#DejaVuSans-101"/>
      <use x="399.267578" xlink:href="#DejaVuSans-32"/>
      <use x="431.054688" xlink:href="#DejaVuSans-61"/>
      <use x="514.84375" xlink:href="#DejaVuSans-32"/>
      <use x="546.630859" xlink:href="#DejaVuSans-50"/>
      <use x="610.253906" xlink:href="#DejaVuSans-48"/>
      <use x="673.876953" xlink:href="#DejaVuSans-37"/>
     </g>
    </g>
    <g id="line2d_54">
     <path d="M 78.86 86.303438 
L 100.46 86.303438 
" style="fill:none;stroke:#d62728;stroke-linecap:square;stroke-width:3;"/>
    </g>
    <g id="line2d_55"/>
    <g id="text_25">
     <!-- Udbytte = 30% -->
     <g transform="translate(109.1 90.083438)scale(0.108 -0.108)">
      <use xlink:href="#DejaVuSans-85"/>
      <use x="73.193359" xlink:href="#DejaVuSans-100"/>
      <use x="136.669922" xlink:href="#DejaVuSans-98"/>
      <use x="200.146484" xlink:href="#DejaVuSans-121"/>
      <use x="259.326172" xlink:href="#DejaVuSans-116"/>
      <use x="298.535156" xlink:href="#DejaVuSans-116"/>
      <use x="337.744141" xlink:href="#DejaVuSans-101"/>
      <use x="399.267578" xlink:href="#DejaVuSans-32"/>
      <use x="431.054688" xlink:href="#DejaVuSans-61"/>
      <use x="514.84375" xlink:href="#DejaVuSans-32"/>
      <use x="546.630859" xlink:href="#DejaVuSans-51"/>
      <use x="610.253906" xlink:href="#DejaVuSans-48"/>
      <use x="673.876953" xlink:href="#DejaVuSans-37"/>
     </g>
    </g>
    <g id="line2d_56">
     <path d="M 78.86 102.155813 
L 100.46 102.155813 
" style="fill:none;stroke:#9467bd;stroke-linecap:square;stroke-width:3;"/>
    </g>
    <g id="line2d_57"/>
    <g id="text_26">
     <!-- Udbytte = 40% -->
     <g transform="translate(109.1 105.935813)scale(0.108 -0.108)">
      <use xlink:href="#DejaVuSans-85"/>
      <use x="73.193359" xlink:href="#DejaVuSans-100"/>
      <use x="136.669922" xlink:href="#DejaVuSans-98"/>
      <use x="200.146484" xlink:href="#DejaVuSans-121"/>
      <use x="259.326172" xlink:href="#DejaVuSans-116"/>
      <use x="298.535156" xlink:href="#DejaVuSans-116"/>
      <use x="337.744141" xlink:href="#DejaVuSans-101"/>
      <use x="399.267578" xlink:href="#DejaVuSans-32"/>
      <use x="431.054688" xlink:href="#DejaVuSans-61"/>
      <use x="514.84375" xlink:href="#DejaVuSans-32"/>
      <use x="546.630859" xlink:href="#DejaVuSans-52"/>
      <use x="610.253906" xlink:href="#DejaVuSans-48"/>
      <use x="673.876953" xlink:href="#DejaVuSans-37"/>
     </g>
    </g>
    <g id="line2d_58">
     <path d="M 78.86 118.008188 
L 100.46 118.008188 
" style="fill:none;stroke:#8c564b;stroke-linecap:square;stroke-width:3;"/>
    </g>
    <g id="line2d_59"/>
    <g id="text_27">
     <!-- Udbytte = 50% -->
     <g transform="translate(109.1 121.788188)scale(0.108 -0.108)">
      <use xlink:href="#DejaVuSans-85"/>
      <use x="73.193359" xlink:href="#DejaVuSans-100"/>
      <use x="136.669922" xlink:href="#DejaVuSans-98"/>
      <use x="200.146484" xlink:href="#DejaVuSans-121"/>
      <use x="259.326172" xlink:href="#DejaVuSans-116"/>
      <use x="298.535156" xlink:href="#DejaVuSans-116"/>
      <use x="337.744141" xlink:href="#DejaVuSans-101"/>
      <use x="399.267578" xlink:href="#DejaVuSans-32"/>
      <use x="431.054688" xlink:href="#DejaVuSans-61"/>
      <use x="514.84375" xlink:href="#DejaVuSans-32"/>
      <use x="546.630859" xlink:href="#DejaVuSans-53"/>
      <use x="610.253906" xlink:href="#DejaVuSans-48"/>
      <use x="673.876953" xlink:href="#DejaVuSans-37"/>
     </g>
    </g>
    <g id="line2d_60">
     <path d="M 78.86 133.860563 
L 100.46 133.860563 
" style="fill:none;stroke:#e377c2;stroke-linecap:square;stroke-width:3;"/>
    </g>
    <g id="line2d_61"/>
    <g id="text_28">
     <!-- Udbytte = 60% -->
     <g transform="translate(109.1 137.640563)scale(0.108 -0.108)">
      <use xlink:href="#DejaVuSans-85"/>
      <use x="73.193359" xlink:href="#DejaVuSans-100"/>
      <use x="136.669922" xlink:href="#DejaVuSans-98"/>
      <use x="200.146484" xlink:href="#DejaVuSans-121"/>
      <use x="259.326172" xlink:href="#DejaVuSans-116"/>
      <use x="298.535156" xlink:href="#DejaVuSans-116"/>
      <use x="337.744141" xlink:href="#DejaVuSans-101"/>
      <use x="399.267578" xlink:href="#DejaVuSans-32"/>
      <use x="431.054688" xlink:href="#DejaVuSans-61"/>
      <use x="514.84375" xlink:href="#DejaVuSans-32"/>
      <use x="546.630859" xlink:href="#DejaVuSans-54"/>
      <use x="610.253906" xlink:href="#DejaVuSans-48"/>
      <use x="673.876953" xlink:href="#DejaVuSans-37"/>
     </g>
    </g>
    <g id="line2d_62">
     <path d="M 78.86 149.712938 
L 100.46 149.712938 
" style="fill:none;stroke:#7f7f7f;stroke-linecap:square;stroke-width:3;"/>
    </g>
    <g id="line2d_63"/>
    <g id="text_29">
     <!-- Udbytte = 70% -->
     <g transform="translate(109.1 153.492938)scale(0.108 -0.108)">
      <use xlink:href="#DejaVuSans-85"/>
      <use x="73.193359" xlink:href="#DejaVuSans-100"/>
      <use x="136.669922" xlink:href="#DejaVuSans-98"/>
      <use x="200.146484" xlink:href="#DejaVuSans-121"/>
      <use x="259.326172" xlink:href="#DejaVuSans-116"/>
      <use x="298.535156" xlink:href="#DejaVuSans-116"/>
      <use x="337.744141" xlink:href="#DejaVuSans-101"/>
      <use x="399.267578" xlink:href="#DejaVuSans-32"/>
      <use x="431.054688" xlink:href="#DejaVuSans-61"/>
      <use x="514.84375" xlink:href="#DejaVuSans-32"/>
      <use x="546.630859" xlink:href="#DejaVuSans-55"/>
      <use x="610.253906" xlink:href="#DejaVuSans-48"/>
      <use x="673.876953" xlink:href="#DejaVuSans-37"/>
     </g>
    </g>
    <g id="line2d_64">
     <path d="M 78.86 165.565313 
L 100.46 165.565313 
" style="fill:none;stroke:#bcbd22;stroke-linecap:square;stroke-width:3;"/>
    </g>
    <g id="line2d_65"/>
    <g id="text_30">
     <!-- Udbytte = 80% -->
     <g transform="translate(109.1 169.345313)scale(0.108 -0.108)">
      <use xlink:href="#DejaVuSans-85"/>
      <use x="73.193359" xlink:href="#DejaVuSans-100"/>
      <use x="136.669922" xlink:href="#DejaVuSans-98"/>
      <use x="200.146484" xlink:href="#DejaVuSans-121"/>
      <use x="259.326172" xlink:href="#DejaVuSans-116"/>
      <use x="298.535156" xlink:href="#DejaVuSans-116"/>
      <use x="337.744141" xlink:href="#DejaVuSans-101"/>
      <use x="399.267578" xlink:href="#DejaVuSans-32"/>
      <use x="431.054688" xlink:href="#DejaVuSans-61"/>
      <use x="514.84375" xlink:href="#DejaVuSans-32"/>
      <use x="546.630859" xlink:href="#DejaVuSans-56"/>
      <use x="610.253906" xlink:href="#DejaVuSans-48"/>
      <use x="673.876953" xlink:href="#DejaVuSans-37"/>
     </g>
    </g>
    <g id="line2d_66">
     <path d="M 78.86 181.417687 
L 100.46 181.417687 
" style="fill:none;stroke:#17becf;stroke-linecap:square;stroke-width:3;"/>
    </g>
    <g id="line2d_67"/>
    <g id="text_31">
     <!-- Udbytte = 90% -->
     <g transform="translate(109.1 185.197688)scale(0.108 -0.108)">
      <use xlink:href="#DejaVuSans-85"/>
      <use x="73.193359" xlink:href="#DejaVuSans-100"/>
      <use x="136.669922" xlink:href="#DejaVuSans-98"/>
      <use x="200.146484" xlink:href="#DejaVuSans-121"/>
      <use x="259.326172" xlink:href="#DejaVuSans-116"/>
      <use x="298.535156" xlink:href="#DejaVuSans-116"/>
      <use x="337.744141" xlink:href="#DejaVuSans-101"/>
      <use x="399.267578" xlink:href="#DejaVuSans-32"/>
      <use x="431.054688" xlink:href="#DejaVuSans-61"/>
      <use x="514.84375" xlink:href="#DejaVuSans-32"/>
      <use x="546.630859" xlink:href="#DejaVuSans-57"/>
      <use x="610.253906" xlink:href="#DejaVuSans-48"/>
      <use x="673.876953" xlink:href="#DejaVuSans-37"/>
     </g>
    </g>
    <g id="line2d_68">
     <path d="M 78.86 197.270062 
L 100.46 197.270062 
" style="fill:none;stroke:#1f77b4;stroke-linecap:square;stroke-width:3;"/>
    </g>
    <g id="line2d_69"/>
    <g id="text_32">
     <!-- Udbytte = 100% -->
     <g transform="translate(109.1 201.050062)scale(0.108 -0.108)">
      <use xlink:href="#DejaVuSans-85"/>
      <use x="73.193359" xlink:href="#DejaVuSans-100"/>
      <use x="136.669922" xlink:href="#DejaVuSans-98"/>
      <use x="200.146484" xlink:href="#DejaVuSans-121"/>
      <use x="259.326172" xlink:href="#DejaVuSans-116"/>
      <use x="298.535156" xlink:href="#DejaVuSans-116"/>
      <use x="337.744141" xlink:href="#DejaVuSans-101"/>
      <use x="399.267578" xlink:href="#DejaVuSans-32"/>
      <use x="431.054688" xlink:href="#DejaVuSans-61"/>
      <use x="514.84375" xlink:href="#DejaVuSans-32"/>
      <use x="546.630859" xlink:href="#DejaVuSans-49"/>
      <use x="610.253906" xlink:href="#DejaVuSans-48"/>
      <use x="673.876953" xlink:href="#DejaVuSans-48"/>
      <use x="737.5" xlink:href="#DejaVuSans-37"/>
     </g>
    </g>
   </g>
  </g>
 </g>
 <defs>
  <clipPath id="pdb50b6d6b8">
   <rect height="289.84" width="349.9" x="69.14" y="24.6"/>
  </clipPath>
 </defs>
</svg>
