<?xml version="1.0" encoding="utf-8" standalone="no"?>
<!DOCTYPE svg PUBLIC "-//W3C//DTD SVG 1.1//EN"
  "http://www.w3.org/Graphics/SVG/1.1/DTD/svg11.dtd">
<!-- Created with matplotlib (https://matplotlib.org/) -->
<svg height="360pt" version="1.1" viewBox="0 0 360 360" width="360pt" xmlns="http://www.w3.org/2000/svg" xmlns:xlink="http://www.w3.org/1999/xlink">
 <metadata>
  <rdf:RDF xmlns:cc="http://creativecommons.org/ns#" xmlns:dc="http://purl.org/dc/elements/1.1/" xmlns:rdf="http://www.w3.org/1999/02/22-rdf-syntax-ns#">
   <cc:Work>
    <dc:type rdf:resource="http://purl.org/dc/dcmitype/StillImage"/>
    <dc:date>2021-01-09T20:57:09.680849</dc:date>
    <dc:format>image/svg+xml</dc:format>
    <dc:creator>
     <cc:Agent>
      <dc:title>Matplotlib v3.3.2, https://matplotlib.org/</dc:title>
     </cc:Agent>
    </dc:creator>
   </cc:Work>
  </rdf:RDF>
 </metadata>
 <defs>
  <style type="text/css">*{stroke-linecap:butt;stroke-linejoin:round;}</style>
 </defs>
 <g id="figure_1">
  <g id="patch_1">
   <path d="M 0 360 
L 360 360 
L 360 0 
L 0 0 
z
" style="fill:#ffffff;"/>
  </g>
  <g id="axes_1">
   <g id="patch_2">
    <path d="M 61.50125 313.5025 
L 346.356818 313.5025 
L 346.356818 17.28 
L 61.50125 17.28 
z
" style="fill:#ffffff;"/>
   </g>
   <g id="matplotlib.axis_1">
    <g id="xtick_1">
     <g id="line2d_1">
      <path clip-path="url(#pad804ed63f)" d="M 74.44923 313.5025 
L 74.44923 17.28 
" style="fill:none;stroke:#b0b0b0;stroke-linecap:square;stroke-width:0.8;"/>
     </g>
     <g id="line2d_2">
      <defs>
       <path d="M 0 0 
L 0 3.5 
" id="m233c89b3a7" style="stroke:#000000;stroke-width:0.8;"/>
      </defs>
      <g>
       <use style="stroke:#000000;stroke-width:0.8;" x="74.44923" xlink:href="#m233c89b3a7" y="313.5025"/>
      </g>
     </g>
     <g id="text_1">
      <!-- 0.04 -->
      <g transform="translate(61.089855 329.620625)scale(0.12 -0.12)">
       <defs>
        <path d="M 31.78125 66.40625 
Q 24.171875 66.40625 20.328125 58.90625 
Q 16.5 51.421875 16.5 36.375 
Q 16.5 21.390625 20.328125 13.890625 
Q 24.171875 6.390625 31.78125 6.390625 
Q 39.453125 6.390625 43.28125 13.890625 
Q 47.125 21.390625 47.125 36.375 
Q 47.125 51.421875 43.28125 58.90625 
Q 39.453125 66.40625 31.78125 66.40625 
z
M 31.78125 74.21875 
Q 44.046875 74.21875 50.515625 64.515625 
Q 56.984375 54.828125 56.984375 36.375 
Q 56.984375 17.96875 50.515625 8.265625 
Q 44.046875 -1.421875 31.78125 -1.421875 
Q 19.53125 -1.421875 13.0625 8.265625 
Q 6.59375 17.96875 6.59375 36.375 
Q 6.59375 54.828125 13.0625 64.515625 
Q 19.53125 74.21875 31.78125 74.21875 
z
" id="DejaVuSans-48"/>
        <path d="M 10.6875 12.40625 
L 21 12.40625 
L 21 0 
L 10.6875 0 
z
" id="DejaVuSans-46"/>
        <path d="M 37.796875 64.3125 
L 12.890625 25.390625 
L 37.796875 25.390625 
z
M 35.203125 72.90625 
L 47.609375 72.90625 
L 47.609375 25.390625 
L 58.015625 25.390625 
L 58.015625 17.1875 
L 47.609375 17.1875 
L 47.609375 0 
L 37.796875 0 
L 37.796875 17.1875 
L 4.890625 17.1875 
L 4.890625 26.703125 
z
" id="DejaVuSans-52"/>
       </defs>
       <use xlink:href="#DejaVuSans-48"/>
       <use x="63.623047" xlink:href="#DejaVuSans-46"/>
       <use x="95.410156" xlink:href="#DejaVuSans-48"/>
       <use x="159.033203" xlink:href="#DejaVuSans-52"/>
      </g>
     </g>
    </g>
    <g id="xtick_2">
     <g id="line2d_3">
      <path clip-path="url(#pad804ed63f)" d="M 126.241152 313.5025 
L 126.241152 17.28 
" style="fill:none;stroke:#b0b0b0;stroke-linecap:square;stroke-width:0.8;"/>
     </g>
     <g id="line2d_4">
      <g>
       <use style="stroke:#000000;stroke-width:0.8;" x="126.241152" xlink:href="#m233c89b3a7" y="313.5025"/>
      </g>
     </g>
     <g id="text_2">
      <!-- 0.06 -->
      <g transform="translate(112.881777 329.620625)scale(0.12 -0.12)">
       <defs>
        <path d="M 33.015625 40.375 
Q 26.375 40.375 22.484375 35.828125 
Q 18.609375 31.296875 18.609375 23.390625 
Q 18.609375 15.53125 22.484375 10.953125 
Q 26.375 6.390625 33.015625 6.390625 
Q 39.65625 6.390625 43.53125 10.953125 
Q 47.40625 15.53125 47.40625 23.390625 
Q 47.40625 31.296875 43.53125 35.828125 
Q 39.65625 40.375 33.015625 40.375 
z
M 52.59375 71.296875 
L 52.59375 62.3125 
Q 48.875 64.0625 45.09375 64.984375 
Q 41.3125 65.921875 37.59375 65.921875 
Q 27.828125 65.921875 22.671875 59.328125 
Q 17.53125 52.734375 16.796875 39.40625 
Q 19.671875 43.65625 24.015625 45.921875 
Q 28.375 48.1875 33.59375 48.1875 
Q 44.578125 48.1875 50.953125 41.515625 
Q 57.328125 34.859375 57.328125 23.390625 
Q 57.328125 12.15625 50.6875 5.359375 
Q 44.046875 -1.421875 33.015625 -1.421875 
Q 20.359375 -1.421875 13.671875 8.265625 
Q 6.984375 17.96875 6.984375 36.375 
Q 6.984375 53.65625 15.1875 63.9375 
Q 23.390625 74.21875 37.203125 74.21875 
Q 40.921875 74.21875 44.703125 73.484375 
Q 48.484375 72.75 52.59375 71.296875 
z
" id="DejaVuSans-54"/>
       </defs>
       <use xlink:href="#DejaVuSans-48"/>
       <use x="63.623047" xlink:href="#DejaVuSans-46"/>
       <use x="95.410156" xlink:href="#DejaVuSans-48"/>
       <use x="159.033203" xlink:href="#DejaVuSans-54"/>
      </g>
     </g>
    </g>
    <g id="xtick_3">
     <g id="line2d_5">
      <path clip-path="url(#pad804ed63f)" d="M 178.033073 313.5025 
L 178.033073 17.28 
" style="fill:none;stroke:#b0b0b0;stroke-linecap:square;stroke-width:0.8;"/>
     </g>
     <g id="line2d_6">
      <g>
       <use style="stroke:#000000;stroke-width:0.8;" x="178.033073" xlink:href="#m233c89b3a7" y="313.5025"/>
      </g>
     </g>
     <g id="text_3">
      <!-- 0.08 -->
      <g transform="translate(164.673698 329.620625)scale(0.12 -0.12)">
       <defs>
        <path d="M 31.78125 34.625 
Q 24.75 34.625 20.71875 30.859375 
Q 16.703125 27.09375 16.703125 20.515625 
Q 16.703125 13.921875 20.71875 10.15625 
Q 24.75 6.390625 31.78125 6.390625 
Q 38.8125 6.390625 42.859375 10.171875 
Q 46.921875 13.96875 46.921875 20.515625 
Q 46.921875 27.09375 42.890625 30.859375 
Q 38.875 34.625 31.78125 34.625 
z
M 21.921875 38.8125 
Q 15.578125 40.375 12.03125 44.71875 
Q 8.5 49.078125 8.5 55.328125 
Q 8.5 64.0625 14.71875 69.140625 
Q 20.953125 74.21875 31.78125 74.21875 
Q 42.671875 74.21875 48.875 69.140625 
Q 55.078125 64.0625 55.078125 55.328125 
Q 55.078125 49.078125 51.53125 44.71875 
Q 48 40.375 41.703125 38.8125 
Q 48.828125 37.15625 52.796875 32.3125 
Q 56.78125 27.484375 56.78125 20.515625 
Q 56.78125 9.90625 50.3125 4.234375 
Q 43.84375 -1.421875 31.78125 -1.421875 
Q 19.734375 -1.421875 13.25 4.234375 
Q 6.78125 9.90625 6.78125 20.515625 
Q 6.78125 27.484375 10.78125 32.3125 
Q 14.796875 37.15625 21.921875 38.8125 
z
M 18.3125 54.390625 
Q 18.3125 48.734375 21.84375 45.5625 
Q 25.390625 42.390625 31.78125 42.390625 
Q 38.140625 42.390625 41.71875 45.5625 
Q 45.3125 48.734375 45.3125 54.390625 
Q 45.3125 60.0625 41.71875 63.234375 
Q 38.140625 66.40625 31.78125 66.40625 
Q 25.390625 66.40625 21.84375 63.234375 
Q 18.3125 60.0625 18.3125 54.390625 
z
" id="DejaVuSans-56"/>
       </defs>
       <use xlink:href="#DejaVuSans-48"/>
       <use x="63.623047" xlink:href="#DejaVuSans-46"/>
       <use x="95.410156" xlink:href="#DejaVuSans-48"/>
       <use x="159.033203" xlink:href="#DejaVuSans-56"/>
      </g>
     </g>
    </g>
    <g id="xtick_4">
     <g id="line2d_7">
      <path clip-path="url(#pad804ed63f)" d="M 229.824995 313.5025 
L 229.824995 17.28 
" style="fill:none;stroke:#b0b0b0;stroke-linecap:square;stroke-width:0.8;"/>
     </g>
     <g id="line2d_8">
      <g>
       <use style="stroke:#000000;stroke-width:0.8;" x="229.824995" xlink:href="#m233c89b3a7" y="313.5025"/>
      </g>
     </g>
     <g id="text_4">
      <!-- 0.10 -->
      <g transform="translate(216.46562 329.620625)scale(0.12 -0.12)">
       <defs>
        <path d="M 12.40625 8.296875 
L 28.515625 8.296875 
L 28.515625 63.921875 
L 10.984375 60.40625 
L 10.984375 69.390625 
L 28.421875 72.90625 
L 38.28125 72.90625 
L 38.28125 8.296875 
L 54.390625 8.296875 
L 54.390625 0 
L 12.40625 0 
z
" id="DejaVuSans-49"/>
       </defs>
       <use xlink:href="#DejaVuSans-48"/>
       <use x="63.623047" xlink:href="#DejaVuSans-46"/>
       <use x="95.410156" xlink:href="#DejaVuSans-49"/>
       <use x="159.033203" xlink:href="#DejaVuSans-48"/>
      </g>
     </g>
    </g>
    <g id="xtick_5">
     <g id="line2d_9">
      <path clip-path="url(#pad804ed63f)" d="M 281.616916 313.5025 
L 281.616916 17.28 
" style="fill:none;stroke:#b0b0b0;stroke-linecap:square;stroke-width:0.8;"/>
     </g>
     <g id="line2d_10">
      <g>
       <use style="stroke:#000000;stroke-width:0.8;" x="281.616916" xlink:href="#m233c89b3a7" y="313.5025"/>
      </g>
     </g>
     <g id="text_5">
      <!-- 0.12 -->
      <g transform="translate(268.257541 329.620625)scale(0.12 -0.12)">
       <defs>
        <path d="M 19.1875 8.296875 
L 53.609375 8.296875 
L 53.609375 0 
L 7.328125 0 
L 7.328125 8.296875 
Q 12.9375 14.109375 22.625 23.890625 
Q 32.328125 33.6875 34.8125 36.53125 
Q 39.546875 41.84375 41.421875 45.53125 
Q 43.3125 49.21875 43.3125 52.78125 
Q 43.3125 58.59375 39.234375 62.25 
Q 35.15625 65.921875 28.609375 65.921875 
Q 23.96875 65.921875 18.8125 64.3125 
Q 13.671875 62.703125 7.8125 59.421875 
L 7.8125 69.390625 
Q 13.765625 71.78125 18.9375 73 
Q 24.125 74.21875 28.421875 74.21875 
Q 39.75 74.21875 46.484375 68.546875 
Q 53.21875 62.890625 53.21875 53.421875 
Q 53.21875 48.921875 51.53125 44.890625 
Q 49.859375 40.875 45.40625 35.40625 
Q 44.1875 33.984375 37.640625 27.21875 
Q 31.109375 20.453125 19.1875 8.296875 
z
" id="DejaVuSans-50"/>
       </defs>
       <use xlink:href="#DejaVuSans-48"/>
       <use x="63.623047" xlink:href="#DejaVuSans-46"/>
       <use x="95.410156" xlink:href="#DejaVuSans-49"/>
       <use x="159.033203" xlink:href="#DejaVuSans-50"/>
      </g>
     </g>
    </g>
    <g id="xtick_6">
     <g id="line2d_11">
      <path clip-path="url(#pad804ed63f)" d="M 333.408838 313.5025 
L 333.408838 17.28 
" style="fill:none;stroke:#b0b0b0;stroke-linecap:square;stroke-width:0.8;"/>
     </g>
     <g id="line2d_12">
      <g>
       <use style="stroke:#000000;stroke-width:0.8;" x="333.408838" xlink:href="#m233c89b3a7" y="313.5025"/>
      </g>
     </g>
     <g id="text_6">
      <!-- 0.14 -->
      <g transform="translate(320.049463 329.620625)scale(0.12 -0.12)">
       <use xlink:href="#DejaVuSans-48"/>
       <use x="63.623047" xlink:href="#DejaVuSans-46"/>
       <use x="95.410156" xlink:href="#DejaVuSans-49"/>
       <use x="159.033203" xlink:href="#DejaVuSans-52"/>
      </g>
     </g>
    </g>
    <g id="text_7">
     <!-- $\bar{a}$ -->
     <g transform="translate(200.209034 345.234375)scale(0.12 -0.12)">
      <defs>
       <path d="M -39.40625 74.515625 
L -10.203125 74.515625 
L -10.203125 67.28125 
L -39.40625 67.28125 
z
" id="DejaVuSans-772"/>
       <path d="M 53.71875 31.203125 
L 47.609375 0 
L 38.625 0 
L 40.28125 8.296875 
Q 36.328125 3.421875 31.265625 1 
Q 26.21875 -1.421875 20.015625 -1.421875 
Q 13.03125 -1.421875 8.5625 2.84375 
Q 4.109375 7.125 4.109375 13.8125 
Q 4.109375 23.390625 11.75 28.953125 
Q 19.390625 34.515625 32.8125 34.515625 
L 45.3125 34.515625 
L 45.796875 36.921875 
Q 45.90625 37.3125 45.953125 37.765625 
Q 46 38.234375 46 39.203125 
Q 46 43.5625 42.453125 45.96875 
Q 38.921875 48.390625 32.515625 48.390625 
Q 28.125 48.390625 23.5 47.265625 
Q 18.890625 46.140625 14.015625 43.890625 
L 15.578125 52.203125 
Q 20.65625 54.109375 25.515625 55.046875 
Q 30.375 56 34.90625 56 
Q 44.578125 56 49.625 51.796875 
Q 54.6875 47.609375 54.6875 39.59375 
Q 54.6875 37.984375 54.4375 35.8125 
Q 54.203125 33.640625 53.71875 31.203125 
z
M 44 27.484375 
L 35.015625 27.484375 
Q 23.96875 27.484375 18.671875 24.53125 
Q 13.375 21.578125 13.375 15.375 
Q 13.375 11.078125 16.078125 8.640625 
Q 18.796875 6.203125 23.578125 6.203125 
Q 30.90625 6.203125 36.375 11.453125 
Q 41.84375 16.703125 43.609375 25.484375 
z
" id="DejaVuSans-Oblique-97"/>
      </defs>
      <use transform="translate(62.726074 1.484375)" xlink:href="#DejaVuSans-772"/>
      <use transform="translate(0 0.265625)" xlink:href="#DejaVuSans-Oblique-97"/>
     </g>
    </g>
   </g>
   <g id="matplotlib.axis_2">
    <g id="ytick_1">
     <g id="line2d_13">
      <path clip-path="url(#pad804ed63f)" d="M 61.50125 313.5025 
L 346.356818 313.5025 
" style="fill:none;stroke:#b0b0b0;stroke-linecap:square;stroke-width:0.8;"/>
     </g>
     <g id="line2d_14">
      <defs>
       <path d="M 0 0 
L -3.5 0 
" id="m33889113fa" style="stroke:#000000;stroke-width:0.8;"/>
      </defs>
      <g>
       <use style="stroke:#000000;stroke-width:0.8;" x="61.50125" xlink:href="#m33889113fa" y="313.5025"/>
      </g>
     </g>
     <g id="text_8">
      <!-- 0.0 -->
      <g transform="translate(35.4175 318.061562)scale(0.12 -0.12)">
       <use xlink:href="#DejaVuSans-48"/>
       <use x="63.623047" xlink:href="#DejaVuSans-46"/>
       <use x="95.410156" xlink:href="#DejaVuSans-48"/>
      </g>
     </g>
    </g>
    <g id="ytick_2">
     <g id="line2d_15">
      <path clip-path="url(#pad804ed63f)" d="M 61.50125 276.474688 
L 346.356818 276.474688 
" style="fill:none;stroke:#b0b0b0;stroke-linecap:square;stroke-width:0.8;"/>
     </g>
     <g id="line2d_16">
      <g>
       <use style="stroke:#000000;stroke-width:0.8;" x="61.50125" xlink:href="#m33889113fa" y="276.474688"/>
      </g>
     </g>
     <g id="text_9">
      <!-- 2.5 -->
      <g transform="translate(35.4175 281.03375)scale(0.12 -0.12)">
       <defs>
        <path d="M 10.796875 72.90625 
L 49.515625 72.90625 
L 49.515625 64.59375 
L 19.828125 64.59375 
L 19.828125 46.734375 
Q 21.96875 47.46875 24.109375 47.828125 
Q 26.265625 48.1875 28.421875 48.1875 
Q 40.625 48.1875 47.75 41.5 
Q 54.890625 34.8125 54.890625 23.390625 
Q 54.890625 11.625 47.5625 5.09375 
Q 40.234375 -1.421875 26.90625 -1.421875 
Q 22.3125 -1.421875 17.546875 -0.640625 
Q 12.796875 0.140625 7.71875 1.703125 
L 7.71875 11.625 
Q 12.109375 9.234375 16.796875 8.0625 
Q 21.484375 6.890625 26.703125 6.890625 
Q 35.15625 6.890625 40.078125 11.328125 
Q 45.015625 15.765625 45.015625 23.390625 
Q 45.015625 31 40.078125 35.4375 
Q 35.15625 39.890625 26.703125 39.890625 
Q 22.75 39.890625 18.8125 39.015625 
Q 14.890625 38.140625 10.796875 36.28125 
z
" id="DejaVuSans-53"/>
       </defs>
       <use xlink:href="#DejaVuSans-50"/>
       <use x="63.623047" xlink:href="#DejaVuSans-46"/>
       <use x="95.410156" xlink:href="#DejaVuSans-53"/>
      </g>
     </g>
    </g>
    <g id="ytick_3">
     <g id="line2d_17">
      <path clip-path="url(#pad804ed63f)" d="M 61.50125 239.446875 
L 346.356818 239.446875 
" style="fill:none;stroke:#b0b0b0;stroke-linecap:square;stroke-width:0.8;"/>
     </g>
     <g id="line2d_18">
      <g>
       <use style="stroke:#000000;stroke-width:0.8;" x="61.50125" xlink:href="#m33889113fa" y="239.446875"/>
      </g>
     </g>
     <g id="text_10">
      <!-- 5.0 -->
      <g transform="translate(35.4175 244.005937)scale(0.12 -0.12)">
       <use xlink:href="#DejaVuSans-53"/>
       <use x="63.623047" xlink:href="#DejaVuSans-46"/>
       <use x="95.410156" xlink:href="#DejaVuSans-48"/>
      </g>
     </g>
    </g>
    <g id="ytick_4">
     <g id="line2d_19">
      <path clip-path="url(#pad804ed63f)" d="M 61.50125 202.419062 
L 346.356818 202.419062 
" style="fill:none;stroke:#b0b0b0;stroke-linecap:square;stroke-width:0.8;"/>
     </g>
     <g id="line2d_20">
      <g>
       <use style="stroke:#000000;stroke-width:0.8;" x="61.50125" xlink:href="#m33889113fa" y="202.419062"/>
      </g>
     </g>
     <g id="text_11">
      <!-- 7.5 -->
      <g transform="translate(35.4175 206.978125)scale(0.12 -0.12)">
       <defs>
        <path d="M 8.203125 72.90625 
L 55.078125 72.90625 
L 55.078125 68.703125 
L 28.609375 0 
L 18.3125 0 
L 43.21875 64.59375 
L 8.203125 64.59375 
z
" id="DejaVuSans-55"/>
       </defs>
       <use xlink:href="#DejaVuSans-55"/>
       <use x="63.623047" xlink:href="#DejaVuSans-46"/>
       <use x="95.410156" xlink:href="#DejaVuSans-53"/>
      </g>
     </g>
    </g>
    <g id="ytick_5">
     <g id="line2d_21">
      <path clip-path="url(#pad804ed63f)" d="M 61.50125 165.39125 
L 346.356818 165.39125 
" style="fill:none;stroke:#b0b0b0;stroke-linecap:square;stroke-width:0.8;"/>
     </g>
     <g id="line2d_22">
      <g>
       <use style="stroke:#000000;stroke-width:0.8;" x="61.50125" xlink:href="#m33889113fa" y="165.39125"/>
      </g>
     </g>
     <g id="text_12">
      <!-- 10.0 -->
      <g transform="translate(27.7825 169.950313)scale(0.12 -0.12)">
       <use xlink:href="#DejaVuSans-49"/>
       <use x="63.623047" xlink:href="#DejaVuSans-48"/>
       <use x="127.246094" xlink:href="#DejaVuSans-46"/>
       <use x="159.033203" xlink:href="#DejaVuSans-48"/>
      </g>
     </g>
    </g>
    <g id="ytick_6">
     <g id="line2d_23">
      <path clip-path="url(#pad804ed63f)" d="M 61.50125 128.363438 
L 346.356818 128.363438 
" style="fill:none;stroke:#b0b0b0;stroke-linecap:square;stroke-width:0.8;"/>
     </g>
     <g id="line2d_24">
      <g>
       <use style="stroke:#000000;stroke-width:0.8;" x="61.50125" xlink:href="#m33889113fa" y="128.363438"/>
      </g>
     </g>
     <g id="text_13">
      <!-- 12.5 -->
      <g transform="translate(27.7825 132.9225)scale(0.12 -0.12)">
       <use xlink:href="#DejaVuSans-49"/>
       <use x="63.623047" xlink:href="#DejaVuSans-50"/>
       <use x="127.246094" xlink:href="#DejaVuSans-46"/>
       <use x="159.033203" xlink:href="#DejaVuSans-53"/>
      </g>
     </g>
    </g>
    <g id="ytick_7">
     <g id="line2d_25">
      <path clip-path="url(#pad804ed63f)" d="M 61.50125 91.335625 
L 346.356818 91.335625 
" style="fill:none;stroke:#b0b0b0;stroke-linecap:square;stroke-width:0.8;"/>
     </g>
     <g id="line2d_26">
      <g>
       <use style="stroke:#000000;stroke-width:0.8;" x="61.50125" xlink:href="#m33889113fa" y="91.335625"/>
      </g>
     </g>
     <g id="text_14">
      <!-- 15.0 -->
      <g transform="translate(27.7825 95.894687)scale(0.12 -0.12)">
       <use xlink:href="#DejaVuSans-49"/>
       <use x="63.623047" xlink:href="#DejaVuSans-53"/>
       <use x="127.246094" xlink:href="#DejaVuSans-46"/>
       <use x="159.033203" xlink:href="#DejaVuSans-48"/>
      </g>
     </g>
    </g>
    <g id="ytick_8">
     <g id="line2d_27">
      <path clip-path="url(#pad804ed63f)" d="M 61.50125 54.307813 
L 346.356818 54.307813 
" style="fill:none;stroke:#b0b0b0;stroke-linecap:square;stroke-width:0.8;"/>
     </g>
     <g id="line2d_28">
      <g>
       <use style="stroke:#000000;stroke-width:0.8;" x="61.50125" xlink:href="#m33889113fa" y="54.307813"/>
      </g>
     </g>
     <g id="text_15">
      <!-- 17.5 -->
      <g transform="translate(27.7825 58.866875)scale(0.12 -0.12)">
       <use xlink:href="#DejaVuSans-49"/>
       <use x="63.623047" xlink:href="#DejaVuSans-55"/>
       <use x="127.246094" xlink:href="#DejaVuSans-46"/>
       <use x="159.033203" xlink:href="#DejaVuSans-53"/>
      </g>
     </g>
    </g>
    <g id="ytick_9">
     <g id="line2d_29">
      <path clip-path="url(#pad804ed63f)" d="M 61.50125 17.28 
L 346.356818 17.28 
" style="fill:none;stroke:#b0b0b0;stroke-linecap:square;stroke-width:0.8;"/>
     </g>
     <g id="line2d_30">
      <g>
       <use style="stroke:#000000;stroke-width:0.8;" x="61.50125" xlink:href="#m33889113fa" y="17.28"/>
      </g>
     </g>
     <g id="text_16">
      <!-- 20.0 -->
      <g transform="translate(27.7825 21.839063)scale(0.12 -0.12)">
       <use xlink:href="#DejaVuSans-50"/>
       <use x="63.623047" xlink:href="#DejaVuSans-48"/>
       <use x="127.246094" xlink:href="#DejaVuSans-46"/>
       <use x="159.033203" xlink:href="#DejaVuSans-48"/>
      </g>
     </g>
    </g>
    <g id="text_17">
     <!-- År -->
     <g transform="translate(21.286875 171.962188)rotate(-90)scale(0.12 -0.12)">
      <defs>
       <path d="M 41.609375 79.390625 
Q 41.609375 82.46875 39.421875 84.640625 
Q 37.25 86.8125 34.1875 86.8125 
Q 31.0625 86.8125 28.9375 84.6875 
Q 26.8125 82.5625 26.8125 79.390625 
Q 26.8125 76.3125 28.953125 74.15625 
Q 31.109375 72.015625 34.1875 72.015625 
Q 37.25 72.015625 39.421875 74.15625 
Q 41.609375 76.3125 41.609375 79.390625 
z
M 34.1875 63.1875 
L 20.90625 26.90625 
L 47.515625 26.90625 
z
M 26.8125 68.21875 
Q 23.828125 70.21875 22.3125 73.015625 
Q 20.796875 75.828125 20.796875 79.390625 
Q 20.796875 85.015625 24.671875 88.921875 
Q 28.5625 92.828125 34.1875 92.828125 
Q 39.75 92.828125 43.671875 88.890625 
Q 47.609375 84.96875 47.609375 79.390625 
Q 47.609375 75.984375 46.0625 73.09375 
Q 44.53125 70.21875 41.609375 68.21875 
L 67.578125 0 
L 57.328125 0 
L 50.6875 18.703125 
L 17.828125 18.703125 
L 11.1875 0 
L 0.78125 0 
z
" id="DejaVuSans-197"/>
       <path d="M 41.109375 46.296875 
Q 39.59375 47.171875 37.8125 47.578125 
Q 36.03125 48 33.890625 48 
Q 26.265625 48 22.1875 43.046875 
Q 18.109375 38.09375 18.109375 28.8125 
L 18.109375 0 
L 9.078125 0 
L 9.078125 54.6875 
L 18.109375 54.6875 
L 18.109375 46.1875 
Q 20.953125 51.171875 25.484375 53.578125 
Q 30.03125 56 36.53125 56 
Q 37.453125 56 38.578125 55.875 
Q 39.703125 55.765625 41.0625 55.515625 
z
" id="DejaVuSans-114"/>
      </defs>
      <use xlink:href="#DejaVuSans-197"/>
      <use x="68.408203" xlink:href="#DejaVuSans-114"/>
     </g>
    </g>
   </g>
   <g id="line2d_31">
    <path clip-path="url(#pad804ed63f)" d="M 74.44923 59.788546 
L 78.078294 68.210346 
L 81.707358 76.080743 
L 85.59564 83.960871 
L 89.483922 91.324458 
L 93.372205 98.220689 
L 97.519706 105.110035 
L 101.667207 111.562561 
L 105.814708 117.618542 
L 110.221428 123.658128 
L 114.628148 129.327535 
L 119.294087 134.963595 
L 123.960026 140.256192 
L 128.885184 145.503828 
L 133.810342 150.434321 
L 138.994718 155.312334 
L 144.438313 160.120727 
L 149.881909 164.636785 
L 155.584723 169.082507 
L 161.546756 173.446086 
L 167.768008 177.717762 
L 174.248478 181.889649 
L 180.988168 185.955554 
L 187.987076 189.910797 
L 195.245203 193.752038 
L 202.762549 197.477114 
L 210.539114 201.084881 
L 218.834117 204.683899 
L 227.388338 208.151761 
L 236.460997 211.585862 
L 245.792875 214.881795 
L 255.64319 218.126675 
L 266.011943 221.308542 
L 276.899134 224.417658 
L 288.563981 227.512611 
L 300.747266 230.511668 
L 313.708207 233.468416 
L 327.187586 236.315523 
L 333.408838 237.558257 
L 333.408838 237.558257 
" style="fill:none;stroke:#1f77b4;stroke-linecap:square;stroke-width:3;"/>
   </g>
   <g id="patch_3">
    <path d="M 61.50125 313.5025 
L 61.50125 17.28 
" style="fill:none;stroke:#000000;stroke-linecap:square;stroke-linejoin:miter;stroke-width:0.8;"/>
   </g>
   <g id="patch_4">
    <path d="M 346.356818 313.5025 
L 346.356818 17.28 
" style="fill:none;stroke:#000000;stroke-linecap:square;stroke-linejoin:miter;stroke-width:0.8;"/>
   </g>
   <g id="patch_5">
    <path d="M 61.50125 313.5025 
L 346.356818 313.5025 
" style="fill:none;stroke:#000000;stroke-linecap:square;stroke-linejoin:miter;stroke-width:0.8;"/>
   </g>
   <g id="patch_6">
    <path d="M 61.50125 17.28 
L 346.356818 17.28 
" style="fill:none;stroke:#000000;stroke-linecap:square;stroke-linejoin:miter;stroke-width:0.8;"/>
   </g>
  </g>
 </g>
 <defs>
  <clipPath id="pad804ed63f">
   <rect height="296.2225" width="284.855568" x="61.50125" y="17.28"/>
  </clipPath>
 </defs>
</svg>
