<?xml version="1.0" encoding="utf-8" standalone="no"?>
<!DOCTYPE svg PUBLIC "-//W3C//DTD SVG 1.1//EN"
  "http://www.w3.org/Graphics/SVG/1.1/DTD/svg11.dtd">
<!-- Created with matplotlib (https://matplotlib.org/) -->
<svg height="720pt" version="1.1" viewBox="0 0 432 720" width="432pt" xmlns="http://www.w3.org/2000/svg" xmlns:xlink="http://www.w3.org/1999/xlink">
 <metadata>
  <rdf:RDF xmlns:cc="http://creativecommons.org/ns#" xmlns:dc="http://purl.org/dc/elements/1.1/" xmlns:rdf="http://www.w3.org/1999/02/22-rdf-syntax-ns#">
   <cc:Work>
    <dc:type rdf:resource="http://purl.org/dc/dcmitype/StillImage"/>
    <dc:date>2020-11-23T15:19:23.558623</dc:date>
    <dc:format>image/svg+xml</dc:format>
    <dc:creator>
     <cc:Agent>
      <dc:title>Matplotlib v3.3.2, https://matplotlib.org/</dc:title>
     </cc:Agent>
    </dc:creator>
   </cc:Work>
  </rdf:RDF>
 </metadata>
 <defs>
  <style type="text/css">*{stroke-linecap:butt;stroke-linejoin:round;}</style>
 </defs>
 <g id="figure_1">
  <g id="patch_1">
   <path d="M 0 720 
L 432 720 
L 432 0 
L 0 0 
z
" style="fill:#ffffff;"/>
  </g>
  <g id="axes_1">
   <g id="patch_2">
    <path d="M 71.57 163.75 
L 419.04 163.75 
L 419.04 29.05125 
L 71.57 29.05125 
z
" style="fill:#ffffff;"/>
   </g>
   <g id="matplotlib.axis_1">
    <g id="xtick_1">
     <g id="line2d_1">
      <path clip-path="url(#pa2cab09a4d)" d="M 87.364091 163.75 
L 87.364091 29.05125 
" style="fill:none;stroke:#b0b0b0;stroke-linecap:square;stroke-width:0.8;"/>
     </g>
     <g id="line2d_2">
      <defs>
       <path d="M 0 0 
L 0 3.5 
" id="m3551a8f3ee" style="stroke:#000000;stroke-width:0.8;"/>
      </defs>
      <g>
       <use style="stroke:#000000;stroke-width:0.8;" x="87.364091" xlink:href="#m3551a8f3ee" y="163.75"/>
      </g>
     </g>
    </g>
    <g id="xtick_2">
     <g id="line2d_3">
      <path clip-path="url(#pa2cab09a4d)" d="M 118.952273 163.75 
L 118.952273 29.05125 
" style="fill:none;stroke:#b0b0b0;stroke-linecap:square;stroke-width:0.8;"/>
     </g>
     <g id="line2d_4">
      <g>
       <use style="stroke:#000000;stroke-width:0.8;" x="118.952273" xlink:href="#m3551a8f3ee" y="163.75"/>
      </g>
     </g>
    </g>
    <g id="xtick_3">
     <g id="line2d_5">
      <path clip-path="url(#pa2cab09a4d)" d="M 150.540455 163.75 
L 150.540455 29.05125 
" style="fill:none;stroke:#b0b0b0;stroke-linecap:square;stroke-width:0.8;"/>
     </g>
     <g id="line2d_6">
      <g>
       <use style="stroke:#000000;stroke-width:0.8;" x="150.540455" xlink:href="#m3551a8f3ee" y="163.75"/>
      </g>
     </g>
    </g>
    <g id="xtick_4">
     <g id="line2d_7">
      <path clip-path="url(#pa2cab09a4d)" d="M 182.128636 163.75 
L 182.128636 29.05125 
" style="fill:none;stroke:#b0b0b0;stroke-linecap:square;stroke-width:0.8;"/>
     </g>
     <g id="line2d_8">
      <g>
       <use style="stroke:#000000;stroke-width:0.8;" x="182.128636" xlink:href="#m3551a8f3ee" y="163.75"/>
      </g>
     </g>
    </g>
    <g id="xtick_5">
     <g id="line2d_9">
      <path clip-path="url(#pa2cab09a4d)" d="M 213.716818 163.75 
L 213.716818 29.05125 
" style="fill:none;stroke:#b0b0b0;stroke-linecap:square;stroke-width:0.8;"/>
     </g>
     <g id="line2d_10">
      <g>
       <use style="stroke:#000000;stroke-width:0.8;" x="213.716818" xlink:href="#m3551a8f3ee" y="163.75"/>
      </g>
     </g>
    </g>
    <g id="xtick_6">
     <g id="line2d_11">
      <path clip-path="url(#pa2cab09a4d)" d="M 245.305 163.75 
L 245.305 29.05125 
" style="fill:none;stroke:#b0b0b0;stroke-linecap:square;stroke-width:0.8;"/>
     </g>
     <g id="line2d_12">
      <g>
       <use style="stroke:#000000;stroke-width:0.8;" x="245.305" xlink:href="#m3551a8f3ee" y="163.75"/>
      </g>
     </g>
    </g>
    <g id="xtick_7">
     <g id="line2d_13">
      <path clip-path="url(#pa2cab09a4d)" d="M 276.893182 163.75 
L 276.893182 29.05125 
" style="fill:none;stroke:#b0b0b0;stroke-linecap:square;stroke-width:0.8;"/>
     </g>
     <g id="line2d_14">
      <g>
       <use style="stroke:#000000;stroke-width:0.8;" x="276.893182" xlink:href="#m3551a8f3ee" y="163.75"/>
      </g>
     </g>
    </g>
    <g id="xtick_8">
     <g id="line2d_15">
      <path clip-path="url(#pa2cab09a4d)" d="M 308.481364 163.75 
L 308.481364 29.05125 
" style="fill:none;stroke:#b0b0b0;stroke-linecap:square;stroke-width:0.8;"/>
     </g>
     <g id="line2d_16">
      <g>
       <use style="stroke:#000000;stroke-width:0.8;" x="308.481364" xlink:href="#m3551a8f3ee" y="163.75"/>
      </g>
     </g>
    </g>
    <g id="xtick_9">
     <g id="line2d_17">
      <path clip-path="url(#pa2cab09a4d)" d="M 340.069545 163.75 
L 340.069545 29.05125 
" style="fill:none;stroke:#b0b0b0;stroke-linecap:square;stroke-width:0.8;"/>
     </g>
     <g id="line2d_18">
      <g>
       <use style="stroke:#000000;stroke-width:0.8;" x="340.069545" xlink:href="#m3551a8f3ee" y="163.75"/>
      </g>
     </g>
    </g>
    <g id="xtick_10">
     <g id="line2d_19">
      <path clip-path="url(#pa2cab09a4d)" d="M 371.657727 163.75 
L 371.657727 29.05125 
" style="fill:none;stroke:#b0b0b0;stroke-linecap:square;stroke-width:0.8;"/>
     </g>
     <g id="line2d_20">
      <g>
       <use style="stroke:#000000;stroke-width:0.8;" x="371.657727" xlink:href="#m3551a8f3ee" y="163.75"/>
      </g>
     </g>
    </g>
    <g id="xtick_11">
     <g id="line2d_21">
      <path clip-path="url(#pa2cab09a4d)" d="M 403.245909 163.75 
L 403.245909 29.05125 
" style="fill:none;stroke:#b0b0b0;stroke-linecap:square;stroke-width:0.8;"/>
     </g>
     <g id="line2d_22">
      <g>
       <use style="stroke:#000000;stroke-width:0.8;" x="403.245909" xlink:href="#m3551a8f3ee" y="163.75"/>
      </g>
     </g>
    </g>
   </g>
   <g id="matplotlib.axis_2">
    <g id="ytick_1">
     <g id="line2d_23">
      <path clip-path="url(#pa2cab09a4d)" d="M 71.57 156.266736 
L 419.04 156.266736 
" style="fill:none;stroke:#b0b0b0;stroke-linecap:square;stroke-width:0.8;"/>
     </g>
     <g id="line2d_24">
      <defs>
       <path d="M 0 0 
L -3.5 0 
" id="mf6fc67094b" style="stroke:#000000;stroke-width:0.8;"/>
      </defs>
      <g>
       <use style="stroke:#000000;stroke-width:0.8;" x="71.57" xlink:href="#mf6fc67094b" y="156.266736"/>
      </g>
     </g>
     <g id="text_1">
      <!-- −0.4 -->
      <g transform="translate(35.430625 160.825799)scale(0.12 -0.12)">
       <defs>
        <path d="M 10.59375 35.5 
L 73.1875 35.5 
L 73.1875 27.203125 
L 10.59375 27.203125 
z
" id="DejaVuSans-8722"/>
        <path d="M 31.78125 66.40625 
Q 24.171875 66.40625 20.328125 58.90625 
Q 16.5 51.421875 16.5 36.375 
Q 16.5 21.390625 20.328125 13.890625 
Q 24.171875 6.390625 31.78125 6.390625 
Q 39.453125 6.390625 43.28125 13.890625 
Q 47.125 21.390625 47.125 36.375 
Q 47.125 51.421875 43.28125 58.90625 
Q 39.453125 66.40625 31.78125 66.40625 
z
M 31.78125 74.21875 
Q 44.046875 74.21875 50.515625 64.515625 
Q 56.984375 54.828125 56.984375 36.375 
Q 56.984375 17.96875 50.515625 8.265625 
Q 44.046875 -1.421875 31.78125 -1.421875 
Q 19.53125 -1.421875 13.0625 8.265625 
Q 6.59375 17.96875 6.59375 36.375 
Q 6.59375 54.828125 13.0625 64.515625 
Q 19.53125 74.21875 31.78125 74.21875 
z
" id="DejaVuSans-48"/>
        <path d="M 10.6875 12.40625 
L 21 12.40625 
L 21 0 
L 10.6875 0 
z
" id="DejaVuSans-46"/>
        <path d="M 37.796875 64.3125 
L 12.890625 25.390625 
L 37.796875 25.390625 
z
M 35.203125 72.90625 
L 47.609375 72.90625 
L 47.609375 25.390625 
L 58.015625 25.390625 
L 58.015625 17.1875 
L 47.609375 17.1875 
L 47.609375 0 
L 37.796875 0 
L 37.796875 17.1875 
L 4.890625 17.1875 
L 4.890625 26.703125 
z
" id="DejaVuSans-52"/>
       </defs>
       <use xlink:href="#DejaVuSans-8722"/>
       <use x="83.789062" xlink:href="#DejaVuSans-48"/>
       <use x="147.412109" xlink:href="#DejaVuSans-46"/>
       <use x="179.199219" xlink:href="#DejaVuSans-52"/>
      </g>
     </g>
    </g>
    <g id="ytick_2">
     <g id="line2d_25">
      <path clip-path="url(#pa2cab09a4d)" d="M 71.57 126.333681 
L 419.04 126.333681 
" style="fill:none;stroke:#b0b0b0;stroke-linecap:square;stroke-width:0.8;"/>
     </g>
     <g id="line2d_26">
      <g>
       <use style="stroke:#000000;stroke-width:0.8;" x="71.57" xlink:href="#mf6fc67094b" y="126.333681"/>
      </g>
     </g>
     <g id="text_2">
      <!-- −0.2 -->
      <g transform="translate(35.430625 130.892743)scale(0.12 -0.12)">
       <defs>
        <path d="M 19.1875 8.296875 
L 53.609375 8.296875 
L 53.609375 0 
L 7.328125 0 
L 7.328125 8.296875 
Q 12.9375 14.109375 22.625 23.890625 
Q 32.328125 33.6875 34.8125 36.53125 
Q 39.546875 41.84375 41.421875 45.53125 
Q 43.3125 49.21875 43.3125 52.78125 
Q 43.3125 58.59375 39.234375 62.25 
Q 35.15625 65.921875 28.609375 65.921875 
Q 23.96875 65.921875 18.8125 64.3125 
Q 13.671875 62.703125 7.8125 59.421875 
L 7.8125 69.390625 
Q 13.765625 71.78125 18.9375 73 
Q 24.125 74.21875 28.421875 74.21875 
Q 39.75 74.21875 46.484375 68.546875 
Q 53.21875 62.890625 53.21875 53.421875 
Q 53.21875 48.921875 51.53125 44.890625 
Q 49.859375 40.875 45.40625 35.40625 
Q 44.1875 33.984375 37.640625 27.21875 
Q 31.109375 20.453125 19.1875 8.296875 
z
" id="DejaVuSans-50"/>
       </defs>
       <use xlink:href="#DejaVuSans-8722"/>
       <use x="83.789062" xlink:href="#DejaVuSans-48"/>
       <use x="147.412109" xlink:href="#DejaVuSans-46"/>
       <use x="179.199219" xlink:href="#DejaVuSans-50"/>
      </g>
     </g>
    </g>
    <g id="ytick_3">
     <g id="line2d_27">
      <path clip-path="url(#pa2cab09a4d)" d="M 71.57 96.400625 
L 419.04 96.400625 
" style="fill:none;stroke:#b0b0b0;stroke-linecap:square;stroke-width:0.8;"/>
     </g>
     <g id="line2d_28">
      <g>
       <use style="stroke:#000000;stroke-width:0.8;" x="71.57" xlink:href="#mf6fc67094b" y="96.400625"/>
      </g>
     </g>
     <g id="text_3">
      <!-- 0.0 -->
      <g transform="translate(45.48625 100.959687)scale(0.12 -0.12)">
       <use xlink:href="#DejaVuSans-48"/>
       <use x="63.623047" xlink:href="#DejaVuSans-46"/>
       <use x="95.410156" xlink:href="#DejaVuSans-48"/>
      </g>
     </g>
    </g>
    <g id="ytick_4">
     <g id="line2d_29">
      <path clip-path="url(#pa2cab09a4d)" d="M 71.57 66.467569 
L 419.04 66.467569 
" style="fill:none;stroke:#b0b0b0;stroke-linecap:square;stroke-width:0.8;"/>
     </g>
     <g id="line2d_30">
      <g>
       <use style="stroke:#000000;stroke-width:0.8;" x="71.57" xlink:href="#mf6fc67094b" y="66.467569"/>
      </g>
     </g>
     <g id="text_4">
      <!-- 0.2 -->
      <g transform="translate(45.48625 71.026632)scale(0.12 -0.12)">
       <use xlink:href="#DejaVuSans-48"/>
       <use x="63.623047" xlink:href="#DejaVuSans-46"/>
       <use x="95.410156" xlink:href="#DejaVuSans-50"/>
      </g>
     </g>
    </g>
    <g id="ytick_5">
     <g id="line2d_31">
      <path clip-path="url(#pa2cab09a4d)" d="M 71.57 36.534514 
L 419.04 36.534514 
" style="fill:none;stroke:#b0b0b0;stroke-linecap:square;stroke-width:0.8;"/>
     </g>
     <g id="line2d_32">
      <g>
       <use style="stroke:#000000;stroke-width:0.8;" x="71.57" xlink:href="#mf6fc67094b" y="36.534514"/>
      </g>
     </g>
     <g id="text_5">
      <!-- 0.4 -->
      <g transform="translate(45.48625 41.093576)scale(0.12 -0.12)">
       <use xlink:href="#DejaVuSans-48"/>
       <use x="63.623047" xlink:href="#DejaVuSans-46"/>
       <use x="95.410156" xlink:href="#DejaVuSans-52"/>
      </g>
     </g>
    </g>
    <g id="text_6">
     <!-- CAGR -->
     <g transform="translate(28.935 113.407812)rotate(-90)scale(0.12 -0.12)">
      <defs>
       <path d="M 64.40625 67.28125 
L 64.40625 56.890625 
Q 59.421875 61.53125 53.78125 63.8125 
Q 48.140625 66.109375 41.796875 66.109375 
Q 29.296875 66.109375 22.65625 58.46875 
Q 16.015625 50.828125 16.015625 36.375 
Q 16.015625 21.96875 22.65625 14.328125 
Q 29.296875 6.6875 41.796875 6.6875 
Q 48.140625 6.6875 53.78125 8.984375 
Q 59.421875 11.28125 64.40625 15.921875 
L 64.40625 5.609375 
Q 59.234375 2.09375 53.4375 0.328125 
Q 47.65625 -1.421875 41.21875 -1.421875 
Q 24.65625 -1.421875 15.125 8.703125 
Q 5.609375 18.84375 5.609375 36.375 
Q 5.609375 53.953125 15.125 64.078125 
Q 24.65625 74.21875 41.21875 74.21875 
Q 47.75 74.21875 53.53125 72.484375 
Q 59.328125 70.75 64.40625 67.28125 
z
" id="DejaVuSans-67"/>
       <path d="M 34.1875 63.1875 
L 20.796875 26.90625 
L 47.609375 26.90625 
z
M 28.609375 72.90625 
L 39.796875 72.90625 
L 67.578125 0 
L 57.328125 0 
L 50.6875 18.703125 
L 17.828125 18.703125 
L 11.1875 0 
L 0.78125 0 
z
" id="DejaVuSans-65"/>
       <path d="M 59.515625 10.40625 
L 59.515625 29.984375 
L 43.40625 29.984375 
L 43.40625 38.09375 
L 69.28125 38.09375 
L 69.28125 6.78125 
Q 63.578125 2.734375 56.6875 0.65625 
Q 49.8125 -1.421875 42 -1.421875 
Q 24.90625 -1.421875 15.25 8.5625 
Q 5.609375 18.5625 5.609375 36.375 
Q 5.609375 54.25 15.25 64.234375 
Q 24.90625 74.21875 42 74.21875 
Q 49.125 74.21875 55.546875 72.453125 
Q 61.96875 70.703125 67.390625 67.28125 
L 67.390625 56.78125 
Q 61.921875 61.421875 55.765625 63.765625 
Q 49.609375 66.109375 42.828125 66.109375 
Q 29.4375 66.109375 22.71875 58.640625 
Q 16.015625 51.171875 16.015625 36.375 
Q 16.015625 21.625 22.71875 14.15625 
Q 29.4375 6.6875 42.828125 6.6875 
Q 48.046875 6.6875 52.140625 7.59375 
Q 56.25 8.5 59.515625 10.40625 
z
" id="DejaVuSans-71"/>
       <path d="M 44.390625 34.1875 
Q 47.5625 33.109375 50.5625 29.59375 
Q 53.5625 26.078125 56.59375 19.921875 
L 66.609375 0 
L 56 0 
L 46.6875 18.703125 
Q 43.0625 26.03125 39.671875 28.421875 
Q 36.28125 30.8125 30.421875 30.8125 
L 19.671875 30.8125 
L 19.671875 0 
L 9.8125 0 
L 9.8125 72.90625 
L 32.078125 72.90625 
Q 44.578125 72.90625 50.734375 67.671875 
Q 56.890625 62.453125 56.890625 51.90625 
Q 56.890625 45.015625 53.6875 40.46875 
Q 50.484375 35.9375 44.390625 34.1875 
z
M 19.671875 64.796875 
L 19.671875 38.921875 
L 32.078125 38.921875 
Q 39.203125 38.921875 42.84375 42.21875 
Q 46.484375 45.515625 46.484375 51.90625 
Q 46.484375 58.296875 42.84375 61.546875 
Q 39.203125 64.796875 32.078125 64.796875 
z
" id="DejaVuSans-82"/>
      </defs>
      <use xlink:href="#DejaVuSans-67"/>
      <use x="69.824219" xlink:href="#DejaVuSans-65"/>
      <use x="136.482422" xlink:href="#DejaVuSans-71"/>
      <use x="213.972656" xlink:href="#DejaVuSans-82"/>
     </g>
    </g>
   </g>
   <g id="line2d_33">
    <path clip-path="url(#pa2cab09a4d)" d="M 87.364091 158.824444 
L 90.522909 147.416342 
L 93.681727 133.008796 
L 96.840545 127.840925 
L 99.999364 123.304103 
L 103.158182 122.132909 
L 106.317 118.172144 
L 109.475818 116.503783 
L 112.634636 114.756359 
L 115.793455 112.792771 
L 118.952273 111.3835 
L 122.111091 109.929644 
L 125.269909 108.159547 
L 128.428727 106.270046 
L 131.587545 105.223876 
L 134.746364 104.23303 
L 137.905182 103.379162 
L 141.064 102.293249 
L 144.222818 101.257753 
L 147.381636 100.33483 
L 150.540455 99.516947 
L 153.699273 98.236328 
L 156.858091 97.324123 
L 160.016909 96.340075 
L 163.175727 95.021742 
L 166.334545 94.224506 
L 169.493364 93.616681 
L 172.652182 93.006435 
L 175.811 92.593272 
L 178.969818 92.171313 
L 182.128636 91.754172 
L 185.287455 90.944921 
L 188.446273 90.445102 
L 191.605091 89.872634 
L 194.763909 89.363597 
L 197.922727 88.830025 
L 201.081545 88.4085 
L 204.240364 87.944588 
L 207.399182 87.443062 
L 210.558 87.13281 
L 213.716818 86.57221 
L 216.875636 86.285204 
L 220.034455 86.083429 
L 223.193273 85.58762 
L 226.352091 85.092358 
L 229.510909 84.799161 
L 232.669727 84.542659 
L 235.828545 84.349116 
L 238.987364 83.68826 
L 242.146182 83.275887 
L 245.305 82.839743 
L 248.463818 82.589959 
L 251.622636 82.211832 
L 254.781455 81.957096 
L 257.940273 81.404752 
L 261.099091 80.931994 
L 264.257909 80.675927 
L 267.416727 80.5016 
L 270.575545 80.241484 
L 273.734364 79.843591 
L 276.893182 79.520582 
L 280.052 79.119183 
L 283.210818 78.709118 
L 286.369636 78.111384 
L 289.528455 77.830867 
L 292.687273 77.297549 
L 295.846091 76.904801 
L 299.004909 76.428696 
L 302.163727 76.206699 
L 305.322545 75.283338 
L 308.481364 74.951577 
L 311.640182 74.500452 
L 314.799 74.357384 
L 317.957818 74.088189 
L 321.116636 73.731701 
L 324.275455 73.109161 
L 327.434273 72.57233 
L 330.593091 72.184694 
L 333.751909 71.494584 
L 336.910727 70.719657 
L 340.069545 70.386611 
L 343.228364 70.083253 
L 346.387182 69.5483 
L 349.546 68.723779 
L 352.704818 68.055708 
L 355.863636 67.312286 
L 359.022455 67.091186 
L 362.181273 66.580962 
L 365.340091 65.942733 
L 368.498909 65.049726 
L 371.657727 64.177938 
L 374.816545 63.376401 
L 377.975364 62.377683 
L 381.134182 61.201534 
L 384.293 60.48571 
L 387.451818 59.587009 
L 390.610636 57.984803 
L 393.769455 56.282173 
L 396.928273 53.483148 
L 400.087091 50.519502 
L 403.245909 38.465715 
" style="fill:none;stroke:#1f77b4;stroke-linecap:square;stroke-width:3;"/>
   </g>
   <g id="line2d_34">
    <path clip-path="url(#pa2cab09a4d)" d="M 87.364091 158.03806 
L 90.522909 147.012503 
L 93.681727 132.819156 
L 96.840545 127.298665 
L 99.999364 122.861361 
L 103.158182 120.793692 
L 106.317 117.332353 
L 109.475818 115.51562 
L 112.634636 113.56121 
L 115.793455 112.271262 
L 118.952273 110.627451 
L 122.111091 109.573211 
L 125.269909 107.067991 
L 128.428727 105.88543 
L 131.587545 104.528174 
L 134.746364 103.150808 
L 137.905182 102.312529 
L 141.064 101.110091 
L 144.222818 100.356726 
L 147.381636 99.39757 
L 150.540455 98.398496 
L 153.699273 97.542873 
L 156.858091 96.157334 
L 160.016909 95.507742 
L 163.175727 94.532904 
L 166.334545 94.007655 
L 169.493364 93.46567 
L 172.652182 92.823414 
L 175.811 92.481863 
L 178.969818 92.05073 
L 182.128636 91.66471 
L 185.287455 90.85009 
L 188.446273 90.333506 
L 191.605091 89.7837 
L 194.763909 89.280748 
L 197.922727 88.739532 
L 201.081545 88.325351 
L 204.240364 87.816058 
L 207.399182 87.35907 
L 210.558 86.99735 
L 213.716818 86.481913 
L 216.875636 86.207551 
L 220.034455 85.934069 
L 223.193273 85.517947 
L 226.352091 85.0094 
L 229.510909 84.642041 
L 232.669727 84.430151 
L 235.828545 84.192436 
L 238.987364 83.586348 
L 242.146182 83.209426 
L 245.305 82.729826 
L 248.463818 82.505764 
L 251.622636 82.115056 
L 254.781455 81.885088 
L 257.940273 81.348722 
L 261.099091 80.843817 
L 264.257909 80.596511 
L 267.416727 80.396808 
L 270.575545 80.122211 
L 273.734364 79.763699 
L 276.893182 79.439128 
L 280.052 79.007638 
L 283.210818 78.612214 
L 286.369636 78.026831 
L 289.528455 77.739852 
L 292.687273 77.238064 
L 295.846091 76.818557 
L 299.004909 76.439795 
L 302.163727 76.195724 
L 305.322545 75.534774 
L 308.481364 75.138991 
L 311.640182 74.845407 
L 314.799 74.716 
L 317.957818 74.297035 
L 321.116636 73.921291 
L 324.275455 73.538019 
L 327.434273 73.130274 
L 330.593091 72.604872 
L 333.751909 72.159761 
L 336.910727 71.484819 
L 340.069545 71.175315 
L 343.228364 70.831935 
L 346.387182 70.017776 
L 349.546 69.553889 
L 352.704818 68.986929 
L 355.863636 68.418134 
L 359.022455 67.704376 
L 362.181273 67.142512 
L 365.340091 66.837831 
L 368.498909 66.168267 
L 371.657727 65.421634 
L 374.816545 64.504151 
L 377.975364 63.707411 
L 381.134182 62.922299 
L 384.293 62.158034 
L 387.451818 60.645738 
L 390.610636 60.012422 
L 393.769455 58.319121 
L 396.928273 55.581104 
L 400.087091 52.134201 
L 403.245909 41.377449 
" style="fill:none;stroke:#ff7f0e;stroke-linecap:square;stroke-width:3;"/>
   </g>
   <g id="patch_3">
    <path d="M 71.57 163.75 
L 71.57 29.05125 
" style="fill:none;stroke:#000000;stroke-linecap:square;stroke-linejoin:miter;stroke-width:0.8;"/>
   </g>
   <g id="patch_4">
    <path d="M 419.04 163.75 
L 419.04 29.05125 
" style="fill:none;stroke:#000000;stroke-linecap:square;stroke-linejoin:miter;stroke-width:0.8;"/>
   </g>
   <g id="patch_5">
    <path d="M 71.57 163.75 
L 419.04 163.75 
" style="fill:none;stroke:#000000;stroke-linecap:square;stroke-linejoin:miter;stroke-width:0.8;"/>
   </g>
   <g id="patch_6">
    <path d="M 71.57 29.05125 
L 419.04 29.05125 
" style="fill:none;stroke:#000000;stroke-linecap:square;stroke-linejoin:miter;stroke-width:0.8;"/>
   </g>
   <g id="text_7">
    <!-- 1 år investering -->
    <g transform="translate(197.903125 23.05125)scale(0.12 -0.12)">
     <defs>
      <path d="M 12.40625 8.296875 
L 28.515625 8.296875 
L 28.515625 63.921875 
L 10.984375 60.40625 
L 10.984375 69.390625 
L 28.421875 72.90625 
L 38.28125 72.90625 
L 38.28125 8.296875 
L 54.390625 8.296875 
L 54.390625 0 
L 12.40625 0 
z
" id="DejaVuSans-49"/>
      <path id="DejaVuSans-32"/>
      <path d="M 34.28125 27.484375 
Q 23.390625 27.484375 19.1875 25 
Q 14.984375 22.515625 14.984375 16.5 
Q 14.984375 11.71875 18.140625 8.90625 
Q 21.296875 6.109375 26.703125 6.109375 
Q 34.1875 6.109375 38.703125 11.40625 
Q 43.21875 16.703125 43.21875 25.484375 
L 43.21875 27.484375 
z
M 52.203125 31.203125 
L 52.203125 0 
L 43.21875 0 
L 43.21875 8.296875 
Q 40.140625 3.328125 35.546875 0.953125 
Q 30.953125 -1.421875 24.3125 -1.421875 
Q 15.921875 -1.421875 10.953125 3.296875 
Q 6 8.015625 6 15.921875 
Q 6 25.140625 12.171875 29.828125 
Q 18.359375 34.515625 30.609375 34.515625 
L 43.21875 34.515625 
L 43.21875 35.40625 
Q 43.21875 41.609375 39.140625 45 
Q 35.0625 48.390625 27.6875 48.390625 
Q 23 48.390625 18.546875 47.265625 
Q 14.109375 46.140625 10.015625 43.890625 
L 10.015625 52.203125 
Q 14.9375 54.109375 19.578125 55.046875 
Q 24.21875 56 28.609375 56 
Q 40.484375 56 46.34375 49.84375 
Q 52.203125 43.703125 52.203125 31.203125 
z
M 36.421875 74.421875 
Q 36.421875 77.484375 34.265625 79.625 
Q 32.125 81.78125 29 81.78125 
Q 25.828125 81.78125 23.703125 79.65625 
Q 21.578125 77.546875 21.578125 74.421875 
Q 21.578125 71.234375 23.703125 69.109375 
Q 25.828125 67 29 67 
Q 32.125 67 34.265625 69.140625 
Q 36.421875 71.296875 36.421875 74.421875 
z
M 42.390625 74.421875 
Q 42.390625 68.796875 38.5 64.890625 
Q 34.625 60.984375 29 60.984375 
Q 23.390625 60.984375 19.5 64.890625 
Q 15.625 68.796875 15.625 74.421875 
Q 15.625 80.03125 19.5 83.90625 
Q 23.390625 87.796875 29 87.796875 
Q 34.625 87.796875 38.5 83.90625 
Q 42.390625 80.03125 42.390625 74.421875 
z
" id="DejaVuSans-229"/>
      <path d="M 41.109375 46.296875 
Q 39.59375 47.171875 37.8125 47.578125 
Q 36.03125 48 33.890625 48 
Q 26.265625 48 22.1875 43.046875 
Q 18.109375 38.09375 18.109375 28.8125 
L 18.109375 0 
L 9.078125 0 
L 9.078125 54.6875 
L 18.109375 54.6875 
L 18.109375 46.1875 
Q 20.953125 51.171875 25.484375 53.578125 
Q 30.03125 56 36.53125 56 
Q 37.453125 56 38.578125 55.875 
Q 39.703125 55.765625 41.0625 55.515625 
z
" id="DejaVuSans-114"/>
      <path d="M 9.421875 54.6875 
L 18.40625 54.6875 
L 18.40625 0 
L 9.421875 0 
z
M 9.421875 75.984375 
L 18.40625 75.984375 
L 18.40625 64.59375 
L 9.421875 64.59375 
z
" id="DejaVuSans-105"/>
      <path d="M 54.890625 33.015625 
L 54.890625 0 
L 45.90625 0 
L 45.90625 32.71875 
Q 45.90625 40.484375 42.875 44.328125 
Q 39.84375 48.1875 33.796875 48.1875 
Q 26.515625 48.1875 22.3125 43.546875 
Q 18.109375 38.921875 18.109375 30.90625 
L 18.109375 0 
L 9.078125 0 
L 9.078125 54.6875 
L 18.109375 54.6875 
L 18.109375 46.1875 
Q 21.34375 51.125 25.703125 53.5625 
Q 30.078125 56 35.796875 56 
Q 45.21875 56 50.046875 50.171875 
Q 54.890625 44.34375 54.890625 33.015625 
z
" id="DejaVuSans-110"/>
      <path d="M 2.984375 54.6875 
L 12.5 54.6875 
L 29.59375 8.796875 
L 46.6875 54.6875 
L 56.203125 54.6875 
L 35.6875 0 
L 23.484375 0 
z
" id="DejaVuSans-118"/>
      <path d="M 56.203125 29.59375 
L 56.203125 25.203125 
L 14.890625 25.203125 
Q 15.484375 15.921875 20.484375 11.0625 
Q 25.484375 6.203125 34.421875 6.203125 
Q 39.59375 6.203125 44.453125 7.46875 
Q 49.3125 8.734375 54.109375 11.28125 
L 54.109375 2.78125 
Q 49.265625 0.734375 44.1875 -0.34375 
Q 39.109375 -1.421875 33.890625 -1.421875 
Q 20.796875 -1.421875 13.15625 6.1875 
Q 5.515625 13.8125 5.515625 26.8125 
Q 5.515625 40.234375 12.765625 48.109375 
Q 20.015625 56 32.328125 56 
Q 43.359375 56 49.78125 48.890625 
Q 56.203125 41.796875 56.203125 29.59375 
z
M 47.21875 32.234375 
Q 47.125 39.59375 43.09375 43.984375 
Q 39.0625 48.390625 32.421875 48.390625 
Q 24.90625 48.390625 20.390625 44.140625 
Q 15.875 39.890625 15.1875 32.171875 
z
" id="DejaVuSans-101"/>
      <path d="M 44.28125 53.078125 
L 44.28125 44.578125 
Q 40.484375 46.53125 36.375 47.5 
Q 32.28125 48.484375 27.875 48.484375 
Q 21.1875 48.484375 17.84375 46.4375 
Q 14.5 44.390625 14.5 40.28125 
Q 14.5 37.15625 16.890625 35.375 
Q 19.28125 33.59375 26.515625 31.984375 
L 29.59375 31.296875 
Q 39.15625 29.25 43.1875 25.515625 
Q 47.21875 21.78125 47.21875 15.09375 
Q 47.21875 7.46875 41.1875 3.015625 
Q 35.15625 -1.421875 24.609375 -1.421875 
Q 20.21875 -1.421875 15.453125 -0.5625 
Q 10.6875 0.296875 5.421875 2 
L 5.421875 11.28125 
Q 10.40625 8.6875 15.234375 7.390625 
Q 20.0625 6.109375 24.8125 6.109375 
Q 31.15625 6.109375 34.5625 8.28125 
Q 37.984375 10.453125 37.984375 14.40625 
Q 37.984375 18.0625 35.515625 20.015625 
Q 33.0625 21.96875 24.703125 23.78125 
L 21.578125 24.515625 
Q 13.234375 26.265625 9.515625 29.90625 
Q 5.8125 33.546875 5.8125 39.890625 
Q 5.8125 47.609375 11.28125 51.796875 
Q 16.75 56 26.8125 56 
Q 31.78125 56 36.171875 55.265625 
Q 40.578125 54.546875 44.28125 53.078125 
z
" id="DejaVuSans-115"/>
      <path d="M 18.3125 70.21875 
L 18.3125 54.6875 
L 36.8125 54.6875 
L 36.8125 47.703125 
L 18.3125 47.703125 
L 18.3125 18.015625 
Q 18.3125 11.328125 20.140625 9.421875 
Q 21.96875 7.515625 27.59375 7.515625 
L 36.8125 7.515625 
L 36.8125 0 
L 27.59375 0 
Q 17.1875 0 13.234375 3.875 
Q 9.28125 7.765625 9.28125 18.015625 
L 9.28125 47.703125 
L 2.6875 47.703125 
L 2.6875 54.6875 
L 9.28125 54.6875 
L 9.28125 70.21875 
z
" id="DejaVuSans-116"/>
      <path d="M 45.40625 27.984375 
Q 45.40625 37.75 41.375 43.109375 
Q 37.359375 48.484375 30.078125 48.484375 
Q 22.859375 48.484375 18.828125 43.109375 
Q 14.796875 37.75 14.796875 27.984375 
Q 14.796875 18.265625 18.828125 12.890625 
Q 22.859375 7.515625 30.078125 7.515625 
Q 37.359375 7.515625 41.375 12.890625 
Q 45.40625 18.265625 45.40625 27.984375 
z
M 54.390625 6.78125 
Q 54.390625 -7.171875 48.1875 -13.984375 
Q 42 -20.796875 29.203125 -20.796875 
Q 24.46875 -20.796875 20.265625 -20.09375 
Q 16.0625 -19.390625 12.109375 -17.921875 
L 12.109375 -9.1875 
Q 16.0625 -11.328125 19.921875 -12.34375 
Q 23.78125 -13.375 27.78125 -13.375 
Q 36.625 -13.375 41.015625 -8.765625 
Q 45.40625 -4.15625 45.40625 5.171875 
L 45.40625 9.625 
Q 42.625 4.78125 38.28125 2.390625 
Q 33.9375 0 27.875 0 
Q 17.828125 0 11.671875 7.65625 
Q 5.515625 15.328125 5.515625 27.984375 
Q 5.515625 40.671875 11.671875 48.328125 
Q 17.828125 56 27.875 56 
Q 33.9375 56 38.28125 53.609375 
Q 42.625 51.21875 45.40625 46.390625 
L 45.40625 54.6875 
L 54.390625 54.6875 
z
" id="DejaVuSans-103"/>
     </defs>
     <use xlink:href="#DejaVuSans-49"/>
     <use x="63.623047" xlink:href="#DejaVuSans-32"/>
     <use x="95.410156" xlink:href="#DejaVuSans-229"/>
     <use x="156.689453" xlink:href="#DejaVuSans-114"/>
     <use x="197.802734" xlink:href="#DejaVuSans-32"/>
     <use x="229.589844" xlink:href="#DejaVuSans-105"/>
     <use x="257.373047" xlink:href="#DejaVuSans-110"/>
     <use x="320.751953" xlink:href="#DejaVuSans-118"/>
     <use x="379.931641" xlink:href="#DejaVuSans-101"/>
     <use x="441.455078" xlink:href="#DejaVuSans-115"/>
     <use x="493.554688" xlink:href="#DejaVuSans-116"/>
     <use x="532.763672" xlink:href="#DejaVuSans-101"/>
     <use x="594.287109" xlink:href="#DejaVuSans-114"/>
     <use x="635.400391" xlink:href="#DejaVuSans-105"/>
     <use x="663.183594" xlink:href="#DejaVuSans-110"/>
     <use x="726.5625" xlink:href="#DejaVuSans-103"/>
    </g>
   </g>
   <g id="legend_1">
    <g id="patch_7">
     <path d="M 79.13 69.396 
L 238.121188 69.396 
Q 240.281188 69.396 240.281188 67.236 
L 240.281188 36.61125 
Q 240.281188 34.45125 238.121188 34.45125 
L 79.13 34.45125 
Q 76.97 34.45125 76.97 36.61125 
L 76.97 67.236 
Q 76.97 69.396 79.13 69.396 
z
" style="fill:#ffffff;opacity:0.8;stroke:#cccccc;stroke-linejoin:miter;"/>
    </g>
    <g id="line2d_35">
     <path d="M 81.29 43.197563 
L 102.89 43.197563 
" style="fill:none;stroke:#1f77b4;stroke-linecap:square;stroke-width:3;"/>
    </g>
    <g id="line2d_36"/>
    <g id="text_8">
     <!-- Realisationsbeskatning -->
     <g transform="translate(111.53 46.977563)scale(0.108 -0.108)">
      <defs>
       <path d="M 34.28125 27.484375 
Q 23.390625 27.484375 19.1875 25 
Q 14.984375 22.515625 14.984375 16.5 
Q 14.984375 11.71875 18.140625 8.90625 
Q 21.296875 6.109375 26.703125 6.109375 
Q 34.1875 6.109375 38.703125 11.40625 
Q 43.21875 16.703125 43.21875 25.484375 
L 43.21875 27.484375 
z
M 52.203125 31.203125 
L 52.203125 0 
L 43.21875 0 
L 43.21875 8.296875 
Q 40.140625 3.328125 35.546875 0.953125 
Q 30.953125 -1.421875 24.3125 -1.421875 
Q 15.921875 -1.421875 10.953125 3.296875 
Q 6 8.015625 6 15.921875 
Q 6 25.140625 12.171875 29.828125 
Q 18.359375 34.515625 30.609375 34.515625 
L 43.21875 34.515625 
L 43.21875 35.40625 
Q 43.21875 41.609375 39.140625 45 
Q 35.0625 48.390625 27.6875 48.390625 
Q 23 48.390625 18.546875 47.265625 
Q 14.109375 46.140625 10.015625 43.890625 
L 10.015625 52.203125 
Q 14.9375 54.109375 19.578125 55.046875 
Q 24.21875 56 28.609375 56 
Q 40.484375 56 46.34375 49.84375 
Q 52.203125 43.703125 52.203125 31.203125 
z
" id="DejaVuSans-97"/>
       <path d="M 9.421875 75.984375 
L 18.40625 75.984375 
L 18.40625 0 
L 9.421875 0 
z
" id="DejaVuSans-108"/>
       <path d="M 30.609375 48.390625 
Q 23.390625 48.390625 19.1875 42.75 
Q 14.984375 37.109375 14.984375 27.296875 
Q 14.984375 17.484375 19.15625 11.84375 
Q 23.34375 6.203125 30.609375 6.203125 
Q 37.796875 6.203125 41.984375 11.859375 
Q 46.1875 17.53125 46.1875 27.296875 
Q 46.1875 37.015625 41.984375 42.703125 
Q 37.796875 48.390625 30.609375 48.390625 
z
M 30.609375 56 
Q 42.328125 56 49.015625 48.375 
Q 55.71875 40.765625 55.71875 27.296875 
Q 55.71875 13.875 49.015625 6.21875 
Q 42.328125 -1.421875 30.609375 -1.421875 
Q 18.84375 -1.421875 12.171875 6.21875 
Q 5.515625 13.875 5.515625 27.296875 
Q 5.515625 40.765625 12.171875 48.375 
Q 18.84375 56 30.609375 56 
z
" id="DejaVuSans-111"/>
       <path d="M 48.6875 27.296875 
Q 48.6875 37.203125 44.609375 42.84375 
Q 40.53125 48.484375 33.40625 48.484375 
Q 26.265625 48.484375 22.1875 42.84375 
Q 18.109375 37.203125 18.109375 27.296875 
Q 18.109375 17.390625 22.1875 11.75 
Q 26.265625 6.109375 33.40625 6.109375 
Q 40.53125 6.109375 44.609375 11.75 
Q 48.6875 17.390625 48.6875 27.296875 
z
M 18.109375 46.390625 
Q 20.953125 51.265625 25.265625 53.625 
Q 29.59375 56 35.59375 56 
Q 45.5625 56 51.78125 48.09375 
Q 58.015625 40.1875 58.015625 27.296875 
Q 58.015625 14.40625 51.78125 6.484375 
Q 45.5625 -1.421875 35.59375 -1.421875 
Q 29.59375 -1.421875 25.265625 0.953125 
Q 20.953125 3.328125 18.109375 8.203125 
L 18.109375 0 
L 9.078125 0 
L 9.078125 75.984375 
L 18.109375 75.984375 
z
" id="DejaVuSans-98"/>
       <path d="M 9.078125 75.984375 
L 18.109375 75.984375 
L 18.109375 31.109375 
L 44.921875 54.6875 
L 56.390625 54.6875 
L 27.390625 29.109375 
L 57.625 0 
L 45.90625 0 
L 18.109375 26.703125 
L 18.109375 0 
L 9.078125 0 
z
" id="DejaVuSans-107"/>
      </defs>
      <use xlink:href="#DejaVuSans-82"/>
      <use x="64.982422" xlink:href="#DejaVuSans-101"/>
      <use x="126.505859" xlink:href="#DejaVuSans-97"/>
      <use x="187.785156" xlink:href="#DejaVuSans-108"/>
      <use x="215.568359" xlink:href="#DejaVuSans-105"/>
      <use x="243.351562" xlink:href="#DejaVuSans-115"/>
      <use x="295.451172" xlink:href="#DejaVuSans-97"/>
      <use x="356.730469" xlink:href="#DejaVuSans-116"/>
      <use x="395.939453" xlink:href="#DejaVuSans-105"/>
      <use x="423.722656" xlink:href="#DejaVuSans-111"/>
      <use x="484.904297" xlink:href="#DejaVuSans-110"/>
      <use x="548.283203" xlink:href="#DejaVuSans-115"/>
      <use x="600.382812" xlink:href="#DejaVuSans-98"/>
      <use x="663.859375" xlink:href="#DejaVuSans-101"/>
      <use x="725.382812" xlink:href="#DejaVuSans-115"/>
      <use x="777.482422" xlink:href="#DejaVuSans-107"/>
      <use x="833.642578" xlink:href="#DejaVuSans-97"/>
      <use x="894.921875" xlink:href="#DejaVuSans-116"/>
      <use x="934.130859" xlink:href="#DejaVuSans-110"/>
      <use x="997.509766" xlink:href="#DejaVuSans-105"/>
      <use x="1025.292969" xlink:href="#DejaVuSans-110"/>
      <use x="1088.671875" xlink:href="#DejaVuSans-103"/>
     </g>
    </g>
    <g id="line2d_37">
     <path d="M 81.29 59.049938 
L 102.89 59.049938 
" style="fill:none;stroke:#ff7f0e;stroke-linecap:square;stroke-width:3;"/>
    </g>
    <g id="line2d_38"/>
    <g id="text_9">
     <!-- Lagerbeskatning -->
     <g transform="translate(111.53 62.829938)scale(0.108 -0.108)">
      <defs>
       <path d="M 9.8125 72.90625 
L 19.671875 72.90625 
L 19.671875 8.296875 
L 55.171875 8.296875 
L 55.171875 0 
L 9.8125 0 
z
" id="DejaVuSans-76"/>
      </defs>
      <use xlink:href="#DejaVuSans-76"/>
      <use x="55.712891" xlink:href="#DejaVuSans-97"/>
      <use x="116.992188" xlink:href="#DejaVuSans-103"/>
      <use x="180.46875" xlink:href="#DejaVuSans-101"/>
      <use x="241.992188" xlink:href="#DejaVuSans-114"/>
      <use x="283.105469" xlink:href="#DejaVuSans-98"/>
      <use x="346.582031" xlink:href="#DejaVuSans-101"/>
      <use x="408.105469" xlink:href="#DejaVuSans-115"/>
      <use x="460.205078" xlink:href="#DejaVuSans-107"/>
      <use x="516.365234" xlink:href="#DejaVuSans-97"/>
      <use x="577.644531" xlink:href="#DejaVuSans-116"/>
      <use x="616.853516" xlink:href="#DejaVuSans-110"/>
      <use x="680.232422" xlink:href="#DejaVuSans-105"/>
      <use x="708.015625" xlink:href="#DejaVuSans-110"/>
      <use x="771.394531" xlink:href="#DejaVuSans-103"/>
     </g>
    </g>
   </g>
  </g>
  <g id="axes_2">
   <g id="patch_8">
    <path d="M 71.57 333.98 
L 419.04 333.98 
L 419.04 199.28125 
L 71.57 199.28125 
z
" style="fill:#ffffff;"/>
   </g>
   <g id="matplotlib.axis_3">
    <g id="xtick_12">
     <g id="line2d_39">
      <path clip-path="url(#p33b0e4d19f)" d="M 87.364091 333.98 
L 87.364091 199.28125 
" style="fill:none;stroke:#b0b0b0;stroke-linecap:square;stroke-width:0.8;"/>
     </g>
     <g id="line2d_40">
      <g>
       <use style="stroke:#000000;stroke-width:0.8;" x="87.364091" xlink:href="#m3551a8f3ee" y="333.98"/>
      </g>
     </g>
    </g>
    <g id="xtick_13">
     <g id="line2d_41">
      <path clip-path="url(#p33b0e4d19f)" d="M 118.952273 333.98 
L 118.952273 199.28125 
" style="fill:none;stroke:#b0b0b0;stroke-linecap:square;stroke-width:0.8;"/>
     </g>
     <g id="line2d_42">
      <g>
       <use style="stroke:#000000;stroke-width:0.8;" x="118.952273" xlink:href="#m3551a8f3ee" y="333.98"/>
      </g>
     </g>
    </g>
    <g id="xtick_14">
     <g id="line2d_43">
      <path clip-path="url(#p33b0e4d19f)" d="M 150.540455 333.98 
L 150.540455 199.28125 
" style="fill:none;stroke:#b0b0b0;stroke-linecap:square;stroke-width:0.8;"/>
     </g>
     <g id="line2d_44">
      <g>
       <use style="stroke:#000000;stroke-width:0.8;" x="150.540455" xlink:href="#m3551a8f3ee" y="333.98"/>
      </g>
     </g>
    </g>
    <g id="xtick_15">
     <g id="line2d_45">
      <path clip-path="url(#p33b0e4d19f)" d="M 182.128636 333.98 
L 182.128636 199.28125 
" style="fill:none;stroke:#b0b0b0;stroke-linecap:square;stroke-width:0.8;"/>
     </g>
     <g id="line2d_46">
      <g>
       <use style="stroke:#000000;stroke-width:0.8;" x="182.128636" xlink:href="#m3551a8f3ee" y="333.98"/>
      </g>
     </g>
    </g>
    <g id="xtick_16">
     <g id="line2d_47">
      <path clip-path="url(#p33b0e4d19f)" d="M 213.716818 333.98 
L 213.716818 199.28125 
" style="fill:none;stroke:#b0b0b0;stroke-linecap:square;stroke-width:0.8;"/>
     </g>
     <g id="line2d_48">
      <g>
       <use style="stroke:#000000;stroke-width:0.8;" x="213.716818" xlink:href="#m3551a8f3ee" y="333.98"/>
      </g>
     </g>
    </g>
    <g id="xtick_17">
     <g id="line2d_49">
      <path clip-path="url(#p33b0e4d19f)" d="M 245.305 333.98 
L 245.305 199.28125 
" style="fill:none;stroke:#b0b0b0;stroke-linecap:square;stroke-width:0.8;"/>
     </g>
     <g id="line2d_50">
      <g>
       <use style="stroke:#000000;stroke-width:0.8;" x="245.305" xlink:href="#m3551a8f3ee" y="333.98"/>
      </g>
     </g>
    </g>
    <g id="xtick_18">
     <g id="line2d_51">
      <path clip-path="url(#p33b0e4d19f)" d="M 276.893182 333.98 
L 276.893182 199.28125 
" style="fill:none;stroke:#b0b0b0;stroke-linecap:square;stroke-width:0.8;"/>
     </g>
     <g id="line2d_52">
      <g>
       <use style="stroke:#000000;stroke-width:0.8;" x="276.893182" xlink:href="#m3551a8f3ee" y="333.98"/>
      </g>
     </g>
    </g>
    <g id="xtick_19">
     <g id="line2d_53">
      <path clip-path="url(#p33b0e4d19f)" d="M 308.481364 333.98 
L 308.481364 199.28125 
" style="fill:none;stroke:#b0b0b0;stroke-linecap:square;stroke-width:0.8;"/>
     </g>
     <g id="line2d_54">
      <g>
       <use style="stroke:#000000;stroke-width:0.8;" x="308.481364" xlink:href="#m3551a8f3ee" y="333.98"/>
      </g>
     </g>
    </g>
    <g id="xtick_20">
     <g id="line2d_55">
      <path clip-path="url(#p33b0e4d19f)" d="M 340.069545 333.98 
L 340.069545 199.28125 
" style="fill:none;stroke:#b0b0b0;stroke-linecap:square;stroke-width:0.8;"/>
     </g>
     <g id="line2d_56">
      <g>
       <use style="stroke:#000000;stroke-width:0.8;" x="340.069545" xlink:href="#m3551a8f3ee" y="333.98"/>
      </g>
     </g>
    </g>
    <g id="xtick_21">
     <g id="line2d_57">
      <path clip-path="url(#p33b0e4d19f)" d="M 371.657727 333.98 
L 371.657727 199.28125 
" style="fill:none;stroke:#b0b0b0;stroke-linecap:square;stroke-width:0.8;"/>
     </g>
     <g id="line2d_58">
      <g>
       <use style="stroke:#000000;stroke-width:0.8;" x="371.657727" xlink:href="#m3551a8f3ee" y="333.98"/>
      </g>
     </g>
    </g>
    <g id="xtick_22">
     <g id="line2d_59">
      <path clip-path="url(#p33b0e4d19f)" d="M 403.245909 333.98 
L 403.245909 199.28125 
" style="fill:none;stroke:#b0b0b0;stroke-linecap:square;stroke-width:0.8;"/>
     </g>
     <g id="line2d_60">
      <g>
       <use style="stroke:#000000;stroke-width:0.8;" x="403.245909" xlink:href="#m3551a8f3ee" y="333.98"/>
      </g>
     </g>
    </g>
   </g>
   <g id="matplotlib.axis_4">
    <g id="ytick_6">
     <g id="line2d_61">
      <path clip-path="url(#p33b0e4d19f)" d="M 71.57 333.98 
L 419.04 333.98 
" style="fill:none;stroke:#b0b0b0;stroke-linecap:square;stroke-width:0.8;"/>
     </g>
     <g id="line2d_62">
      <g>
       <use style="stroke:#000000;stroke-width:0.8;" x="71.57" xlink:href="#mf6fc67094b" y="333.98"/>
      </g>
     </g>
     <g id="text_10">
      <!-- −0.1 -->
      <g transform="translate(35.430625 338.539062)scale(0.12 -0.12)">
       <use xlink:href="#DejaVuSans-8722"/>
       <use x="83.789062" xlink:href="#DejaVuSans-48"/>
       <use x="147.412109" xlink:href="#DejaVuSans-46"/>
       <use x="179.199219" xlink:href="#DejaVuSans-49"/>
      </g>
     </g>
    </g>
    <g id="ytick_7">
     <g id="line2d_63">
      <path clip-path="url(#p33b0e4d19f)" d="M 71.57 291.886641 
L 419.04 291.886641 
" style="fill:none;stroke:#b0b0b0;stroke-linecap:square;stroke-width:0.8;"/>
     </g>
     <g id="line2d_64">
      <g>
       <use style="stroke:#000000;stroke-width:0.8;" x="71.57" xlink:href="#mf6fc67094b" y="291.886641"/>
      </g>
     </g>
     <g id="text_11">
      <!-- 0.0 -->
      <g transform="translate(45.48625 296.445703)scale(0.12 -0.12)">
       <use xlink:href="#DejaVuSans-48"/>
       <use x="63.623047" xlink:href="#DejaVuSans-46"/>
       <use x="95.410156" xlink:href="#DejaVuSans-48"/>
      </g>
     </g>
    </g>
    <g id="ytick_8">
     <g id="line2d_65">
      <path clip-path="url(#p33b0e4d19f)" d="M 71.57 249.793281 
L 419.04 249.793281 
" style="fill:none;stroke:#b0b0b0;stroke-linecap:square;stroke-width:0.8;"/>
     </g>
     <g id="line2d_66">
      <g>
       <use style="stroke:#000000;stroke-width:0.8;" x="71.57" xlink:href="#mf6fc67094b" y="249.793281"/>
      </g>
     </g>
     <g id="text_12">
      <!-- 0.1 -->
      <g transform="translate(45.48625 254.352344)scale(0.12 -0.12)">
       <use xlink:href="#DejaVuSans-48"/>
       <use x="63.623047" xlink:href="#DejaVuSans-46"/>
       <use x="95.410156" xlink:href="#DejaVuSans-49"/>
      </g>
     </g>
    </g>
    <g id="ytick_9">
     <g id="line2d_67">
      <path clip-path="url(#p33b0e4d19f)" d="M 71.57 207.699922 
L 419.04 207.699922 
" style="fill:none;stroke:#b0b0b0;stroke-linecap:square;stroke-width:0.8;"/>
     </g>
     <g id="line2d_68">
      <g>
       <use style="stroke:#000000;stroke-width:0.8;" x="71.57" xlink:href="#mf6fc67094b" y="207.699922"/>
      </g>
     </g>
     <g id="text_13">
      <!-- 0.2 -->
      <g transform="translate(45.48625 212.258984)scale(0.12 -0.12)">
       <use xlink:href="#DejaVuSans-48"/>
       <use x="63.623047" xlink:href="#DejaVuSans-46"/>
       <use x="95.410156" xlink:href="#DejaVuSans-50"/>
      </g>
     </g>
    </g>
    <g id="text_14">
     <!-- CAGR -->
     <g transform="translate(28.935 283.637812)rotate(-90)scale(0.12 -0.12)">
      <use xlink:href="#DejaVuSans-67"/>
      <use x="69.824219" xlink:href="#DejaVuSans-65"/>
      <use x="136.482422" xlink:href="#DejaVuSans-71"/>
      <use x="213.972656" xlink:href="#DejaVuSans-82"/>
     </g>
    </g>
   </g>
   <g id="line2d_69">
    <path clip-path="url(#p33b0e4d19f)" d="M 87.364091 322.345837 
L 90.522909 310.035159 
L 93.681727 307.102722 
L 96.840545 305.992123 
L 99.999364 304.724885 
L 103.158182 303.278515 
L 106.317 300.411954 
L 109.475818 299.829011 
L 112.634636 298.780957 
L 115.793455 297.789543 
L 118.952273 295.541541 
L 122.111091 295.076922 
L 125.269909 294.028117 
L 128.428727 292.83287 
L 131.587545 292.02905 
L 134.746364 291.216404 
L 137.905182 289.830955 
L 141.064 288.311344 
L 144.222818 286.60607 
L 147.381636 285.58169 
L 150.540455 283.328707 
L 153.699273 282.030118 
L 156.858091 280.723592 
L 160.016909 279.212894 
L 163.175727 277.021523 
L 166.334545 275.906797 
L 169.493364 275.088649 
L 172.652182 274.216309 
L 175.811 273.39873 
L 178.969818 271.885718 
L 182.128636 271.15181 
L 185.287455 270.296812 
L 188.446273 269.522793 
L 191.605091 268.531578 
L 194.763909 267.513758 
L 197.922727 266.802137 
L 201.081545 266.225331 
L 204.240364 264.85367 
L 207.399182 264.251918 
L 210.558 263.630842 
L 213.716818 263.083974 
L 216.875636 262.739348 
L 220.034455 262.428371 
L 223.193273 262.03945 
L 226.352091 261.64624 
L 229.510909 261.179672 
L 232.669727 260.716834 
L 235.828545 260.264388 
L 238.987364 259.90139 
L 242.146182 259.543836 
L 245.305 258.890937 
L 248.463818 258.419033 
L 251.622636 258.103365 
L 254.781455 256.853884 
L 257.940273 256.053275 
L 261.099091 255.509789 
L 264.257909 255.039329 
L 267.416727 254.560939 
L 270.575545 253.970504 
L 273.734364 253.573528 
L 276.893182 253.27717 
L 280.052 252.837285 
L 283.210818 252.355598 
L 286.369636 251.943406 
L 289.528455 251.659953 
L 292.687273 251.349212 
L 295.846091 250.872169 
L 299.004909 250.489659 
L 302.163727 250.00447 
L 305.322545 249.728097 
L 308.481364 249.423264 
L 311.640182 249.105004 
L 314.799 248.409759 
L 317.957818 248.166952 
L 321.116636 247.726093 
L 324.275455 247.244279 
L 327.434273 246.832083 
L 330.593091 246.134691 
L 333.751909 245.00079 
L 336.910727 244.456784 
L 340.069545 243.814357 
L 343.228364 243.008808 
L 346.387182 242.409549 
L 349.546 241.258218 
L 352.704818 240.638614 
L 355.863636 238.975866 
L 359.022455 237.728213 
L 362.181273 236.014669 
L 365.340091 234.577496 
L 368.498909 234.036141 
L 371.657727 233.371232 
L 374.816545 232.01713 
L 377.975364 230.186479 
L 381.134182 228.722118 
L 384.293 226.465568 
L 387.451818 224.810449 
L 390.610636 222.807151 
L 393.769455 219.415405 
L 396.928273 216.497816 
L 400.087091 213.595731 
L 403.245909 205.090867 
" style="fill:none;stroke:#1f77b4;stroke-linecap:square;stroke-width:3;"/>
   </g>
   <g id="line2d_70">
    <path clip-path="url(#p33b0e4d19f)" d="M 87.364091 322.465633 
L 90.522909 310.957342 
L 93.681727 306.763627 
L 96.840545 304.178601 
L 99.999364 302.315319 
L 103.158182 301.181109 
L 106.317 299.953747 
L 109.475818 298.708091 
L 112.634636 296.746597 
L 115.793455 295.907179 
L 118.952273 294.516717 
L 122.111091 292.996554 
L 125.269909 291.286306 
L 128.428727 290.329646 
L 131.587545 289.163558 
L 134.746364 287.165624 
L 137.905182 286.51402 
L 141.064 285.437596 
L 144.222818 284.425689 
L 147.381636 282.822194 
L 150.540455 281.251379 
L 153.699273 280.090552 
L 156.858091 279.228616 
L 160.016909 278.046281 
L 163.175727 276.655778 
L 166.334545 276.021539 
L 169.493364 274.75465 
L 172.652182 274.06968 
L 175.811 273.085825 
L 178.969818 272.206536 
L 182.128636 271.439996 
L 185.287455 270.680641 
L 188.446273 269.841699 
L 191.605091 269.159055 
L 194.763909 268.145774 
L 197.922727 267.692 
L 201.081545 267.098013 
L 204.240364 265.834537 
L 207.399182 265.046105 
L 210.558 264.082611 
L 213.716818 263.445968 
L 216.875636 262.630699 
L 220.034455 262.076645 
L 223.193273 261.63398 
L 226.352091 261.155775 
L 229.510909 260.988653 
L 232.669727 260.363135 
L 235.828545 259.905079 
L 238.987364 259.271116 
L 242.146182 258.726657 
L 245.305 258.521307 
L 248.463818 257.825418 
L 251.622636 257.425182 
L 254.781455 256.95257 
L 257.940273 256.247237 
L 261.099091 255.941801 
L 264.257909 255.601193 
L 267.416727 254.947282 
L 270.575545 254.557126 
L 273.734364 254.249945 
L 276.893182 253.824781 
L 280.052 253.122139 
L 283.210818 252.599144 
L 286.369636 252.406144 
L 289.528455 252.007239 
L 292.687273 251.715347 
L 295.846091 251.330615 
L 299.004909 251.014597 
L 302.163727 250.633151 
L 305.322545 250.058392 
L 308.481364 249.645951 
L 311.640182 249.344435 
L 314.799 249.148528 
L 317.957818 248.66655 
L 321.116636 248.413067 
L 324.275455 247.84795 
L 327.434273 247.404098 
L 330.593091 246.937043 
L 333.751909 246.070757 
L 336.910727 245.06707 
L 340.069545 244.692122 
L 343.228364 244.298168 
L 346.387182 243.507592 
L 349.546 243.054935 
L 352.704818 241.963542 
L 355.863636 241.073431 
L 359.022455 239.558142 
L 362.181273 238.491531 
L 365.340091 236.891944 
L 368.498909 235.996543 
L 371.657727 235.413498 
L 374.816545 235.118686 
L 377.975364 233.373214 
L 381.134182 231.791979 
L 384.293 229.384116 
L 387.451818 227.650653 
L 390.610636 226.5204 
L 393.769455 223.846751 
L 396.928273 221.369159 
L 400.087091 218.717151 
L 403.245909 212.256911 
" style="fill:none;stroke:#ff7f0e;stroke-linecap:square;stroke-width:3;"/>
   </g>
   <g id="patch_9">
    <path d="M 71.57 333.98 
L 71.57 199.28125 
" style="fill:none;stroke:#000000;stroke-linecap:square;stroke-linejoin:miter;stroke-width:0.8;"/>
   </g>
   <g id="patch_10">
    <path d="M 419.04 333.98 
L 419.04 199.28125 
" style="fill:none;stroke:#000000;stroke-linecap:square;stroke-linejoin:miter;stroke-width:0.8;"/>
   </g>
   <g id="patch_11">
    <path d="M 71.57 333.98 
L 419.04 333.98 
" style="fill:none;stroke:#000000;stroke-linecap:square;stroke-linejoin:miter;stroke-width:0.8;"/>
   </g>
   <g id="patch_12">
    <path d="M 71.57 199.28125 
L 419.04 199.28125 
" style="fill:none;stroke:#000000;stroke-linecap:square;stroke-linejoin:miter;stroke-width:0.8;"/>
   </g>
   <g id="text_15">
    <!-- 5 år investering -->
    <g transform="translate(197.903125 193.28125)scale(0.12 -0.12)">
     <defs>
      <path d="M 10.796875 72.90625 
L 49.515625 72.90625 
L 49.515625 64.59375 
L 19.828125 64.59375 
L 19.828125 46.734375 
Q 21.96875 47.46875 24.109375 47.828125 
Q 26.265625 48.1875 28.421875 48.1875 
Q 40.625 48.1875 47.75 41.5 
Q 54.890625 34.8125 54.890625 23.390625 
Q 54.890625 11.625 47.5625 5.09375 
Q 40.234375 -1.421875 26.90625 -1.421875 
Q 22.3125 -1.421875 17.546875 -0.640625 
Q 12.796875 0.140625 7.71875 1.703125 
L 7.71875 11.625 
Q 12.109375 9.234375 16.796875 8.0625 
Q 21.484375 6.890625 26.703125 6.890625 
Q 35.15625 6.890625 40.078125 11.328125 
Q 45.015625 15.765625 45.015625 23.390625 
Q 45.015625 31 40.078125 35.4375 
Q 35.15625 39.890625 26.703125 39.890625 
Q 22.75 39.890625 18.8125 39.015625 
Q 14.890625 38.140625 10.796875 36.28125 
z
" id="DejaVuSans-53"/>
     </defs>
     <use xlink:href="#DejaVuSans-53"/>
     <use x="63.623047" xlink:href="#DejaVuSans-32"/>
     <use x="95.410156" xlink:href="#DejaVuSans-229"/>
     <use x="156.689453" xlink:href="#DejaVuSans-114"/>
     <use x="197.802734" xlink:href="#DejaVuSans-32"/>
     <use x="229.589844" xlink:href="#DejaVuSans-105"/>
     <use x="257.373047" xlink:href="#DejaVuSans-110"/>
     <use x="320.751953" xlink:href="#DejaVuSans-118"/>
     <use x="379.931641" xlink:href="#DejaVuSans-101"/>
     <use x="441.455078" xlink:href="#DejaVuSans-115"/>
     <use x="493.554688" xlink:href="#DejaVuSans-116"/>
     <use x="532.763672" xlink:href="#DejaVuSans-101"/>
     <use x="594.287109" xlink:href="#DejaVuSans-114"/>
     <use x="635.400391" xlink:href="#DejaVuSans-105"/>
     <use x="663.183594" xlink:href="#DejaVuSans-110"/>
     <use x="726.5625" xlink:href="#DejaVuSans-103"/>
    </g>
   </g>
  </g>
  <g id="axes_3">
   <g id="patch_13">
    <path d="M 71.57 504.21 
L 419.04 504.21 
L 419.04 369.51125 
L 71.57 369.51125 
z
" style="fill:#ffffff;"/>
   </g>
   <g id="matplotlib.axis_5">
    <g id="xtick_23">
     <g id="line2d_71">
      <path clip-path="url(#p95e84844d3)" d="M 87.364091 504.21 
L 87.364091 369.51125 
" style="fill:none;stroke:#b0b0b0;stroke-linecap:square;stroke-width:0.8;"/>
     </g>
     <g id="line2d_72">
      <g>
       <use style="stroke:#000000;stroke-width:0.8;" x="87.364091" xlink:href="#m3551a8f3ee" y="504.21"/>
      </g>
     </g>
    </g>
    <g id="xtick_24">
     <g id="line2d_73">
      <path clip-path="url(#p95e84844d3)" d="M 118.952273 504.21 
L 118.952273 369.51125 
" style="fill:none;stroke:#b0b0b0;stroke-linecap:square;stroke-width:0.8;"/>
     </g>
     <g id="line2d_74">
      <g>
       <use style="stroke:#000000;stroke-width:0.8;" x="118.952273" xlink:href="#m3551a8f3ee" y="504.21"/>
      </g>
     </g>
    </g>
    <g id="xtick_25">
     <g id="line2d_75">
      <path clip-path="url(#p95e84844d3)" d="M 150.540455 504.21 
L 150.540455 369.51125 
" style="fill:none;stroke:#b0b0b0;stroke-linecap:square;stroke-width:0.8;"/>
     </g>
     <g id="line2d_76">
      <g>
       <use style="stroke:#000000;stroke-width:0.8;" x="150.540455" xlink:href="#m3551a8f3ee" y="504.21"/>
      </g>
     </g>
    </g>
    <g id="xtick_26">
     <g id="line2d_77">
      <path clip-path="url(#p95e84844d3)" d="M 182.128636 504.21 
L 182.128636 369.51125 
" style="fill:none;stroke:#b0b0b0;stroke-linecap:square;stroke-width:0.8;"/>
     </g>
     <g id="line2d_78">
      <g>
       <use style="stroke:#000000;stroke-width:0.8;" x="182.128636" xlink:href="#m3551a8f3ee" y="504.21"/>
      </g>
     </g>
    </g>
    <g id="xtick_27">
     <g id="line2d_79">
      <path clip-path="url(#p95e84844d3)" d="M 213.716818 504.21 
L 213.716818 369.51125 
" style="fill:none;stroke:#b0b0b0;stroke-linecap:square;stroke-width:0.8;"/>
     </g>
     <g id="line2d_80">
      <g>
       <use style="stroke:#000000;stroke-width:0.8;" x="213.716818" xlink:href="#m3551a8f3ee" y="504.21"/>
      </g>
     </g>
    </g>
    <g id="xtick_28">
     <g id="line2d_81">
      <path clip-path="url(#p95e84844d3)" d="M 245.305 504.21 
L 245.305 369.51125 
" style="fill:none;stroke:#b0b0b0;stroke-linecap:square;stroke-width:0.8;"/>
     </g>
     <g id="line2d_82">
      <g>
       <use style="stroke:#000000;stroke-width:0.8;" x="245.305" xlink:href="#m3551a8f3ee" y="504.21"/>
      </g>
     </g>
    </g>
    <g id="xtick_29">
     <g id="line2d_83">
      <path clip-path="url(#p95e84844d3)" d="M 276.893182 504.21 
L 276.893182 369.51125 
" style="fill:none;stroke:#b0b0b0;stroke-linecap:square;stroke-width:0.8;"/>
     </g>
     <g id="line2d_84">
      <g>
       <use style="stroke:#000000;stroke-width:0.8;" x="276.893182" xlink:href="#m3551a8f3ee" y="504.21"/>
      </g>
     </g>
    </g>
    <g id="xtick_30">
     <g id="line2d_85">
      <path clip-path="url(#p95e84844d3)" d="M 308.481364 504.21 
L 308.481364 369.51125 
" style="fill:none;stroke:#b0b0b0;stroke-linecap:square;stroke-width:0.8;"/>
     </g>
     <g id="line2d_86">
      <g>
       <use style="stroke:#000000;stroke-width:0.8;" x="308.481364" xlink:href="#m3551a8f3ee" y="504.21"/>
      </g>
     </g>
    </g>
    <g id="xtick_31">
     <g id="line2d_87">
      <path clip-path="url(#p95e84844d3)" d="M 340.069545 504.21 
L 340.069545 369.51125 
" style="fill:none;stroke:#b0b0b0;stroke-linecap:square;stroke-width:0.8;"/>
     </g>
     <g id="line2d_88">
      <g>
       <use style="stroke:#000000;stroke-width:0.8;" x="340.069545" xlink:href="#m3551a8f3ee" y="504.21"/>
      </g>
     </g>
    </g>
    <g id="xtick_32">
     <g id="line2d_89">
      <path clip-path="url(#p95e84844d3)" d="M 371.657727 504.21 
L 371.657727 369.51125 
" style="fill:none;stroke:#b0b0b0;stroke-linecap:square;stroke-width:0.8;"/>
     </g>
     <g id="line2d_90">
      <g>
       <use style="stroke:#000000;stroke-width:0.8;" x="371.657727" xlink:href="#m3551a8f3ee" y="504.21"/>
      </g>
     </g>
    </g>
    <g id="xtick_33">
     <g id="line2d_91">
      <path clip-path="url(#p95e84844d3)" d="M 403.245909 504.21 
L 403.245909 369.51125 
" style="fill:none;stroke:#b0b0b0;stroke-linecap:square;stroke-width:0.8;"/>
     </g>
     <g id="line2d_92">
      <g>
       <use style="stroke:#000000;stroke-width:0.8;" x="403.245909" xlink:href="#m3551a8f3ee" y="504.21"/>
      </g>
     </g>
    </g>
   </g>
   <g id="matplotlib.axis_6">
    <g id="ytick_10">
     <g id="line2d_93">
      <path clip-path="url(#p95e84844d3)" d="M 71.57 497.795774 
L 419.04 497.795774 
" style="fill:none;stroke:#b0b0b0;stroke-linecap:square;stroke-width:0.8;"/>
     </g>
     <g id="line2d_94">
      <g>
       <use style="stroke:#000000;stroke-width:0.8;" x="71.57" xlink:href="#mf6fc67094b" y="497.795774"/>
      </g>
     </g>
     <g id="text_16">
      <!-- −0.05 -->
      <g transform="translate(27.795625 502.354836)scale(0.12 -0.12)">
       <use xlink:href="#DejaVuSans-8722"/>
       <use x="83.789062" xlink:href="#DejaVuSans-48"/>
       <use x="147.412109" xlink:href="#DejaVuSans-46"/>
       <use x="179.199219" xlink:href="#DejaVuSans-48"/>
       <use x="242.822266" xlink:href="#DejaVuSans-53"/>
      </g>
     </g>
    </g>
    <g id="ytick_11">
     <g id="line2d_95">
      <path clip-path="url(#p95e84844d3)" d="M 71.57 465.724643 
L 419.04 465.724643 
" style="fill:none;stroke:#b0b0b0;stroke-linecap:square;stroke-width:0.8;"/>
     </g>
     <g id="line2d_96">
      <g>
       <use style="stroke:#000000;stroke-width:0.8;" x="71.57" xlink:href="#mf6fc67094b" y="465.724643"/>
      </g>
     </g>
     <g id="text_17">
      <!-- 0.00 -->
      <g transform="translate(37.85125 470.283705)scale(0.12 -0.12)">
       <use xlink:href="#DejaVuSans-48"/>
       <use x="63.623047" xlink:href="#DejaVuSans-46"/>
       <use x="95.410156" xlink:href="#DejaVuSans-48"/>
       <use x="159.033203" xlink:href="#DejaVuSans-48"/>
      </g>
     </g>
    </g>
    <g id="ytick_12">
     <g id="line2d_97">
      <path clip-path="url(#p95e84844d3)" d="M 71.57 433.653512 
L 419.04 433.653512 
" style="fill:none;stroke:#b0b0b0;stroke-linecap:square;stroke-width:0.8;"/>
     </g>
     <g id="line2d_98">
      <g>
       <use style="stroke:#000000;stroke-width:0.8;" x="71.57" xlink:href="#mf6fc67094b" y="433.653512"/>
      </g>
     </g>
     <g id="text_18">
      <!-- 0.05 -->
      <g transform="translate(37.85125 438.212574)scale(0.12 -0.12)">
       <use xlink:href="#DejaVuSans-48"/>
       <use x="63.623047" xlink:href="#DejaVuSans-46"/>
       <use x="95.410156" xlink:href="#DejaVuSans-48"/>
       <use x="159.033203" xlink:href="#DejaVuSans-53"/>
      </g>
     </g>
    </g>
    <g id="ytick_13">
     <g id="line2d_99">
      <path clip-path="url(#p95e84844d3)" d="M 71.57 401.582381 
L 419.04 401.582381 
" style="fill:none;stroke:#b0b0b0;stroke-linecap:square;stroke-width:0.8;"/>
     </g>
     <g id="line2d_100">
      <g>
       <use style="stroke:#000000;stroke-width:0.8;" x="71.57" xlink:href="#mf6fc67094b" y="401.582381"/>
      </g>
     </g>
     <g id="text_19">
      <!-- 0.10 -->
      <g transform="translate(37.85125 406.141443)scale(0.12 -0.12)">
       <use xlink:href="#DejaVuSans-48"/>
       <use x="63.623047" xlink:href="#DejaVuSans-46"/>
       <use x="95.410156" xlink:href="#DejaVuSans-49"/>
       <use x="159.033203" xlink:href="#DejaVuSans-48"/>
      </g>
     </g>
    </g>
    <g id="ytick_14">
     <g id="line2d_101">
      <path clip-path="url(#p95e84844d3)" d="M 71.57 369.51125 
L 419.04 369.51125 
" style="fill:none;stroke:#b0b0b0;stroke-linecap:square;stroke-width:0.8;"/>
     </g>
     <g id="line2d_102">
      <g>
       <use style="stroke:#000000;stroke-width:0.8;" x="71.57" xlink:href="#mf6fc67094b" y="369.51125"/>
      </g>
     </g>
     <g id="text_20">
      <!-- 0.15 -->
      <g transform="translate(37.85125 374.070313)scale(0.12 -0.12)">
       <use xlink:href="#DejaVuSans-48"/>
       <use x="63.623047" xlink:href="#DejaVuSans-46"/>
       <use x="95.410156" xlink:href="#DejaVuSans-49"/>
       <use x="159.033203" xlink:href="#DejaVuSans-53"/>
      </g>
     </g>
    </g>
    <g id="text_21">
     <!-- CAGR -->
     <g transform="translate(21.3 453.867813)rotate(-90)scale(0.12 -0.12)">
      <use xlink:href="#DejaVuSans-67"/>
      <use x="69.824219" xlink:href="#DejaVuSans-65"/>
      <use x="136.482422" xlink:href="#DejaVuSans-71"/>
      <use x="213.972656" xlink:href="#DejaVuSans-82"/>
     </g>
    </g>
   </g>
   <g id="line2d_103">
    <path clip-path="url(#p95e84844d3)" d="M 87.364091 497.255173 
L 90.522909 483.744805 
L 93.681727 479.576845 
L 96.840545 476.200444 
L 99.999364 467.703366 
L 103.158182 461.565453 
L 106.317 459.174245 
L 109.475818 457.353929 
L 112.634636 456.714299 
L 115.793455 456.167768 
L 118.952273 454.794865 
L 122.111091 453.063239 
L 125.269909 451.294351 
L 128.428727 450.650452 
L 131.587545 449.725152 
L 134.746364 447.916051 
L 137.905182 446.389242 
L 141.064 443.842685 
L 144.222818 441.636491 
L 147.381636 439.604465 
L 150.540455 438.871014 
L 153.699273 438.140995 
L 156.858091 437.565373 
L 160.016909 436.739434 
L 163.175727 436.244387 
L 166.334545 435.78435 
L 169.493364 435.130898 
L 172.652182 434.800041 
L 175.811 434.262696 
L 178.969818 433.970756 
L 182.128636 433.344567 
L 185.287455 432.882851 
L 188.446273 432.400274 
L 191.605091 431.91416 
L 194.763909 431.562833 
L 197.922727 430.973038 
L 201.081545 430.558699 
L 204.240364 429.704243 
L 207.399182 429.121306 
L 210.558 427.800128 
L 213.716818 427.032228 
L 216.875636 426.311229 
L 220.034455 425.822135 
L 223.193273 424.956426 
L 226.352091 424.315284 
L 229.510909 423.652424 
L 232.669727 422.265086 
L 235.828545 421.43379 
L 238.987364 420.423873 
L 242.146182 419.918259 
L 245.305 419.161709 
L 248.463818 418.349671 
L 251.622636 417.807356 
L 254.781455 417.317593 
L 257.940273 416.955497 
L 261.099091 415.019151 
L 264.257909 414.314903 
L 267.416727 412.742645 
L 270.575545 411.657949 
L 273.734364 410.139207 
L 276.893182 408.77632 
L 280.052 407.982604 
L 283.210818 406.87762 
L 286.369636 406.170369 
L 289.528455 405.717714 
L 292.687273 404.90748 
L 295.846091 404.130878 
L 299.004909 403.767407 
L 302.163727 403.222049 
L 305.322545 402.821704 
L 308.481364 402.257256 
L 311.640182 401.897972 
L 314.799 401.453272 
L 317.957818 400.474377 
L 321.116636 400.027347 
L 324.275455 399.584558 
L 327.434273 399.27897 
L 330.593091 398.975361 
L 333.751909 398.140408 
L 336.910727 397.353028 
L 340.069545 396.465743 
L 343.228364 395.692429 
L 346.387182 395.303542 
L 349.546 395.062771 
L 352.704818 394.618494 
L 355.863636 393.750242 
L 359.022455 393.176938 
L 362.181273 392.512558 
L 365.340091 391.819474 
L 368.498909 391.32832 
L 371.657727 390.220429 
L 374.816545 388.811867 
L 377.975364 388.104057 
L 381.134182 387.219254 
L 384.293 385.784261 
L 387.451818 385.042314 
L 390.610636 384.215081 
L 393.769455 383.339364 
L 396.928273 381.773447 
L 400.087091 380.494367 
L 403.245909 377.681872 
" style="fill:none;stroke:#1f77b4;stroke-linecap:square;stroke-width:3;"/>
   </g>
   <g id="line2d_104">
    <path clip-path="url(#p95e84844d3)" d="M 87.364091 492.437544 
L 90.522909 480.846495 
L 93.681727 473.999961 
L 96.840545 470.324658 
L 99.999364 466.481112 
L 103.158182 457.927352 
L 106.317 455.172065 
L 109.475818 454.075777 
L 112.634636 452.61198 
L 115.793455 450.948379 
L 118.952273 450.100868 
L 122.111091 449.002496 
L 125.269909 447.626092 
L 128.428727 447.03079 
L 131.587545 446.121254 
L 134.746364 444.923032 
L 137.905182 443.403961 
L 141.064 441.988488 
L 144.222818 440.362134 
L 147.381636 439.193882 
L 150.540455 438.229183 
L 153.699273 437.351261 
L 156.858091 436.263843 
L 160.016909 435.550315 
L 163.175727 434.956691 
L 166.334545 434.62979 
L 169.493364 434.203291 
L 172.652182 433.850631 
L 175.811 433.43494 
L 178.969818 432.970231 
L 182.128636 432.686806 
L 185.287455 432.322839 
L 188.446273 431.991716 
L 191.605091 431.774782 
L 194.763909 431.506053 
L 197.922727 431.078648 
L 201.081545 430.670914 
L 204.240364 430.297725 
L 207.399182 429.946621 
L 210.558 429.600229 
L 213.716818 429.204055 
L 216.875636 428.788182 
L 220.034455 428.095807 
L 223.193273 427.078352 
L 226.352091 426.517031 
L 229.510909 425.618221 
L 232.669727 424.996954 
L 235.828545 424.054446 
L 238.987364 423.508142 
L 242.146182 422.70792 
L 245.305 422.011098 
L 248.463818 421.473491 
L 251.622636 420.492554 
L 254.781455 419.50349 
L 257.940273 418.952974 
L 261.099091 418.42068 
L 264.257909 417.621219 
L 267.416727 416.687873 
L 270.575545 415.024431 
L 273.734364 413.766388 
L 276.893182 412.708281 
L 280.052 411.703812 
L 283.210818 410.862416 
L 286.369636 409.655054 
L 289.528455 408.186373 
L 292.687273 407.865158 
L 295.846091 407.30739 
L 299.004909 406.811863 
L 302.163727 406.058603 
L 305.322545 405.60033 
L 308.481364 405.020414 
L 311.640182 404.600391 
L 314.799 404.095443 
L 317.957818 403.753366 
L 321.116636 403.47033 
L 324.275455 403.193611 
L 327.434273 402.722238 
L 330.593091 402.300041 
L 333.751909 401.780102 
L 336.910727 401.500545 
L 340.069545 400.728053 
L 343.228364 400.210685 
L 346.387182 399.908832 
L 349.546 399.322685 
L 352.704818 398.64803 
L 355.863636 398.217552 
L 359.022455 397.558227 
L 362.181273 397.34006 
L 365.340091 396.472662 
L 368.498909 395.96092 
L 371.657727 395.12584 
L 374.816545 394.250936 
L 377.975364 393.5551 
L 381.134182 393.098042 
L 384.293 391.817999 
L 387.451818 390.772529 
L 390.610636 389.730031 
L 393.769455 388.824616 
L 396.928273 387.848357 
L 400.087091 386.356913 
L 403.245909 384.645393 
" style="fill:none;stroke:#ff7f0e;stroke-linecap:square;stroke-width:3;"/>
   </g>
   <g id="patch_14">
    <path d="M 71.57 504.21 
L 71.57 369.51125 
" style="fill:none;stroke:#000000;stroke-linecap:square;stroke-linejoin:miter;stroke-width:0.8;"/>
   </g>
   <g id="patch_15">
    <path d="M 419.04 504.21 
L 419.04 369.51125 
" style="fill:none;stroke:#000000;stroke-linecap:square;stroke-linejoin:miter;stroke-width:0.8;"/>
   </g>
   <g id="patch_16">
    <path d="M 71.57 504.21 
L 419.04 504.21 
" style="fill:none;stroke:#000000;stroke-linecap:square;stroke-linejoin:miter;stroke-width:0.8;"/>
   </g>
   <g id="patch_17">
    <path d="M 71.57 369.51125 
L 419.04 369.51125 
" style="fill:none;stroke:#000000;stroke-linecap:square;stroke-linejoin:miter;stroke-width:0.8;"/>
   </g>
   <g id="text_22">
    <!-- 10 år investering -->
    <g transform="translate(194.085625 363.51125)scale(0.12 -0.12)">
     <use xlink:href="#DejaVuSans-49"/>
     <use x="63.623047" xlink:href="#DejaVuSans-48"/>
     <use x="127.246094" xlink:href="#DejaVuSans-32"/>
     <use x="159.033203" xlink:href="#DejaVuSans-229"/>
     <use x="220.3125" xlink:href="#DejaVuSans-114"/>
     <use x="261.425781" xlink:href="#DejaVuSans-32"/>
     <use x="293.212891" xlink:href="#DejaVuSans-105"/>
     <use x="320.996094" xlink:href="#DejaVuSans-110"/>
     <use x="384.375" xlink:href="#DejaVuSans-118"/>
     <use x="443.554688" xlink:href="#DejaVuSans-101"/>
     <use x="505.078125" xlink:href="#DejaVuSans-115"/>
     <use x="557.177734" xlink:href="#DejaVuSans-116"/>
     <use x="596.386719" xlink:href="#DejaVuSans-101"/>
     <use x="657.910156" xlink:href="#DejaVuSans-114"/>
     <use x="699.023438" xlink:href="#DejaVuSans-105"/>
     <use x="726.806641" xlink:href="#DejaVuSans-110"/>
     <use x="790.185547" xlink:href="#DejaVuSans-103"/>
    </g>
   </g>
  </g>
  <g id="axes_4">
   <g id="patch_18">
    <path d="M 71.57 674.44 
L 419.04 674.44 
L 419.04 539.74125 
L 71.57 539.74125 
z
" style="fill:#ffffff;"/>
   </g>
   <g id="matplotlib.axis_7">
    <g id="xtick_34">
     <g id="line2d_105">
      <path clip-path="url(#p27c4ed571a)" d="M 87.364091 674.44 
L 87.364091 539.74125 
" style="fill:none;stroke:#b0b0b0;stroke-linecap:square;stroke-width:0.8;"/>
     </g>
     <g id="line2d_106">
      <g>
       <use style="stroke:#000000;stroke-width:0.8;" x="87.364091" xlink:href="#m3551a8f3ee" y="674.44"/>
      </g>
     </g>
     <g id="text_23">
      <!-- 0.0 -->
      <g transform="translate(77.822216 690.558125)scale(0.12 -0.12)">
       <use xlink:href="#DejaVuSans-48"/>
       <use x="63.623047" xlink:href="#DejaVuSans-46"/>
       <use x="95.410156" xlink:href="#DejaVuSans-48"/>
      </g>
     </g>
    </g>
    <g id="xtick_35">
     <g id="line2d_107">
      <path clip-path="url(#p27c4ed571a)" d="M 118.952273 674.44 
L 118.952273 539.74125 
" style="fill:none;stroke:#b0b0b0;stroke-linecap:square;stroke-width:0.8;"/>
     </g>
     <g id="line2d_108">
      <g>
       <use style="stroke:#000000;stroke-width:0.8;" x="118.952273" xlink:href="#m3551a8f3ee" y="674.44"/>
      </g>
     </g>
     <g id="text_24">
      <!-- 0.1 -->
      <g transform="translate(109.410398 690.558125)scale(0.12 -0.12)">
       <use xlink:href="#DejaVuSans-48"/>
       <use x="63.623047" xlink:href="#DejaVuSans-46"/>
       <use x="95.410156" xlink:href="#DejaVuSans-49"/>
      </g>
     </g>
    </g>
    <g id="xtick_36">
     <g id="line2d_109">
      <path clip-path="url(#p27c4ed571a)" d="M 150.540455 674.44 
L 150.540455 539.74125 
" style="fill:none;stroke:#b0b0b0;stroke-linecap:square;stroke-width:0.8;"/>
     </g>
     <g id="line2d_110">
      <g>
       <use style="stroke:#000000;stroke-width:0.8;" x="150.540455" xlink:href="#m3551a8f3ee" y="674.44"/>
      </g>
     </g>
     <g id="text_25">
      <!-- 0.2 -->
      <g transform="translate(140.99858 690.558125)scale(0.12 -0.12)">
       <use xlink:href="#DejaVuSans-48"/>
       <use x="63.623047" xlink:href="#DejaVuSans-46"/>
       <use x="95.410156" xlink:href="#DejaVuSans-50"/>
      </g>
     </g>
    </g>
    <g id="xtick_37">
     <g id="line2d_111">
      <path clip-path="url(#p27c4ed571a)" d="M 182.128636 674.44 
L 182.128636 539.74125 
" style="fill:none;stroke:#b0b0b0;stroke-linecap:square;stroke-width:0.8;"/>
     </g>
     <g id="line2d_112">
      <g>
       <use style="stroke:#000000;stroke-width:0.8;" x="182.128636" xlink:href="#m3551a8f3ee" y="674.44"/>
      </g>
     </g>
     <g id="text_26">
      <!-- 0.3 -->
      <g transform="translate(172.586761 690.558125)scale(0.12 -0.12)">
       <defs>
        <path d="M 40.578125 39.3125 
Q 47.65625 37.796875 51.625 33 
Q 55.609375 28.21875 55.609375 21.1875 
Q 55.609375 10.40625 48.1875 4.484375 
Q 40.765625 -1.421875 27.09375 -1.421875 
Q 22.515625 -1.421875 17.65625 -0.515625 
Q 12.796875 0.390625 7.625 2.203125 
L 7.625 11.71875 
Q 11.71875 9.328125 16.59375 8.109375 
Q 21.484375 6.890625 26.8125 6.890625 
Q 36.078125 6.890625 40.9375 10.546875 
Q 45.796875 14.203125 45.796875 21.1875 
Q 45.796875 27.640625 41.28125 31.265625 
Q 36.765625 34.90625 28.71875 34.90625 
L 20.21875 34.90625 
L 20.21875 43.015625 
L 29.109375 43.015625 
Q 36.375 43.015625 40.234375 45.921875 
Q 44.09375 48.828125 44.09375 54.296875 
Q 44.09375 59.90625 40.109375 62.90625 
Q 36.140625 65.921875 28.71875 65.921875 
Q 24.65625 65.921875 20.015625 65.03125 
Q 15.375 64.15625 9.8125 62.3125 
L 9.8125 71.09375 
Q 15.4375 72.65625 20.34375 73.4375 
Q 25.25 74.21875 29.59375 74.21875 
Q 40.828125 74.21875 47.359375 69.109375 
Q 53.90625 64.015625 53.90625 55.328125 
Q 53.90625 49.265625 50.4375 45.09375 
Q 46.96875 40.921875 40.578125 39.3125 
z
" id="DejaVuSans-51"/>
       </defs>
       <use xlink:href="#DejaVuSans-48"/>
       <use x="63.623047" xlink:href="#DejaVuSans-46"/>
       <use x="95.410156" xlink:href="#DejaVuSans-51"/>
      </g>
     </g>
    </g>
    <g id="xtick_38">
     <g id="line2d_113">
      <path clip-path="url(#p27c4ed571a)" d="M 213.716818 674.44 
L 213.716818 539.74125 
" style="fill:none;stroke:#b0b0b0;stroke-linecap:square;stroke-width:0.8;"/>
     </g>
     <g id="line2d_114">
      <g>
       <use style="stroke:#000000;stroke-width:0.8;" x="213.716818" xlink:href="#m3551a8f3ee" y="674.44"/>
      </g>
     </g>
     <g id="text_27">
      <!-- 0.4 -->
      <g transform="translate(204.174943 690.558125)scale(0.12 -0.12)">
       <use xlink:href="#DejaVuSans-48"/>
       <use x="63.623047" xlink:href="#DejaVuSans-46"/>
       <use x="95.410156" xlink:href="#DejaVuSans-52"/>
      </g>
     </g>
    </g>
    <g id="xtick_39">
     <g id="line2d_115">
      <path clip-path="url(#p27c4ed571a)" d="M 245.305 674.44 
L 245.305 539.74125 
" style="fill:none;stroke:#b0b0b0;stroke-linecap:square;stroke-width:0.8;"/>
     </g>
     <g id="line2d_116">
      <g>
       <use style="stroke:#000000;stroke-width:0.8;" x="245.305" xlink:href="#m3551a8f3ee" y="674.44"/>
      </g>
     </g>
     <g id="text_28">
      <!-- 0.5 -->
      <g transform="translate(235.763125 690.558125)scale(0.12 -0.12)">
       <use xlink:href="#DejaVuSans-48"/>
       <use x="63.623047" xlink:href="#DejaVuSans-46"/>
       <use x="95.410156" xlink:href="#DejaVuSans-53"/>
      </g>
     </g>
    </g>
    <g id="xtick_40">
     <g id="line2d_117">
      <path clip-path="url(#p27c4ed571a)" d="M 276.893182 674.44 
L 276.893182 539.74125 
" style="fill:none;stroke:#b0b0b0;stroke-linecap:square;stroke-width:0.8;"/>
     </g>
     <g id="line2d_118">
      <g>
       <use style="stroke:#000000;stroke-width:0.8;" x="276.893182" xlink:href="#m3551a8f3ee" y="674.44"/>
      </g>
     </g>
     <g id="text_29">
      <!-- 0.6 -->
      <g transform="translate(267.351307 690.558125)scale(0.12 -0.12)">
       <defs>
        <path d="M 33.015625 40.375 
Q 26.375 40.375 22.484375 35.828125 
Q 18.609375 31.296875 18.609375 23.390625 
Q 18.609375 15.53125 22.484375 10.953125 
Q 26.375 6.390625 33.015625 6.390625 
Q 39.65625 6.390625 43.53125 10.953125 
Q 47.40625 15.53125 47.40625 23.390625 
Q 47.40625 31.296875 43.53125 35.828125 
Q 39.65625 40.375 33.015625 40.375 
z
M 52.59375 71.296875 
L 52.59375 62.3125 
Q 48.875 64.0625 45.09375 64.984375 
Q 41.3125 65.921875 37.59375 65.921875 
Q 27.828125 65.921875 22.671875 59.328125 
Q 17.53125 52.734375 16.796875 39.40625 
Q 19.671875 43.65625 24.015625 45.921875 
Q 28.375 48.1875 33.59375 48.1875 
Q 44.578125 48.1875 50.953125 41.515625 
Q 57.328125 34.859375 57.328125 23.390625 
Q 57.328125 12.15625 50.6875 5.359375 
Q 44.046875 -1.421875 33.015625 -1.421875 
Q 20.359375 -1.421875 13.671875 8.265625 
Q 6.984375 17.96875 6.984375 36.375 
Q 6.984375 53.65625 15.1875 63.9375 
Q 23.390625 74.21875 37.203125 74.21875 
Q 40.921875 74.21875 44.703125 73.484375 
Q 48.484375 72.75 52.59375 71.296875 
z
" id="DejaVuSans-54"/>
       </defs>
       <use xlink:href="#DejaVuSans-48"/>
       <use x="63.623047" xlink:href="#DejaVuSans-46"/>
       <use x="95.410156" xlink:href="#DejaVuSans-54"/>
      </g>
     </g>
    </g>
    <g id="xtick_41">
     <g id="line2d_119">
      <path clip-path="url(#p27c4ed571a)" d="M 308.481364 674.44 
L 308.481364 539.74125 
" style="fill:none;stroke:#b0b0b0;stroke-linecap:square;stroke-width:0.8;"/>
     </g>
     <g id="line2d_120">
      <g>
       <use style="stroke:#000000;stroke-width:0.8;" x="308.481364" xlink:href="#m3551a8f3ee" y="674.44"/>
      </g>
     </g>
     <g id="text_30">
      <!-- 0.7 -->
      <g transform="translate(298.939489 690.558125)scale(0.12 -0.12)">
       <defs>
        <path d="M 8.203125 72.90625 
L 55.078125 72.90625 
L 55.078125 68.703125 
L 28.609375 0 
L 18.3125 0 
L 43.21875 64.59375 
L 8.203125 64.59375 
z
" id="DejaVuSans-55"/>
       </defs>
       <use xlink:href="#DejaVuSans-48"/>
       <use x="63.623047" xlink:href="#DejaVuSans-46"/>
       <use x="95.410156" xlink:href="#DejaVuSans-55"/>
      </g>
     </g>
    </g>
    <g id="xtick_42">
     <g id="line2d_121">
      <path clip-path="url(#p27c4ed571a)" d="M 340.069545 674.44 
L 340.069545 539.74125 
" style="fill:none;stroke:#b0b0b0;stroke-linecap:square;stroke-width:0.8;"/>
     </g>
     <g id="line2d_122">
      <g>
       <use style="stroke:#000000;stroke-width:0.8;" x="340.069545" xlink:href="#m3551a8f3ee" y="674.44"/>
      </g>
     </g>
     <g id="text_31">
      <!-- 0.8 -->
      <g transform="translate(330.52767 690.558125)scale(0.12 -0.12)">
       <defs>
        <path d="M 31.78125 34.625 
Q 24.75 34.625 20.71875 30.859375 
Q 16.703125 27.09375 16.703125 20.515625 
Q 16.703125 13.921875 20.71875 10.15625 
Q 24.75 6.390625 31.78125 6.390625 
Q 38.8125 6.390625 42.859375 10.171875 
Q 46.921875 13.96875 46.921875 20.515625 
Q 46.921875 27.09375 42.890625 30.859375 
Q 38.875 34.625 31.78125 34.625 
z
M 21.921875 38.8125 
Q 15.578125 40.375 12.03125 44.71875 
Q 8.5 49.078125 8.5 55.328125 
Q 8.5 64.0625 14.71875 69.140625 
Q 20.953125 74.21875 31.78125 74.21875 
Q 42.671875 74.21875 48.875 69.140625 
Q 55.078125 64.0625 55.078125 55.328125 
Q 55.078125 49.078125 51.53125 44.71875 
Q 48 40.375 41.703125 38.8125 
Q 48.828125 37.15625 52.796875 32.3125 
Q 56.78125 27.484375 56.78125 20.515625 
Q 56.78125 9.90625 50.3125 4.234375 
Q 43.84375 -1.421875 31.78125 -1.421875 
Q 19.734375 -1.421875 13.25 4.234375 
Q 6.78125 9.90625 6.78125 20.515625 
Q 6.78125 27.484375 10.78125 32.3125 
Q 14.796875 37.15625 21.921875 38.8125 
z
M 18.3125 54.390625 
Q 18.3125 48.734375 21.84375 45.5625 
Q 25.390625 42.390625 31.78125 42.390625 
Q 38.140625 42.390625 41.71875 45.5625 
Q 45.3125 48.734375 45.3125 54.390625 
Q 45.3125 60.0625 41.71875 63.234375 
Q 38.140625 66.40625 31.78125 66.40625 
Q 25.390625 66.40625 21.84375 63.234375 
Q 18.3125 60.0625 18.3125 54.390625 
z
" id="DejaVuSans-56"/>
       </defs>
       <use xlink:href="#DejaVuSans-48"/>
       <use x="63.623047" xlink:href="#DejaVuSans-46"/>
       <use x="95.410156" xlink:href="#DejaVuSans-56"/>
      </g>
     </g>
    </g>
    <g id="xtick_43">
     <g id="line2d_123">
      <path clip-path="url(#p27c4ed571a)" d="M 371.657727 674.44 
L 371.657727 539.74125 
" style="fill:none;stroke:#b0b0b0;stroke-linecap:square;stroke-width:0.8;"/>
     </g>
     <g id="line2d_124">
      <g>
       <use style="stroke:#000000;stroke-width:0.8;" x="371.657727" xlink:href="#m3551a8f3ee" y="674.44"/>
      </g>
     </g>
     <g id="text_32">
      <!-- 0.9 -->
      <g transform="translate(362.115852 690.558125)scale(0.12 -0.12)">
       <defs>
        <path d="M 10.984375 1.515625 
L 10.984375 10.5 
Q 14.703125 8.734375 18.5 7.8125 
Q 22.3125 6.890625 25.984375 6.890625 
Q 35.75 6.890625 40.890625 13.453125 
Q 46.046875 20.015625 46.78125 33.40625 
Q 43.953125 29.203125 39.59375 26.953125 
Q 35.25 24.703125 29.984375 24.703125 
Q 19.046875 24.703125 12.671875 31.3125 
Q 6.296875 37.9375 6.296875 49.421875 
Q 6.296875 60.640625 12.9375 67.421875 
Q 19.578125 74.21875 30.609375 74.21875 
Q 43.265625 74.21875 49.921875 64.515625 
Q 56.59375 54.828125 56.59375 36.375 
Q 56.59375 19.140625 48.40625 8.859375 
Q 40.234375 -1.421875 26.421875 -1.421875 
Q 22.703125 -1.421875 18.890625 -0.6875 
Q 15.09375 0.046875 10.984375 1.515625 
z
M 30.609375 32.421875 
Q 37.25 32.421875 41.125 36.953125 
Q 45.015625 41.5 45.015625 49.421875 
Q 45.015625 57.28125 41.125 61.84375 
Q 37.25 66.40625 30.609375 66.40625 
Q 23.96875 66.40625 20.09375 61.84375 
Q 16.21875 57.28125 16.21875 49.421875 
Q 16.21875 41.5 20.09375 36.953125 
Q 23.96875 32.421875 30.609375 32.421875 
z
" id="DejaVuSans-57"/>
       </defs>
       <use xlink:href="#DejaVuSans-48"/>
       <use x="63.623047" xlink:href="#DejaVuSans-46"/>
       <use x="95.410156" xlink:href="#DejaVuSans-57"/>
      </g>
     </g>
    </g>
    <g id="xtick_44">
     <g id="line2d_125">
      <path clip-path="url(#p27c4ed571a)" d="M 403.245909 674.44 
L 403.245909 539.74125 
" style="fill:none;stroke:#b0b0b0;stroke-linecap:square;stroke-width:0.8;"/>
     </g>
     <g id="line2d_126">
      <g>
       <use style="stroke:#000000;stroke-width:0.8;" x="403.245909" xlink:href="#m3551a8f3ee" y="674.44"/>
      </g>
     </g>
     <g id="text_33">
      <!-- 1.0 -->
      <g transform="translate(393.704034 690.558125)scale(0.12 -0.12)">
       <use xlink:href="#DejaVuSans-49"/>
       <use x="63.623047" xlink:href="#DejaVuSans-46"/>
       <use x="95.410156" xlink:href="#DejaVuSans-48"/>
      </g>
     </g>
    </g>
    <g id="text_34">
     <!-- Fraktil -->
     <g transform="translate(226.985313 706.171875)scale(0.12 -0.12)">
      <defs>
       <path d="M 9.8125 72.90625 
L 51.703125 72.90625 
L 51.703125 64.59375 
L 19.671875 64.59375 
L 19.671875 43.109375 
L 48.578125 43.109375 
L 48.578125 34.8125 
L 19.671875 34.8125 
L 19.671875 0 
L 9.8125 0 
z
" id="DejaVuSans-70"/>
      </defs>
      <use xlink:href="#DejaVuSans-70"/>
      <use x="50.269531" xlink:href="#DejaVuSans-114"/>
      <use x="91.382812" xlink:href="#DejaVuSans-97"/>
      <use x="152.662109" xlink:href="#DejaVuSans-107"/>
      <use x="210.572266" xlink:href="#DejaVuSans-116"/>
      <use x="249.78125" xlink:href="#DejaVuSans-105"/>
      <use x="277.564453" xlink:href="#DejaVuSans-108"/>
     </g>
    </g>
   </g>
   <g id="matplotlib.axis_8">
    <g id="ytick_15">
     <g id="line2d_127">
      <path clip-path="url(#p27c4ed571a)" d="M 71.57 632.994231 
L 419.04 632.994231 
" style="fill:none;stroke:#b0b0b0;stroke-linecap:square;stroke-width:0.8;"/>
     </g>
     <g id="line2d_128">
      <g>
       <use style="stroke:#000000;stroke-width:0.8;" x="71.57" xlink:href="#mf6fc67094b" y="632.994231"/>
      </g>
     </g>
     <g id="text_35">
      <!-- 0.05 -->
      <g transform="translate(37.85125 637.553293)scale(0.12 -0.12)">
       <use xlink:href="#DejaVuSans-48"/>
       <use x="63.623047" xlink:href="#DejaVuSans-46"/>
       <use x="95.410156" xlink:href="#DejaVuSans-48"/>
       <use x="159.033203" xlink:href="#DejaVuSans-53"/>
      </g>
     </g>
    </g>
    <g id="ytick_16">
     <g id="line2d_129">
      <path clip-path="url(#p27c4ed571a)" d="M 71.57 581.187019 
L 419.04 581.187019 
" style="fill:none;stroke:#b0b0b0;stroke-linecap:square;stroke-width:0.8;"/>
     </g>
     <g id="line2d_130">
      <g>
       <use style="stroke:#000000;stroke-width:0.8;" x="71.57" xlink:href="#mf6fc67094b" y="581.187019"/>
      </g>
     </g>
     <g id="text_36">
      <!-- 0.10 -->
      <g transform="translate(37.85125 585.746082)scale(0.12 -0.12)">
       <use xlink:href="#DejaVuSans-48"/>
       <use x="63.623047" xlink:href="#DejaVuSans-46"/>
       <use x="95.410156" xlink:href="#DejaVuSans-49"/>
       <use x="159.033203" xlink:href="#DejaVuSans-48"/>
      </g>
     </g>
    </g>
    <g id="text_37">
     <!-- CAGR -->
     <g transform="translate(31.355625 624.097813)rotate(-90)scale(0.12 -0.12)">
      <use xlink:href="#DejaVuSans-67"/>
      <use x="69.824219" xlink:href="#DejaVuSans-65"/>
      <use x="136.482422" xlink:href="#DejaVuSans-71"/>
      <use x="213.972656" xlink:href="#DejaVuSans-82"/>
     </g>
    </g>
   </g>
   <g id="line2d_131">
    <path clip-path="url(#p27c4ed571a)" d="M 87.364091 651.853029 
L 90.522909 646.345797 
L 93.681727 645.618743 
L 96.840545 644.144704 
L 99.999364 642.175319 
L 103.158182 640.465028 
L 106.317 639.327166 
L 109.475818 638.441002 
L 112.634636 637.743604 
L 115.793455 637.085653 
L 118.952273 635.801944 
L 122.111091 635.081232 
L 125.269909 634.370284 
L 128.428727 633.686802 
L 131.587545 633.296146 
L 134.746364 632.813745 
L 137.905182 632.426058 
L 141.064 632.264864 
L 144.222818 631.98343 
L 147.381636 631.772397 
L 150.540455 631.330343 
L 153.699273 630.840367 
L 156.858091 630.641443 
L 160.016909 630.428777 
L 163.175727 629.648893 
L 166.334545 629.252425 
L 169.493364 629.011114 
L 172.652182 628.593576 
L 175.811 628.081037 
L 178.969818 627.581008 
L 182.128636 627.22792 
L 185.287455 626.799019 
L 188.446273 626.139399 
L 191.605091 625.798321 
L 194.763909 625.461194 
L 197.922727 624.607417 
L 201.081545 624.354824 
L 204.240364 623.532077 
L 207.399182 622.851888 
L 210.558 622.261367 
L 213.716818 621.818749 
L 216.875636 621.267306 
L 220.034455 620.82515 
L 223.193273 620.438378 
L 226.352091 619.937846 
L 229.510909 619.257795 
L 232.669727 618.527153 
L 235.828545 617.463532 
L 238.987364 616.210574 
L 242.146182 615.685591 
L 245.305 615.139815 
L 248.463818 614.378888 
L 251.622636 613.687129 
L 254.781455 611.844398 
L 257.940273 609.20993 
L 261.099091 608.19447 
L 264.257909 606.795375 
L 267.416727 606.1749 
L 270.575545 605.89114 
L 273.734364 605.501728 
L 276.893182 604.943986 
L 280.052 604.497156 
L 283.210818 603.885901 
L 286.369636 603.293997 
L 289.528455 602.619413 
L 292.687273 601.589871 
L 295.846091 601.175386 
L 299.004909 600.782186 
L 302.163727 600.136118 
L 305.322545 599.756431 
L 308.481364 599.26694 
L 311.640182 599.02272 
L 314.799 598.418937 
L 317.957818 597.78468 
L 321.116636 596.724264 
L 324.275455 595.891254 
L 327.434273 594.62222 
L 330.593091 593.643363 
L 333.751909 592.57485 
L 336.910727 591.875046 
L 340.069545 590.851393 
L 343.228364 589.653863 
L 346.387182 587.730432 
L 349.546 586.102995 
L 352.704818 585.456917 
L 355.863636 583.616642 
L 359.022455 582.330333 
L 362.181273 580.74448 
L 365.340091 578.71693 
L 368.498909 576.260433 
L 371.657727 573.364419 
L 374.816545 571.376066 
L 377.975364 570.537823 
L 381.134182 567.311368 
L 384.293 564.190695 
L 387.451818 561.466674 
L 390.610636 557.795105 
L 393.769455 555.373195 
L 396.928273 554.737106 
L 400.087091 552.821758 
L 403.245909 550.582575 
" style="fill:none;stroke:#1f77b4;stroke-linecap:square;stroke-width:3;"/>
   </g>
   <g id="line2d_132">
    <path clip-path="url(#p27c4ed571a)" d="M 87.364091 649.232934 
L 90.522909 643.767544 
L 93.681727 642.468126 
L 96.840545 642.064946 
L 99.999364 640.788199 
L 103.158182 640.252402 
L 106.317 639.3317 
L 109.475818 638.717181 
L 112.634636 637.926798 
L 115.793455 637.294256 
L 118.952273 636.749175 
L 122.111091 636.238414 
L 125.269909 635.682746 
L 128.428727 634.99916 
L 131.587545 634.663819 
L 134.746364 634.174983 
L 137.905182 633.800396 
L 141.064 633.085639 
L 144.222818 632.940441 
L 147.381636 632.601726 
L 150.540455 632.263422 
L 153.699273 631.946451 
L 156.858091 631.761676 
L 160.016909 631.391155 
L 163.175727 631.110371 
L 166.334545 631.040582 
L 169.493364 630.715341 
L 172.652182 630.545464 
L 175.811 630.344757 
L 178.969818 629.893272 
L 182.128636 629.652261 
L 185.287455 629.368218 
L 188.446273 628.802633 
L 191.605091 628.553201 
L 194.763909 628.198788 
L 197.922727 627.42956 
L 201.081545 626.86751 
L 204.240364 626.782895 
L 207.399182 626.414245 
L 210.558 625.790743 
L 213.716818 625.512136 
L 216.875636 625.015768 
L 220.034455 624.510265 
L 223.193273 624.124216 
L 226.352091 623.275207 
L 229.510909 622.464995 
L 232.669727 621.636587 
L 235.828545 620.671944 
L 238.987364 620.053745 
L 242.146182 619.347362 
L 245.305 618.334994 
L 248.463818 617.245257 
L 251.622636 616.564097 
L 254.781455 614.976431 
L 257.940273 613.98365 
L 261.099091 612.794307 
L 264.257909 611.897179 
L 267.416727 610.885015 
L 270.575545 610.434961 
L 273.734364 609.853608 
L 276.893182 609.170079 
L 280.052 609.060695 
L 283.210818 608.889162 
L 286.369636 608.581575 
L 289.528455 608.310884 
L 292.687273 607.995451 
L 295.846091 607.679823 
L 299.004909 607.443352 
L 302.163727 607.139973 
L 305.322545 606.784184 
L 308.481364 606.625 
L 311.640182 606.301467 
L 314.799 606.044206 
L 317.957818 605.708114 
L 321.116636 605.126692 
L 324.275455 604.658149 
L 327.434273 604.229191 
L 330.593091 603.859607 
L 333.751909 603.492318 
L 336.910727 602.773238 
L 340.069545 601.880563 
L 343.228364 600.819616 
L 346.387182 599.919185 
L 349.546 599.456165 
L 352.704818 597.763348 
L 355.863636 593.200265 
L 359.022455 591.416818 
L 362.181273 590.677105 
L 365.340091 589.785321 
L 368.498909 589.121959 
L 371.657727 588.417399 
L 374.816545 587.547134 
L 377.975364 584.965562 
L 381.134182 581.150195 
L 384.293 577.858911 
L 387.451818 575.662492 
L 390.610636 572.610549 
L 393.769455 571.011698 
L 396.928273 570.321027 
L 400.087091 568.955686 
L 403.245909 567.397936 
" style="fill:none;stroke:#ff7f0e;stroke-linecap:square;stroke-width:3;"/>
   </g>
   <g id="patch_19">
    <path d="M 71.57 674.44 
L 71.57 539.74125 
" style="fill:none;stroke:#000000;stroke-linecap:square;stroke-linejoin:miter;stroke-width:0.8;"/>
   </g>
   <g id="patch_20">
    <path d="M 419.04 674.44 
L 419.04 539.74125 
" style="fill:none;stroke:#000000;stroke-linecap:square;stroke-linejoin:miter;stroke-width:0.8;"/>
   </g>
   <g id="patch_21">
    <path d="M 71.57 674.44 
L 419.04 674.44 
" style="fill:none;stroke:#000000;stroke-linecap:square;stroke-linejoin:miter;stroke-width:0.8;"/>
   </g>
   <g id="patch_22">
    <path d="M 71.57 539.74125 
L 419.04 539.74125 
" style="fill:none;stroke:#000000;stroke-linecap:square;stroke-linejoin:miter;stroke-width:0.8;"/>
   </g>
   <g id="text_38">
    <!-- 20 år investering -->
    <g transform="translate(194.085625 533.74125)scale(0.12 -0.12)">
     <use xlink:href="#DejaVuSans-50"/>
     <use x="63.623047" xlink:href="#DejaVuSans-48"/>
     <use x="127.246094" xlink:href="#DejaVuSans-32"/>
     <use x="159.033203" xlink:href="#DejaVuSans-229"/>
     <use x="220.3125" xlink:href="#DejaVuSans-114"/>
     <use x="261.425781" xlink:href="#DejaVuSans-32"/>
     <use x="293.212891" xlink:href="#DejaVuSans-105"/>
     <use x="320.996094" xlink:href="#DejaVuSans-110"/>
     <use x="384.375" xlink:href="#DejaVuSans-118"/>
     <use x="443.554688" xlink:href="#DejaVuSans-101"/>
     <use x="505.078125" xlink:href="#DejaVuSans-115"/>
     <use x="557.177734" xlink:href="#DejaVuSans-116"/>
     <use x="596.386719" xlink:href="#DejaVuSans-101"/>
     <use x="657.910156" xlink:href="#DejaVuSans-114"/>
     <use x="699.023438" xlink:href="#DejaVuSans-105"/>
     <use x="726.806641" xlink:href="#DejaVuSans-110"/>
     <use x="790.185547" xlink:href="#DejaVuSans-103"/>
    </g>
   </g>
  </g>
 </g>
 <defs>
  <clipPath id="pa2cab09a4d">
   <rect height="134.69875" width="347.47" x="71.57" y="29.05125"/>
  </clipPath>
  <clipPath id="p33b0e4d19f">
   <rect height="134.69875" width="347.47" x="71.57" y="199.28125"/>
  </clipPath>
  <clipPath id="p95e84844d3">
   <rect height="134.69875" width="347.47" x="71.57" y="369.51125"/>
  </clipPath>
  <clipPath id="p27c4ed571a">
   <rect height="134.69875" width="347.47" x="71.57" y="539.74125"/>
  </clipPath>
 </defs>
</svg>
