<?xml version="1.0" encoding="utf-8" standalone="no"?>
<!DOCTYPE svg PUBLIC "-//W3C//DTD SVG 1.1//EN"
  "http://www.w3.org/Graphics/SVG/1.1/DTD/svg11.dtd">
<!-- Created with matplotlib (https://matplotlib.org/) -->
<svg height="360pt" version="1.1" viewBox="0 0 432 360" width="432pt" xmlns="http://www.w3.org/2000/svg" xmlns:xlink="http://www.w3.org/1999/xlink">
 <metadata>
  <rdf:RDF xmlns:cc="http://creativecommons.org/ns#" xmlns:dc="http://purl.org/dc/elements/1.1/" xmlns:rdf="http://www.w3.org/1999/02/22-rdf-syntax-ns#">
   <cc:Work>
    <dc:type rdf:resource="http://purl.org/dc/dcmitype/StillImage"/>
    <dc:date>2020-11-23T15:19:24.023238</dc:date>
    <dc:format>image/svg+xml</dc:format>
    <dc:creator>
     <cc:Agent>
      <dc:title>Matplotlib v3.3.2, https://matplotlib.org/</dc:title>
     </cc:Agent>
    </dc:creator>
   </cc:Work>
  </rdf:RDF>
 </metadata>
 <defs>
  <style type="text/css">*{stroke-linecap:butt;stroke-linejoin:round;}</style>
 </defs>
 <g id="figure_1">
  <g id="patch_1">
   <path d="M 0 360 
L 432 360 
L 432 0 
L 0 0 
z
" style="fill:#ffffff;"/>
  </g>
  <g id="axes_1">
   <g id="patch_2">
    <path d="M 77.042 314.44 
L 419.04 314.44 
L 419.04 17.28 
L 77.042 17.28 
z
" style="fill:#ffffff;"/>
   </g>
   <g id="matplotlib.axis_1">
    <g id="xtick_1">
     <g id="line2d_1">
      <path clip-path="url(#p44b5a4e281)" d="M 92.587364 314.44 
L 92.587364 17.28 
" style="fill:none;stroke:#b0b0b0;stroke-linecap:square;stroke-width:0.8;"/>
     </g>
     <g id="line2d_2">
      <defs>
       <path d="M 0 0 
L 0 3.5 
" id="m35d733f911" style="stroke:#000000;stroke-width:0.8;"/>
      </defs>
      <g>
       <use style="stroke:#000000;stroke-width:0.8;" x="92.587364" xlink:href="#m35d733f911" y="314.44"/>
      </g>
     </g>
     <g id="text_1">
      <!-- 0.0 -->
      <g transform="translate(83.045489 330.558125)scale(0.12 -0.12)">
       <defs>
        <path d="M 31.78125 66.40625 
Q 24.171875 66.40625 20.328125 58.90625 
Q 16.5 51.421875 16.5 36.375 
Q 16.5 21.390625 20.328125 13.890625 
Q 24.171875 6.390625 31.78125 6.390625 
Q 39.453125 6.390625 43.28125 13.890625 
Q 47.125 21.390625 47.125 36.375 
Q 47.125 51.421875 43.28125 58.90625 
Q 39.453125 66.40625 31.78125 66.40625 
z
M 31.78125 74.21875 
Q 44.046875 74.21875 50.515625 64.515625 
Q 56.984375 54.828125 56.984375 36.375 
Q 56.984375 17.96875 50.515625 8.265625 
Q 44.046875 -1.421875 31.78125 -1.421875 
Q 19.53125 -1.421875 13.0625 8.265625 
Q 6.59375 17.96875 6.59375 36.375 
Q 6.59375 54.828125 13.0625 64.515625 
Q 19.53125 74.21875 31.78125 74.21875 
z
" id="DejaVuSans-48"/>
        <path d="M 10.6875 12.40625 
L 21 12.40625 
L 21 0 
L 10.6875 0 
z
" id="DejaVuSans-46"/>
       </defs>
       <use xlink:href="#DejaVuSans-48"/>
       <use x="63.623047" xlink:href="#DejaVuSans-46"/>
       <use x="95.410156" xlink:href="#DejaVuSans-48"/>
      </g>
     </g>
    </g>
    <g id="xtick_2">
     <g id="line2d_3">
      <path clip-path="url(#p44b5a4e281)" d="M 123.678091 314.44 
L 123.678091 17.28 
" style="fill:none;stroke:#b0b0b0;stroke-linecap:square;stroke-width:0.8;"/>
     </g>
     <g id="line2d_4">
      <g>
       <use style="stroke:#000000;stroke-width:0.8;" x="123.678091" xlink:href="#m35d733f911" y="314.44"/>
      </g>
     </g>
     <g id="text_2">
      <!-- 0.1 -->
      <g transform="translate(114.136216 330.558125)scale(0.12 -0.12)">
       <defs>
        <path d="M 12.40625 8.296875 
L 28.515625 8.296875 
L 28.515625 63.921875 
L 10.984375 60.40625 
L 10.984375 69.390625 
L 28.421875 72.90625 
L 38.28125 72.90625 
L 38.28125 8.296875 
L 54.390625 8.296875 
L 54.390625 0 
L 12.40625 0 
z
" id="DejaVuSans-49"/>
       </defs>
       <use xlink:href="#DejaVuSans-48"/>
       <use x="63.623047" xlink:href="#DejaVuSans-46"/>
       <use x="95.410156" xlink:href="#DejaVuSans-49"/>
      </g>
     </g>
    </g>
    <g id="xtick_3">
     <g id="line2d_5">
      <path clip-path="url(#p44b5a4e281)" d="M 154.768818 314.44 
L 154.768818 17.28 
" style="fill:none;stroke:#b0b0b0;stroke-linecap:square;stroke-width:0.8;"/>
     </g>
     <g id="line2d_6">
      <g>
       <use style="stroke:#000000;stroke-width:0.8;" x="154.768818" xlink:href="#m35d733f911" y="314.44"/>
      </g>
     </g>
     <g id="text_3">
      <!-- 0.2 -->
      <g transform="translate(145.226943 330.558125)scale(0.12 -0.12)">
       <defs>
        <path d="M 19.1875 8.296875 
L 53.609375 8.296875 
L 53.609375 0 
L 7.328125 0 
L 7.328125 8.296875 
Q 12.9375 14.109375 22.625 23.890625 
Q 32.328125 33.6875 34.8125 36.53125 
Q 39.546875 41.84375 41.421875 45.53125 
Q 43.3125 49.21875 43.3125 52.78125 
Q 43.3125 58.59375 39.234375 62.25 
Q 35.15625 65.921875 28.609375 65.921875 
Q 23.96875 65.921875 18.8125 64.3125 
Q 13.671875 62.703125 7.8125 59.421875 
L 7.8125 69.390625 
Q 13.765625 71.78125 18.9375 73 
Q 24.125 74.21875 28.421875 74.21875 
Q 39.75 74.21875 46.484375 68.546875 
Q 53.21875 62.890625 53.21875 53.421875 
Q 53.21875 48.921875 51.53125 44.890625 
Q 49.859375 40.875 45.40625 35.40625 
Q 44.1875 33.984375 37.640625 27.21875 
Q 31.109375 20.453125 19.1875 8.296875 
z
" id="DejaVuSans-50"/>
       </defs>
       <use xlink:href="#DejaVuSans-48"/>
       <use x="63.623047" xlink:href="#DejaVuSans-46"/>
       <use x="95.410156" xlink:href="#DejaVuSans-50"/>
      </g>
     </g>
    </g>
    <g id="xtick_4">
     <g id="line2d_7">
      <path clip-path="url(#p44b5a4e281)" d="M 185.859545 314.44 
L 185.859545 17.28 
" style="fill:none;stroke:#b0b0b0;stroke-linecap:square;stroke-width:0.8;"/>
     </g>
     <g id="line2d_8">
      <g>
       <use style="stroke:#000000;stroke-width:0.8;" x="185.859545" xlink:href="#m35d733f911" y="314.44"/>
      </g>
     </g>
     <g id="text_4">
      <!-- 0.3 -->
      <g transform="translate(176.31767 330.558125)scale(0.12 -0.12)">
       <defs>
        <path d="M 40.578125 39.3125 
Q 47.65625 37.796875 51.625 33 
Q 55.609375 28.21875 55.609375 21.1875 
Q 55.609375 10.40625 48.1875 4.484375 
Q 40.765625 -1.421875 27.09375 -1.421875 
Q 22.515625 -1.421875 17.65625 -0.515625 
Q 12.796875 0.390625 7.625 2.203125 
L 7.625 11.71875 
Q 11.71875 9.328125 16.59375 8.109375 
Q 21.484375 6.890625 26.8125 6.890625 
Q 36.078125 6.890625 40.9375 10.546875 
Q 45.796875 14.203125 45.796875 21.1875 
Q 45.796875 27.640625 41.28125 31.265625 
Q 36.765625 34.90625 28.71875 34.90625 
L 20.21875 34.90625 
L 20.21875 43.015625 
L 29.109375 43.015625 
Q 36.375 43.015625 40.234375 45.921875 
Q 44.09375 48.828125 44.09375 54.296875 
Q 44.09375 59.90625 40.109375 62.90625 
Q 36.140625 65.921875 28.71875 65.921875 
Q 24.65625 65.921875 20.015625 65.03125 
Q 15.375 64.15625 9.8125 62.3125 
L 9.8125 71.09375 
Q 15.4375 72.65625 20.34375 73.4375 
Q 25.25 74.21875 29.59375 74.21875 
Q 40.828125 74.21875 47.359375 69.109375 
Q 53.90625 64.015625 53.90625 55.328125 
Q 53.90625 49.265625 50.4375 45.09375 
Q 46.96875 40.921875 40.578125 39.3125 
z
" id="DejaVuSans-51"/>
       </defs>
       <use xlink:href="#DejaVuSans-48"/>
       <use x="63.623047" xlink:href="#DejaVuSans-46"/>
       <use x="95.410156" xlink:href="#DejaVuSans-51"/>
      </g>
     </g>
    </g>
    <g id="xtick_5">
     <g id="line2d_9">
      <path clip-path="url(#p44b5a4e281)" d="M 216.950273 314.44 
L 216.950273 17.28 
" style="fill:none;stroke:#b0b0b0;stroke-linecap:square;stroke-width:0.8;"/>
     </g>
     <g id="line2d_10">
      <g>
       <use style="stroke:#000000;stroke-width:0.8;" x="216.950273" xlink:href="#m35d733f911" y="314.44"/>
      </g>
     </g>
     <g id="text_5">
      <!-- 0.4 -->
      <g transform="translate(207.408398 330.558125)scale(0.12 -0.12)">
       <defs>
        <path d="M 37.796875 64.3125 
L 12.890625 25.390625 
L 37.796875 25.390625 
z
M 35.203125 72.90625 
L 47.609375 72.90625 
L 47.609375 25.390625 
L 58.015625 25.390625 
L 58.015625 17.1875 
L 47.609375 17.1875 
L 47.609375 0 
L 37.796875 0 
L 37.796875 17.1875 
L 4.890625 17.1875 
L 4.890625 26.703125 
z
" id="DejaVuSans-52"/>
       </defs>
       <use xlink:href="#DejaVuSans-48"/>
       <use x="63.623047" xlink:href="#DejaVuSans-46"/>
       <use x="95.410156" xlink:href="#DejaVuSans-52"/>
      </g>
     </g>
    </g>
    <g id="xtick_6">
     <g id="line2d_11">
      <path clip-path="url(#p44b5a4e281)" d="M 248.041 314.44 
L 248.041 17.28 
" style="fill:none;stroke:#b0b0b0;stroke-linecap:square;stroke-width:0.8;"/>
     </g>
     <g id="line2d_12">
      <g>
       <use style="stroke:#000000;stroke-width:0.8;" x="248.041" xlink:href="#m35d733f911" y="314.44"/>
      </g>
     </g>
     <g id="text_6">
      <!-- 0.5 -->
      <g transform="translate(238.499125 330.558125)scale(0.12 -0.12)">
       <defs>
        <path d="M 10.796875 72.90625 
L 49.515625 72.90625 
L 49.515625 64.59375 
L 19.828125 64.59375 
L 19.828125 46.734375 
Q 21.96875 47.46875 24.109375 47.828125 
Q 26.265625 48.1875 28.421875 48.1875 
Q 40.625 48.1875 47.75 41.5 
Q 54.890625 34.8125 54.890625 23.390625 
Q 54.890625 11.625 47.5625 5.09375 
Q 40.234375 -1.421875 26.90625 -1.421875 
Q 22.3125 -1.421875 17.546875 -0.640625 
Q 12.796875 0.140625 7.71875 1.703125 
L 7.71875 11.625 
Q 12.109375 9.234375 16.796875 8.0625 
Q 21.484375 6.890625 26.703125 6.890625 
Q 35.15625 6.890625 40.078125 11.328125 
Q 45.015625 15.765625 45.015625 23.390625 
Q 45.015625 31 40.078125 35.4375 
Q 35.15625 39.890625 26.703125 39.890625 
Q 22.75 39.890625 18.8125 39.015625 
Q 14.890625 38.140625 10.796875 36.28125 
z
" id="DejaVuSans-53"/>
       </defs>
       <use xlink:href="#DejaVuSans-48"/>
       <use x="63.623047" xlink:href="#DejaVuSans-46"/>
       <use x="95.410156" xlink:href="#DejaVuSans-53"/>
      </g>
     </g>
    </g>
    <g id="xtick_7">
     <g id="line2d_13">
      <path clip-path="url(#p44b5a4e281)" d="M 279.131727 314.44 
L 279.131727 17.28 
" style="fill:none;stroke:#b0b0b0;stroke-linecap:square;stroke-width:0.8;"/>
     </g>
     <g id="line2d_14">
      <g>
       <use style="stroke:#000000;stroke-width:0.8;" x="279.131727" xlink:href="#m35d733f911" y="314.44"/>
      </g>
     </g>
     <g id="text_7">
      <!-- 0.6 -->
      <g transform="translate(269.589852 330.558125)scale(0.12 -0.12)">
       <defs>
        <path d="M 33.015625 40.375 
Q 26.375 40.375 22.484375 35.828125 
Q 18.609375 31.296875 18.609375 23.390625 
Q 18.609375 15.53125 22.484375 10.953125 
Q 26.375 6.390625 33.015625 6.390625 
Q 39.65625 6.390625 43.53125 10.953125 
Q 47.40625 15.53125 47.40625 23.390625 
Q 47.40625 31.296875 43.53125 35.828125 
Q 39.65625 40.375 33.015625 40.375 
z
M 52.59375 71.296875 
L 52.59375 62.3125 
Q 48.875 64.0625 45.09375 64.984375 
Q 41.3125 65.921875 37.59375 65.921875 
Q 27.828125 65.921875 22.671875 59.328125 
Q 17.53125 52.734375 16.796875 39.40625 
Q 19.671875 43.65625 24.015625 45.921875 
Q 28.375 48.1875 33.59375 48.1875 
Q 44.578125 48.1875 50.953125 41.515625 
Q 57.328125 34.859375 57.328125 23.390625 
Q 57.328125 12.15625 50.6875 5.359375 
Q 44.046875 -1.421875 33.015625 -1.421875 
Q 20.359375 -1.421875 13.671875 8.265625 
Q 6.984375 17.96875 6.984375 36.375 
Q 6.984375 53.65625 15.1875 63.9375 
Q 23.390625 74.21875 37.203125 74.21875 
Q 40.921875 74.21875 44.703125 73.484375 
Q 48.484375 72.75 52.59375 71.296875 
z
" id="DejaVuSans-54"/>
       </defs>
       <use xlink:href="#DejaVuSans-48"/>
       <use x="63.623047" xlink:href="#DejaVuSans-46"/>
       <use x="95.410156" xlink:href="#DejaVuSans-54"/>
      </g>
     </g>
    </g>
    <g id="xtick_8">
     <g id="line2d_15">
      <path clip-path="url(#p44b5a4e281)" d="M 310.222455 314.44 
L 310.222455 17.28 
" style="fill:none;stroke:#b0b0b0;stroke-linecap:square;stroke-width:0.8;"/>
     </g>
     <g id="line2d_16">
      <g>
       <use style="stroke:#000000;stroke-width:0.8;" x="310.222455" xlink:href="#m35d733f911" y="314.44"/>
      </g>
     </g>
     <g id="text_8">
      <!-- 0.7 -->
      <g transform="translate(300.68058 330.558125)scale(0.12 -0.12)">
       <defs>
        <path d="M 8.203125 72.90625 
L 55.078125 72.90625 
L 55.078125 68.703125 
L 28.609375 0 
L 18.3125 0 
L 43.21875 64.59375 
L 8.203125 64.59375 
z
" id="DejaVuSans-55"/>
       </defs>
       <use xlink:href="#DejaVuSans-48"/>
       <use x="63.623047" xlink:href="#DejaVuSans-46"/>
       <use x="95.410156" xlink:href="#DejaVuSans-55"/>
      </g>
     </g>
    </g>
    <g id="xtick_9">
     <g id="line2d_17">
      <path clip-path="url(#p44b5a4e281)" d="M 341.313182 314.44 
L 341.313182 17.28 
" style="fill:none;stroke:#b0b0b0;stroke-linecap:square;stroke-width:0.8;"/>
     </g>
     <g id="line2d_18">
      <g>
       <use style="stroke:#000000;stroke-width:0.8;" x="341.313182" xlink:href="#m35d733f911" y="314.44"/>
      </g>
     </g>
     <g id="text_9">
      <!-- 0.8 -->
      <g transform="translate(331.771307 330.558125)scale(0.12 -0.12)">
       <defs>
        <path d="M 31.78125 34.625 
Q 24.75 34.625 20.71875 30.859375 
Q 16.703125 27.09375 16.703125 20.515625 
Q 16.703125 13.921875 20.71875 10.15625 
Q 24.75 6.390625 31.78125 6.390625 
Q 38.8125 6.390625 42.859375 10.171875 
Q 46.921875 13.96875 46.921875 20.515625 
Q 46.921875 27.09375 42.890625 30.859375 
Q 38.875 34.625 31.78125 34.625 
z
M 21.921875 38.8125 
Q 15.578125 40.375 12.03125 44.71875 
Q 8.5 49.078125 8.5 55.328125 
Q 8.5 64.0625 14.71875 69.140625 
Q 20.953125 74.21875 31.78125 74.21875 
Q 42.671875 74.21875 48.875 69.140625 
Q 55.078125 64.0625 55.078125 55.328125 
Q 55.078125 49.078125 51.53125 44.71875 
Q 48 40.375 41.703125 38.8125 
Q 48.828125 37.15625 52.796875 32.3125 
Q 56.78125 27.484375 56.78125 20.515625 
Q 56.78125 9.90625 50.3125 4.234375 
Q 43.84375 -1.421875 31.78125 -1.421875 
Q 19.734375 -1.421875 13.25 4.234375 
Q 6.78125 9.90625 6.78125 20.515625 
Q 6.78125 27.484375 10.78125 32.3125 
Q 14.796875 37.15625 21.921875 38.8125 
z
M 18.3125 54.390625 
Q 18.3125 48.734375 21.84375 45.5625 
Q 25.390625 42.390625 31.78125 42.390625 
Q 38.140625 42.390625 41.71875 45.5625 
Q 45.3125 48.734375 45.3125 54.390625 
Q 45.3125 60.0625 41.71875 63.234375 
Q 38.140625 66.40625 31.78125 66.40625 
Q 25.390625 66.40625 21.84375 63.234375 
Q 18.3125 60.0625 18.3125 54.390625 
z
" id="DejaVuSans-56"/>
       </defs>
       <use xlink:href="#DejaVuSans-48"/>
       <use x="63.623047" xlink:href="#DejaVuSans-46"/>
       <use x="95.410156" xlink:href="#DejaVuSans-56"/>
      </g>
     </g>
    </g>
    <g id="xtick_10">
     <g id="line2d_19">
      <path clip-path="url(#p44b5a4e281)" d="M 372.403909 314.44 
L 372.403909 17.28 
" style="fill:none;stroke:#b0b0b0;stroke-linecap:square;stroke-width:0.8;"/>
     </g>
     <g id="line2d_20">
      <g>
       <use style="stroke:#000000;stroke-width:0.8;" x="372.403909" xlink:href="#m35d733f911" y="314.44"/>
      </g>
     </g>
     <g id="text_10">
      <!-- 0.9 -->
      <g transform="translate(362.862034 330.558125)scale(0.12 -0.12)">
       <defs>
        <path d="M 10.984375 1.515625 
L 10.984375 10.5 
Q 14.703125 8.734375 18.5 7.8125 
Q 22.3125 6.890625 25.984375 6.890625 
Q 35.75 6.890625 40.890625 13.453125 
Q 46.046875 20.015625 46.78125 33.40625 
Q 43.953125 29.203125 39.59375 26.953125 
Q 35.25 24.703125 29.984375 24.703125 
Q 19.046875 24.703125 12.671875 31.3125 
Q 6.296875 37.9375 6.296875 49.421875 
Q 6.296875 60.640625 12.9375 67.421875 
Q 19.578125 74.21875 30.609375 74.21875 
Q 43.265625 74.21875 49.921875 64.515625 
Q 56.59375 54.828125 56.59375 36.375 
Q 56.59375 19.140625 48.40625 8.859375 
Q 40.234375 -1.421875 26.421875 -1.421875 
Q 22.703125 -1.421875 18.890625 -0.6875 
Q 15.09375 0.046875 10.984375 1.515625 
z
M 30.609375 32.421875 
Q 37.25 32.421875 41.125 36.953125 
Q 45.015625 41.5 45.015625 49.421875 
Q 45.015625 57.28125 41.125 61.84375 
Q 37.25 66.40625 30.609375 66.40625 
Q 23.96875 66.40625 20.09375 61.84375 
Q 16.21875 57.28125 16.21875 49.421875 
Q 16.21875 41.5 20.09375 36.953125 
Q 23.96875 32.421875 30.609375 32.421875 
z
" id="DejaVuSans-57"/>
       </defs>
       <use xlink:href="#DejaVuSans-48"/>
       <use x="63.623047" xlink:href="#DejaVuSans-46"/>
       <use x="95.410156" xlink:href="#DejaVuSans-57"/>
      </g>
     </g>
    </g>
    <g id="xtick_11">
     <g id="line2d_21">
      <path clip-path="url(#p44b5a4e281)" d="M 403.494636 314.44 
L 403.494636 17.28 
" style="fill:none;stroke:#b0b0b0;stroke-linecap:square;stroke-width:0.8;"/>
     </g>
     <g id="line2d_22">
      <g>
       <use style="stroke:#000000;stroke-width:0.8;" x="403.494636" xlink:href="#m35d733f911" y="314.44"/>
      </g>
     </g>
     <g id="text_11">
      <!-- 1.0 -->
      <g transform="translate(393.952761 330.558125)scale(0.12 -0.12)">
       <use xlink:href="#DejaVuSans-49"/>
       <use x="63.623047" xlink:href="#DejaVuSans-46"/>
       <use x="95.410156" xlink:href="#DejaVuSans-48"/>
      </g>
     </g>
    </g>
    <g id="text_12">
     <!-- Fraktil -->
     <g transform="translate(229.721313 346.171875)scale(0.12 -0.12)">
      <defs>
       <path d="M 9.8125 72.90625 
L 51.703125 72.90625 
L 51.703125 64.59375 
L 19.671875 64.59375 
L 19.671875 43.109375 
L 48.578125 43.109375 
L 48.578125 34.8125 
L 19.671875 34.8125 
L 19.671875 0 
L 9.8125 0 
z
" id="DejaVuSans-70"/>
       <path d="M 41.109375 46.296875 
Q 39.59375 47.171875 37.8125 47.578125 
Q 36.03125 48 33.890625 48 
Q 26.265625 48 22.1875 43.046875 
Q 18.109375 38.09375 18.109375 28.8125 
L 18.109375 0 
L 9.078125 0 
L 9.078125 54.6875 
L 18.109375 54.6875 
L 18.109375 46.1875 
Q 20.953125 51.171875 25.484375 53.578125 
Q 30.03125 56 36.53125 56 
Q 37.453125 56 38.578125 55.875 
Q 39.703125 55.765625 41.0625 55.515625 
z
" id="DejaVuSans-114"/>
       <path d="M 34.28125 27.484375 
Q 23.390625 27.484375 19.1875 25 
Q 14.984375 22.515625 14.984375 16.5 
Q 14.984375 11.71875 18.140625 8.90625 
Q 21.296875 6.109375 26.703125 6.109375 
Q 34.1875 6.109375 38.703125 11.40625 
Q 43.21875 16.703125 43.21875 25.484375 
L 43.21875 27.484375 
z
M 52.203125 31.203125 
L 52.203125 0 
L 43.21875 0 
L 43.21875 8.296875 
Q 40.140625 3.328125 35.546875 0.953125 
Q 30.953125 -1.421875 24.3125 -1.421875 
Q 15.921875 -1.421875 10.953125 3.296875 
Q 6 8.015625 6 15.921875 
Q 6 25.140625 12.171875 29.828125 
Q 18.359375 34.515625 30.609375 34.515625 
L 43.21875 34.515625 
L 43.21875 35.40625 
Q 43.21875 41.609375 39.140625 45 
Q 35.0625 48.390625 27.6875 48.390625 
Q 23 48.390625 18.546875 47.265625 
Q 14.109375 46.140625 10.015625 43.890625 
L 10.015625 52.203125 
Q 14.9375 54.109375 19.578125 55.046875 
Q 24.21875 56 28.609375 56 
Q 40.484375 56 46.34375 49.84375 
Q 52.203125 43.703125 52.203125 31.203125 
z
" id="DejaVuSans-97"/>
       <path d="M 9.078125 75.984375 
L 18.109375 75.984375 
L 18.109375 31.109375 
L 44.921875 54.6875 
L 56.390625 54.6875 
L 27.390625 29.109375 
L 57.625 0 
L 45.90625 0 
L 18.109375 26.703125 
L 18.109375 0 
L 9.078125 0 
z
" id="DejaVuSans-107"/>
       <path d="M 18.3125 70.21875 
L 18.3125 54.6875 
L 36.8125 54.6875 
L 36.8125 47.703125 
L 18.3125 47.703125 
L 18.3125 18.015625 
Q 18.3125 11.328125 20.140625 9.421875 
Q 21.96875 7.515625 27.59375 7.515625 
L 36.8125 7.515625 
L 36.8125 0 
L 27.59375 0 
Q 17.1875 0 13.234375 3.875 
Q 9.28125 7.765625 9.28125 18.015625 
L 9.28125 47.703125 
L 2.6875 47.703125 
L 2.6875 54.6875 
L 9.28125 54.6875 
L 9.28125 70.21875 
z
" id="DejaVuSans-116"/>
       <path d="M 9.421875 54.6875 
L 18.40625 54.6875 
L 18.40625 0 
L 9.421875 0 
z
M 9.421875 75.984375 
L 18.40625 75.984375 
L 18.40625 64.59375 
L 9.421875 64.59375 
z
" id="DejaVuSans-105"/>
       <path d="M 9.421875 75.984375 
L 18.40625 75.984375 
L 18.40625 0 
L 9.421875 0 
z
" id="DejaVuSans-108"/>
      </defs>
      <use xlink:href="#DejaVuSans-70"/>
      <use x="50.269531" xlink:href="#DejaVuSans-114"/>
      <use x="91.382812" xlink:href="#DejaVuSans-97"/>
      <use x="152.662109" xlink:href="#DejaVuSans-107"/>
      <use x="210.572266" xlink:href="#DejaVuSans-116"/>
      <use x="249.78125" xlink:href="#DejaVuSans-105"/>
      <use x="277.564453" xlink:href="#DejaVuSans-108"/>
     </g>
    </g>
   </g>
   <g id="matplotlib.axis_2">
    <g id="ytick_1">
     <g id="line2d_23">
      <path clip-path="url(#p44b5a4e281)" d="M 77.042 314.44 
L 419.04 314.44 
" style="fill:none;stroke:#b0b0b0;stroke-linecap:square;stroke-width:0.8;"/>
     </g>
     <g id="line2d_24">
      <defs>
       <path d="M 0 0 
L -3.5 0 
" id="mdaa0be0cf4" style="stroke:#000000;stroke-width:0.8;"/>
      </defs>
      <g>
       <use style="stroke:#000000;stroke-width:0.8;" x="77.042" xlink:href="#mdaa0be0cf4" y="314.44"/>
      </g>
     </g>
     <g id="text_13">
      <!-- −0.03 -->
      <g transform="translate(33.267625 318.999062)scale(0.12 -0.12)">
       <defs>
        <path d="M 10.59375 35.5 
L 73.1875 35.5 
L 73.1875 27.203125 
L 10.59375 27.203125 
z
" id="DejaVuSans-8722"/>
       </defs>
       <use xlink:href="#DejaVuSans-8722"/>
       <use x="83.789062" xlink:href="#DejaVuSans-48"/>
       <use x="147.412109" xlink:href="#DejaVuSans-46"/>
       <use x="179.199219" xlink:href="#DejaVuSans-48"/>
       <use x="242.822266" xlink:href="#DejaVuSans-51"/>
      </g>
     </g>
    </g>
    <g id="ytick_2">
     <g id="line2d_25">
      <path clip-path="url(#p44b5a4e281)" d="M 77.042 264.913333 
L 419.04 264.913333 
" style="fill:none;stroke:#b0b0b0;stroke-linecap:square;stroke-width:0.8;"/>
     </g>
     <g id="line2d_26">
      <g>
       <use style="stroke:#000000;stroke-width:0.8;" x="77.042" xlink:href="#mdaa0be0cf4" y="264.913333"/>
      </g>
     </g>
     <g id="text_14">
      <!-- −0.02 -->
      <g transform="translate(33.267625 269.472396)scale(0.12 -0.12)">
       <use xlink:href="#DejaVuSans-8722"/>
       <use x="83.789062" xlink:href="#DejaVuSans-48"/>
       <use x="147.412109" xlink:href="#DejaVuSans-46"/>
       <use x="179.199219" xlink:href="#DejaVuSans-48"/>
       <use x="242.822266" xlink:href="#DejaVuSans-50"/>
      </g>
     </g>
    </g>
    <g id="ytick_3">
     <g id="line2d_27">
      <path clip-path="url(#p44b5a4e281)" d="M 77.042 215.386667 
L 419.04 215.386667 
" style="fill:none;stroke:#b0b0b0;stroke-linecap:square;stroke-width:0.8;"/>
     </g>
     <g id="line2d_28">
      <g>
       <use style="stroke:#000000;stroke-width:0.8;" x="77.042" xlink:href="#mdaa0be0cf4" y="215.386667"/>
      </g>
     </g>
     <g id="text_15">
      <!-- −0.01 -->
      <g transform="translate(33.267625 219.945729)scale(0.12 -0.12)">
       <use xlink:href="#DejaVuSans-8722"/>
       <use x="83.789062" xlink:href="#DejaVuSans-48"/>
       <use x="147.412109" xlink:href="#DejaVuSans-46"/>
       <use x="179.199219" xlink:href="#DejaVuSans-48"/>
       <use x="242.822266" xlink:href="#DejaVuSans-49"/>
      </g>
     </g>
    </g>
    <g id="ytick_4">
     <g id="line2d_29">
      <path clip-path="url(#p44b5a4e281)" d="M 77.042 165.86 
L 419.04 165.86 
" style="fill:none;stroke:#b0b0b0;stroke-linecap:square;stroke-width:0.8;"/>
     </g>
     <g id="line2d_30">
      <g>
       <use style="stroke:#000000;stroke-width:0.8;" x="77.042" xlink:href="#mdaa0be0cf4" y="165.86"/>
      </g>
     </g>
     <g id="text_16">
      <!-- 0.00 -->
      <g transform="translate(43.32325 170.419063)scale(0.12 -0.12)">
       <use xlink:href="#DejaVuSans-48"/>
       <use x="63.623047" xlink:href="#DejaVuSans-46"/>
       <use x="95.410156" xlink:href="#DejaVuSans-48"/>
       <use x="159.033203" xlink:href="#DejaVuSans-48"/>
      </g>
     </g>
    </g>
    <g id="ytick_5">
     <g id="line2d_31">
      <path clip-path="url(#p44b5a4e281)" d="M 77.042 116.333333 
L 419.04 116.333333 
" style="fill:none;stroke:#b0b0b0;stroke-linecap:square;stroke-width:0.8;"/>
     </g>
     <g id="line2d_32">
      <g>
       <use style="stroke:#000000;stroke-width:0.8;" x="77.042" xlink:href="#mdaa0be0cf4" y="116.333333"/>
      </g>
     </g>
     <g id="text_17">
      <!-- 0.01 -->
      <g transform="translate(43.32325 120.892396)scale(0.12 -0.12)">
       <use xlink:href="#DejaVuSans-48"/>
       <use x="63.623047" xlink:href="#DejaVuSans-46"/>
       <use x="95.410156" xlink:href="#DejaVuSans-48"/>
       <use x="159.033203" xlink:href="#DejaVuSans-49"/>
      </g>
     </g>
    </g>
    <g id="ytick_6">
     <g id="line2d_33">
      <path clip-path="url(#p44b5a4e281)" d="M 77.042 66.806667 
L 419.04 66.806667 
" style="fill:none;stroke:#b0b0b0;stroke-linecap:square;stroke-width:0.8;"/>
     </g>
     <g id="line2d_34">
      <g>
       <use style="stroke:#000000;stroke-width:0.8;" x="77.042" xlink:href="#mdaa0be0cf4" y="66.806667"/>
      </g>
     </g>
     <g id="text_18">
      <!-- 0.02 -->
      <g transform="translate(43.32325 71.365729)scale(0.12 -0.12)">
       <use xlink:href="#DejaVuSans-48"/>
       <use x="63.623047" xlink:href="#DejaVuSans-46"/>
       <use x="95.410156" xlink:href="#DejaVuSans-48"/>
       <use x="159.033203" xlink:href="#DejaVuSans-50"/>
      </g>
     </g>
    </g>
    <g id="ytick_7">
     <g id="line2d_35">
      <path clip-path="url(#p44b5a4e281)" d="M 77.042 17.28 
L 419.04 17.28 
" style="fill:none;stroke:#b0b0b0;stroke-linecap:square;stroke-width:0.8;"/>
     </g>
     <g id="line2d_36">
      <g>
       <use style="stroke:#000000;stroke-width:0.8;" x="77.042" xlink:href="#mdaa0be0cf4" y="17.28"/>
      </g>
     </g>
     <g id="text_19">
      <!-- 0.03 -->
      <g transform="translate(43.32325 21.839063)scale(0.12 -0.12)">
       <use xlink:href="#DejaVuSans-48"/>
       <use x="63.623047" xlink:href="#DejaVuSans-46"/>
       <use x="95.410156" xlink:href="#DejaVuSans-48"/>
       <use x="159.033203" xlink:href="#DejaVuSans-51"/>
      </g>
     </g>
    </g>
    <g id="text_20">
     <!-- $\mathrm{CAGR_{realtionsbeskatning}} - \mathrm{CAGR_{lagerbeskatning}}$ -->
     <g transform="translate(25.547625 283.4)rotate(-90)scale(0.12 -0.12)">
      <defs>
       <path d="M 64.40625 67.28125 
L 64.40625 56.890625 
Q 59.421875 61.53125 53.78125 63.8125 
Q 48.140625 66.109375 41.796875 66.109375 
Q 29.296875 66.109375 22.65625 58.46875 
Q 16.015625 50.828125 16.015625 36.375 
Q 16.015625 21.96875 22.65625 14.328125 
Q 29.296875 6.6875 41.796875 6.6875 
Q 48.140625 6.6875 53.78125 8.984375 
Q 59.421875 11.28125 64.40625 15.921875 
L 64.40625 5.609375 
Q 59.234375 2.09375 53.4375 0.328125 
Q 47.65625 -1.421875 41.21875 -1.421875 
Q 24.65625 -1.421875 15.125 8.703125 
Q 5.609375 18.84375 5.609375 36.375 
Q 5.609375 53.953125 15.125 64.078125 
Q 24.65625 74.21875 41.21875 74.21875 
Q 47.75 74.21875 53.53125 72.484375 
Q 59.328125 70.75 64.40625 67.28125 
z
" id="DejaVuSans-67"/>
       <path d="M 34.1875 63.1875 
L 20.796875 26.90625 
L 47.609375 26.90625 
z
M 28.609375 72.90625 
L 39.796875 72.90625 
L 67.578125 0 
L 57.328125 0 
L 50.6875 18.703125 
L 17.828125 18.703125 
L 11.1875 0 
L 0.78125 0 
z
" id="DejaVuSans-65"/>
       <path d="M 59.515625 10.40625 
L 59.515625 29.984375 
L 43.40625 29.984375 
L 43.40625 38.09375 
L 69.28125 38.09375 
L 69.28125 6.78125 
Q 63.578125 2.734375 56.6875 0.65625 
Q 49.8125 -1.421875 42 -1.421875 
Q 24.90625 -1.421875 15.25 8.5625 
Q 5.609375 18.5625 5.609375 36.375 
Q 5.609375 54.25 15.25 64.234375 
Q 24.90625 74.21875 42 74.21875 
Q 49.125 74.21875 55.546875 72.453125 
Q 61.96875 70.703125 67.390625 67.28125 
L 67.390625 56.78125 
Q 61.921875 61.421875 55.765625 63.765625 
Q 49.609375 66.109375 42.828125 66.109375 
Q 29.4375 66.109375 22.71875 58.640625 
Q 16.015625 51.171875 16.015625 36.375 
Q 16.015625 21.625 22.71875 14.15625 
Q 29.4375 6.6875 42.828125 6.6875 
Q 48.046875 6.6875 52.140625 7.59375 
Q 56.25 8.5 59.515625 10.40625 
z
" id="DejaVuSans-71"/>
       <path d="M 44.390625 34.1875 
Q 47.5625 33.109375 50.5625 29.59375 
Q 53.5625 26.078125 56.59375 19.921875 
L 66.609375 0 
L 56 0 
L 46.6875 18.703125 
Q 43.0625 26.03125 39.671875 28.421875 
Q 36.28125 30.8125 30.421875 30.8125 
L 19.671875 30.8125 
L 19.671875 0 
L 9.8125 0 
L 9.8125 72.90625 
L 32.078125 72.90625 
Q 44.578125 72.90625 50.734375 67.671875 
Q 56.890625 62.453125 56.890625 51.90625 
Q 56.890625 45.015625 53.6875 40.46875 
Q 50.484375 35.9375 44.390625 34.1875 
z
M 19.671875 64.796875 
L 19.671875 38.921875 
L 32.078125 38.921875 
Q 39.203125 38.921875 42.84375 42.21875 
Q 46.484375 45.515625 46.484375 51.90625 
Q 46.484375 58.296875 42.84375 61.546875 
Q 39.203125 64.796875 32.078125 64.796875 
z
" id="DejaVuSans-82"/>
       <path d="M 56.203125 29.59375 
L 56.203125 25.203125 
L 14.890625 25.203125 
Q 15.484375 15.921875 20.484375 11.0625 
Q 25.484375 6.203125 34.421875 6.203125 
Q 39.59375 6.203125 44.453125 7.46875 
Q 49.3125 8.734375 54.109375 11.28125 
L 54.109375 2.78125 
Q 49.265625 0.734375 44.1875 -0.34375 
Q 39.109375 -1.421875 33.890625 -1.421875 
Q 20.796875 -1.421875 13.15625 6.1875 
Q 5.515625 13.8125 5.515625 26.8125 
Q 5.515625 40.234375 12.765625 48.109375 
Q 20.015625 56 32.328125 56 
Q 43.359375 56 49.78125 48.890625 
Q 56.203125 41.796875 56.203125 29.59375 
z
M 47.21875 32.234375 
Q 47.125 39.59375 43.09375 43.984375 
Q 39.0625 48.390625 32.421875 48.390625 
Q 24.90625 48.390625 20.390625 44.140625 
Q 15.875 39.890625 15.1875 32.171875 
z
" id="DejaVuSans-101"/>
       <path d="M 30.609375 48.390625 
Q 23.390625 48.390625 19.1875 42.75 
Q 14.984375 37.109375 14.984375 27.296875 
Q 14.984375 17.484375 19.15625 11.84375 
Q 23.34375 6.203125 30.609375 6.203125 
Q 37.796875 6.203125 41.984375 11.859375 
Q 46.1875 17.53125 46.1875 27.296875 
Q 46.1875 37.015625 41.984375 42.703125 
Q 37.796875 48.390625 30.609375 48.390625 
z
M 30.609375 56 
Q 42.328125 56 49.015625 48.375 
Q 55.71875 40.765625 55.71875 27.296875 
Q 55.71875 13.875 49.015625 6.21875 
Q 42.328125 -1.421875 30.609375 -1.421875 
Q 18.84375 -1.421875 12.171875 6.21875 
Q 5.515625 13.875 5.515625 27.296875 
Q 5.515625 40.765625 12.171875 48.375 
Q 18.84375 56 30.609375 56 
z
" id="DejaVuSans-111"/>
       <path d="M 54.890625 33.015625 
L 54.890625 0 
L 45.90625 0 
L 45.90625 32.71875 
Q 45.90625 40.484375 42.875 44.328125 
Q 39.84375 48.1875 33.796875 48.1875 
Q 26.515625 48.1875 22.3125 43.546875 
Q 18.109375 38.921875 18.109375 30.90625 
L 18.109375 0 
L 9.078125 0 
L 9.078125 54.6875 
L 18.109375 54.6875 
L 18.109375 46.1875 
Q 21.34375 51.125 25.703125 53.5625 
Q 30.078125 56 35.796875 56 
Q 45.21875 56 50.046875 50.171875 
Q 54.890625 44.34375 54.890625 33.015625 
z
" id="DejaVuSans-110"/>
       <path d="M 44.28125 53.078125 
L 44.28125 44.578125 
Q 40.484375 46.53125 36.375 47.5 
Q 32.28125 48.484375 27.875 48.484375 
Q 21.1875 48.484375 17.84375 46.4375 
Q 14.5 44.390625 14.5 40.28125 
Q 14.5 37.15625 16.890625 35.375 
Q 19.28125 33.59375 26.515625 31.984375 
L 29.59375 31.296875 
Q 39.15625 29.25 43.1875 25.515625 
Q 47.21875 21.78125 47.21875 15.09375 
Q 47.21875 7.46875 41.1875 3.015625 
Q 35.15625 -1.421875 24.609375 -1.421875 
Q 20.21875 -1.421875 15.453125 -0.5625 
Q 10.6875 0.296875 5.421875 2 
L 5.421875 11.28125 
Q 10.40625 8.6875 15.234375 7.390625 
Q 20.0625 6.109375 24.8125 6.109375 
Q 31.15625 6.109375 34.5625 8.28125 
Q 37.984375 10.453125 37.984375 14.40625 
Q 37.984375 18.0625 35.515625 20.015625 
Q 33.0625 21.96875 24.703125 23.78125 
L 21.578125 24.515625 
Q 13.234375 26.265625 9.515625 29.90625 
Q 5.8125 33.546875 5.8125 39.890625 
Q 5.8125 47.609375 11.28125 51.796875 
Q 16.75 56 26.8125 56 
Q 31.78125 56 36.171875 55.265625 
Q 40.578125 54.546875 44.28125 53.078125 
z
" id="DejaVuSans-115"/>
       <path d="M 48.6875 27.296875 
Q 48.6875 37.203125 44.609375 42.84375 
Q 40.53125 48.484375 33.40625 48.484375 
Q 26.265625 48.484375 22.1875 42.84375 
Q 18.109375 37.203125 18.109375 27.296875 
Q 18.109375 17.390625 22.1875 11.75 
Q 26.265625 6.109375 33.40625 6.109375 
Q 40.53125 6.109375 44.609375 11.75 
Q 48.6875 17.390625 48.6875 27.296875 
z
M 18.109375 46.390625 
Q 20.953125 51.265625 25.265625 53.625 
Q 29.59375 56 35.59375 56 
Q 45.5625 56 51.78125 48.09375 
Q 58.015625 40.1875 58.015625 27.296875 
Q 58.015625 14.40625 51.78125 6.484375 
Q 45.5625 -1.421875 35.59375 -1.421875 
Q 29.59375 -1.421875 25.265625 0.953125 
Q 20.953125 3.328125 18.109375 8.203125 
L 18.109375 0 
L 9.078125 0 
L 9.078125 75.984375 
L 18.109375 75.984375 
z
" id="DejaVuSans-98"/>
       <path d="M 45.40625 27.984375 
Q 45.40625 37.75 41.375 43.109375 
Q 37.359375 48.484375 30.078125 48.484375 
Q 22.859375 48.484375 18.828125 43.109375 
Q 14.796875 37.75 14.796875 27.984375 
Q 14.796875 18.265625 18.828125 12.890625 
Q 22.859375 7.515625 30.078125 7.515625 
Q 37.359375 7.515625 41.375 12.890625 
Q 45.40625 18.265625 45.40625 27.984375 
z
M 54.390625 6.78125 
Q 54.390625 -7.171875 48.1875 -13.984375 
Q 42 -20.796875 29.203125 -20.796875 
Q 24.46875 -20.796875 20.265625 -20.09375 
Q 16.0625 -19.390625 12.109375 -17.921875 
L 12.109375 -9.1875 
Q 16.0625 -11.328125 19.921875 -12.34375 
Q 23.78125 -13.375 27.78125 -13.375 
Q 36.625 -13.375 41.015625 -8.765625 
Q 45.40625 -4.15625 45.40625 5.171875 
L 45.40625 9.625 
Q 42.625 4.78125 38.28125 2.390625 
Q 33.9375 0 27.875 0 
Q 17.828125 0 11.671875 7.65625 
Q 5.515625 15.328125 5.515625 27.984375 
Q 5.515625 40.671875 11.671875 48.328125 
Q 17.828125 56 27.875 56 
Q 33.9375 56 38.28125 53.609375 
Q 42.625 51.21875 45.40625 46.390625 
L 45.40625 54.6875 
L 54.390625 54.6875 
z
" id="DejaVuSans-103"/>
      </defs>
      <use transform="translate(0 0.78125)" xlink:href="#DejaVuSans-67"/>
      <use transform="translate(69.824219 0.78125)" xlink:href="#DejaVuSans-65"/>
      <use transform="translate(138.232422 0.78125)" xlink:href="#DejaVuSans-71"/>
      <use transform="translate(215.722656 0.78125)" xlink:href="#DejaVuSans-82"/>
      <use transform="translate(286.162109 -15.625)scale(0.7)" xlink:href="#DejaVuSans-114"/>
      <use transform="translate(314.941406 -15.625)scale(0.7)" xlink:href="#DejaVuSans-101"/>
      <use transform="translate(358.007812 -15.625)scale(0.7)" xlink:href="#DejaVuSans-97"/>
      <use transform="translate(400.90332 -15.625)scale(0.7)" xlink:href="#DejaVuSans-108"/>
      <use transform="translate(420.351562 -15.625)scale(0.7)" xlink:href="#DejaVuSans-116"/>
      <use transform="translate(447.797852 -15.625)scale(0.7)" xlink:href="#DejaVuSans-105"/>
      <use transform="translate(467.246094 -15.625)scale(0.7)" xlink:href="#DejaVuSans-111"/>
      <use transform="translate(510.073242 -15.625)scale(0.7)" xlink:href="#DejaVuSans-110"/>
      <use transform="translate(554.438477 -15.625)scale(0.7)" xlink:href="#DejaVuSans-115"/>
      <use transform="translate(590.908203 -15.625)scale(0.7)" xlink:href="#DejaVuSans-98"/>
      <use transform="translate(635.341797 -15.625)scale(0.7)" xlink:href="#DejaVuSans-101"/>
      <use transform="translate(678.408203 -15.625)scale(0.7)" xlink:href="#DejaVuSans-115"/>
      <use transform="translate(714.87793 -15.625)scale(0.7)" xlink:href="#DejaVuSans-107"/>
      <use transform="translate(755.415039 -15.625)scale(0.7)" xlink:href="#DejaVuSans-97"/>
      <use transform="translate(798.310547 -15.625)scale(0.7)" xlink:href="#DejaVuSans-116"/>
      <use transform="translate(825.756836 -15.625)scale(0.7)" xlink:href="#DejaVuSans-110"/>
      <use transform="translate(870.12207 -15.625)scale(0.7)" xlink:href="#DejaVuSans-105"/>
      <use transform="translate(889.570312 -15.625)scale(0.7)" xlink:href="#DejaVuSans-110"/>
      <use transform="translate(933.935547 -15.625)scale(0.7)" xlink:href="#DejaVuSans-103"/>
      <use transform="translate(1000.585938 0.78125)" xlink:href="#DejaVuSans-8722"/>
      <use transform="translate(1103.857422 0.78125)" xlink:href="#DejaVuSans-67"/>
      <use transform="translate(1173.681641 0.78125)" xlink:href="#DejaVuSans-65"/>
      <use transform="translate(1242.089844 0.78125)" xlink:href="#DejaVuSans-71"/>
      <use transform="translate(1319.580078 0.78125)" xlink:href="#DejaVuSans-82"/>
      <use transform="translate(1390.019531 -15.625)scale(0.7)" xlink:href="#DejaVuSans-108"/>
      <use transform="translate(1409.467773 -15.625)scale(0.7)" xlink:href="#DejaVuSans-97"/>
      <use transform="translate(1452.363281 -15.625)scale(0.7)" xlink:href="#DejaVuSans-103"/>
      <use transform="translate(1496.796875 -15.625)scale(0.7)" xlink:href="#DejaVuSans-101"/>
      <use transform="translate(1539.863281 -15.625)scale(0.7)" xlink:href="#DejaVuSans-114"/>
      <use transform="translate(1568.642578 -15.625)scale(0.7)" xlink:href="#DejaVuSans-98"/>
      <use transform="translate(1613.076172 -15.625)scale(0.7)" xlink:href="#DejaVuSans-101"/>
      <use transform="translate(1656.142578 -15.625)scale(0.7)" xlink:href="#DejaVuSans-115"/>
      <use transform="translate(1692.612305 -15.625)scale(0.7)" xlink:href="#DejaVuSans-107"/>
      <use transform="translate(1733.149414 -15.625)scale(0.7)" xlink:href="#DejaVuSans-97"/>
      <use transform="translate(1776.044922 -15.625)scale(0.7)" xlink:href="#DejaVuSans-116"/>
      <use transform="translate(1803.491211 -15.625)scale(0.7)" xlink:href="#DejaVuSans-110"/>
      <use transform="translate(1847.856445 -15.625)scale(0.7)" xlink:href="#DejaVuSans-105"/>
      <use transform="translate(1867.304688 -15.625)scale(0.7)" xlink:href="#DejaVuSans-110"/>
      <use transform="translate(1911.669922 -15.625)scale(0.7)" xlink:href="#DejaVuSans-103"/>
     </g>
    </g>
   </g>
   <g id="line2d_37">
    <path clip-path="url(#p44b5a4e281)" d="M 92.587364 244.478329 
L 95.696436 222.767518 
L 98.805509 215.311452 
L 101.914582 211.41552 
L 105.023655 209.300536 
L 108.132727 207.111011 
L 111.2418 205.408132 
L 114.350873 203.111981 
L 117.459945 200.778474 
L 120.569018 198.021411 
L 123.678091 195.046496 
L 126.787164 193.637457 
L 129.896236 190.016484 
L 133.005309 187.481518 
L 136.114382 185.944114 
L 139.223455 184.232032 
L 142.332527 182.112927 
L 145.4416 181.023495 
L 148.550673 178.6656 
L 151.659745 177.295194 
L 154.768818 176.723922 
L 157.877891 175.049133 
L 160.986964 174.090592 
L 164.096036 173.478316 
L 167.205109 172.709757 
L 170.314182 172.254275 
L 173.423255 172.030421 
L 176.532327 171.731934 
L 179.6414 171.443678 
L 182.750473 171.110287 
L 185.859545 170.857474 
L 188.968618 170.571218 
L 192.077691 170.300146 
L 195.186764 170.194224 
L 198.295836 170.101197 
L 201.404909 169.922389 
L 204.513982 169.803874 
L 207.623055 169.451148 
L 210.732127 169.271762 
L 213.8412 168.961566 
L 216.950273 168.876682 
L 220.059345 168.811918 
L 223.168418 168.720321 
L 226.277491 168.694758 
L 229.386564 168.669426 
L 232.495636 168.644833 
L 235.604709 168.625902 
L 238.713782 168.618535 
L 241.822855 168.608808 
L 244.931927 168.604529 
L 248.041 168.558873 
L 251.150073 168.517756 
L 254.259145 168.503962 
L 257.368218 168.481049 
L 260.477291 168.444602 
L 263.586364 168.402672 
L 266.695436 168.362832 
L 269.804509 168.32327 
L 272.913582 168.281815 
L 276.022655 168.246351 
L 279.131727 168.210887 
L 282.2408 168.122364 
L 285.349873 168.035216 
L 288.458945 167.938608 
L 291.568018 167.880532 
L 294.677091 167.831017 
L 297.786164 167.706937 
L 300.895236 167.592941 
L 304.004309 167.478178 
L 307.113382 167.418341 
L 310.222455 167.291619 
L 313.331527 167.003134 
L 316.4406 166.430321 
L 319.549673 165.68094 
L 322.658745 164.893584 
L 325.767818 163.276944 
L 328.876891 161.863216 
L 331.985964 156.7313 
L 335.095036 153.1515 
L 338.204109 152.017094 
L 341.313182 150.825265 
L 344.422255 149.239929 
L 347.531327 148.112448 
L 350.6404 146.231896 
L 353.749473 142.358128 
L 356.858545 139.181461 
L 359.967618 137.085182 
L 363.076691 133.735466 
L 366.185764 130.843899 
L 369.294836 127.364044 
L 372.403909 124.157095 
L 375.512982 119.186981 
L 378.622055 114.989497 
L 381.731127 107.020799 
L 384.8402 102.868354 
L 387.949273 98.79054 
L 391.058345 90.629811 
L 394.167418 84.037246 
L 397.276491 76.213272 
L 400.385564 63.997237 
L 403.494636 23.150001 
" style="fill:none;stroke:#1f77b4;stroke-linecap:square;stroke-opacity:0.7;stroke-width:4;"/>
   </g>
   <g id="line2d_38">
    <path clip-path="url(#p44b5a4e281)" d="M 92.587364 261.670821 
L 95.696436 241.252844 
L 98.805509 232.409904 
L 101.914582 222.789886 
L 105.023655 218.903343 
L 108.132727 215.116043 
L 111.2418 212.741846 
L 114.350873 210.371336 
L 117.459945 205.538526 
L 120.569018 202.38255 
L 123.678091 197.94971 
L 126.787164 194.252259 
L 129.896236 192.092101 
L 133.005309 190.600794 
L 136.114382 189.051775 
L 139.223455 186.303869 
L 142.332527 185.452562 
L 145.4416 184.530301 
L 148.550673 184.03546 
L 151.659745 183.656828 
L 154.768818 183.234683 
L 157.877891 182.672547 
L 160.986964 182.019451 
L 164.096036 181.468153 
L 167.205109 181.230727 
L 170.314182 180.542324 
L 173.423255 179.930135 
L 176.532327 179.595886 
L 179.6414 179.11669 
L 182.750473 178.80802 
L 185.859545 178.153952 
L 188.968618 177.834219 
L 192.077691 177.58678 
L 195.186764 177.155346 
L 198.295836 176.465117 
L 201.404909 176.170709 
L 204.513982 175.825199 
L 207.623055 175.495578 
L 210.732127 174.887621 
L 213.8412 174.235118 
L 216.950273 173.786581 
L 220.059345 173.095053 
L 223.168418 172.734627 
L 226.277491 172.16395 
L 229.386564 171.282046 
L 232.495636 170.837539 
L 235.604709 170.45143 
L 238.713782 169.930577 
L 241.822855 169.338101 
L 244.931927 168.859047 
L 248.041 168.250225 
L 251.150073 167.964741 
L 254.259145 167.447694 
L 257.368218 166.898035 
L 260.477291 165.839779 
L 263.586364 164.945731 
L 266.695436 164.36907 
L 269.804509 163.521629 
L 272.913582 162.585417 
L 276.022655 161.415932 
L 279.131727 160.950481 
L 282.2408 159.90072 
L 285.349873 158.723632 
L 288.458945 157.840618 
L 291.568018 156.973453 
L 294.677091 155.835761 
L 297.786164 154.663823 
L 300.895236 153.287459 
L 304.004309 152.406028 
L 307.113382 150.926099 
L 310.222455 149.097822 
L 313.331527 147.445069 
L 316.4406 146.409936 
L 319.549673 145.909755 
L 322.658745 144.784122 
L 325.767818 143.196968 
L 328.876891 142.795901 
L 331.985964 141.799956 
L 335.095036 140.328824 
L 338.204109 138.692013 
L 341.313182 137.658643 
L 344.422255 136.990743 
L 347.531327 135.642196 
L 350.6404 133.671352 
L 353.749473 132.510326 
L 356.858545 130.868663 
L 359.967618 129.802431 
L 363.076691 126.59707 
L 366.185764 124.86559 
L 369.294836 122.94456 
L 372.403909 120.461055 
L 375.512982 118.032726 
L 378.622055 115.49297 
L 381.731127 112.442383 
L 384.8402 109.218151 
L 387.949273 106.177984 
L 391.058345 101.44891 
L 394.167418 94.676703 
L 397.276491 85.881641 
L 400.385564 77.444984 
L 403.494636 25.30783 
" style="fill:none;stroke:#ff7f0e;stroke-linecap:square;stroke-opacity:0.8;stroke-width:4;"/>
   </g>
   <g id="line2d_39">
    <path clip-path="url(#p44b5a4e281)" d="M 92.587364 224.325566 
L 95.696436 216.937841 
L 98.805509 213.69206 
L 101.914582 210.600665 
L 105.023655 207.493647 
L 108.132727 204.998727 
L 111.2418 203.389105 
L 114.350873 200.849216 
L 117.459945 198.194628 
L 120.569018 195.431073 
L 123.678091 193.562906 
L 126.787164 192.209473 
L 129.896236 190.210405 
L 133.005309 188.001484 
L 136.114382 186.052728 
L 139.223455 184.617516 
L 142.332527 183.218736 
L 145.4416 182.247007 
L 148.550673 181.275615 
L 151.659745 180.712431 
L 154.768818 180.071431 
L 157.877891 179.541656 
L 160.986964 179.099047 
L 164.096036 178.344445 
L 167.205109 178.08066 
L 170.314182 177.528332 
L 173.423255 177.038491 
L 176.532327 176.56287 
L 179.6414 176.083059 
L 182.750473 175.524949 
L 185.859545 174.985073 
L 188.968618 174.622642 
L 192.077691 173.968061 
L 195.186764 173.531911 
L 198.295836 172.935931 
L 201.404909 172.364906 
L 204.513982 171.619673 
L 207.623055 170.9747 
L 210.732127 170.044064 
L 213.8412 168.973644 
L 216.950273 167.736138 
L 220.059345 166.905777 
L 223.168418 165.87314 
L 226.277491 165.104373 
L 229.386564 164.333987 
L 232.495636 162.967946 
L 235.604709 161.215576 
L 238.713782 160.112066 
L 241.822855 159.679909 
L 244.931927 159.121202 
L 248.041 157.900885 
L 251.150073 156.476556 
L 254.259145 155.244356 
L 257.368218 153.404655 
L 260.477291 152.36345 
L 263.586364 151.939052 
L 266.695436 151.632213 
L 269.804509 150.86187 
L 272.913582 149.442843 
L 276.022655 148.32133 
L 279.131727 147.394491 
L 282.2408 146.533285 
L 285.349873 146.082459 
L 288.458945 144.479388 
L 291.568018 142.866784 
L 294.677091 141.51544 
L 297.786164 140.648806 
L 300.895236 139.769548 
L 304.004309 138.79812 
L 307.113382 137.512717 
L 310.222455 136.646803 
L 313.331527 135.844044 
L 316.4406 134.522888 
L 319.549673 133.411884 
L 322.658745 132.564539 
L 325.767818 132.02279 
L 328.876891 130.750915 
L 331.985964 129.9592 
L 335.095036 128.558309 
L 338.204109 127.630456 
L 341.313182 126.864395 
L 344.422255 126.332063 
L 347.531327 125.605649 
L 350.6404 124.608999 
L 353.749473 123.784591 
L 356.858545 123.102522 
L 359.967618 122.638823 
L 363.076691 120.98811 
L 366.185764 119.440136 
L 369.294836 117.916113 
L 372.403909 115.068751 
L 375.512982 112.01786 
L 378.622055 109.840879 
L 381.731127 107.207415 
L 384.8402 102.562926 
L 387.949273 99.95123 
L 391.058345 98.94565 
L 394.167418 92.897807 
L 397.276491 75.760935 
L 400.385564 57.699765 
L 403.494636 46.928203 
" style="fill:none;stroke:#2ca02c;stroke-linecap:square;stroke-opacity:0.9;stroke-width:4;"/>
   </g>
   <g id="line2d_40">
    <path clip-path="url(#p44b5a4e281)" d="M 92.587364 184.697692 
L 95.696436 182.721829 
L 98.805509 181.455023 
L 101.914582 180.455951 
L 105.023655 178.472834 
L 108.132727 177.508925 
L 111.2418 176.284927 
L 114.350873 175.633973 
L 117.459945 175.167606 
L 120.569018 174.081027 
L 123.678091 173.480723 
L 126.787164 172.929073 
L 129.896236 172.483927 
L 133.005309 172.163455 
L 136.114382 171.655823 
L 139.223455 171.416008 
L 142.332527 170.633007 
L 145.4416 169.833693 
L 148.550673 169.169534 
L 151.659745 168.455943 
L 154.768818 167.583214 
L 157.877891 166.855877 
L 160.986964 166.45455 
L 164.096036 165.978752 
L 167.205109 165.236719 
L 170.314182 164.744573 
L 173.423255 164.450999 
L 176.532327 163.83229 
L 179.6414 163.32749 
L 182.750473 162.753656 
L 185.859545 161.444168 
L 188.968618 160.947076 
L 192.077691 160.051864 
L 195.186764 158.658514 
L 198.295836 157.438371 
L 201.404909 156.267491 
L 204.513982 155.532518 
L 207.623055 154.704693 
L 210.732127 153.905424 
L 213.8412 153.268217 
L 216.950273 151.762046 
L 220.059345 151.115932 
L 223.168418 150.529839 
L 226.277491 149.601922 
L 229.386564 148.523083 
L 232.495636 147.814697 
L 235.604709 146.918795 
L 238.713782 146.62612 
L 241.822855 145.961247 
L 244.931927 145.69714 
L 248.041 144.86953 
L 251.150073 144.382816 
L 254.259145 143.650101 
L 257.368218 143.017917 
L 260.477291 142.379372 
L 263.586364 142.004468 
L 266.695436 140.082702 
L 269.804509 138.731811 
L 272.913582 137.693406 
L 276.022655 137.272605 
L 279.131727 136.859661 
L 282.2408 136.170693 
L 285.349873 135.216605 
L 288.458945 134.599771 
L 291.568018 133.68376 
L 294.677091 132.230456 
L 297.786164 130.79438 
L 300.895236 130.043614 
L 304.004309 129.36953 
L 307.113382 128.833908 
L 310.222455 127.420728 
L 313.331527 126.865264 
L 316.4406 125.415618 
L 319.549673 124.182371 
L 322.658745 122.26449 
L 325.767818 121.345667 
L 328.876891 119.805186 
L 331.985964 118.794876 
L 335.095036 118.042648 
L 338.204109 117.364129 
L 341.313182 115.690204 
L 344.422255 113.495534 
L 347.531327 110.93085 
L 350.6404 109.087961 
L 353.749473 106.991561 
L 356.858545 103.282863 
L 359.967618 101.88044 
L 363.076691 100.164651 
L 366.185764 98.224553 
L 369.294836 96.997818 
L 372.403909 95.102318 
L 375.512982 92.97445 
L 378.622055 91.80038 
L 381.731127 90.122111 
L 384.8402 88.901483 
L 387.949273 86.990228 
L 391.058345 84.543497 
L 394.167418 81.299527 
L 397.276491 77.788831 
L 400.385564 67.745851 
L 403.494636 50.46628 
" style="fill:none;stroke:#d62728;stroke-linecap:square;stroke-width:4;"/>
   </g>
   <g id="patch_3">
    <path d="M 77.042 314.44 
L 77.042 17.28 
" style="fill:none;stroke:#000000;stroke-linecap:square;stroke-linejoin:miter;stroke-width:0.8;"/>
   </g>
   <g id="patch_4">
    <path d="M 419.04 314.44 
L 419.04 17.28 
" style="fill:none;stroke:#000000;stroke-linecap:square;stroke-linejoin:miter;stroke-width:0.8;"/>
   </g>
   <g id="patch_5">
    <path d="M 77.042 314.44 
L 419.04 314.44 
" style="fill:none;stroke:#000000;stroke-linecap:square;stroke-linejoin:miter;stroke-width:0.8;"/>
   </g>
   <g id="patch_6">
    <path d="M 77.042 17.28 
L 419.04 17.28 
" style="fill:none;stroke:#000000;stroke-linecap:square;stroke-linejoin:miter;stroke-width:0.8;"/>
   </g>
   <g id="legend_1">
    <g id="patch_7">
     <path d="M 84.602 89.3295 
L 147.395563 89.3295 
Q 149.555563 89.3295 149.555563 87.1695 
L 149.555563 24.84 
Q 149.555563 22.68 147.395563 22.68 
L 84.602 22.68 
Q 82.442 22.68 82.442 24.84 
L 82.442 87.1695 
Q 82.442 89.3295 84.602 89.3295 
z
" style="fill:#ffffff;opacity:0.8;stroke:#cccccc;stroke-linejoin:miter;"/>
    </g>
    <g id="line2d_41">
     <path d="M 86.762 31.426312 
L 108.362 31.426312 
" style="fill:none;stroke:#1f77b4;stroke-linecap:square;stroke-opacity:0.7;stroke-width:4;"/>
    </g>
    <g id="line2d_42"/>
    <g id="text_21">
     <!-- 1 år -->
     <g transform="translate(117.002 35.206312)scale(0.108 -0.108)">
      <defs>
       <path id="DejaVuSans-32"/>
       <path d="M 34.28125 27.484375 
Q 23.390625 27.484375 19.1875 25 
Q 14.984375 22.515625 14.984375 16.5 
Q 14.984375 11.71875 18.140625 8.90625 
Q 21.296875 6.109375 26.703125 6.109375 
Q 34.1875 6.109375 38.703125 11.40625 
Q 43.21875 16.703125 43.21875 25.484375 
L 43.21875 27.484375 
z
M 52.203125 31.203125 
L 52.203125 0 
L 43.21875 0 
L 43.21875 8.296875 
Q 40.140625 3.328125 35.546875 0.953125 
Q 30.953125 -1.421875 24.3125 -1.421875 
Q 15.921875 -1.421875 10.953125 3.296875 
Q 6 8.015625 6 15.921875 
Q 6 25.140625 12.171875 29.828125 
Q 18.359375 34.515625 30.609375 34.515625 
L 43.21875 34.515625 
L 43.21875 35.40625 
Q 43.21875 41.609375 39.140625 45 
Q 35.0625 48.390625 27.6875 48.390625 
Q 23 48.390625 18.546875 47.265625 
Q 14.109375 46.140625 10.015625 43.890625 
L 10.015625 52.203125 
Q 14.9375 54.109375 19.578125 55.046875 
Q 24.21875 56 28.609375 56 
Q 40.484375 56 46.34375 49.84375 
Q 52.203125 43.703125 52.203125 31.203125 
z
M 36.421875 74.421875 
Q 36.421875 77.484375 34.265625 79.625 
Q 32.125 81.78125 29 81.78125 
Q 25.828125 81.78125 23.703125 79.65625 
Q 21.578125 77.546875 21.578125 74.421875 
Q 21.578125 71.234375 23.703125 69.109375 
Q 25.828125 67 29 67 
Q 32.125 67 34.265625 69.140625 
Q 36.421875 71.296875 36.421875 74.421875 
z
M 42.390625 74.421875 
Q 42.390625 68.796875 38.5 64.890625 
Q 34.625 60.984375 29 60.984375 
Q 23.390625 60.984375 19.5 64.890625 
Q 15.625 68.796875 15.625 74.421875 
Q 15.625 80.03125 19.5 83.90625 
Q 23.390625 87.796875 29 87.796875 
Q 34.625 87.796875 38.5 83.90625 
Q 42.390625 80.03125 42.390625 74.421875 
z
" id="DejaVuSans-229"/>
      </defs>
      <use xlink:href="#DejaVuSans-49"/>
      <use x="63.623047" xlink:href="#DejaVuSans-32"/>
      <use x="95.410156" xlink:href="#DejaVuSans-229"/>
      <use x="156.689453" xlink:href="#DejaVuSans-114"/>
     </g>
    </g>
    <g id="line2d_43">
     <path d="M 86.762 47.278687 
L 108.362 47.278687 
" style="fill:none;stroke:#ff7f0e;stroke-linecap:square;stroke-opacity:0.8;stroke-width:4;"/>
    </g>
    <g id="line2d_44"/>
    <g id="text_22">
     <!-- 5 år -->
     <g transform="translate(117.002 51.058687)scale(0.108 -0.108)">
      <use xlink:href="#DejaVuSans-53"/>
      <use x="63.623047" xlink:href="#DejaVuSans-32"/>
      <use x="95.410156" xlink:href="#DejaVuSans-229"/>
      <use x="156.689453" xlink:href="#DejaVuSans-114"/>
     </g>
    </g>
    <g id="line2d_45">
     <path d="M 86.762 63.131062 
L 108.362 63.131062 
" style="fill:none;stroke:#2ca02c;stroke-linecap:square;stroke-opacity:0.9;stroke-width:4;"/>
    </g>
    <g id="line2d_46"/>
    <g id="text_23">
     <!-- 10 år -->
     <g transform="translate(117.002 66.911062)scale(0.108 -0.108)">
      <use xlink:href="#DejaVuSans-49"/>
      <use x="63.623047" xlink:href="#DejaVuSans-48"/>
      <use x="127.246094" xlink:href="#DejaVuSans-32"/>
      <use x="159.033203" xlink:href="#DejaVuSans-229"/>
      <use x="220.3125" xlink:href="#DejaVuSans-114"/>
     </g>
    </g>
    <g id="line2d_47">
     <path d="M 86.762 78.983437 
L 108.362 78.983437 
" style="fill:none;stroke:#d62728;stroke-linecap:square;stroke-width:4;"/>
    </g>
    <g id="line2d_48"/>
    <g id="text_24">
     <!-- 20 år -->
     <g transform="translate(117.002 82.763437)scale(0.108 -0.108)">
      <use xlink:href="#DejaVuSans-50"/>
      <use x="63.623047" xlink:href="#DejaVuSans-48"/>
      <use x="127.246094" xlink:href="#DejaVuSans-32"/>
      <use x="159.033203" xlink:href="#DejaVuSans-229"/>
      <use x="220.3125" xlink:href="#DejaVuSans-114"/>
     </g>
    </g>
   </g>
  </g>
 </g>
 <defs>
  <clipPath id="p44b5a4e281">
   <rect height="297.16" width="341.998" x="77.042" y="17.28"/>
  </clipPath>
 </defs>
</svg>
